<svg id="Layer_1" data-name="Layer 1" xmlns="http://www.w3.org/2000/svg" viewBox="0 0 92.95 58.43"><path d="M70,77c-.52-.13-1.27-.27-2.23-.56L66.15,76c-.57-.2-1.19-.38-1.84-.58l-2.08-.76c-.73-.34-1.49-.6-2.28-1l-1.2-.58-1.24-.69c-.42-.23-.84-.48-1.27-.75s-.86-.52-1.3-.84a42.69,42.69,0,0,1-5.39-4.31c-.91-.88-1.83-1.77-2.75-2.76-.47-.49-.93-1-1.39-1.52s-.94-1-1.4-1.59c-1.87-2.18-3.77-4.53-5.74-6.86-1-1.14-2-2.27-3-3.33-.52-.53-1-1.05-1.58-1.51l-.81-.7L32,47.61A9,9,0,0,0,31.2,47a8.4,8.4,0,0,0-.84-.53L29.52,46c-.29-.14-.59-.26-.89-.38l-.44-.19-.39-.11L27,45.12l-1.63-.23c-.27,0-.54-.08-.81-.09h-.8c-.53,0-1,0-1.57.05l-1.52.23a6.58,6.58,0,0,0-.75.14l-.73.21a22.62,22.62,0,0,0-5.38,2.33A31,31,0,0,0,9.41,51a36.1,36.1,0,0,0-3.22,3.17c-.88,1-1.54,1.84-2,2.43s-.67,1-.67,1l.76-.46c.5-.32,1.24-.68,2.17-1.17s2.07-1,3.38-1.48l1-.39,1.06-.34c.73-.27,1.5-.42,2.3-.65l1.23-.24a8.63,8.63,0,0,1,1.27-.21L18,52.43c.44,0,.89,0,1.34,0a24,24,0,0,1,2.79.11c.47.06,1,.18,1.43.25l.72.12c.24,0,.48.15.72.22l1.46.44.72.3.39.16.33.19c.22.13.44.26.67.38l.7.48a7.74,7.74,0,0,1,.7.51,8.58,8.58,0,0,1,.7.56A49.73,49.73,0,0,1,36.35,62c1.92,2.22,3.86,4.61,5.87,6.7,1,1.08,2,2.09,3,3a37.51,37.51,0,0,0,3,2.52,26.07,26.07,0,0,0,5.95,3.4A20.79,20.79,0,0,0,59.65,79c.42.06.83.07,1.23.09l1.18,0c.77,0,1.49-.06,2.17-.14s1.32-.19,1.9-.3,1.12-.28,1.6-.41l.69-.19.6-.22.94-.37.78-.32Z" transform="translate(-3.53 -20.73)"/><path d="M89.88,57.7c-.31.2-.7.41-1.15.68l-.74.37a8,8,0,0,1-.83.42,26.86,26.86,0,0,1-9.79,2.47,32.68,32.68,0,0,1-6.54-.28,27.44,27.44,0,0,1-3.53-.74l-.94-.29-.91-.25c-.61-.17-1.23-.38-1.85-.6a34.48,34.48,0,0,1-3.74-1.63,38.73,38.73,0,0,1-3.76-2.21,50.55,50.55,0,0,1-7.45-6.22C46.2,47,43.8,44.24,41.37,41.51c-1.22-1.39-2.44-2.75-3.68-4A37.34,37.34,0,0,0,33.89,34,16.11,16.11,0,0,0,30,31.59,10.21,10.21,0,0,0,28,31a8.18,8.18,0,0,0-2-.11,23.3,23.3,0,0,0-6.83,1.6,29.48,29.48,0,0,0-5.61,3A35.75,35.75,0,0,0,9.39,38.9a34.5,34.5,0,0,0-2.56,2.71C6.25,42.28,6,42.7,6,42.7s.33-.23,1-.6,1.55-.86,2.73-1.42a32.25,32.25,0,0,1,9.79-2.83,26.4,26.4,0,0,1,6.52,0,9.29,9.29,0,0,1,1.63.42,9.4,9.4,0,0,1,1.65.77,19.44,19.44,0,0,1,3.34,2.57C33.7,42.72,34.83,44,36,45.28s2.31,2.77,3.51,4.21c2.38,2.91,4.88,5.83,7.48,8.43a42.62,42.62,0,0,0,8,6.38c.68.42,1.36.79,2,1.14s1.36.64,2,.91a25.11,25.11,0,0,0,4,1.28q1,.21,2,.36l1.9.24a21.66,21.66,0,0,0,3.76.09A25.79,25.79,0,0,0,77.59,67a26.15,26.15,0,0,0,5.64-2.74,27.43,27.43,0,0,0,4.18-3.29A29.23,29.23,0,0,0,90,58.19l.87-1.11Z" transform="translate(-3.53 -20.73)"/><path d="M90,53.33c-.53,0-1.31,0-2.29,0s-2.18-.08-3.55-.18-2.89-.25-4.56-.5a50.08,50.08,0,0,1-11.23-2.92l-.76-.31-.76-.33c-.51-.22-1-.45-1.53-.71s-1-.51-1.54-.82-1-.54-1.55-.88a38.28,38.28,0,0,1-6.08-4.58c-.49-.47-1-.92-1.47-1.4l-1.4-1.49c-.49-.6-1-1.18-1.48-1.76l-1.48-1.72L48.82,34c-.5-.56-1-1-1.54-1.55s-1-1-1.53-1.5-1-.87-1.54-1.3l-1.52-1.24c-.51-.38-1-.7-1.52-1l-1.49-1-1.48-.78c-.48-.23-1-.51-1.43-.7l-1.41-.54a19.07,19.07,0,0,0-2.68-.79,10,10,0,0,0-1.27-.23l-1.21-.15c-.79-.05-1.54-.05-2.24,0a15.48,15.48,0,0,0-3.61.65l-.71.22c-.21.08-.42.19-.61.27a10,10,0,0,0-1,.46,5.63,5.63,0,0,0-.79.48s.29,0,.82.05a15.06,15.06,0,0,1,2.27.38c.49.09,1,.27,1.61.42s1.21.41,1.88.64,1.37.56,2.11.92l1.13.57a10,10,0,0,1,1.18.65c.79.5,1.63.91,2.47,1.55l1.29.88c.44.29.87.68,1.32,1s.89.7,1.34,1.06l1.36,1.21,1.38,1.25,1.39,1.4c.46.48.94.93,1.4,1.44l1.4,1.59c.46.54.94,1,1.41,1.62l1.39,1.76,1.45,1.82c.49.62,1,1.23,1.46,1.83L53,49.08c.54.56,1.08,1.07,1.62,1.6a32,32,0,0,0,6.67,4.73,22.7,22.7,0,0,0,3.35,1.48c.55.22,1.1.4,1.64.56s1.1.31,1.63.43a27.55,27.55,0,0,0,6.23.7A29.2,29.2,0,0,0,79.65,58a31.36,31.36,0,0,0,8.17-2.85c1-.5,1.72-1,2.24-1.3s.78-.54.78-.54Z" transform="translate(-3.53 -20.73)"/><path d="M96.4,51.49a8.76,8.76,0,0,0-.29-.88,13.78,13.78,0,0,0-1.42-2.71,17.34,17.34,0,0,0-2.55-3,20.91,20.91,0,0,0-3.52-2.68l-1-.58-1-.52-1.09-.5-1.12-.43A23.68,23.68,0,0,0,82,39.44a24.82,24.82,0,0,0-2.45-.54l-1.26-.19c-.43-.06-.86-.09-1.29-.14l-1.28-.1-1.27-.07A16.22,16.22,0,0,1,72,38.09l-1.24-.25-1.24-.33c-.83-.28-1.66-.54-2.49-.87s-1.65-.69-2.46-1.07c-.41-.18-.82-.38-1.22-.59s-.81-.42-1.2-.64c-.8-.42-1.59-.88-2.36-1.34-1.56-.92-3-1.91-4.46-2.88-.71-.49-1.4-1-2.07-1.45l-1.92-1.41-1.77-1.35L48,24.67l-2.61-2.08-2.28-1.86s.16.33.49.92.8,1.44,1.43,2.46,1.4,2.24,2.31,3.55c.45.66.94,1.34,1.46,2.05s1.07,1.43,1.65,2.15,1.19,1.49,1.83,2.22,1.31,1.49,2,2.21a55.88,55.88,0,0,0,4.45,4.24c.79.65,1.59,1.29,2.42,1.9.41.31.83.59,1.25.87s.84.56,1.27.81a23.93,23.93,0,0,0,2.62,1.42c.44.2.88.42,1.33.61l1.35.5,1.36.4c.45.12.91.21,1.36.31a16.94,16.94,0,0,0,2.74.26l.66,0,.64,0c.42,0,.86,0,1.27,0l2.44,0h2.37l2.27.06,2.14.13,2,.21a23.59,23.59,0,0,1,3.48.73,12.05,12.05,0,0,1,2.64,1.1A6.73,6.73,0,0,1,96,51.07a4.88,4.88,0,0,1,.4.53,1.15,1.15,0,0,1,.12.23A2.12,2.12,0,0,0,96.4,51.49Z" transform="translate(-3.53 -20.73)"/></svg>