<svg xmlns="http://www.w3.org/2000/svg" viewBox="0 0 294.11 58.9"><defs><style>.aeb_eqt_cls-1{font-size:31.8px;fill:#595a5a;font-family:CenturyGothic, Century Gothic;}.aeb_eqt_cls-2{fill:#c66f84;}.aeb_eqt_cls-3{fill:#a0d9d5;}.aeb_eqt_cls-4{fill:#dd9bae;stroke:#fff;stroke-miterlimit:10;stroke-width:0.5px;}</style></defs><g id="Layer_2" data-name="Layer 2"><g id="Layer_1-2" data-name="Layer 1"><text class="aeb_eqt_cls-1" transform="translate(148.13 40.22)">-</text><path class="aeb_eqt_cls-2" d="M1.29,12.57H6.61v1H2.35v3.33H6.61v1H2.35v5.2H1.29Z" transform="translate(-0.69)"/><path class="aeb_eqt_cls-2" d="M8.45,12.57H9.51v9.59H13.6v1H8.45Z" transform="translate(-0.69)"/><path class="aeb_eqt_cls-2" d="M20.33,12.31a5.49,5.49,0,0,1,4,1.6,5.36,5.36,0,0,1,1.63,4,5.53,5.53,0,0,1-5.57,5.58,5.42,5.42,0,0,1-4-1.62,5.3,5.3,0,0,1-1.62-3.9,5.6,5.6,0,0,1,.74-2.84,5.32,5.32,0,0,1,2-2A5.4,5.4,0,0,1,20.33,12.31Zm.05,1A4.5,4.5,0,0,0,16.5,15.6a4.58,4.58,0,0,0-.6,2.32,4.46,4.46,0,0,0,4.48,4.5,4.52,4.52,0,0,0,2.28-.6,4.31,4.31,0,0,0,1.64-1.64,4.62,4.62,0,0,0,.59-2.31,4.5,4.5,0,0,0-.59-2.28A4.36,4.36,0,0,0,22.64,14,4.46,4.46,0,0,0,20.38,13.34Z" transform="translate(-0.69)"/><path class="aeb_eqt_cls-2" d="M33.17,12.31a5.5,5.5,0,0,1,4,1.6,5.4,5.4,0,0,1,1.63,4,5.61,5.61,0,0,1-9.56,4,5.3,5.3,0,0,1-1.62-3.9,5.69,5.69,0,0,1,.73-2.84,5.48,5.48,0,0,1,4.79-2.78Zm0,1A4.35,4.35,0,0,0,31,14a4.5,4.5,0,0,0-1.65,1.65,4.68,4.68,0,0,0-.59,2.32,4.46,4.46,0,0,0,4.47,4.5,4.53,4.53,0,0,0,2.29-.6,4.31,4.31,0,0,0,1.64-1.64,4.62,4.62,0,0,0,.59-2.31,4.5,4.5,0,0,0-.59-2.28,4.58,4.58,0,0,0-3.93-2.25Z" transform="translate(-0.69)"/><path class="aeb_eqt_cls-2" d="M41,23.18V12.57h2.2a11.06,11.06,0,0,1,3.46.39A4.6,4.6,0,0,1,49,14.83,5.69,5.69,0,0,1,49.89,18a5.6,5.6,0,0,1-.69,2.81,4.47,4.47,0,0,1-1.79,1.79,6.79,6.79,0,0,1-3.08.57Zm1-1H43.2a11.62,11.62,0,0,0,3-.27,3.58,3.58,0,0,0,1.88-1.4A4.4,4.4,0,0,0,48.81,18a4.49,4.49,0,0,0-.74-2.62A3.7,3.7,0,0,0,46,13.91a12.61,12.61,0,0,0-3.28-.3H42Z" transform="translate(-0.69)"/><path class="aeb_eqt_cls-2" d="M51.79,12.57h1.06V23.18H51.79Z" transform="translate(-0.69)"/><path class="aeb_eqt_cls-2" d="M55.29,23.18V12.57h.23l7.06,8.14V12.57h1.05V23.18h-.24l-7-8v8Z" transform="translate(-0.69)"/><path class="aeb_eqt_cls-2" d="M76.45,14.36l-.83.77a6.31,6.31,0,0,0-1.94-1.32,5.25,5.25,0,0,0-2.06-.45,4.93,4.93,0,0,0-2.38.61,4.44,4.44,0,0,0-1.74,1.67,4.19,4.19,0,0,0-.63,2.21,4.38,4.38,0,0,0,.65,2.28,4.5,4.5,0,0,0,1.77,1.69,5,5,0,0,0,2.48.62,4.26,4.26,0,0,0,2.77-.92,3.65,3.65,0,0,0,1.34-2.4H72.5v-1h4.57A5.28,5.28,0,0,1,75.61,22a5.2,5.2,0,0,1-3.87,1.45,5.84,5.84,0,0,1-4.66-2,5.34,5.34,0,0,1-1.32-3.58,5.5,5.5,0,0,1,.76-2.8,5.41,5.41,0,0,1,2.08-2,6,6,0,0,1,3-.73,6.71,6.71,0,0,1,2.54.48A7.66,7.66,0,0,1,76.45,14.36Z" transform="translate(-0.69)"/><path class="aeb_eqt_cls-2" d="M.69,30.3H1.78L4,37.94,7,30.3h.22l3,7.64,2.2-7.64H13.5L10.45,40.91h-.19l-3.15-8-3.21,8H3.7Z" transform="translate(-0.69)"/><path class="aeb_eqt_cls-2" d="M15.32,30.3h1.06V40.91H15.32Z" transform="translate(-0.69)"/><path class="aeb_eqt_cls-2" d="M17.76,31.34v-1h5.81v1H21.2v9.57H20.12V31.34Z" transform="translate(-0.69)"/><path class="aeb_eqt_cls-2" d="M25.08,30.3h1.06v4.45h5.41V30.3h1.06V40.91H31.55V35.79H26.14v5.12H25.08Z" transform="translate(-0.69)"/><path class="aeb_eqt_cls-2" d="M40.24,30a5.54,5.54,0,0,1,4,1.61,5.59,5.59,0,0,1-4,9.54,5.44,5.44,0,0,1-4-1.62,5.32,5.32,0,0,1-1.62-3.91,5.67,5.67,0,0,1,.74-2.83,5.38,5.38,0,0,1,2-2.05A5.44,5.44,0,0,1,40.24,30Zm0,1a4.57,4.57,0,0,0-3.88,2.27,4.55,4.55,0,0,0-.59,2.32,4.46,4.46,0,0,0,4.47,4.49,4.52,4.52,0,0,0,2.28-.6,4.21,4.21,0,0,0,1.64-1.63,4.57,4.57,0,0,0,.59-2.31,4.4,4.4,0,0,0-2.24-3.92A4.51,4.51,0,0,0,40.29,31.06Z" transform="translate(-0.69)"/><path class="aeb_eqt_cls-2" d="M48.06,30.3h1.06v6.4a12.12,12.12,0,0,0,.05,1.42,2.33,2.33,0,0,0,.36,1.05,2.16,2.16,0,0,0,.89.71,2.79,2.79,0,0,0,1.21.29,2.32,2.32,0,0,0,1-.23,2.09,2.09,0,0,0,.81-.62,2.41,2.41,0,0,0,.48-1A8,8,0,0,0,54,36.7V30.3h1.06v6.4a7.62,7.62,0,0,1-.28,2.3,3.23,3.23,0,0,1-3.13,2.18,3.87,3.87,0,0,1-2.2-.62,2.92,2.92,0,0,1-1.22-1.62,8.53,8.53,0,0,1-.2-2.24Z" transform="translate(-0.69)"/><path class="aeb_eqt_cls-2" d="M56.65,31.34v-1h5.81v1H60.09v9.57H59V31.34Z" transform="translate(-0.69)"/><path class="aeb_eqt_cls-2" d="M.81,58.63,2.33,48H2.5l4.31,8.71L11.08,48h.17l1.53,10.61h-1l-1.05-7.58L6.94,58.63H6.67L2.87,51l-1,7.64Z" transform="translate(-0.69)"/><path class="aeb_eqt_cls-2" d="M19.2,48l4.95,10.61H23l-1.67-3.49H16.76l-1.65,3.49H13.93l5-10.61Zm-.13,2.26-1.82,3.84h3.63Z" transform="translate(-0.69)"/><path class="aeb_eqt_cls-2" d="M25.8,58.63V48H26l7.06,8.14V48h1V58.63H33.9l-7-8v8Z" transform="translate(-0.69)"/><path class="aeb_eqt_cls-2" d="M47,49.81l-.82.77a6.31,6.31,0,0,0-1.94-1.32,5.25,5.25,0,0,0-2.06-.45,4.9,4.9,0,0,0-2.38.61A4.54,4.54,0,0,0,38,51.09a4.32,4.32,0,0,0-.62,2.21A4.47,4.47,0,0,0,38,55.58a4.53,4.53,0,0,0,1.78,1.69,5,5,0,0,0,2.48.62A4.28,4.28,0,0,0,45.05,57a3.69,3.69,0,0,0,1.34-2.4H43v-1h4.57a5.32,5.32,0,0,1-1.46,3.9,5.2,5.2,0,0,1-3.87,1.45,5.84,5.84,0,0,1-4.66-2,5.34,5.34,0,0,1-1.32-3.58,5.43,5.43,0,0,1,.76-2.8,5.34,5.34,0,0,1,2.08-2,6,6,0,0,1,3-.73,6.71,6.71,0,0,1,2.54.48A7.62,7.62,0,0,1,47,49.81Z" transform="translate(-0.69)"/><path class="aeb_eqt_cls-2" d="M49.66,48h2.11a12.4,12.4,0,0,1,2.4.15,2.65,2.65,0,0,1,1.53.93,2.59,2.59,0,0,1,.59,1.75,2.83,2.83,0,0,1-.4,1.52,2.53,2.53,0,0,1-1.17,1,5.29,5.29,0,0,1-2.09.35l3.82,4.92H55.13l-3.81-4.92h-.6v4.92H49.66Zm1.06,1v3.61h1.83a4.45,4.45,0,0,0,1.57-.2,1.62,1.62,0,0,0,.79-.64,1.83,1.83,0,0,0,.29-1,1.75,1.75,0,0,0-.29-1,1.64,1.64,0,0,0-.76-.62,4.7,4.7,0,0,0-1.56-.19Z" transform="translate(-0.69)"/><path class="aeb_eqt_cls-2" d="M63.62,47.76a5.47,5.47,0,0,1,4,1.61,5.57,5.57,0,0,1-4,9.53,5.45,5.45,0,0,1-4-1.61,5.34,5.34,0,0,1-1.62-3.91,5.6,5.6,0,0,1,.74-2.84,5.32,5.32,0,0,1,2-2A5.4,5.4,0,0,1,63.62,47.76Zm.05,1a4.48,4.48,0,0,0-3.88,2.27,4.52,4.52,0,0,0-.6,2.31,4.46,4.46,0,0,0,4.48,4.5,4.52,4.52,0,0,0,2.28-.6,4.31,4.31,0,0,0,1.64-1.64,4.62,4.62,0,0,0,.59-2.31A4.5,4.5,0,0,0,67.59,51a4.36,4.36,0,0,0-1.66-1.64A4.46,4.46,0,0,0,63.67,48.79Z" transform="translate(-0.69)"/><path class="aeb_eqt_cls-2" d="M70.6,48h1.15l3.52,8.2L78.84,48H80L75.38,58.63h-.23Z" transform="translate(-0.69)"/><path class="aeb_eqt_cls-2" d="M81.78,48h6.08v1h-5v3.33h5v1h-5V57.6h5v1h-6Z" transform="translate(-0.69)"/><path class="aeb_eqt_cls-2" d="M88.6,56.66l.9-.54c.63,1.17,1.37,1.75,2.2,1.75a2.06,2.06,0,0,0,1-.25,1.87,1.87,0,0,0,.72-.67,1.74,1.74,0,0,0,.24-.88,1.8,1.8,0,0,0-.36-1,8.56,8.56,0,0,0-1.82-1.7,9.58,9.58,0,0,1-1.65-1.45,2.68,2.68,0,0,1-.56-1.62A2.48,2.48,0,0,1,89.6,49a2.28,2.28,0,0,1,.93-.89,2.68,2.68,0,0,1,1.31-.33,2.8,2.8,0,0,1,1.41.37,4.89,4.89,0,0,1,1.38,1.37l-.87.65a4,4,0,0,0-1-1,1.75,1.75,0,0,0-.92-.26,1.45,1.45,0,0,0-1,.39,1.28,1.28,0,0,0-.41,1,1.56,1.56,0,0,0,.15.67,2.32,2.32,0,0,0,.53.71,15.39,15.39,0,0,0,1.37,1.06,7.79,7.79,0,0,1,1.88,1.81A2.86,2.86,0,0,1,94.81,56a2.74,2.74,0,0,1-.88,2,2.92,2.92,0,0,1-2.13.85,3.14,3.14,0,0,1-1.75-.51A4.69,4.69,0,0,1,88.6,56.66Z" transform="translate(-0.69)"/><path class="aeb_eqt_cls-3" d="M219,12.57h5.32v1h-4.26v3.33h4.26v1h-4.26v5.2H219Z" transform="translate(-0.69)"/><path class="aeb_eqt_cls-3" d="M226.19,12.57h1.06v9.59h4.08v1h-5.14Z" transform="translate(-0.69)"/><path class="aeb_eqt_cls-3" d="M238.06,12.31a5.53,5.53,0,0,1,4,1.6,5.39,5.39,0,0,1,1.62,4,5.61,5.61,0,0,1-9.56,4,5.3,5.3,0,0,1-1.62-3.9,5.7,5.7,0,0,1,.74-2.84,5.48,5.48,0,0,1,4.78-2.78Zm.05,1a4.53,4.53,0,0,0-3.88,2.26,4.58,4.58,0,0,0-.59,2.32,4.46,4.46,0,0,0,4.47,4.5,4.52,4.52,0,0,0,2.28-.6A4.31,4.31,0,0,0,242,20.18a4.51,4.51,0,0,0,.59-2.31A4.43,4.43,0,0,0,240.38,14,4.5,4.5,0,0,0,238.11,13.34Z" transform="translate(-0.69)"/><path class="aeb_eqt_cls-3" d="M250.9,12.31a5.49,5.49,0,0,1,4,1.6,5.36,5.36,0,0,1,1.63,4,5.61,5.61,0,0,1-9.56,4,5.3,5.3,0,0,1-1.62-3.9,5.6,5.6,0,0,1,.74-2.84,5.32,5.32,0,0,1,2-2A5.4,5.4,0,0,1,250.9,12.31Zm0,1a4.5,4.5,0,0,0-3.88,2.26,4.58,4.58,0,0,0-.6,2.32,4.47,4.47,0,0,0,4.48,4.5,4.52,4.52,0,0,0,2.28-.6,4.31,4.31,0,0,0,1.64-1.64,4.62,4.62,0,0,0,.59-2.31,4.5,4.5,0,0,0-.59-2.28A4.36,4.36,0,0,0,253.21,14,4.43,4.43,0,0,0,251,13.34Z" transform="translate(-0.69)"/><path class="aeb_eqt_cls-3" d="M258.68,23.18V12.57h2.2a11.06,11.06,0,0,1,3.46.39,4.6,4.6,0,0,1,2.41,1.87,5.69,5.69,0,0,1,.87,3.18,5.6,5.6,0,0,1-.69,2.81,4.4,4.4,0,0,1-1.79,1.79,6.79,6.79,0,0,1-3.08.57Zm1-1h1.23a11.62,11.62,0,0,0,3.05-.27,3.54,3.54,0,0,0,1.88-1.4,4.33,4.33,0,0,0,.69-2.48,4.49,4.49,0,0,0-.75-2.62,3.7,3.7,0,0,0-2.07-1.5,12.56,12.56,0,0,0-3.28-.3h-.75Z" transform="translate(-0.69)"/><path class="aeb_eqt_cls-3" d="M269.53,12.57h1.06V23.18h-1.06Z" transform="translate(-0.69)"/><path class="aeb_eqt_cls-3" d="M273,23.18V12.57h.23l7.07,8.14V12.57h1V23.18h-.24l-7-8v8Z" transform="translate(-0.69)"/><path class="aeb_eqt_cls-3" d="M294.18,14.36l-.82.77a6.35,6.35,0,0,0-1.95-1.32,5.22,5.22,0,0,0-2.06-.45A4.87,4.87,0,0,0,287,14a4.4,4.4,0,0,0-1.75,1.67,4.18,4.18,0,0,0-.62,2.21,4.37,4.37,0,0,0,.64,2.28A4.57,4.57,0,0,0,287,21.82a5,5,0,0,0,2.48.62,4.24,4.24,0,0,0,2.77-.92,3.66,3.66,0,0,0,1.35-2.4h-3.39v-1h4.58a5.29,5.29,0,0,1-1.47,3.9,5.19,5.19,0,0,1-3.86,1.45,5.82,5.82,0,0,1-4.66-2,5.34,5.34,0,0,1-1.32-3.58,5.49,5.49,0,0,1,.75-2.8,5.41,5.41,0,0,1,2.08-2,6,6,0,0,1,3-.73,6.75,6.75,0,0,1,2.54.48A7.74,7.74,0,0,1,294.18,14.36Z" transform="translate(-0.69)"/><path class="aeb_eqt_cls-3" d="M262.33,30.3h1.09l2.16,7.64,3.05-7.64h.21l3,7.64,2.21-7.64h1.08l-3.05,10.61h-.2l-3.15-8-3.21,8h-.2Z" transform="translate(-0.69)"/><path class="aeb_eqt_cls-3" d="M277,30.3H278V40.91H277Z" transform="translate(-0.69)"/><path class="aeb_eqt_cls-3" d="M279.39,31.34v-1h5.81v1h-2.36v9.57h-1.08V31.34Z" transform="translate(-0.69)"/><path class="aeb_eqt_cls-3" d="M286.72,30.3h1.06v4.45h5.4V30.3h1.06V40.91h-1.06V35.79h-5.4v5.12h-1.06Z" transform="translate(-0.69)"/><path class="aeb_eqt_cls-3" d="M200.58,58.63,202.1,48h.17l4.32,8.71L210.86,48H211l1.52,10.61h-1l-1-7.58-3.76,7.58h-.27L202.65,51l-1,7.64Z" transform="translate(-0.69)"/><path class="aeb_eqt_cls-3" d="M219,48l4.95,10.61h-1.14l-1.67-3.49h-4.57l-1.66,3.49H213.7l5-10.61Zm-.13,2.26L217,54.12h3.63Z" transform="translate(-0.69)"/><path class="aeb_eqt_cls-3" d="M225.57,58.63V48h.23l7.06,8.14V48h1V58.63h-.24l-7-8v8Z" transform="translate(-0.69)"/><path class="aeb_eqt_cls-3" d="M246.73,49.81l-.83.77A6.19,6.19,0,0,0,244,49.26a5.22,5.22,0,0,0-2.06-.45,4.87,4.87,0,0,0-2.37.61,4.4,4.4,0,0,0-1.75,1.67,4.23,4.23,0,0,0-.62,2.21,4.37,4.37,0,0,0,.64,2.28,4.57,4.57,0,0,0,1.77,1.69,5,5,0,0,0,2.48.62,4.26,4.26,0,0,0,2.77-.92,3.65,3.65,0,0,0,1.34-2.4h-3.38v-1h4.57a5.28,5.28,0,0,1-1.46,3.9A5.2,5.2,0,0,1,242,58.9a5.81,5.81,0,0,1-4.65-2A5.35,5.35,0,0,1,236,53.32a5.53,5.53,0,0,1,.76-2.8,5.41,5.41,0,0,1,2.08-2,6,6,0,0,1,3-.73,6.7,6.7,0,0,1,2.53.48A7.66,7.66,0,0,1,246.73,49.81Z" transform="translate(-0.69)"/><path class="aeb_eqt_cls-3" d="M249.43,48h2.11a12.4,12.4,0,0,1,2.4.15,2.71,2.71,0,0,1,1.54.93,2.65,2.65,0,0,1,.59,1.75,2.83,2.83,0,0,1-.41,1.52,2.51,2.51,0,0,1-1.16,1,5.38,5.38,0,0,1-2.1.35l3.82,4.92h-1.31l-3.82-4.92h-.6v4.92h-1.06Zm1.06,1v3.61h1.83a4.41,4.41,0,0,0,1.57-.2,1.64,1.64,0,0,0,.8-.64,1.82,1.82,0,0,0,.28-1,1.68,1.68,0,0,0-.29-1,1.59,1.59,0,0,0-.76-.62,4.7,4.7,0,0,0-1.56-.19Z" transform="translate(-0.69)"/><path class="aeb_eqt_cls-3" d="M263.39,47.76a5.5,5.5,0,0,1,4,1.61,5.58,5.58,0,0,1-3.95,9.53,5.47,5.47,0,0,1-4-1.61,5.34,5.34,0,0,1-1.62-3.91,5.7,5.7,0,0,1,.74-2.84,5.48,5.48,0,0,1,4.78-2.78Zm.05,1a4.51,4.51,0,0,0-3.88,2.27,4.51,4.51,0,0,0-.59,2.31,4.46,4.46,0,0,0,4.47,4.5,4.52,4.52,0,0,0,2.28-.6,4.31,4.31,0,0,0,1.64-1.64,4.51,4.51,0,0,0,.59-2.31,4.43,4.43,0,0,0-2.24-3.92A4.5,4.5,0,0,0,263.44,48.79Z" transform="translate(-0.69)"/><path class="aeb_eqt_cls-3" d="M270.37,48h1.15l3.52,8.2,3.57-8.2h1.16l-4.62,10.61h-.23Z" transform="translate(-0.69)"/><path class="aeb_eqt_cls-3" d="M281.55,48h6.08v1h-5v3.33h5v1h-5V57.6h5v1h-6Z" transform="translate(-0.69)"/><path class="aeb_eqt_cls-3" d="M288.37,56.66l.9-.54c.64,1.17,1.37,1.75,2.2,1.75a2,2,0,0,0,1-.25,1.73,1.73,0,0,0,1-1.55,1.8,1.8,0,0,0-.36-1,8.46,8.46,0,0,0-1.81-1.7,9.38,9.38,0,0,1-1.66-1.45,2.68,2.68,0,0,1-.56-1.62,2.48,2.48,0,0,1,.33-1.27,2.31,2.31,0,0,1,.94-.89,2.66,2.66,0,0,1,1.31-.33,2.77,2.77,0,0,1,1.4.37,4.89,4.89,0,0,1,1.38,1.37l-.87.65a3.83,3.83,0,0,0-1-1,1.73,1.73,0,0,0-.92-.26,1.48,1.48,0,0,0-1,.39,1.28,1.28,0,0,0-.4,1,1.71,1.71,0,0,0,.14.67,2.5,2.5,0,0,0,.53.71,17.26,17.26,0,0,0,1.37,1.06,7.68,7.68,0,0,1,1.89,1.81,2.93,2.93,0,0,1,.51,1.59,2.7,2.7,0,0,1-.88,2,2.92,2.92,0,0,1-2.13.85,3.14,3.14,0,0,1-1.75-.51A4.78,4.78,0,0,1,288.37,56.66Z" transform="translate(-0.69)"/></g><g id="Layer_5" data-name="Layer 5"><path class="aeb_eqt_cls-3" d="M184.21,46.83h0C184.16,46.93,184.2,46.86,184.21,46.83Zm-3.36-3.77c-.85-.63.86.65,0,0ZM170.24,50.2c-.39.33,0,.24,0,0Zm22.87,3.16-.05-.06.08.11ZM166.42,51.3h0v0Zm15.93-2.95,0-.06C182.38,48.23,182.37,48.29,182.35,48.35Zm0,0a.24.24,0,0,1,0,.07ZM171.46,9.93c.66-.22.31-1.12.31-1.12a2.72,2.72,0,0,0-1-1.23.12.12,0,0,0-.18.06,2.7,2.7,0,0,0-.06,1.58S170.81,10.15,171.46,9.93Zm28.78,10.86a4.43,4.43,0,0,0,.29-.65.1.1,0,0,0-.1-.14,5.79,5.79,0,0,0-1.1.14.14.14,0,0,0-.09-.17,2.93,2.93,0,0,0-.83-.12v0a1,1,0,0,0,.81-.41,3.64,3.64,0,0,0,.6-1.44.09.09,0,0,0-.1-.1,3.91,3.91,0,0,0-.92.26,3.1,3.1,0,0,0-.68.24.11.11,0,0,0-.12,0,2,2,0,0,0-.32.3.17.17,0,0,0,0-.1,3.06,3.06,0,0,0-.23-.3,1.08,1.08,0,0,0,0-.18,2.25,2.25,0,0,0-.08-.24h0a1.52,1.52,0,0,0,.24.05,2.73,2.73,0,0,0,1.55-.31.12.12,0,0,0,0-.19,2.66,2.66,0,0,0-1-.66,4.22,4.22,0,0,0,.17-.65.08.08,0,0,0-.1-.1,4,4,0,0,0-1,.28,1.44,1.44,0,0,0,.19-.29,2.69,2.69,0,0,0,.24-1.56.13.13,0,0,0-.17-.09,2.49,2.49,0,0,0-.75.49,3.32,3.32,0,0,0-.67.06l0-.14a.46.46,0,0,0,.44-.05l0,0a2,2,0,0,0,.42-.19,2.71,2.71,0,0,0,1-1.25.12.12,0,0,0-.1-.16,2.56,2.56,0,0,0-1,.08,4.52,4.52,0,0,0-.38-.87.09.09,0,0,0-.15,0,4,4,0,0,0-.66,1.15,1.29,1.29,0,0,0,0-.32,2.62,2.62,0,0,0-.84-1.34.11.11,0,0,0-.18,0,2.75,2.75,0,0,0-.18.45,2.72,2.72,0,0,0-1.21.31s-.65.36-.57.85a2.37,2.37,0,0,0-.42.08,1.8,1.8,0,0,0,.08-.21c.44-.26.25-1,.25-1a.84.84,0,0,0,0-.17v0a.09.09,0,0,0-.05-.08,2.79,2.79,0,0,0-.73-1,.14.14,0,0,0-.17,0c0-.2,0-.38,0-.48a.09.09,0,0,0-.12-.09,5.19,5.19,0,0,0-.72.34,2.68,2.68,0,0,0,.31-.79.13.13,0,0,0-.13-.15,2.67,2.67,0,0,0-1.48.54s-.6.47-.42.94a4.27,4.27,0,0,0-1,.22,4.21,4.21,0,0,0-.44-.42l.09-.21c.14.25.41.59.83.43.65-.24.27-1.13.27-1.13s-.1-.2-.15-.28a1.51,1.51,0,0,0,.11-.22,3.67,3.67,0,0,0,.1-1.56A.09.09,0,0,0,188.8,8a3.65,3.65,0,0,0-1.2,1,1.1,1.1,0,0,0-.09,1,.36.36,0,0,0,.05.09c0,.11,0,.22.07.33l-.2.38v0l-.25-.14,0,0a1.24,1.24,0,0,0,.13-1.21,3,3,0,0,0-.44-.71,1,1,0,0,0,0-.14.13.13,0,0,0-.13-.15h-.15c-.18-.19-.35-.34-.45-.43a.1.1,0,0,0-.16.05,3.58,3.58,0,0,0-.17.6,2.44,2.44,0,0,0-.55.32s-.76.59-.31,1.12a.65.65,0,0,0,.87.06,1.14,1.14,0,0,0,.1.19,3.12,3.12,0,0,0-1,.3,1.47,1.47,0,0,0-.6.61l-.08,0a1,1,0,0,0,0-.38,1,1,0,0,0,.35-.48,3.5,3.5,0,0,0,.11-1.55.09.09,0,0,0-.13-.07,2.75,2.75,0,0,0-1-1.19.13.13,0,0,0-.18.07,2.71,2.71,0,0,0,0,1.58,1.29,1.29,0,0,0,.17.34.75.75,0,0,0-.12.14,3,3,0,0,0-.73-.42.14.14,0,0,0-.18.11,1.72,1.72,0,0,0,0,.26,4.63,4.63,0,0,0-1-.53c0-.08,0-.14,0-.2a.13.13,0,0,0-.19-.09,2.49,2.49,0,0,0-.73.51,4.71,4.71,0,0,0,.1-1.6.11.11,0,0,0,0-.06,2.7,2.7,0,0,0-.13-.44.13.13,0,0,0-.19,0,2.6,2.6,0,0,0-.94,1.26v0a2,2,0,0,0-.27.31l-.1.15a1.45,1.45,0,0,0-.24-.22,1,1,0,0,0-.06-.56A3.68,3.68,0,0,0,177.8,7a.09.09,0,0,0-.14,0,3.69,3.69,0,0,0-.27,1.29h-.18a.12.12,0,0,0-.11.15A2.69,2.69,0,0,0,178,9.83a1.4,1.4,0,0,0,.64.28l.06.16a2.8,2.8,0,0,0-1.23,0,.14.14,0,0,0-.1.19c0,.09.12.23.22.38h-.24a.1.1,0,0,0-.1.14,4.13,4.13,0,0,0,1,1.53.62.62,0,0,0,.19.14,2.42,2.42,0,0,0,.17.45l-.38-.05a2.44,2.44,0,0,0-.34-.78.12.12,0,0,0-.19,0l0,0a.15.15,0,0,0-.17-.08l-.25.09,0-.13a4.59,4.59,0,0,0-.2-1,2.8,2.8,0,0,0,0-.42v0a1.2,1.2,0,0,0,.21-.83,2.73,2.73,0,0,0,0-.55.14.14,0,0,0-.17-.12l-.13,0a2.68,2.68,0,0,0-.31-.42c0-.11-.06-.22-.08-.31a2.62,2.62,0,0,0,0-1,.12.12,0,0,0-.18-.08,2.61,2.61,0,0,0-1.11,1.11s-.34.66,0,1l0,.08a1.26,1.26,0,0,0,.14,1.21l0,0a.6.6,0,0,0,.27.6l0,0c-.05.11-.28.65,0,1a1.24,1.24,0,0,0,.18,1.1v0c0,.06,0,.11,0,.17a9.2,9.2,0,0,1-.4-.84c0-.1-.08-.19-.11-.29.21-.35-.07-.74-.23-.93a.44.44,0,0,0,.13-.14c.43-.63-.47-1.19-.47-1.19l0,0c0-.14,0-.28-.07-.42l.14-.11a.58.58,0,0,0,.09-.7,1,1,0,0,0,.07-.9A3.59,3.59,0,0,0,173.89,7a.09.09,0,0,0-.14,0,4.1,4.1,0,0,0-.26,1.14,2.24,2.24,0,0,0-.49-.11.13.13,0,0,0-.14.14,2.44,2.44,0,0,0,.33,1l-.07,0a2.87,2.87,0,0,0-.57-.76.14.14,0,0,0-.21,0,2.76,2.76,0,0,0-.26.6H172a.11.11,0,0,0-.1.14l.12.28a3,3,0,0,0,0,.68,1.81,1.81,0,0,0,.17.58,3.65,3.65,0,0,0-.46-.48.09.09,0,0,0-.14,0l-.08.23a1.68,1.68,0,0,0-.35-.28.14.14,0,0,0-.11,0c-.2-.41-.89-.4-.89-.4l-.39,0-.13-.12a.09.09,0,0,0-.14,0l0,.08a2.66,2.66,0,0,0-.2-1.08A.13.13,0,0,0,169,8.7a2.91,2.91,0,0,0-.23.2,3.11,3.11,0,0,0-.15-.42.09.09,0,0,0-.14,0,3.51,3.51,0,0,0-.9,1.28,1,1,0,0,0,0,.6l-.13-.1a2.6,2.6,0,0,0-.6-.27.77.77,0,0,0-.12-.13.13.13,0,0,0-.19,0h0a2.37,2.37,0,0,0-.61,0,.13.13,0,0,0-.11.16,2.61,2.61,0,0,0,.4.79v.05a3.94,3.94,0,0,0-1-1.12.09.09,0,0,0-.14,0,3.73,3.73,0,0,0-.17,1.56,1.06,1.06,0,0,0,.26.53,2.55,2.55,0,0,0-1.1.24.13.13,0,0,0,0,.19,2.52,2.52,0,0,0,.7.59,3.57,3.57,0,0,0-.6,1.45,1.07,1.07,0,0,0,.4,1,.56.56,0,0,0,.17.09,3.09,3.09,0,0,0-.1.45,3.18,3.18,0,0,0-.32-.16l0,0a2.68,2.68,0,0,0-1.15-1.08.13.13,0,0,0-.18.09,2.67,2.67,0,0,0,0,.7.11.11,0,0,0,0,.12,4.33,4.33,0,0,0,.69,1.48.62.62,0,0,0-.27-.09,1,1,0,0,0-.67-.47,3.62,3.62,0,0,0-1.56.1.1.1,0,0,0-.05.14,4.52,4.52,0,0,0,.65.71,1.33,1.33,0,0,0-.27.23.13.13,0,0,0,0,.19,2.63,2.63,0,0,0,1.25.37l0,0a4.13,4.13,0,0,0-1.26,1.3.11.11,0,0,0,.06.16,4.27,4.27,0,0,0,1.81,0,1.17,1.17,0,0,0,.64-.42,2.62,2.62,0,0,0,.76-.08,1.67,1.67,0,0,0,.61-.31l.29.26a1.73,1.73,0,0,0-.52,0,3.35,3.35,0,0,0-.53.15,1.31,1.31,0,0,0-.47.16,4.25,4.25,0,0,0-1.26,1.3.11.11,0,0,0,.07.16,4.11,4.11,0,0,0,1.81,0,1.16,1.16,0,0,0,.71-.52c.27-.06.76-.23.7-.73v0l.42.41h0a3,3,0,0,0-1.28.92,4.31,4.31,0,0,0-.85,1,.09.09,0,0,0,.06.15,4.24,4.24,0,0,0,1.81,0,1.23,1.23,0,0,0,.47-.24,2.61,2.61,0,0,0,.66.25,4.28,4.28,0,0,0-1.19,1.25.11.11,0,0,0,.07.16,4.27,4.27,0,0,0,1.81,0,1.28,1.28,0,0,0,.56-.33l.09,0a.14.14,0,0,0,0,.09l.08,0a4.47,4.47,0,0,0-.6,1.18.1.1,0,0,0,.1.14,4.31,4.31,0,0,0,1.76-.41,1.23,1.23,0,0,0,.57-.66.63.63,0,0,0,.51-.67.3.3,0,0,0,0-.1l1,.39a1.68,1.68,0,0,0-.54.08,2.92,2.92,0,0,0-1.38,1.05.14.14,0,0,0,.06.21,2.92,2.92,0,0,0,1.74.11s1-.26.81-1a.51.51,0,0,0-.11-.22c.35.15.69.31,1,.49a10.31,10.31,0,0,1,3.38,2.23,4.65,4.65,0,0,1,1.14,3.07,5,5,0,0,1-.08.87,3.19,3.19,0,0,1-.09.64c-.1.24-.47.49-.65.69s-.47.54-.69.83a7,7,0,0,0-1.37,4,12.58,12.58,0,0,0,.09,2.12l-.09.09c-.34.37-.66.76-1,1.14-.75.8-1.49,1.6-2.19,2.45-1.59,1.91-3.28,3.69-5,5.44a21.26,21.26,0,0,0-3.73,4.47c-.21.38-.4.76-.57,1.15a4.25,4.25,0,0,1-.66,1.37,17.67,17.67,0,0,0-2,2.49c-.32.47-.62,1-.91,1.45a1.62,1.62,0,0,0,.44,0c.21-.09.46-.62.6-.82.42-.57.86-1.12,1.33-1.65-.09.11-.46.51,0,0h0l0,0,.22-.23c-.29.9-.53,1.81-.78,2.72a2.1,2.1,0,0,0,.56,0c.19-.08.31-.79.39-1,0,.18.07.36.1.55a2.11,2.11,0,0,0,.08.45c.08.06.44,0,.55,0a6.47,6.47,0,0,0-.25-1.7c-.05-.12-.13-.21-.13-.32a2.35,2.35,0,0,1,.22-.61c.15-.39.31-.78.47-1.16a10.44,10.44,0,0,1,.45,2.29c.05.42.08.86.1,1.29,0,.25,0,.17.17.21h.29c0-.86,0-1.72-.11-2.58a5.05,5.05,0,0,0-.43-1.84c-.09-.16-.11-.13,0-.31a5.68,5.68,0,0,1,.28-.55q.34-.61.75-1.2a13,13,0,0,1,1.07-1.28,16.5,16.5,0,0,0,0,1.86,9,9,0,0,0,.16,1,2.65,2.65,0,0,1,.13.54,2,2,0,0,1-.23.43,33.58,33.58,0,0,0-1.56,3.89,1.75,1.75,0,0,0,.56,0c.09,0,.17-.33.21-.43l.3-.69a4.06,4.06,0,0,0,.08,1c.07.2,0,.09.14.13h.22c0-.56,0-1.13-.05-1.69a3.33,3.33,0,0,1,.63-1.57c.09.28.18.56.28.84a3.22,3.22,0,0,1,.29.84,2,2,0,0,1-.37.74c-.16.28-.32.56-.47.84a1.68,1.68,0,0,0,.5,0c.19-.08.47-.69.59-.88.06.17.16.79.3.88s.33,0,.43,0l-.18-.71a2.62,2.62,0,0,1-.21-.71,3.49,3.49,0,0,1,.49-.82,7.35,7.35,0,0,1,1.65-1.95,36.84,36.84,0,0,0-.79,4.19c.22,0,.24,0,.3-.18s.12-.61.18-.91c.12-.62.28-1.24.45-1.84.09-.33.19-.65.29-1a2.15,2.15,0,0,1,.37-.92,6.66,6.66,0,0,1,1.52-.91c-.7,1.9-1.41,3.8-2,5.73h.66a.82.82,0,0,0,.27,0c.11-.07.21-.49.26-.61.44-1.08.9-2.15,1.37-3.22.15.59.28,1.2.39,1.8a2.83,2.83,0,0,1,.12,1,8.12,8.12,0,0,1-.38,1h1a3.25,3.25,0,0,1,0-.88,8.27,8.27,0,0,1,.5-1c.29-.58.59-1.15.92-1.71a9.11,9.11,0,0,1,.3,1.14c0,.22-.09.28-.2.49a11.84,11.84,0,0,0-.78,2h.31c.23,0,.19-.07.29-.32a12.89,12.89,0,0,1,.57-1.25c.09.42.14.85.2,1.27,0,.27,0,.26.21.3h.32a23.8,23.8,0,0,0-1-5.5c-.14-.46-.29-.91-.46-1.36a7.21,7.21,0,0,1-.42-1.09c0-.23.15-.54.25-.78s.23-.55.34-.83c.24-.59.48-1.19.7-1.78a23.92,23.92,0,0,1,1.82,5.47,5.47,5.47,0,0,1,.27,1.59,11.27,11.27,0,0,1-.41,1.33c-.26,1-.45,2-.63,3a1.69,1.69,0,0,0,.45,0c.16-.09.23-.73.28-.94.16-.62.34-1.25.54-1.86.09.68.15,1.37.21,2.06,0,.15,0,.68.09.74a1.27,1.27,0,0,0,.39,0c0-.43,0-.85,0-1.27l.3.57a3,3,0,0,0,.27.6c.1.12,0,.08.2.1h.3a8.66,8.66,0,0,0-.82-1.9c-.07-.12-.24-.21-.29-.3a2.43,2.43,0,0,1,0-.72,4.74,4.74,0,0,1-.08-1.24,5.63,5.63,0,0,1,.53-1.21c.19-.39.38-.77.59-1.15.33-.61.79-1.2,1.07-1.84l.52,1a3.86,3.86,0,0,1,.47.9,2.82,2.82,0,0,1-.09.57l-.09.57c0,.33-.09.66-.12,1-.18,1.45-.3,2.9-.41,4.34a1.48,1.48,0,0,0,.47,0c.16-.06.14-.52.17-.72.06.17.11.35.17.52s0,.16.15.2a1.61,1.61,0,0,0,.49,0c-.1-.42-.2-.85-.34-1.27-.09-.27-.32-.55-.28-.81.16-1,.32-2,.51-3.06.35.75.65,1.52.92,2.29.14.39-.08.84-.17,1.24s-.23,1.07-.31,1.61a2.28,2.28,0,0,0,.69,0s.07,0,.09,0,.07-.27.08-.34l.19-.73c.08.27.15.54.22.82s0,.23.23.26a8.22,8.22,0,0,0,.86,0,33.45,33.45,0,0,0-1.39-5.1c-.09-.26-.19-.52-.3-.79-.17-.44-.42-.88-.56-1.33s.21-1.06.34-1.46.29-.87.46-1.29a8.48,8.48,0,0,1,2.09,1.92,13.57,13.57,0,0,1,.91,1.33,1.8,1.8,0,0,1,.21.35,1.83,1.83,0,0,1,0,.4c0,.25-.05.5-.07.75-.05.49-.08,1-.1,1.47a3.94,3.94,0,0,1,0,.69c0,.17,0,.11-.17.24a.79.79,0,0,0-.14.17,8.4,8.4,0,0,0-.95,2.65,1.07,1.07,0,0,0,.31,0c.12-.08.25-.78.3-.93a4.87,4.87,0,0,1,.63-1.37v1.18c0,.19,0,.38,0,.57a2,2,0,0,0,0,.55,1.21,1.21,0,0,0,.38,0,1.91,1.91,0,0,0,0-.54l0-.56a39.05,39.05,0,0,1,.38-4.19,12.82,12.82,0,0,1,.55,1.19,6.19,6.19,0,0,1,.23.6,1.28,1.28,0,0,1,0,.58c-.22,1-.43,1.94-.61,2.92a1.7,1.7,0,0,0,.39,0c.13-.06.15-.39.19-.55.15-.57.3-1.13.46-1.7.17.67.31,1.34.46,2,.05.25,0,.21.22.23h.39a22.52,22.52,0,0,0-1.22-5.14c-.17-.43-.36-.85-.55-1.27a.89.89,0,0,1-.16-.58c0-.2.09-.41.14-.61a7.69,7.69,0,0,1,.75-2,10.37,10.37,0,0,1,2.17,2.54c.11.18.41.53.41.74a3.05,3.05,0,0,1-.16.45,11.19,11.19,0,0,0-.31,1.3,18.34,18.34,0,0,0-.29,3.47c0,.29,0,.58,0,.86s0,.35.27.28h.12a1.85,1.85,0,0,0,0-.41c0-.34,0-.68.05-1,.2.41.4.82.58,1.23s.25.2.53.2c-.19-.52-.39-1-.61-1.53a4.13,4.13,0,0,1-.4-1,6.34,6.34,0,0,1,.28-1.66,11,11,0,0,1,.33-1.25,15.67,15.67,0,0,1,.93,3.41c.09.56.17,1.12.22,1.68,0,.07,0,.29,0,.33h.1a1.45,1.45,0,0,0,.36,0c0-.77-.07-1.54-.16-2.31.18.21.35.43.51.65a2.4,2.4,0,0,1,.3.41.91.91,0,0,1,0,.4c0,.14-.12.77,0,.85a1.21,1.21,0,0,0,.33,0,4.35,4.35,0,0,1,0-.72c.11.17.28.65.46.72a1.67,1.67,0,0,0,.5,0c-.2-.46-.47-.88-.67-1.33-.08-.16-.1-.17,0-.35l.12-.3c.08-.19.18-.37.27-.56a9.78,9.78,0,0,1,.93,1.63c.09.23.11.66.26.84s.18.07.32.07a10.56,10.56,0,0,0-1.39-3.26,16.17,16.17,0,0,0-1.9-3c-.34-.38-.7-.74-1.07-1.09l-.57-.53a3,3,0,0,1-.52-.66,12.05,12.05,0,0,0-1.64-1.93c-3-2.89-6.49-5.2-9.52-8.06-.33-.31-.64-.64-1-.94-.1-.09-.25-.18-.37-.27a9.16,9.16,0,0,1-.3-1.28c0-.34,0-.68,0-1a3.49,3.49,0,0,0-.09-.6c0-.07,0-.14,0-.21a6.08,6.08,0,0,1,1.74-3.44,16.33,16.33,0,0,0,2.47-3.43,3.83,3.83,0,0,1,1-1c.47-.43,1-.84,1.47-1.24a8.56,8.56,0,0,1,3.2-1.93,5.19,5.19,0,0,1,1.41-.22c.67,0,1.33.08,2,.13a7.58,7.58,0,0,0,2.28-.08.52.52,0,0,0,.29.08.62.62,0,0,0,.62-.37,7.42,7.42,0,0,0,1.08-.57.76.76,0,0,0,0,.15.52.52,0,0,0,.06.2,1.55,1.55,0,0,0-.36.21l-.06,0c-.22,0-1,0-1.05.66s1,.77,1,.77a3.32,3.32,0,0,0,.91-.15H196a4.28,4.28,0,0,0,1.78-.37.11.11,0,0,0,0-.17,4.91,4.91,0,0,0-1-.78,2.76,2.76,0,0,0,.69-.35,1.3,1.3,0,0,0,.46.12,4.28,4.28,0,0,0,1.78-.37.1.1,0,0,0,0-.16,4.55,4.55,0,0,0-.64-.56l.12-.08a.14.14,0,0,0,0-.22,2.67,2.67,0,0,0-.68-.43,1.2,1.2,0,0,0,1-.32.6.6,0,0,0,.08-.08,2.68,2.68,0,0,0,.77-.52.14.14,0,0,0,0-.2ZM166.46,53.14a10.18,10.18,0,0,1,0-1.83h0c0-.12,0-.07,0,0,0-.39.07-.79.09-1.18s0-.35.19-.57l.58-.53c.77-.71,1.56-1.39,2.33-2.09a8.61,8.61,0,0,1,.44,1.5c0,.09.1.29.07.38s-.33.29-.41.36c-.24.23-.48.45-.7.69A19.31,19.31,0,0,0,166.46,53.14ZM170.08,52a3,3,0,0,1-.21,1,4.38,4.38,0,0,1-.69.59,9.52,9.52,0,0,0-2,2.72c-.1-.34-.2-.67-.29-1a2.65,2.65,0,0,1-.21-.85,3.33,3.33,0,0,1,.5-.76c.17-.25.35-.49.53-.73a17.28,17.28,0,0,1,2.53-2.67A10.26,10.26,0,0,1,170.08,52Zm2.35-.85c.16-.47-.19.36-.12.34a6.76,6.76,0,0,0-1.69.92,12.08,12.08,0,0,0,.28-1.48A8.31,8.31,0,0,0,171,50a1.26,1.26,0,0,1,0-.34c0-.13.14-.18.26-.26a11.36,11.36,0,0,1,2.25-1.28C173.15,49.13,172.79,50.11,172.43,51.1Zm2,2.22c0,.11.17.32.15.43a3.24,3.24,0,0,1-.35.62c-.33.64-.63,1.29-.91,2a21.41,21.41,0,0,0-.37-2.22c0-.1-.07-.19-.1-.29s-.06-.1,0-.25a4.27,4.27,0,0,1,.29-.66l.6-1.38c.17.39.33.79.49,1.19l0,.1C174.28,53,174.34,53.15,174.4,53.32Zm-.23-7.3c0,.14-.09.43-.19.5s-.31.07-.41.11c-.26.1-.5.22-.74.34a13,13,0,0,0-2,1.24,10.19,10.19,0,0,0-.22-1.1,3.3,3.3,0,0,0-.12-.38,2.56,2.56,0,0,0-.11-.24c-.09-.15-.19-.13,0-.28s.05-.06,0,0c1.72-1.63,3.27-3.43,5-5.06A41.35,41.35,0,0,1,174.17,46Zm18.89,7.28c-.08-.1-.14-.18.05.06.06.08.06.08,0,0,.39.51.72,1.06,1.06,1.61.05.08.24.3.24.39s-.11.17-.14.23a5.56,5.56,0,0,0-.32.8c-.21-.32-.44-.63-.67-.93a3.32,3.32,0,0,1-.59-.73c-.13-.4-.18-.85-.29-1.26s-.28-.92-.45-1.37A10.72,10.72,0,0,1,193.06,53.3Zm-10.69-5c-.15.44-.27.89-.38,1.34-.38-.82-.76-1.65-1.13-2.48l1.09.46.38.18a.67.67,0,0,1,.17.08A2.25,2.25,0,0,1,182.37,48.29ZM184,47.16a1.91,1.91,0,0,1,.16-.32s0,0,0,0c.17-.32.38-.63.52-1L186.2,47l.78.6a3.36,3.36,0,0,1,.66.52c.08.11.06.11,0,.25a4.34,4.34,0,0,0-.3.7,9.52,9.52,0,0,0-.4,1.48,12.4,12.4,0,0,0-1.45-1.94,6.83,6.83,0,0,0-.83-.78q-.26-.21-.51-.39C184,47.28,184,47.32,184,47.16Zm-3.19-4.1c1,.72,1.93,1.42,2.9,2.11a5.43,5.43,0,0,0-.78,1.49c-.47-.27-1-.5-1.46-.74l-.7-.32c-.22-.1-.61-.18-.74-.34a3.56,3.56,0,0,1-.38-1l-.33-.91c-.23-.65-.44-1.3-.62-2C179.43,42,180.13,42.53,180.85,43.06Zm-.73,6.22a9.07,9.07,0,0,0-.89,1.29,13.47,13.47,0,0,0-1.11,2.13,27.52,27.52,0,0,0-.86-3.93c-.17-.58-.37-1.15-.59-1.71-.12-.32-.34-1.14-.74-1.18.4-1.13.76-2.29,1.07-3.45C177.21,43,179,47.05,180.12,49.28Zm7.39-32.64v0Zm-.2-3.57,0,0h0l0,0Zm-.64-2.13h.11a2.16,2.16,0,0,0,0,.36l-.3.28a1.27,1.27,0,0,0-.13-.19A3.21,3.21,0,0,0,186.67,10.94ZM186.16,14a3.73,3.73,0,0,1,.45-.44l.21-.17,0,.16c-.1.1-.19.22-.29.34s-.5.75-.08,1.18h0l-.12-.11-.07,0a.62.62,0,0,0-.12-.35A2.57,2.57,0,0,0,186.16,14Zm-.28,3.37a.64.64,0,0,0,.19-.08,1.28,1.28,0,0,0,.53.46l0,0a3.2,3.2,0,0,0-.74-.37A.21.21,0,0,0,185.88,17.4Zm-.14-4.13,0,0-.06,0S185.74,13.3,185.74,13.27Zm-.66-1.08h.06c0,.06,0,.12,0,.19l-.13-.09Zm0,1.59h.16a1,1,0,0,0-.13.16l-.12,0Zm-.3,2.6a3.28,3.28,0,0,0,.37-.8.57.57,0,0,0,.22,0,1,1,0,0,0,.35,0,2.71,2.71,0,0,0-.38.43,1.18,1.18,0,0,0-.1.18,2.64,2.64,0,0,0-.47.17Zm-1.53-4.69h0l-.05,0Zm-.14-.13,0,0-.08.08a.1.1,0,0,1,0,0l0,0Zm-1,1a.91.91,0,0,0,.17.17l-.08.13-.12-.11Zm-.26,3.62a3.2,3.2,0,0,0-.13.38,3,3,0,0,0-.42-.11.14.14,0,0,0-.14.06l-.12-.07c0-.12,0-.24,0-.36a2.78,2.78,0,0,1,.22-.69.56.56,0,0,0,.25.23h0A.52.52,0,0,0,181.85,16.18Zm-.41-4.7a2.28,2.28,0,0,0,.15-.57l.07.14a.57.57,0,0,0,.08.13,1.47,1.47,0,0,0,0,.21.1.1,0,0,0-.12,0l-.21.16ZM181.28,14l0,.05.08.13-.06.1s0,.06-.06.14-.21.37-.31.55a1.31,1.31,0,0,0-.21-.2c-.08-.3-.17-.59-.27-.88h0a.49.49,0,0,0,.53.2Zm-.78-1.69a1.67,1.67,0,0,0,.39-.14,2.5,2.5,0,0,0-.35.38,1.11,1.11,0,0,0-.23.67l-.16-.16c-.13-.31-.27-.62-.41-.93a1.39,1.39,0,0,0-.1-.33.72.72,0,0,0,.16-.21v0a1.63,1.63,0,0,0,.09.42A.51.51,0,0,0,180.5,12.26Zm-.84,3.93a3.21,3.21,0,0,0-.15-.56l.28.19a1.56,1.56,0,0,0,.53.26.76.76,0,0,0,0,.15A2.71,2.71,0,0,0,179.66,16.19Zm.06,1a4,4,0,0,0-.28.51l-.21-.19a.7.7,0,0,0,.37-.44Zm-.16-4.55h0v0ZM179,10l0,.08a.52.52,0,0,0,.6.32,1.53,1.53,0,0,0,.4-.15,1.28,1.28,0,0,0-.1.72s0,.08,0,.12c-.11-.43-.69-.69-.69-.69a1.25,1.25,0,0,0-.25-.09,2.56,2.56,0,0,1-.11-.24A.56.56,0,0,0,179,10Zm-.51,6.26a2.21,2.21,0,0,0,0,.25,1.51,1.51,0,0,0,0,.29l0,0-.23-.18c-.18-.14-.1-.2-.1-.41v-.13a.61.61,0,0,0,.31.19Zm-.31-2,.1.13a3.22,3.22,0,0,0-.33.67v0c0-.16,0-.31-.08-.46A.77.77,0,0,0,178.14,14.25Zm-.5,4.13.11-.15a.59.59,0,0,0,.61-.28c.21.21.42.43.62.65a1.93,1.93,0,0,0-.44-.17,3,3,0,0,0-.92,0ZM177,15a.58.58,0,0,0-.1-.64,1.06,1.06,0,0,0,.15-.15.59.59,0,0,0,.41.43c0,.34.07.69.08,1a1.58,1.58,0,0,0-.39-.15l-.18,0-.21-.24A.56.56,0,0,0,177,15Zm-.71,1.7.11.06-.14,0a.11.11,0,0,0-.08.17,1.38,1.38,0,0,0,.13.22l-.17,0a1.34,1.34,0,0,0-.12-.3,1.16,1.16,0,0,0,.21-.16ZM174.34,10h0Zm.1,2.87a.61.61,0,0,0,.44,0l.12.37a3.16,3.16,0,0,0-1.14-.38h0A1.39,1.39,0,0,0,174.44,12.91Zm-.37,1.88.24.07a1.22,1.22,0,0,0,.69,0,.67.67,0,0,0,.24,0,2.78,2.78,0,0,0,.56.4l.15.06a2.33,2.33,0,0,0,.17.26,2.51,2.51,0,0,0-.48.1,1.21,1.21,0,0,0-.48-.07,3.1,3.1,0,0,0-.75.13,2.44,2.44,0,0,0-.26-.31.12.12,0,0,0-.16,0c0-.13-.07-.24-.1-.31a.1.1,0,0,0-.07-.07A.52.52,0,0,0,174.07,14.79Zm.8,3.06a2,2,0,0,0,0,.24v0a2.65,2.65,0,0,0-.57-.12,1.36,1.36,0,0,1,0-.2h.12c.42-.06.52-.42.54-.71l.11,0,.09,0a4,4,0,0,0-.2.56h0A.1.1,0,0,0,174.87,17.85ZM173.67,15h0l-.17.16-.06-.15Zm0,2.64h0Zm-.48-6.73.08.12-.2,0A.34.34,0,0,0,173.19,10.92Zm-.31,3.48a1.2,1.2,0,0,0,.15.3l.06.21a.75.75,0,0,0-.18-.07,2,2,0,0,0-.14-.26A.42.42,0,0,0,172.88,14.4Zm.1,4.31-.08.09a.33.33,0,0,0,0-.13l.09,0Zm-.36-5.13,0,.06,0,0ZM172.37,11h0l0,0Zm-.79,2.6-.2.06a1.11,1.11,0,0,0-.12-.16.53.53,0,0,0,.13-.26A1.6,1.6,0,0,0,171.58,13.57Zm-.78-2.63c0,.05,0,.11,0,.16l-.19.1,0-.16A.94.94,0,0,0,170.8,10.94Zm-.82,7.3h0a1.13,1.13,0,0,1-.1.13,2,2,0,0,0-.2.47c-.22-.31-.42-.62-.61-.94h0v0A3.19,3.19,0,0,0,170,18.24Zm-.51-1.72h0c0,.08-.08.15-.12.24v0l-.06,0A2.69,2.69,0,0,1,169.47,16.52Zm-1-5.43a.58.58,0,0,0,.65-.26l0,0V11a2.47,2.47,0,0,0-.38.54,1.07,1.07,0,0,0-.1.25,2.67,2.67,0,0,0-.37-.76Zm-1,.47a.56.56,0,0,0,.31-.15,2,2,0,0,0-.17.36l-.16,0A1.11,1.11,0,0,0,167.49,11.56Zm-.28,4.84a.13.13,0,0,0-.13.15h0a4.52,4.52,0,0,0-.58-.81,2.9,2.9,0,0,0,1.18.52c0,.08,0,.15.07.23A1.92,1.92,0,0,0,167.21,16.4Zm.34,1.18-.12-.11s0-.06,0-.09A2.43,2.43,0,0,0,167.55,17.58ZM167.18,15c0-.06,0-.11,0-.17l.13,0a.74.74,0,0,1,0,.14Zm.14-1.85.19.08v0c0,.07,0,.14.07.22v0a1.09,1.09,0,0,0-.56-.27c-.16-.2-.32-.39-.49-.57l-.06-.07a.53.53,0,0,0,0-.13A3.1,3.1,0,0,0,167.32,13.16Zm-.94-.24.21.29-.21,0-.19-.14A.44.44,0,0,0,166.38,12.92Zm-.24-.93.05.09-.08-.05Zm-.76,1.15.11,0c0,.1,0,.22,0,.34l-.16.08A3.83,3.83,0,0,0,165,13ZM163.65,18l-.2-.05a.67.67,0,0,0,.32-.28l.24.13Zm.68-.32c-.16-.09-.33-.17-.49-.24a.45.45,0,0,0,0-.11.8.8,0,0,0,0-.18,1.29,1.29,0,0,0,1.05.28l.1,0a1,1,0,0,0,.23.22s0,.06,0,.09A1.21,1.21,0,0,0,164.33,17.72ZM166,16.38a3.16,3.16,0,0,0-.81-1.12v0a1.06,1.06,0,0,0,.34-.82l.06.23a1.22,1.22,0,0,0,.75.77.14.14,0,0,0,0,.21s0,0,0,0a.09.09,0,0,0-.1.05A4.37,4.37,0,0,0,166,16.38ZM167.56,21l0,0h0Zm.06-.79a.62.62,0,0,0-.32-.24l-.46-.4a5.61,5.61,0,0,1-.48-.51h0a.55.55,0,0,0,.31-.4.3.3,0,0,0,.16,0,3.94,3.94,0,0,0,.07.55s.18.71.66.83a1.38,1.38,0,0,0,.34.41Zm.36-9.25a.41.41,0,0,0,.16,0l0,0a1,1,0,0,0-.15.19A.54.54,0,0,0,168,10.91Zm0,4h0a.06.06,0,0,1,0,0,.51.51,0,0,0,.42,0,1.8,1.8,0,0,0,.31-.2.74.74,0,0,0,.61.73l-.33,0C168.83,14.88,168,14.87,168,14.87Zm1,1.41c-.13.2-.27.4-.4.61l-.06,0a5.42,5.42,0,0,1-.22-.56,1.17,1.17,0,0,0,.46-.17Zm-.25,5.8a.38.38,0,0,0-.13-.09h0a.71.71,0,0,0,.27-.21l.2.1A2.63,2.63,0,0,0,168.77,22.08Zm-.59-1.55a.47.47,0,0,0,.33,0,.65.65,0,0,0,.81.25.55.55,0,0,0,.32-.5l.16.21a3.53,3.53,0,0,0,.06.42,1.8,1.8,0,0,0,.26.55A12.35,12.35,0,0,1,168.18,20.53Zm1.73-8a2.92,2.92,0,0,0,.19-.31h0c0,.12,0,.21,0,.26Zm.35-.37h0a3.08,3.08,0,0,0,.84.19.85.85,0,0,0,.16.17,2.29,2.29,0,0,0,0,.25,1.19,1.19,0,0,0-.84-.31h-.15C170.29,12.34,170.28,12.24,170.26,12.13Zm.17,1.58a2,2,0,0,0,.32,0l0,0-.27,0-.05-.07Zm0,1.79a.37.37,0,0,0,.15-.13.35.35,0,0,0,0-.08,1.07,1.07,0,0,0,.16.27l-.1.1,0,0A.88.88,0,0,0,170.46,15.5Zm.23,1.23c0-.1,0-.19,0-.27h0a2.62,2.62,0,0,0,.22.25Zm.15-.54a.49.49,0,0,0,0-.27,2.53,2.53,0,0,0,.53.21.54.54,0,0,0,.43.09c0,.3.09.91.67.93a.11.11,0,0,0,.08,0,1.29,1.29,0,0,0,.07.21,2.05,2.05,0,0,0-.37,0l-.13-.1c-.06-.36-.43-.51-.7-.56A7.27,7.27,0,0,1,170.84,16.19ZM171.7,18h0Zm.26,3.2-.07,0-.31-.26a.56.56,0,0,0,.5-.17A2.73,2.73,0,0,0,172,21.24Zm1.06-.17a1.45,1.45,0,0,0-.08.14,2.54,2.54,0,0,0-.62-.6.14.14,0,0,0-.11,0c.18-.43-.28-.85-.39-1a1.18,1.18,0,0,0,.65-.17h0c-.06.15-.31.89.27,1.11s.76-.26.88-.52l.36.08h0A3.08,3.08,0,0,0,173,21.07Zm.66,1.31a1.46,1.46,0,0,0,.57-.58,2.39,2.39,0,0,0,.16-.38,17.2,17.2,0,0,0,.67,1.59C174.6,22.81,174.14,22.61,173.68,22.38ZM175,19.9a.46.46,0,0,0,.11-.16l.1,0a1,1,0,0,0,0,.17Zm6.48,4.37a8.71,8.71,0,0,1-1.34,4.15A6.42,6.42,0,0,0,178.31,25a6.59,6.59,0,0,0-.75-.65,6.75,6.75,0,0,1-.88-.59,6.53,6.53,0,0,1-.91-1.5c-.13-.23-.25-.46-.36-.7.28.13.81.28,1.08-.18a.76.76,0,0,0-.31-1,1.18,1.18,0,0,0,.64-.58.54.54,0,0,0,.07-.13l.12.09c0,.07-.11.14-.16.22s-.59.89.07,1.28,1.16-.55,1.16-.55a4.34,4.34,0,0,0,.17-.4,1.26,1.26,0,0,0,1.09-.36.51.51,0,0,0,.07-.67,1.15,1.15,0,0,0,0-.19,11.3,11.3,0,0,1,.85,1.17A6.51,6.51,0,0,1,181.47,24.27Zm.39-3.6c-.14-.23-.28-.47-.44-.7s-.35-.4-.37-.61a7.59,7.59,0,0,1,.07-.95c0-.18,0-.35,0-.53a.55.55,0,0,0,.35-.15,2.6,2.6,0,0,0,.31.48,1.61,1.61,0,0,0,.54.41A14.48,14.48,0,0,0,181.86,20.67Zm.92-7.53a.14.14,0,0,0-.19-.1l-.16.09-.05-.06.13-.23v0h.17a.53.53,0,0,0,.39.41,1.34,1.34,0,0,0,.93-.09l.14,0a1.47,1.47,0,0,1,.1.13,3.43,3.43,0,0,0-.8.27,1.59,1.59,0,0,0-.57.55h-.06A2.61,2.61,0,0,0,182.78,13.14Zm.83,2.66a.8.8,0,0,0-.08.16l-.15,0c0-.1,0-.19,0-.27Zm-.69,1.34-.06.12h0l0,0A.38.38,0,0,0,182.92,17.14Zm4.7,4A3.9,3.9,0,0,1,186,23.75c-.44.33-1,.53-1.44.85s-1.18.79-1.75,1.2c.28-2.43-.07-4.95.6-7.33l.05.07c.51.56,1.27-.2,1.27-.2A3.31,3.31,0,0,0,185,18h0a4,4,0,0,0,.2.5,3.76,3.76,0,0,0-1.42.36,1.26,1.26,0,0,0-.66,1,.52.52,0,0,0,.39.56,1.24,1.24,0,0,0,1.19-.28,3.88,3.88,0,0,0,.8-1.17h0a1.24,1.24,0,0,0,1.12.47s.34.94,1,.73C187.67,20.55,187.66,20.86,187.62,21.17Zm.1-2.68a3.25,3.25,0,0,0-.69-.67.43.43,0,0,0,.26-.2,1.4,1.4,0,0,0,.15-.3c0,.12,0,.25,0,.39a1.47,1.47,0,0,0,.25.57C187.73,18.35,187.72,18.42,187.72,18.49Zm9-1.89s0,0,0,0a0,0,0,0,0,0,0Zm-.5-.25a.8.8,0,0,0,.13.13h-.24A.76.76,0,0,0,196.25,16.35Zm-2.18-.52v0a.59.59,0,0,0,.46.1,1.52,1.52,0,0,0-.13.47.61.61,0,0,0,0,.27v.09l0-.16a3.31,3.31,0,0,0-.35-.73ZM194,17.65a.65.65,0,0,0,.46-.73.7.7,0,0,0,.12.28l-.84,1.06-.07-.17a.35.35,0,0,0,0-.08c0-.12.07-.24.1-.36A.66.66,0,0,0,194,17.65Zm-.33-2.39a1.57,1.57,0,0,0,.12.21l-.17-.16h0Zm-.4-1.38a.81.81,0,0,0,.22,0c0,.05,0,.1,0,.15l-.3,0A1.62,1.62,0,0,0,193.27,13.88Zm-.84,2.29a1.26,1.26,0,0,0,.27.18.52.52,0,0,0,.42,0,3.83,3.83,0,0,0,0,.47,1.49,1.49,0,0,0,.25.58c0,.05,0,.1-.05.16a3.11,3.11,0,0,0-.42-.45,2.72,2.72,0,0,0,.17-.39.13.13,0,0,0-.11-.16,2.5,2.5,0,0,0-.48,0,2.11,2.11,0,0,0-.21-.31ZM192,20.31l-.09.12-.21-.22a1.07,1.07,0,0,0-.08-.37s0,0,0,0l.19-.12a.59.59,0,0,0,0,.13A1.68,1.68,0,0,0,192,20.31Zm-1.2-3.59h0a1.08,1.08,0,0,0,.36.05,2.64,2.64,0,0,0,0,.4,1,1,0,0,0-.16.19l-.06,0h-.13A1.53,1.53,0,0,0,190.81,16.72Zm.1,1.09A.82.82,0,0,0,191,18a.58.58,0,0,0,.67.24l.21.12,0,0a2.93,2.93,0,0,0-1,.17l-.15.07c-.09-.1-.17-.17-.23-.23h0A2.42,2.42,0,0,0,190.91,17.81Zm.46-5.83h0a2.65,2.65,0,0,0,0,.56v0l-.24.22v0a2.9,2.9,0,0,0-.41-.3A1,1,0,0,0,191.37,12Zm-.88,3.44c.09-.23.18-.46.29-.68a.7.7,0,0,0,.83.3l0,0a.92.92,0,0,0,.33,0,.2.2,0,0,0,0,.07v.08a3.55,3.55,0,0,0-.78.15,2,2,0,0,0-.27.12l-.47.06h0Zm-.3,3.28.13-.1a5.28,5.28,0,0,0-.16.54h0A.83.83,0,0,0,190.19,18.7ZM190,11.55h0Zm-.46.08h.2l-.24.09Zm-.12.26.56-.27,0,.11a2.76,2.76,0,0,0-.54.17Zm.47,2-.22.1-.14-.12c.08-.18.17-.35.26-.53,0,.09,0,.19,0,.29S189.86,13.79,189.92,13.94ZM188.63,13l.07.16a.67.67,0,0,0,.79.28l-.18.29-.14-.09a.14.14,0,0,0-.2.08.56.56,0,0,1,0,.12h0a2.84,2.84,0,0,0-.37-.78Zm.48,2.7-.05,0a1.23,1.23,0,0,0-.18.09c0-.13.07-.25.11-.38v0A2,2,0,0,0,189.11,15.69Zm-.76-.76.17,0a.53.53,0,0,0,.26-.13c-.16.37-.31.74-.45,1.12a1.41,1.41,0,0,0-.13-.51A1.31,1.31,0,0,0,188.35,14.93Zm.27,3.41a3.59,3.59,0,0,0,.11.41.84.84,0,0,1,0,.1,4,4,0,0,1-.34.5,8.61,8.61,0,0,1,0-.88A.58.58,0,0,0,188.62,18.34Zm0-1.25h0Zm-.62,6a4.72,4.72,0,0,0,.52-2.41,1.42,1.42,0,0,0,.91-.1,3.86,3.86,0,0,0,.65-.44v0a1.25,1.25,0,0,0,.72,1l.12.05a2.68,2.68,0,0,0,.07.27,5.32,5.32,0,0,1-1,.78A8,8,0,0,1,188,23.13Zm2.15.22a8,8,0,0,0,1.34-1.09.6.6,0,0,0,.6.06l.11-.06a1.29,1.29,0,0,0,.24.94.51.51,0,0,0,.61.19,1.4,1.4,0,0,0,0,.28A12.78,12.78,0,0,1,190.15,23.35Zm3.6-2.07c0-.06,0-.11,0-.16a1,1,0,0,0,.42-.08,1.18,1.18,0,0,0,.07.2A2.42,2.42,0,0,0,193.75,21.28Zm.72,1.95a3.11,3.11,0,0,0-.17-.84,2.19,2.19,0,0,0,.22-.2.92.92,0,0,0,.21.83Zm.44-4.88a1.78,1.78,0,0,0-.36.1s-1,.37-.71,1.07a.69.69,0,0,0,.1.17l-.2.1s-.7.41-.53.92a4.45,4.45,0,0,0-.73.89,1.39,1.39,0,0,0-.09-.41l.48-.67a.61.61,0,0,0,.23-.34c.47-.72.91-1.46,1.38-2.17l.11-.16,0,0a.53.53,0,0,0,.3.24A1.41,1.41,0,0,0,194.91,18.35Zm.16-3a1.23,1.23,0,0,0,0-.52,1.06,1.06,0,0,0,.14-.58v-.05l.13,0a.54.54,0,0,0,.39-.28,1.11,1.11,0,0,0,.32.76,2.64,2.64,0,0,1-.07.3l-.05,0a.14.14,0,0,0,0-.07.14.14,0,0,0-.2-.07A2.83,2.83,0,0,0,195.07,15.33Zm.66,7.3.06-.17c.07-.15.14-.31.2-.47a.55.55,0,0,0,.29.08h.07A4.18,4.18,0,0,1,195.73,22.63Zm.56.23-.1,0c.14-.13.27-.27.39-.4a.6.6,0,0,0,.18.4A2.4,2.4,0,0,0,196.29,22.86Zm.25-3.47c0-.08,0-.17,0-.26a.56.56,0,0,0,.39.06.55.55,0,0,0,.41-.33l.22-.07h0a2.85,2.85,0,0,0-.47.91,1.5,1.5,0,0,0,0,.51l-.13.11A2.93,2.93,0,0,0,196.54,19.39Zm1.15,2.35a1.69,1.69,0,0,0-.64.08c0-.08.09-.16.13-.24l.06-.13a1.57,1.57,0,0,0,.76-.11v.06a.51.51,0,0,0,.16.44A4.8,4.8,0,0,0,197.69,21.74Z" transform="translate(-0.69)"/><path class="aeb_eqt_cls-2" d="M115,46.84h0S115,46.93,115,46.84Zm3.35-3.78c-.86.65.85-.63,0,0Zm10.61,7.14c0,.24.39.33,0,0ZM106,53.41l.08-.11-.05.06Zm26.71-2.12v0h0Zm-15.94-3,0,.06C116.81,48.29,116.8,48.23,116.81,48.29Zm0,.13a.41.41,0,0,0,0-.07A.25.25,0,0,1,116.85,48.42Zm11.79-39.2a2.7,2.7,0,0,0-.06-1.58.13.13,0,0,0-.18-.06,2.66,2.66,0,0,0-1,1.23s-.35.9.3,1.12S128.64,9.22,128.64,9.22ZM98.78,20.88a.14.14,0,0,0,0,.2,2.68,2.68,0,0,0,.77.52.6.6,0,0,0,.08.08,1.2,1.2,0,0,0,1,.32,2.67,2.67,0,0,0-.68.43.14.14,0,0,0,0,.22l.12.08a4.55,4.55,0,0,0-.64.56.1.1,0,0,0,0,.16,4.28,4.28,0,0,0,1.78.37,1.3,1.3,0,0,0,.46-.12,2.76,2.76,0,0,0,.69.35,4.91,4.91,0,0,0-1,.78.11.11,0,0,0,0,.17,4.28,4.28,0,0,0,1.78.37h0a3.32,3.32,0,0,0,.91.15s1.07,0,1-.77-.83-.67-1-.66l-.06,0a1.55,1.55,0,0,0-.36-.21.52.52,0,0,0,.06-.2.38.38,0,0,0,0-.15,8.09,8.09,0,0,0,1.09.57.62.62,0,0,0,.62.37.52.52,0,0,0,.29-.08,7.58,7.58,0,0,0,2.28.08c.66-.05,1.32-.14,2-.13a5.19,5.19,0,0,1,1.41.22,8.56,8.56,0,0,1,3.2,1.93c.5.4,1,.81,1.47,1.24a4,4,0,0,1,1,1,16.33,16.33,0,0,0,2.47,3.43,6.08,6.08,0,0,1,1.74,3.44c0,.07,0,.14,0,.21a3.49,3.49,0,0,0-.09.6c0,.34,0,.68,0,1a9.16,9.16,0,0,1-.3,1.28c-.12.09-.27.18-.37.27-.33.3-.64.63-1,.94-3,2.86-6.53,5.17-9.52,8.06a12.05,12.05,0,0,0-1.64,1.93,3.36,3.36,0,0,1-.52.66l-.58.53c-.36.35-.72.71-1.06,1.09a16.17,16.17,0,0,0-1.9,3,10.56,10.56,0,0,0-1.39,3.26c.14,0,.25,0,.32-.07a4.13,4.13,0,0,0,.26-.84,9.78,9.78,0,0,1,.93-1.63c.09.19.19.37.27.56l.12.3c.07.18,0,.19,0,.35-.2.45-.47.87-.67,1.33a1.67,1.67,0,0,0,.5,0c.18-.07.35-.55.45-.72a3.49,3.49,0,0,1,0,.72,1.22,1.22,0,0,0,.33,0c.1-.08,0-.71,0-.85a.78.78,0,0,1,0-.4,1.91,1.91,0,0,1,.29-.41c.17-.22.34-.44.52-.65-.09.77-.14,1.54-.16,2.31a1.45,1.45,0,0,0,.36,0h.1s0-.26,0-.33c0-.56.13-1.12.22-1.68a15.67,15.67,0,0,1,.93-3.41,11,11,0,0,1,.33,1.25,6.34,6.34,0,0,1,.28,1.66,3.78,3.78,0,0,1-.41,1q-.32.75-.6,1.53c.28,0,.41.07.53-.2s.38-.82.58-1.23c0,.34,0,.68,0,1a2.77,2.77,0,0,0,0,.41h.13c.28.07.27,0,.27-.28s0-.57,0-.86a18.34,18.34,0,0,0-.29-3.47,11.19,11.19,0,0,0-.31-1.3,3.05,3.05,0,0,1-.16-.45c0-.21.3-.56.41-.74a10.37,10.37,0,0,1,2.17-2.54,7.69,7.69,0,0,1,.75,2c0,.2.11.41.14.61a.89.89,0,0,1-.16.58c-.2.42-.38.84-.55,1.27a22.52,22.52,0,0,0-1.22,5.14h.39c.21,0,.17,0,.22-.23.15-.68.29-1.35.46-2,.16.57.31,1.13.46,1.7,0,.16.06.49.19.55a1.7,1.7,0,0,0,.39,0c-.18-1-.39-2-.61-2.92a1.05,1.05,0,0,1,0-.58,4.36,4.36,0,0,1,.23-.6,12.82,12.82,0,0,1,.55-1.19,39.05,39.05,0,0,1,.38,4.19l0,.56a1.91,1.91,0,0,0,0,.54,1.21,1.21,0,0,0,.38,0,2,2,0,0,0,0-.55c0-.19,0-.38,0-.57V56.09a5.17,5.17,0,0,1,.63,1.37c.05.15.17.85.3.93a1.07,1.07,0,0,0,.31,0,8.4,8.4,0,0,0-.95-2.65.79.79,0,0,0-.14-.17c-.15-.13-.13-.07-.17-.24a3.94,3.94,0,0,1,0-.69c0-.49,0-1-.1-1.47,0-.25,0-.5-.07-.75a1.83,1.83,0,0,1,0-.4,1.8,1.8,0,0,1,.21-.35,13.57,13.57,0,0,1,.91-1.33,8.48,8.48,0,0,1,2.09-1.92c.17.42.32.86.46,1.29s.46,1.06.34,1.46-.39.89-.56,1.33c-.11.27-.21.53-.3.79a33.45,33.45,0,0,0-1.39,5.1,8.22,8.22,0,0,0,.86,0c.2,0,.16,0,.22-.26s.15-.55.23-.82l.19.73c0,.07,0,.31.08.34s.07,0,.09,0a2.28,2.28,0,0,0,.69,0c-.08-.54-.18-1.08-.31-1.61s-.31-.85-.17-1.24c.27-.77.57-1.54.92-2.29.19,1,.35,2,.51,3.06,0,.26-.19.54-.28.81-.14.42-.24.85-.34,1.27a1.61,1.61,0,0,0,.49,0c.13,0,.1,0,.15-.2s.11-.35.17-.52c0,.2,0,.66.17.72a1.48,1.48,0,0,0,.47,0c-.11-1.44-.23-2.89-.41-4.34l-.12-1-.09-.57a2.26,2.26,0,0,1-.09-.57,3.51,3.51,0,0,1,.47-.9l.52-1c.28.64.74,1.23,1.07,1.84.21.38.4.76.59,1.15a6.17,6.17,0,0,1,.53,1.21,4.74,4.74,0,0,1-.08,1.24,2.43,2.43,0,0,1,0,.72c0,.09-.22.18-.3.3a9.73,9.73,0,0,0-.82,1.9h.3c.17,0,.11,0,.2-.1a3,3,0,0,0,.28-.6l.3-.57c0,.42,0,.84,0,1.27a1.27,1.27,0,0,0,.39,0c.11-.06.08-.59.09-.74.06-.69.12-1.38.21-2.06.2.61.38,1.24.54,1.86,0,.21.12.85.28.94a1.69,1.69,0,0,0,.45,0c-.18-1-.37-2-.64-3a13.44,13.44,0,0,1-.4-1.33,5.47,5.47,0,0,1,.27-1.59,23.92,23.92,0,0,1,1.82-5.47c.22.59.46,1.19.7,1.78.11.28.22.56.34.83s.29.55.25.78a7.21,7.21,0,0,1-.42,1.09c-.17.45-.32.9-.46,1.36a23.8,23.8,0,0,0-1,5.5h.32c.23,0,.18,0,.21-.3,0-.42.11-.85.2-1.27a12.89,12.89,0,0,1,.57,1.25c.1.25.06.28.29.32h.3a11.81,11.81,0,0,0-.77-2c-.11-.21-.23-.27-.2-.49a7.66,7.66,0,0,1,.3-1.14c.33.56.63,1.13.92,1.71a7,7,0,0,1,.49,1,2.6,2.6,0,0,1,0,.88h1a9.9,9.9,0,0,1-.37-1,2.83,2.83,0,0,1,.12-1c.11-.6.24-1.21.39-1.8.47,1.07.93,2.14,1.37,3.22,0,.12.15.54.26.61s.21,0,.27,0h.66c-.64-1.93-1.35-3.83-2-5.73a6.66,6.66,0,0,1,1.52.91,2.15,2.15,0,0,1,.37.92c.1.32.2.64.29,1,.17.6.33,1.22.45,1.84.06.3.1.61.18.91s.08.18.3.18a39.17,39.17,0,0,0-.79-4.19,7.35,7.35,0,0,1,1.65,1.95c.12.2.46.6.48.82a2.29,2.29,0,0,1-.2.71l-.18.71c.1,0,.35,0,.43,0s.24-.71.3-.88c.12.19.4.8.59.88a1.68,1.68,0,0,0,.5,0c-.15-.28-.31-.56-.47-.84a2,2,0,0,1-.37-.74,2.89,2.89,0,0,1,.29-.84c.1-.28.19-.56.28-.84a3.43,3.43,0,0,1,.63,1.57c0,.56,0,1.13-.05,1.69h.21c.18,0,.08.07.15-.13a4.06,4.06,0,0,0,.08-1l.3.69c0,.1.12.38.21.43a1.75,1.75,0,0,0,.56,0,33.58,33.58,0,0,0-1.56-3.89,2,2,0,0,1-.23-.43,2.65,2.65,0,0,1,.13-.54,9,9,0,0,0,.16-1,16.5,16.5,0,0,0,0-1.86,14.5,14.5,0,0,1,1.07,1.28q.4.59.75,1.2c.09.18.2.36.28.55s.06.15,0,.31a5.05,5.05,0,0,0-.43,1.84c-.09.86-.1,1.72-.11,2.58h.29c.18,0,.15,0,.16-.21,0-.43.06-.87.11-1.29a10.44,10.44,0,0,1,.45-2.29c.16.38.32.77.47,1.16a2.35,2.35,0,0,1,.22.61c0,.11-.08.2-.13.32a6.47,6.47,0,0,0-.25,1.7c.11,0,.47.06.55,0a2.11,2.11,0,0,0,.08-.45c0-.19.06-.37.1-.55.08.21.2.92.38,1a2.18,2.18,0,0,0,.57,0c-.26-.91-.5-1.82-.78-2.72l.22.23,0,0h0c.47.52.1.12,0,0,.47.53.91,1.08,1.33,1.65.14.2.39.73.6.82a1.62,1.62,0,0,0,.44,0c-.29-.49-.59-1-.91-1.45a17.67,17.67,0,0,0-2-2.49,4.25,4.25,0,0,1-.66-1.37c-.18-.39-.36-.77-.57-1.15a21.26,21.26,0,0,0-3.73-4.47c-1.76-1.75-3.45-3.53-5-5.44-.7-.85-1.45-1.65-2.19-2.45-.34-.38-.66-.77-1-1.14l-.09-.09a12.58,12.58,0,0,0,.09-2.12,7,7,0,0,0-1.37-4c-.22-.29-.45-.57-.69-.83s-.55-.45-.65-.69a3.19,3.19,0,0,1-.09-.64,4.21,4.21,0,0,1-.08-.87,4.6,4.6,0,0,1,1.14-3.07,10.38,10.38,0,0,1,3.37-2.23c.34-.18.68-.34,1-.49a.51.51,0,0,0-.11.22c-.22.73.81,1,.81,1A2.92,2.92,0,0,0,129,24.5a.14.14,0,0,0,.06-.21,3,3,0,0,0-1.39-1.05,1.59,1.59,0,0,0-.53-.08l1-.39a.3.3,0,0,0,0,.1.63.63,0,0,0,.51.67,1.23,1.23,0,0,0,.57.66,4.31,4.31,0,0,0,1.76.41.1.1,0,0,0,.1-.14,4.47,4.47,0,0,0-.6-1.18l.08,0a.14.14,0,0,0,.05-.09l.09,0a1.28,1.28,0,0,0,.56.33,4.27,4.27,0,0,0,1.81,0,.11.11,0,0,0,.07-.16,4.28,4.28,0,0,0-1.19-1.25,2.61,2.61,0,0,0,.66-.25A1.23,1.23,0,0,0,133,22a4.24,4.24,0,0,0,1.81,0,.09.09,0,0,0,.06-.15,4.31,4.31,0,0,0-.85-1,3,3,0,0,0-1.28-.92h0l.42-.41v0c-.06.5.43.67.7.73a1.16,1.16,0,0,0,.71.52,4.11,4.11,0,0,0,1.81,0,.11.11,0,0,0,.07-.16,4.37,4.37,0,0,0-1.26-1.3,1.31,1.31,0,0,0-.47-.16,3.35,3.35,0,0,0-.53-.15,1.73,1.73,0,0,0-.52,0l.29-.26a1.67,1.67,0,0,0,.61.31,2.62,2.62,0,0,0,.76.08,1.17,1.17,0,0,0,.63.42,4.32,4.32,0,0,0,1.82,0,.11.11,0,0,0,.06-.16,4.13,4.13,0,0,0-1.26-1.3l0,0a2.63,2.63,0,0,0,1.25-.37.13.13,0,0,0,0-.19,1.33,1.33,0,0,0-.27-.23,4.52,4.52,0,0,0,.65-.71.1.1,0,0,0,0-.14,3.63,3.63,0,0,0-1.56-.1,1,1,0,0,0-.68.47.62.62,0,0,0-.26.09,4.53,4.53,0,0,0,.69-1.48.11.11,0,0,0-.05-.12,2.67,2.67,0,0,0,0-.7.13.13,0,0,0-.18-.09,2.68,2.68,0,0,0-1.15,1.08l0,0a3.18,3.18,0,0,0-.32.16,3.09,3.09,0,0,0-.1-.45.56.56,0,0,0,.17-.09,1.1,1.1,0,0,0,.4-1,3.71,3.71,0,0,0-.6-1.45,2.52,2.52,0,0,0,.7-.59.13.13,0,0,0,0-.19,2.55,2.55,0,0,0-1.1-.24,1.06,1.06,0,0,0,.26-.53,3.73,3.73,0,0,0-.17-1.56.09.09,0,0,0-.14,0,3.94,3.94,0,0,0-1,1.12v-.05a2.61,2.61,0,0,0,.4-.79.13.13,0,0,0-.11-.16,2.37,2.37,0,0,0-.61,0h0a.13.13,0,0,0-.19,0,.77.77,0,0,0-.12.13,2.6,2.6,0,0,0-.6.27l-.13.1a1,1,0,0,0,0-.6,3.63,3.63,0,0,0-.9-1.28.09.09,0,0,0-.14,0,3.11,3.11,0,0,0-.15.42,2.91,2.91,0,0,0-.23-.2.13.13,0,0,0-.19.05,2.66,2.66,0,0,0-.2,1.08l0-.08a.09.09,0,0,0-.14,0l-.13.12-.39,0s-.69,0-.89.4a.14.14,0,0,0-.11,0,1.68,1.68,0,0,0-.35.28l-.08-.23a.09.09,0,0,0-.14,0,3.65,3.65,0,0,0-.46.48,1.81,1.81,0,0,0,.17-.58,3,3,0,0,0,0-.68l.12-.28a.11.11,0,0,0-.1-.14h-.11a2.39,2.39,0,0,0-.25-.6.14.14,0,0,0-.21,0,2.87,2.87,0,0,0-.57.76l-.07,0a2.62,2.62,0,0,0,.33-1,.13.13,0,0,0-.14-.14,2.24,2.24,0,0,0-.49.11,4.1,4.1,0,0,0-.26-1.14.09.09,0,0,0-.14,0,3.59,3.59,0,0,0-.94,1.25,1,1,0,0,0,.07.9.58.58,0,0,0,.09.7l.14.11c0,.14-.05.28-.07.42l0,0s-.9.56-.47,1.19a.44.44,0,0,0,.13.14c-.16.19-.44.58-.23.93,0,.1-.07.19-.11.29-.12.28-.26.57-.4.84,0-.06,0-.11,0-.17v0a1.24,1.24,0,0,0,.18-1.1c.28-.32,0-.86,0-1l0,0a.6.6,0,0,0,.27-.6l0,0a1.24,1.24,0,0,0,.15-1.21l0-.08c.33-.35,0-1,0-1a2.61,2.61,0,0,0-1.11-1.11.12.12,0,0,0-.18.08,2.43,2.43,0,0,0,0,1c0,.09,0,.2-.08.31a2.68,2.68,0,0,0-.31.42l-.13,0a.14.14,0,0,0-.17.12,2.73,2.73,0,0,0,0,.55,1.15,1.15,0,0,0,.21.83v0a2.8,2.8,0,0,0,0,.42,4,4,0,0,0-.2,1l0,.13-.25-.09a.14.14,0,0,0-.17.08l0,0a.12.12,0,0,0-.19,0A2.23,2.23,0,0,0,121,13l-.38.05a2.42,2.42,0,0,0,.17-.45.62.62,0,0,0,.19-.14A4.13,4.13,0,0,0,122,11a.1.1,0,0,0-.1-.14h-.24c.1-.15.17-.29.22-.38a.14.14,0,0,0-.1-.19,2.8,2.8,0,0,0-1.23,0l.06-.16a1.4,1.4,0,0,0,.64-.28,2.69,2.69,0,0,0,.86-1.33.12.12,0,0,0-.12-.15h-.17a3.69,3.69,0,0,0-.27-1.29.09.09,0,0,0-.14,0,3.68,3.68,0,0,0-.93,1.25,1,1,0,0,0-.06.56,1.45,1.45,0,0,0-.24.22,1.3,1.3,0,0,0-.1-.15,2,2,0,0,0-.27-.31v0a2.66,2.66,0,0,0-.94-1.26.13.13,0,0,0-.19,0,2.7,2.7,0,0,0-.13.44.11.11,0,0,0,0,.06,4.71,4.71,0,0,0,.1,1.6,2.63,2.63,0,0,0-.73-.51.13.13,0,0,0-.19.09c0,.06,0,.12,0,.2a4.63,4.63,0,0,0-1,.53,1.72,1.72,0,0,0,0-.26.14.14,0,0,0-.18-.11,3,3,0,0,0-.73.42l-.12-.14a1.29,1.29,0,0,0,.17-.34,2.71,2.71,0,0,0,0-1.58.13.13,0,0,0-.18-.07,2.75,2.75,0,0,0-1,1.19.09.09,0,0,0-.13.07,3.5,3.5,0,0,0,.11,1.55,1,1,0,0,0,.34.48,1.2,1.2,0,0,0,0,.38l-.08,0a1.47,1.47,0,0,0-.6-.61,3.12,3.12,0,0,0-1-.3,1.14,1.14,0,0,0,.1-.19.65.65,0,0,0,.87-.06c.45-.53-.31-1.12-.31-1.12a2.67,2.67,0,0,0-.55-.32,4.91,4.91,0,0,0-.17-.6.1.1,0,0,0-.16-.05c-.1.09-.27.24-.45.43h-.15a.13.13,0,0,0-.13.15,1,1,0,0,0,0,.14,3,3,0,0,0-.44.71,1.24,1.24,0,0,0,.13,1.21l0,0-.25.14v0l-.2-.38c0-.11,0-.22.07-.33a.36.36,0,0,0,0-.09,1.08,1.08,0,0,0-.1-1,3.54,3.54,0,0,0-1.19-1,.09.09,0,0,0-.13.07,3.67,3.67,0,0,0,.1,1.56,1.51,1.51,0,0,0,.11.22c0,.08-.1.18-.15.28s-.38.89.27,1.13c.42.16.69-.18.83-.43l.09.21a4.21,4.21,0,0,0-.44.42,4.27,4.27,0,0,0-1-.22c.18-.47-.42-.94-.42-.94a2.7,2.7,0,0,0-1.48-.54.13.13,0,0,0-.13.15,2.42,2.42,0,0,0,.31.79,5.19,5.19,0,0,0-.72-.34.09.09,0,0,0-.12.09c0,.1,0,.28,0,.48a.14.14,0,0,0-.17,0,2.68,2.68,0,0,0-.73,1,.09.09,0,0,0-.05.08v0a.84.84,0,0,0,0,.17s-.19.74.25,1a1.8,1.8,0,0,0,.08.21,2.37,2.37,0,0,0-.42-.08c.08-.49-.57-.85-.57-.85a2.72,2.72,0,0,0-1.21-.31,2.75,2.75,0,0,0-.18-.45.12.12,0,0,0-.19,0,2.69,2.69,0,0,0-.83,1.34,1.29,1.29,0,0,0,0,.32,4,4,0,0,0-.66-1.15.09.09,0,0,0-.15,0,4.52,4.52,0,0,0-.38.87,2.56,2.56,0,0,0-1-.08.12.12,0,0,0-.1.16,2.71,2.71,0,0,0,1,1.25,2,2,0,0,0,.42.19l0,0a.46.46,0,0,0,.44.05.58.58,0,0,0,0,.14,3.32,3.32,0,0,0-.67-.06,2.49,2.49,0,0,0-.75-.49.13.13,0,0,0-.17.09A2.69,2.69,0,0,0,101.7,16a1.44,1.44,0,0,0,.19.29,4,4,0,0,0-1-.28.09.09,0,0,0-.11.1,6.4,6.4,0,0,0,.18.65,2.66,2.66,0,0,0-1,.66.12.12,0,0,0,0,.19,2.73,2.73,0,0,0,1.55.31,1.52,1.52,0,0,0,.24-.05h0a2.25,2.25,0,0,0-.08.24,1.08,1.08,0,0,0,0,.18,3.06,3.06,0,0,0-.23.3.12.12,0,0,0,0,.1,2,2,0,0,0-.32-.3.11.11,0,0,0-.12,0,3.1,3.1,0,0,0-.68-.24,3.91,3.91,0,0,0-.92-.26.09.09,0,0,0-.1.1,3.49,3.49,0,0,0,.6,1.44,1,1,0,0,0,.81.41v0a2.87,2.87,0,0,0-.83.12.14.14,0,0,0-.09.17A5.78,5.78,0,0,0,98.74,20a.1.1,0,0,0-.09.14,4.43,4.43,0,0,0,.29.65Zm31.39,29c-.22-.24-.46-.46-.7-.69-.08-.07-.38-.26-.41-.36s.05-.29.07-.38a8.61,8.61,0,0,1,.44-1.5c.77.7,1.56,1.38,2.33,2.09l.58.53c.22.22.18.25.19.57s.06.79.08,1.18h0c0,.11,0,.07,0,0a10.18,10.18,0,0,1,0,1.83A19.31,19.31,0,0,0,130.17,49.85Zm-1.23.35a17.28,17.28,0,0,1,2.53,2.67c.18.24.36.48.53.73a3.33,3.33,0,0,1,.5.76,2.65,2.65,0,0,1-.21.85c-.09.34-.19.67-.29,1a9.72,9.72,0,0,0-2-2.72,4.38,4.38,0,0,1-.69-.59,3,3,0,0,1-.21-1A10.26,10.26,0,0,1,128.94,50.2Zm-3.25-2.06a11.36,11.36,0,0,1,2.25,1.28c.12.08.22.13.26.26a1.26,1.26,0,0,1,0,.34,8.31,8.31,0,0,0,.07.86,12.08,12.08,0,0,0,.28,1.48,6.76,6.76,0,0,0-1.69-.92c.07,0-.28-.81-.12-.34C126.39,50.11,126,49.13,125.69,48.14ZM125,52.81l0-.1c.16-.4.32-.8.49-1.19l.6,1.38a3.44,3.44,0,0,1,.28.66c0,.15,0,.1,0,.25s-.07.19-.1.29a21.41,21.41,0,0,0-.37,2.22c-.28-.66-.59-1.31-.91-2a3.24,3.24,0,0,1-.35-.62c0-.11.11-.32.15-.43S124.9,53,125,52.81Zm-1.16-11.67c1.71,1.63,3.26,3.43,5,5.06,0-.05-.25-.23,0,0s.07.13,0,.28a2.56,2.56,0,0,0-.11.24,3.3,3.3,0,0,0-.12.38,10.19,10.19,0,0,0-.22,1.1,13,13,0,0,0-2-1.24c-.24-.12-.48-.24-.74-.34-.1,0-.32,0-.41-.11s-.15-.36-.19-.5A41.35,41.35,0,0,1,123.81,41.14Zm-16.61,11c-.17.45-.32.9-.45,1.37s-.16.86-.29,1.26a3.32,3.32,0,0,1-.59.73c-.23.3-.46.61-.67.93a5.56,5.56,0,0,0-.32-.8c0-.06-.14-.18-.14-.23s.19-.31.24-.39c.34-.55.67-1.1,1.06-1.61,0,0,0,0,0,0,.19-.24.13-.16.05-.06A10.72,10.72,0,0,1,107.2,52.15Zm9.48-4.28a.67.67,0,0,1,.17-.08l.38-.18,1.09-.46c-.37.83-.75,1.66-1.13,2.48-.11-.45-.24-.9-.38-1.34A2.25,2.25,0,0,1,116.68,47.87ZM115,47.39a6.26,6.26,0,0,0-.51.39,7.76,7.76,0,0,0-.84.78,13,13,0,0,0-1.44,1.94,9.52,9.52,0,0,0-.4-1.48,4.34,4.34,0,0,0-.3-.7c-.07-.14-.09-.14,0-.25a3.36,3.36,0,0,1,.66-.52L113,47l1.47-1.08c.14.33.35.64.52,1h0a1.91,1.91,0,0,1,.16.32C115.17,47.32,115.2,47.28,115,47.39Zm5.4-6c-.19.66-.39,1.31-.62,2l-.33.91a3.92,3.92,0,0,1-.38,1c-.13.16-.52.24-.74.34l-.7.32c-.49.24-1,.47-1.46.74a5.43,5.43,0,0,0-.78-1.49c1-.69,1.94-1.39,2.9-2.11C119.05,42.53,119.75,42,120.44,41.42Zm1.74,1c.31,1.16.67,2.32,1.07,3.45-.4,0-.62.86-.75,1.18-.21.56-.41,1.13-.58,1.71a27.52,27.52,0,0,0-.86,3.93A13.47,13.47,0,0,0,120,50.57a9.07,9.07,0,0,0-.89-1.29C120.21,47.05,122,43,122.18,42.43Zm-10.5-25.79v0Zm.19-3.57,0,0h0l0,0Zm1-1.68a1.27,1.27,0,0,0-.13.19l-.3-.28a2.16,2.16,0,0,0,0-.36h.11A3.21,3.21,0,0,0,112.83,11.39Zm.25,3.23A.62.62,0,0,0,113,15l-.07,0-.12.11h0c.42-.43-.08-1.18-.08-1.18s-.19-.24-.29-.34l0-.16.21.17A3.73,3.73,0,0,1,113,14,2.57,2.57,0,0,0,113.08,14.62Zm.26,2.84a3.48,3.48,0,0,0-.75.37v0a1.34,1.34,0,0,0,.53-.46.71.71,0,0,0,.18.08Zm.11-4.12-.06,0,0,0S113.45,13.32,113.45,13.34Zm.71-1.06-.13.09c0-.07,0-.13,0-.19h.06Zm0,1.63-.11,0c0-.06-.09-.11-.13-.16h.16Zm.23,2.48a2.64,2.64,0,0,0-.47-.17,1.18,1.18,0,0,0-.1-.18,2.71,2.71,0,0,0-.38-.43,1,1,0,0,0,.34,0,.6.6,0,0,0,.23,0,3.28,3.28,0,0,0,.37.8ZM116,11.73l0,0h0Zm.17-.12,0,0a.1.1,0,0,0,0,0l-.08-.08,0,0Zm1,1.14-.12.11-.08-.13a.91.91,0,0,0,.17-.17Zm.59,2.88h0a.56.56,0,0,0,.25-.23,2.4,2.4,0,0,1,.21.69,2.17,2.17,0,0,1,0,.36l-.12.07a.14.14,0,0,0-.14-.06,3,3,0,0,0-.42.11,3.2,3.2,0,0,0-.13-.38A.5.5,0,0,0,117.69,15.63Zm.08-4.07-.21-.16a.1.1,0,0,0-.12,0v-.21l.08-.13a.61.61,0,0,1,.07-.14,2.79,2.79,0,0,0,.14.57A.59.59,0,0,0,117.77,11.56Zm.41,2.48a.49.49,0,0,0,.53-.2h0c-.1.29-.19.58-.27.88a1.31,1.31,0,0,0-.21.2c-.1-.18-.2-.37-.31-.55s-.06-.14-.06-.14a.61.61,0,0,0-.07-.1l.09-.13,0-.05Zm1.1-2.11a1.63,1.63,0,0,0,.09-.42v0a.58.58,0,0,0,.16.21,1.39,1.39,0,0,0-.1.33c-.14.31-.28.62-.41.93l-.16.16a1.18,1.18,0,0,0-.23-.67,2.5,2.5,0,0,0-.35-.38,1.78,1.78,0,0,0,.38.14A.52.52,0,0,0,119.28,11.93Zm-.43,4.3a.76.76,0,0,0,0-.15,1.56,1.56,0,0,0,.53-.26l.28-.19a3.21,3.21,0,0,0-.15.56A2.71,2.71,0,0,0,118.85,16.23Zm.73.86a.7.7,0,0,0,.37.44l-.21.19a4,4,0,0,0-.28-.51Zm0-4.42v0h0Zm.77-2.57a2.56,2.56,0,0,1-.11.24,1.25,1.25,0,0,0-.25.09s-.59.26-.69.69c0,0,0-.08,0-.12a1.28,1.28,0,0,0-.1-.72,1.53,1.53,0,0,0,.4.15.52.52,0,0,0,.6-.32l0-.08A.56.56,0,0,0,120.38,10.1Zm.47,6.17a.61.61,0,0,0,.31-.19v.13c0,.21.08.27-.1.41l-.23.18,0,0a1.51,1.51,0,0,0,0-.29,2.21,2.21,0,0,0,0-.25Zm.5-1.66c0,.15-.06.3-.08.46v0a3.22,3.22,0,0,0-.33-.67l.1-.13A.77.77,0,0,0,121.35,14.61Zm.21,3.78a2.94,2.94,0,0,0-.92,0,1.93,1.93,0,0,0-.44.17c.2-.22.41-.44.62-.65a.59.59,0,0,0,.61.28l.11.15Zm.91-3.13-.21.24-.18,0a1.58,1.58,0,0,0-.39.15c0-.35,0-.7.08-1a.59.59,0,0,0,.41-.43,1.06,1.06,0,0,0,.15.15.58.58,0,0,0,.14.9Zm.53,1.5a1.56,1.56,0,0,0,.2.16,2.09,2.09,0,0,0-.11.3l-.17,0a1.38,1.38,0,0,0,.13-.22.11.11,0,0,0-.08-.17l-.14,0,.11-.06ZM124.84,10h0Zm.48,2.89h0a3.16,3.16,0,0,0-1.14.38l.12-.37a.61.61,0,0,0,.44,0A1.38,1.38,0,0,0,125.32,12.93Zm0,2a.1.1,0,0,0-.07.07c0,.07-.06.18-.1.31a.12.12,0,0,0-.16,0,2.37,2.37,0,0,0-.27.31,2.94,2.94,0,0,0-.74-.13,1.21,1.21,0,0,0-.48.07,2.51,2.51,0,0,0-.48-.1,2.33,2.33,0,0,0,.17-.26l.15-.06a2.78,2.78,0,0,0,.56-.4.67.67,0,0,0,.24,0,1.22,1.22,0,0,0,.69,0l.24-.07A.52.52,0,0,0,125.36,15Zm-1.07,2.72h0a4,4,0,0,0-.2-.56l.09,0,.11,0c0,.29.12.65.53.71h.13a1.36,1.36,0,0,1,0,.2,2.65,2.65,0,0,0-.57.12v0a2,2,0,0,0,0-.24A.1.1,0,0,0,124.29,17.69ZM125.7,15l-.06.15-.18-.16h.24Zm-.19,2.63h0Zm.6-6.63-.2,0a.83.83,0,0,0,.08-.12A.27.27,0,0,0,126.11,11Zm.3,3.57a2,2,0,0,0-.15.26l-.17.07.06-.21a1.2,1.2,0,0,0,.15-.3A.42.42,0,0,0,126.41,14.58Zm-.18,4.11.09,0a.33.33,0,0,0,0,.13l-.08-.09Zm.35-5.08,0,0,0-.06Zm.27-2.67,0,0h0Zm.94,2.27a.53.53,0,0,0,.13.26,1.11,1.11,0,0,0-.12.16l-.2-.06A1.6,1.6,0,0,0,127.79,13.21Zm.82-2.17a.9.9,0,0,0,0,.16l-.19-.1s0-.11,0-.16A.94.94,0,0,0,128.61,11Zm1.46,6.84v0h0c-.19.32-.4.63-.61.94a2,2,0,0,0-.2-.47,1.13,1.13,0,0,1-.1-.13h0A3.19,3.19,0,0,0,130.07,17.88Zm-.2-1.07-.06,0v0l-.12-.24h0Zm1-5.78a2.67,2.67,0,0,0-.37.76,1.07,1.07,0,0,0-.1-.25A2.47,2.47,0,0,0,130,11v-.14l.05,0a.58.58,0,0,0,.65.26Zm.88.7-.16,0a2,2,0,0,0-.17-.36.57.57,0,0,0,.3.15A1.22,1.22,0,0,0,131.71,11.73Zm-.28,4.76a2,2,0,0,1,.07-.23,2.85,2.85,0,0,0,1.17-.52,5.81,5.81,0,0,0-.58.81h0a.12.12,0,0,0-.12-.15A1.92,1.92,0,0,0,131.43,16.49Zm.33.89a.28.28,0,0,1,0,.09l-.12.11Zm0-2.43a.74.74,0,0,1,0-.14l.13,0c0,.06,0,.11,0,.17Zm.92-2.48a.53.53,0,0,0,0,.13l-.06.07c-.17.18-.33.37-.49.57a1.09,1.09,0,0,0-.56.27v0c0-.08,0-.15.07-.22v0l.19-.08A3.1,3.1,0,0,0,132.71,12.47Zm.27.62-.18.14-.21,0,.21-.29A.48.48,0,0,0,133,13.09Zm.09-1.06-.08.05,0-.09Zm1.12,1a4.81,4.81,0,0,0-.33.59l-.15-.08c0-.12,0-.24,0-.34l.11,0Zm1,4.85.24-.13a.67.67,0,0,0,.32.28l-.2.05ZM134,17.76s0-.06,0-.09a1,1,0,0,0,.23-.22l.1,0a1.29,1.29,0,0,0,1-.28.48.48,0,0,0,0,.18.45.45,0,0,0,0,.11c-.16.07-.33.15-.49.24A1.21,1.21,0,0,0,134,17.76Zm-1.11-2.05a.09.09,0,0,0-.1-.05l0,0a.14.14,0,0,0,0-.21,1.22,1.22,0,0,0,.75-.77l.06-.23a1.06,1.06,0,0,0,.34.82v0a3.16,3.16,0,0,0-.81,1.12A5.69,5.69,0,0,0,132.89,15.71Zm-1.31,5.22h0l0,0Zm-.32-.56a1.38,1.38,0,0,0,.34-.41c.48-.12.66-.83.66-.83a3.94,3.94,0,0,0,.07-.55.3.3,0,0,0,.16,0,.55.55,0,0,0,.31.4h0a5.61,5.61,0,0,1-.48.51l-.46.4a.62.62,0,0,0-.32.24Zm0-9.21a1.81,1.81,0,0,0-.15-.19l0,0a.41.41,0,0,0,.16,0A.54.54,0,0,0,131.22,11.16Zm-1.05,4.22-.33,0a.74.74,0,0,0,.61-.73,1.8,1.8,0,0,0,.31.2.51.51,0,0,0,.42,0,.06.06,0,0,1,0,0h0S130.35,14.88,130.17,15.38Zm.21.74a1.17,1.17,0,0,0,.46.17,5.42,5.42,0,0,1-.22.56l-.06,0c-.13-.21-.27-.41-.4-.61Zm-.31,5.76.21-.1a.75.75,0,0,0,.26.21h0a.38.38,0,0,0-.13.09A2.18,2.18,0,0,0,130.07,21.88Zm-1-.42a1.8,1.8,0,0,0,.26-.55,3.53,3.53,0,0,0,.06-.42l.16-.21a.53.53,0,0,0,.32.5.65.65,0,0,0,.81-.25.47.47,0,0,0,.33,0A12.35,12.35,0,0,1,129.06,21.46Zm0-9s0-.14,0-.26h0a2.92,2.92,0,0,0,.19.31Zm-.17,0h-.15a1.19,1.19,0,0,0-.84.31,2.29,2.29,0,0,0,0-.25,1.29,1.29,0,0,0,.16-.17,3.17,3.17,0,0,0,.84-.19h0C128.9,12.24,128.89,12.34,128.87,12.43Zm-.1,1.28-.05.07-.28,0v0a2,2,0,0,0,.32,0Zm-.29,2,0,0-.1-.1a1.07,1.07,0,0,0,.16-.27.35.35,0,0,0,0,.08.37.37,0,0,0,.15.13A.88.88,0,0,0,128.48,15.69Zm-.23,1c.07-.08.15-.16.22-.25h0a1.32,1.32,0,0,0,0,.27Zm-.48,0c-.27.05-.64.2-.7.56l-.13.1a2.05,2.05,0,0,0-.37,0,1.29,1.29,0,0,0,.07-.21.11.11,0,0,0,.08,0c.58,0,.66-.63.67-.93a.54.54,0,0,0,.43-.09,2.22,2.22,0,0,0,.52-.21.61.61,0,0,0,0,.27A7.27,7.27,0,0,1,127.77,16.73Zm-.28,1.3h0Zm-.39,2.75a.55.55,0,0,0,.49.17l-.3.26-.08,0A2.84,2.84,0,0,0,127.1,20.78Zm-1.91-.62h0l.36-.08c.12.26.4.69.88.52s.33-1,.27-1.11h0a1.18,1.18,0,0,0,.65.17c-.12.1-.57.52-.39,1a.14.14,0,0,0-.11,0,2.54,2.54,0,0,0-.62.6,1.45,1.45,0,0,0-.08-.14A3.08,3.08,0,0,0,125.19,20.16ZM124.1,23a17.2,17.2,0,0,0,.67-1.59,2.39,2.39,0,0,0,.16.38,1.46,1.46,0,0,0,.57.58C125,22.61,124.58,22.81,124.1,23ZM124,20a1,1,0,0,0,0-.17l.09,0a.48.48,0,0,0,.12.16Zm-5,.3a11.3,11.3,0,0,1,.85-1.17,1.15,1.15,0,0,0,0,.19.51.51,0,0,0,.07.67,1.26,1.26,0,0,0,1.09.36,4.34,4.34,0,0,0,.17.4s.5.94,1.16.55.07-1.28.07-1.28a1.84,1.84,0,0,0-.17-.22l.13-.09a.54.54,0,0,0,.07.13,1.18,1.18,0,0,0,.64.58.76.76,0,0,0-.31,1c.27.46.8.31,1.08.18-.11.24-.23.47-.36.7a6.53,6.53,0,0,1-.91,1.5,6.75,6.75,0,0,1-.88.59,6.59,6.59,0,0,0-.75.65A6.44,6.44,0,0,0,119,28.42a8.8,8.8,0,0,1-1.33-4.15A6.51,6.51,0,0,1,118.93,20.25Zm-2.08-1.63a1.61,1.61,0,0,0,.54-.41,3.24,3.24,0,0,0,.31-.48.55.55,0,0,0,.35.15c0,.18,0,.35,0,.53a7.59,7.59,0,0,1,.07.95c0,.21-.24.43-.37.61s-.31.47-.44.7A14.48,14.48,0,0,0,116.85,18.62ZM116.36,14h-.06a1.59,1.59,0,0,0-.57-.55,3.43,3.43,0,0,0-.8-.27,1.47,1.47,0,0,1,.1-.13l.14,0a1.34,1.34,0,0,0,.93.09.53.53,0,0,0,.39-.41h.17v0l.13.23,0,.06-.16-.09a.14.14,0,0,0-.19.1A2.61,2.61,0,0,0,116.36,14Zm-.58,1.63c0,.08,0,.17,0,.27l-.15,0a.8.8,0,0,0-.08-.16Zm.56,1.56v0h0l-.06-.12Zm-4.84,3c.65.21,1-.73,1-.73a1.24,1.24,0,0,0,1.12-.47h0a3.88,3.88,0,0,0,.8,1.17,1.23,1.23,0,0,0,1.18.28.51.51,0,0,0,.4-.56,1.25,1.25,0,0,0-.67-1,3.67,3.67,0,0,0-1.41-.36c.08-.17.14-.34.2-.5h0a3.31,3.31,0,0,0,.25.3s.76.76,1.27.2l0-.07c.67,2.38.32,4.9.6,7.33-.58-.41-1.16-.8-1.75-1.2s-1-.52-1.44-.85a3.9,3.9,0,0,1-1.59-2.58C111.52,20.86,111.51,20.55,111.5,20.23Zm0-1.95a1.47,1.47,0,0,0,.25-.57,2.77,2.77,0,0,0,0-.39,2.11,2.11,0,0,0,.16.3.43.43,0,0,0,.26.2,3.25,3.25,0,0,0-.69.67C111.46,18.42,111.45,18.35,111.45,18.28Zm-9-1.68v0l0,0Zm.59-.11h-.24l.13-.13A.76.76,0,0,0,103,16.49Zm2.07-.66a3.31,3.31,0,0,0-.35.73l0,.16v-.09a.61.61,0,0,0,0-.27,1.52,1.52,0,0,0-.13-.47.6.6,0,0,0,.46-.1v0Zm.35,1.82.09.36s0,0,0,.08l-.07.17-.84-1.06a.7.7,0,0,0,.12-.28.64.64,0,0,0,.46.73A.66.66,0,0,0,105.46,17.65Zm.1-2.35h0l-.17.16a1.57,1.57,0,0,0,.12-.21Zm.45-1.24-.31,0a.76.76,0,0,0,0-.15.81.81,0,0,0,.22,0A1.62,1.62,0,0,0,106,14.06Zm.87,2.22a2.11,2.11,0,0,0-.21.31,2.49,2.49,0,0,0-.48,0,.13.13,0,0,0-.11.16,2.72,2.72,0,0,0,.17.39,3.11,3.11,0,0,0-.42.45,1.42,1.42,0,0,1,0-.16,1.49,1.49,0,0,0,.25-.58,3.83,3.83,0,0,0,0-.47.49.49,0,0,0,.41,0,1.1,1.1,0,0,0,.28-.18Zm.48,3.53a.59.59,0,0,0,0-.13l.19.12s0,0,0,0a1.07,1.07,0,0,0-.08.37l-.21.22-.09-.12A1.68,1.68,0,0,0,107.36,19.81Zm1-2.48h-.13l-.06,0a1,1,0,0,0-.16-.19,2.64,2.64,0,0,0,0-.4,1.12,1.12,0,0,0,.36-.05h0A1.53,1.53,0,0,0,108.37,17.33Zm.28,1.05h0l-.23.23-.15-.07a2.94,2.94,0,0,0-1-.17l0,0a.82.82,0,0,0,.2-.12.59.59,0,0,0,.68-.24.52.52,0,0,0,.08-.19A2.77,2.77,0,0,0,108.65,18.38Zm-.21-5.88a2.42,2.42,0,0,0-.41.3v0l-.24-.22v0a3.55,3.55,0,0,0,0-.56h0A1,1,0,0,0,108.44,12.5Zm.28,3h0l-.47-.06a2,2,0,0,0-.27-.12,3.55,3.55,0,0,0-.78-.15v-.08a.2.2,0,0,0,0-.07.92.92,0,0,0,.33,0l0,0a.7.7,0,0,0,.83-.3c.11.22.2.45.29.68Zm.32,3.65h0a5.28,5.28,0,0,0-.16-.54l.13.1A.83.83,0,0,0,109,19.14Zm.15-7.58h0Zm.46.16-.24-.09h.2A.36.36,0,0,0,109.65,11.72Zm.08.18a2.4,2.4,0,0,0-.54-.17.36.36,0,0,0,0-.11l.56.27Zm-.4,1.78c0-.1,0-.2,0-.29.09.18.18.35.26.53a.75.75,0,0,0-.14.12l-.22-.1A1,1,0,0,0,109.33,13.68Zm1.29-.64a2.84,2.84,0,0,0-.37.78h0l0-.12a.14.14,0,0,0-.2-.08l-.14.09-.18-.29a.67.67,0,0,0,.79-.28l.07-.16Zm-.44,2.41v0l.11.38-.18-.09-.05,0A2,2,0,0,0,110.18,15.45Zm.79-.06a1.72,1.72,0,0,0-.12.51c-.14-.38-.29-.75-.45-1.12a.53.53,0,0,0,.26.13l.17,0A1.55,1.55,0,0,0,111,15.39Zm-.21,3.08a8.61,8.61,0,0,1,0,.88,4,4,0,0,1-.34-.5l0-.1a3.59,3.59,0,0,0,.11-.41A.58.58,0,0,0,110.76,18.47Zm-.21-1.36h0Zm-1.37,5.2a5.32,5.32,0,0,1-1-.78,2.68,2.68,0,0,0,.07-.27l.12-.05a1.25,1.25,0,0,0,.72-1v0a3.49,3.49,0,0,0,.65.44,1.42,1.42,0,0,0,.91.1,4.81,4.81,0,0,0,.51,2.41A8,8,0,0,1,109.18,22.31Zm-3.06,1.36a1.4,1.4,0,0,0,0-.28.52.52,0,0,0,.61-.19,1.34,1.34,0,0,0,.24-.94l.11.06a.6.6,0,0,0,.6-.06A8,8,0,0,0,109,23.35,12.78,12.78,0,0,1,106.12,23.67ZM105,21.24a1.18,1.18,0,0,0,.07-.2,1,1,0,0,0,.42.08c0,.05,0,.1,0,.16A2.42,2.42,0,0,0,105,21.24ZM104.45,23a.88.88,0,0,0,.2-.83l.23.2a3.11,3.11,0,0,0-.17.84Zm-.19-4.88a.57.57,0,0,0,.3-.24l0,0,.11.16c.47.71.91,1.45,1.38,2.17a.61.61,0,0,0,.23.34l.48.67a1.39,1.39,0,0,0-.09.41,4.45,4.45,0,0,0-.73-.89c.17-.51-.53-.92-.53-.92l-.2-.1a.69.69,0,0,0,.1-.17c.29-.7-.71-1.07-.71-1.07a1.78,1.78,0,0,0-.36-.1A1.41,1.41,0,0,0,104.26,18.14Zm-.74-3.32a.14.14,0,0,0-.2.07.14.14,0,0,0,0,.07l0,0a2.64,2.64,0,0,1-.07-.3,1.16,1.16,0,0,0,.32-.76.54.54,0,0,0,.39.28l.13,0v.05a1.06,1.06,0,0,0,.14.58,1.23,1.23,0,0,0,0,.52A2.83,2.83,0,0,0,103.52,14.82Zm-.69,7.25h.07a.55.55,0,0,0,.29-.08c.06.16.13.32.2.47l.06.17A3.73,3.73,0,0,1,102.83,22.07Zm-.41.81a.6.6,0,0,0,.18-.4c.12.13.25.27.39.4l-.1,0A2.4,2.4,0,0,0,102.42,22.88Zm-.2-2.56-.13-.11a1.5,1.5,0,0,0,0-.51,2.85,2.85,0,0,0-.47-.91h0l.22.07a.55.55,0,0,0,.41.33.56.56,0,0,0,.39-.06c0,.09,0,.18,0,.26A2.93,2.93,0,0,0,102.22,20.32ZM101,21.84a.54.54,0,0,0,.16-.44v-.06a1.57,1.57,0,0,0,.76.11l.06.13.12.24a1.63,1.63,0,0,0-.63-.08A4.8,4.8,0,0,0,101,21.84Z" transform="translate(-0.69)"/><path class="aeb_eqt_cls-4" d="M92.42,27.79A27.54,27.54,0,1,0,120,.25,27.54,27.54,0,0,0,92.42,27.79Zm13.71,18L138,14a22.7,22.7,0,0,1-31.82,31.83Zm-8.87-18a22.69,22.69,0,0,1,36.52-18L102,41.61A22.62,22.62,0,0,1,97.26,27.79Z" transform="translate(-0.69)"/></g></g></svg>