<svg xmlns="http://www.w3.org/2000/svg" viewBox="0 0 190.89 94.42"><defs><style>.perha_eqt_cls-1{font-size:81px;fill:#999;font-family:CenturyGothic, Century Gothic;}.perha_eqt_cls-2{fill:#595a5a;}</style></defs><g id="Layer_2" data-name="Layer 2"><g id="Layer_1-2" data-name="Layer 1"><text class="perha_eqt_cls-1" transform="translate(64.73 69.58)">/</text><path class="perha_eqt_cls-2" d="M112.37,22.88l1.52-10.61h.17l4.31,8.7,4.27-8.7h.17l1.53,10.61h-1l-1-7.59-3.75,7.59h-.27l-3.8-7.65-1,7.65Z" transform="translate(-8.84)"/><path class="perha_eqt_cls-2" d="M130.76,12.27l5,10.61h-1.15l-1.67-3.49h-4.57l-1.65,3.49h-1.18l5-10.61Zm-.13,2.25-1.82,3.84h3.62Z" transform="translate(-8.84)"/><path class="perha_eqt_cls-2" d="M137.36,22.88V12.27h.23l7.06,8.13V12.27h1V22.88h-.24l-7-8v8Z" transform="translate(-8.84)"/><path class="perha_eqt_cls-2" d="M158.51,14.05l-.82.78a6.52,6.52,0,0,0-1.94-1.33,5.44,5.44,0,0,0-2.06-.45,4.91,4.91,0,0,0-2.38.62,4.51,4.51,0,0,0-1.75,1.66,4.33,4.33,0,0,0-.62,2.22,4.43,4.43,0,0,0,.64,2.27,4.55,4.55,0,0,0,1.78,1.7,5.09,5.09,0,0,0,2.48.61,4.23,4.23,0,0,0,2.77-.92A3.64,3.64,0,0,0,158,18.82h-3.38v-1h4.57a5.36,5.36,0,0,1-1.46,3.91,5.23,5.23,0,0,1-3.87,1.44,5.8,5.8,0,0,1-4.66-2,5.33,5.33,0,0,1-1.32-3.57,5.52,5.52,0,0,1,2.84-4.84,6.12,6.12,0,0,1,3-.73,6.53,6.53,0,0,1,2.54.49A7.4,7.4,0,0,1,158.51,14.05Z" transform="translate(-8.84)"/><path class="perha_eqt_cls-2" d="M161.22,12.27h2.11a13.6,13.6,0,0,1,2.4.14,2.76,2.76,0,0,1,1.53.93,2.61,2.61,0,0,1,.59,1.75,2.86,2.86,0,0,1-.4,1.53,2.65,2.65,0,0,1-1.17,1,5.31,5.31,0,0,1-2.09.34L168,22.88h-1.31L162.88,18h-.6v4.93h-1.06Zm1.06,1v3.6l1.83,0a4.7,4.7,0,0,0,1.57-.2,1.63,1.63,0,0,0,.79-.65,1.82,1.82,0,0,0,.29-1,1.73,1.73,0,0,0-.29-1,1.66,1.66,0,0,0-.76-.63,4.76,4.76,0,0,0-1.56-.18Z" transform="translate(-8.84)"/><path class="perha_eqt_cls-2" d="M175.18,12a5.51,5.51,0,0,1,4,1.61,5.36,5.36,0,0,1,1.63,4,5.62,5.62,0,0,1-9.56,4,5.32,5.32,0,0,1-1.62-3.91,5.56,5.56,0,0,1,.74-2.83,5.35,5.35,0,0,1,2-2A5.47,5.47,0,0,1,175.18,12Zm0,1a4.37,4.37,0,0,0-2.23.62,4.5,4.5,0,0,0-1.65,1.65,4.63,4.63,0,0,0-.59,2.32,4.46,4.46,0,0,0,4.47,4.49,4.53,4.53,0,0,0,2.29-.6,4.28,4.28,0,0,0,1.64-1.63,4.67,4.67,0,0,0,.59-2.31,4.51,4.51,0,0,0-.59-2.29,4.41,4.41,0,0,0-1.66-1.63A4.48,4.48,0,0,0,175.22,13Z" transform="translate(-8.84)"/><path class="perha_eqt_cls-2" d="M182.15,12.27h1.16l3.51,8.19,3.58-8.19h1.15l-4.61,10.61h-.23Z" transform="translate(-8.84)"/><path class="perha_eqt_cls-2" d="M193.34,12.27h6.08v1h-5v3.32h5v1h-5v4.17h5v1h-6Z" transform="translate(-8.84)"/><path class="perha_eqt_cls-2" d="M152.92,30H159v1h-5v3.33h5v1h-5v4.16h5v1h-6Z" transform="translate(-8.84)"/><path class="perha_eqt_cls-2" d="M160.28,30h1.24l2.54,4.13L166.61,30h1.22l-3.16,5.13L168,40.6H166.8l-2.75-4.47-2.77,4.47H160l3.39-5.47Z" transform="translate(-8.84)"/><path class="perha_eqt_cls-2" d="M168.78,31V30h5.81v1h-2.37V40.6h-1.08V31Z" transform="translate(-8.84)"/><path class="perha_eqt_cls-2" d="M176.12,30h6.08v1h-5v3.33h5v1h-5v4.16h5v1h-6Z" transform="translate(-8.84)"/><path class="perha_eqt_cls-2" d="M184,40.6V30h.24l7.06,8.14V30h1V40.6h-.24l-7-8v8Z" transform="translate(-8.84)"/><path class="perha_eqt_cls-2" d="M193.91,31V30h5.81v1h-2.36V40.6h-1.08V31Z" transform="translate(-8.84)"/><path class="perha_eqt_cls-2" d="M23.75,12.27l4.94,10.61H27.55l-1.67-3.49H21.31l-1.65,3.49H18.47l5-10.61Zm-.14,2.25-1.82,3.84h3.63Z" transform="translate(-8.84)"/><path class="perha_eqt_cls-2" d="M30.35,22.88V12.27h.23l7.06,8.13V12.27h1V22.88h-.24l-7-8v8Z" transform="translate(-8.84)"/><path class="perha_eqt_cls-2" d="M41.27,22.88V12.27h.23l7.06,8.13V12.27h1V22.88h-.24l-7-8v8Z" transform="translate(-8.84)"/><path class="perha_eqt_cls-2" d="M52.23,12.27h1.06v6.4a13.18,13.18,0,0,0,0,1.42,2.34,2.34,0,0,0,.37,1.05,2.17,2.17,0,0,0,.89.71,2.77,2.77,0,0,0,1.2.28,2.36,2.36,0,0,0,1-.22,2.25,2.25,0,0,0,.81-.62,2.54,2.54,0,0,0,.47-1,7.37,7.37,0,0,0,.11-1.66v-6.4h1.06v6.4A8,8,0,0,1,59,21a3.21,3.21,0,0,1-1.12,1.53,3.16,3.16,0,0,1-2,.64,3.84,3.84,0,0,1-2.2-.61,3,3,0,0,1-1.23-1.62,8.65,8.65,0,0,1-.19-2.24Z" transform="translate(-8.84)"/><path class="perha_eqt_cls-2" d="M66.2,12.27l5,10.61H70l-1.67-3.49H63.76l-1.65,3.49H60.93l5-10.61Zm-.13,2.25-1.82,3.84h3.62Z" transform="translate(-8.84)"/><path class="perha_eqt_cls-2" d="M72.79,12.27h1.06v9.58h4.08v1H72.79Z" transform="translate(-8.84)"/><path class="perha_eqt_cls-2" d="M8.84,30h6.08v1h-5v3.33h5v1h-5v4.16h5v1h-6Z" transform="translate(-8.84)"/><path class="perha_eqt_cls-2" d="M16.19,30h1.24L20,34.12,22.53,30h1.22l-3.17,5.13L24,40.6H22.72L20,36.13,17.2,40.6H16l3.39-5.47Z" transform="translate(-8.84)"/><path class="perha_eqt_cls-2" d="M25.74,30h2.11a12.56,12.56,0,0,1,2.45.16,2.77,2.77,0,0,1,1.49.92,2.69,2.69,0,0,1,.57,1.75,2.64,2.64,0,0,1-.56,1.75,2.75,2.75,0,0,1-1.55.93,14.24,14.24,0,0,1-2.7.17H26.8V40.6H25.74Zm1.06,1v3.6l1.79,0a4.83,4.83,0,0,0,1.6-.19,1.68,1.68,0,0,0,.79-.65,1.8,1.8,0,0,0,0-2,1.55,1.55,0,0,0-.76-.63A4.46,4.46,0,0,0,28.67,31Z" transform="translate(-8.84)"/><path class="perha_eqt_cls-2" d="M34.49,30h6.08v1h-5v3.33h5v1h-5v4.16h5v1h-6Z" transform="translate(-8.84)"/><path class="perha_eqt_cls-2" d="M52.28,32l-.83.64a4.6,4.6,0,0,0-1.66-1.36,4.9,4.9,0,0,0-2.14-.47,4.81,4.81,0,0,0-2.35.61A4.32,4.32,0,0,0,43.63,33a4.47,4.47,0,0,0-.6,2.31,4.38,4.38,0,0,0,1.33,3.24,4.65,4.65,0,0,0,3.36,1.3,4.7,4.7,0,0,0,3.73-1.75l.83.64a5.3,5.3,0,0,1-2,1.56,6.24,6.24,0,0,1-2.66.55A5.53,5.53,0,0,1,43.26,39a5.61,5.61,0,0,1-1.35-3.78,5.25,5.25,0,0,1,1.64-3.92,5.63,5.63,0,0,1,4.09-1.59,6,6,0,0,1,2.68.58A5.25,5.25,0,0,1,52.28,32Z" transform="translate(-8.84)"/><path class="perha_eqt_cls-2" d="M53.36,31V30h5.81v1H56.81V40.6H55.73V31Z" transform="translate(-8.84)"/><path class="perha_eqt_cls-2" d="M60.71,30h6.08v1h-5v3.33h5v1h-5v4.16h5v1h-6Z" transform="translate(-8.84)"/><path class="perha_eqt_cls-2" d="M68.62,40.6V30h2.2a11.06,11.06,0,0,1,3.46.39,4.63,4.63,0,0,1,2.41,1.87,5.69,5.69,0,0,1,.87,3.18,5.6,5.6,0,0,1-.69,2.81A4.53,4.53,0,0,1,75.08,40,6.79,6.79,0,0,1,72,40.6Zm1-1h1.22a11.52,11.52,0,0,0,3-.27,3.53,3.53,0,0,0,1.89-1.41,4.35,4.35,0,0,0,.68-2.47,4.49,4.49,0,0,0-.74-2.62,3.77,3.77,0,0,0-2.07-1.5,12.61,12.61,0,0,0-3.28-.3h-.75Z" transform="translate(-8.84)"/><path class="perha_eqt_cls-2" d="M20.25,47.72h2.09a5,5,0,0,1,1.94.3,2.34,2.34,0,0,1,1.07.92,2.52,2.52,0,0,1,.39,1.38,2.43,2.43,0,0,1-.34,1.28,2.55,2.55,0,0,1-1,.94,4,4,0,0,1,1.27.66,2.6,2.6,0,0,1,.69.92,2.7,2.7,0,0,1,.25,1.17,2.87,2.87,0,0,1-.93,2.16,3.54,3.54,0,0,1-2.51.88H20.25Zm1,1v3.39h.6a4.72,4.72,0,0,0,1.63-.2,1.71,1.71,0,0,0,.82-.65,1.65,1.65,0,0,0,.31-1,1.41,1.41,0,0,0-.51-1.15,2.6,2.6,0,0,0-1.62-.41Zm0,4.46v4.07H22.6a4.75,4.75,0,0,0,1.71-.23,2,2,0,0,0,.87-.71A1.84,1.84,0,0,0,25,54.07a2.35,2.35,0,0,0-1.27-.72,9.76,9.76,0,0,0-1.88-.13Z" transform="translate(-8.84)"/><path class="perha_eqt_cls-2" d="M28.71,47.72h6.08v1h-5v3.32h5v1h-5v4.17h5v1h-6Z" transform="translate(-8.84)"/><path class="perha_eqt_cls-2" d="M36.63,58.33V47.72h.23l7.06,8.13V47.72h1V58.33h-.23l-7-8v8Z" transform="translate(-8.84)"/><path class="perha_eqt_cls-2" d="M47.55,47.72h6.08v1h-5v3.32h5v1h-5v4.17h5v1h-6Z" transform="translate(-8.84)"/><path class="perha_eqt_cls-2" d="M55.47,47.72h5.31v1H56.53v3.32h4.25v1H56.53v5.21H55.47Z" transform="translate(-8.84)"/><path class="perha_eqt_cls-2" d="M62.48,47.72h1.06V58.33H62.48Z" transform="translate(-8.84)"/><path class="perha_eqt_cls-2" d="M64.91,48.76v-1h5.82v1H68.36v9.57H67.28V48.76Z" transform="translate(-8.84)"/><path class="perha_eqt_cls-2" d="M71.16,56.35l.9-.54c.64,1.17,1.37,1.75,2.2,1.75a2.14,2.14,0,0,0,1-.24,1.74,1.74,0,0,0,.72-.67,1.78,1.78,0,0,0,.24-.89,1.85,1.85,0,0,0-.36-1A8.72,8.72,0,0,0,74.05,53a9.38,9.38,0,0,1-1.66-1.45,2.68,2.68,0,0,1-.56-1.62,2.47,2.47,0,0,1,.33-1.26,2.33,2.33,0,0,1,.94-.9,2.66,2.66,0,0,1,1.31-.33,2.87,2.87,0,0,1,1.4.37,5,5,0,0,1,1.38,1.37l-.87.66a4.07,4.07,0,0,0-1-1.05,1.72,1.72,0,0,0-.92-.25,1.48,1.48,0,0,0-1,.39,1.28,1.28,0,0,0-.4,1,1.75,1.75,0,0,0,.14.67,2.47,2.47,0,0,0,.53.7A17.26,17.26,0,0,0,75,52.33a7.68,7.68,0,0,1,1.89,1.82,2.9,2.9,0,0,1,.51,1.59,2.66,2.66,0,0,1-.88,2,2.93,2.93,0,0,1-2.13.86,3.15,3.15,0,0,1-1.75-.52A4.7,4.7,0,0,1,71.16,56.35Z" transform="translate(-8.84)"/></g><g id="Layer_5" data-name="Layer 5"><path class="perha_eqt_cls-2" d="M103.93,66v0S104,66.1,103.93,66Zm3.36-3.78Zm10.61,7.13c0,.25.39.33,0,0ZM95,72.57l.09-.11,0,.07S95,72.56,95,72.57Zm26.72-2.11v0h0Zm-15.94-3,0,.06Zm0,.13a.25.25,0,0,0,0-.07A.19.19,0,0,1,105.81,67.59Zm11.78-39.2a2.73,2.73,0,0,0,0-1.58.13.13,0,0,0-.18-.06,2.67,2.67,0,0,0-1,1.23s-.34.9.31,1.12S117.59,28.39,117.59,28.39ZM87.74,40.05a.13.13,0,0,0,0,.19,2.66,2.66,0,0,0,.77.53l.08.08a1.23,1.23,0,0,0,1,.31,3,3,0,0,0-.69.44.14.14,0,0,0,0,.21l.12.08a6,6,0,0,0-.63.56.1.1,0,0,0,0,.17,4.26,4.26,0,0,0,1.77.37,1.3,1.3,0,0,0,.47-.13,2.46,2.46,0,0,0,.69.35,4.94,4.94,0,0,0-1,.79.11.11,0,0,0,0,.17,4.3,4.3,0,0,0,1.78.36h0a3.32,3.32,0,0,0,.91.15s1.07,0,1-.77-.83-.67-1-.66L93,43.19a1.54,1.54,0,0,0-.36-.2.59.59,0,0,0,.06-.2.38.38,0,0,0,0-.15,7,7,0,0,0,1.09.56.63.63,0,0,0,.62.38.82.82,0,0,0,.29-.08,7.92,7.92,0,0,0,2.28.08c.66,0,1.32-.14,2-.14a6.1,6.1,0,0,1,1.42.22,8.8,8.8,0,0,1,3.2,1.94q.75.6,1.47,1.23a4.22,4.22,0,0,1,1,1,16.33,16.33,0,0,0,2.47,3.43,6.05,6.05,0,0,1,1.74,3.44c0,.07,0,.14,0,.21a4.69,4.69,0,0,0-.1.6c0,.34,0,.68,0,1a11.31,11.31,0,0,1-.3,1.28l-.37.26c-.34.3-.64.64-1,1-3,2.85-6.53,5.17-9.52,8.06A11.63,11.63,0,0,0,97.35,69a3,3,0,0,1-.52.65l-.58.54c-.36.35-.72.71-1.06,1.09a16.41,16.41,0,0,0-1.91,3,11,11,0,0,0-1.39,3.25c.15,0,.26,0,.33-.06a4.33,4.33,0,0,0,.26-.84A8.79,8.79,0,0,1,93.41,75c.09.18.19.37.27.56l.12.3a.32.32,0,0,1,0,.35c-.2.45-.47.87-.67,1.32a1.68,1.68,0,0,0,.5,0c.18-.07.34-.54.45-.71a3.35,3.35,0,0,1,0,.71c.06,0,.28,0,.33,0s0-.71,0-.84a.82.82,0,0,1,0-.41,1.91,1.91,0,0,1,.29-.41c.17-.22.34-.43.52-.64-.09.77-.14,1.53-.16,2.3a1.45,1.45,0,0,0,.36,0,.33.33,0,0,0,.1,0s0-.25,0-.32c0-.56.12-1.12.22-1.68a16.07,16.07,0,0,1,.92-3.41A11,11,0,0,1,97,73.39a6.27,6.27,0,0,1,.28,1.66,4.09,4.09,0,0,1-.41,1c-.21.5-.41,1-.6,1.52.28,0,.41.07.53-.19.18-.42.38-.83.58-1.23,0,.34,0,.67,0,1a2.74,2.74,0,0,0,0,.41s.1,0,.13,0c.28.08.27,0,.27-.27s0-.57,0-.86a19.39,19.39,0,0,0-.29-3.48,12.25,12.25,0,0,0-.31-1.3,2.6,2.6,0,0,1-.16-.44c0-.21.3-.56.41-.75a10.25,10.25,0,0,1,2.16-2.53,7.77,7.77,0,0,1,.76,2,6.21,6.21,0,0,1,.14.62,1,1,0,0,1-.16.58c-.2.42-.38.84-.55,1.27a22.56,22.56,0,0,0-1.22,5.13c.13,0,.26,0,.38,0s.18,0,.23-.23c.14-.67.29-1.34.46-2,.16.57.31,1.13.46,1.7,0,.16.06.49.19.54a1.27,1.27,0,0,0,.39,0c-.18-1-.39-2-.61-2.91a1.07,1.07,0,0,1-.05-.58,3.92,3.92,0,0,1,.23-.6c.16-.41.35-.8.54-1.2a36.83,36.83,0,0,1,.39,4.2l0,.55a1.9,1.9,0,0,0,0,.54,1.21,1.21,0,0,0,.38,0,2,2,0,0,0,0-.55c0-.19,0-.37,0-.56,0-.4,0-.79,0-1.18a4.9,4.9,0,0,1,.64,1.37c0,.15.17.84.3.92s.24,0,.31,0a8.84,8.84,0,0,0-1-2.65,2.09,2.09,0,0,0-.14-.17c-.15-.12-.13-.06-.17-.23a3.94,3.94,0,0,1,0-.69c0-.5,0-1-.1-1.48,0-.25,0-.49-.07-.74a1.37,1.37,0,0,1,0-.4,1.88,1.88,0,0,1,.21-.36,13.43,13.43,0,0,1,.91-1.32,8.48,8.48,0,0,1,2.09-1.92c.17.42.32.85.46,1.29s.45,1.06.33,1.46-.38.89-.55,1.33c-.11.26-.21.52-.3.79a33.33,33.33,0,0,0-1.39,5.09,6,6,0,0,0,.85,0c.21,0,.17,0,.23-.26s.15-.54.23-.81c.06.24.13.48.18.73,0,.07,0,.31.09.34s.07,0,.09,0a2.66,2.66,0,0,0,.69,0c-.09-.54-.19-1.08-.31-1.61s-.31-.86-.17-1.24c.27-.78.57-1.55.91-2.29.2,1,.36,2,.51,3,0,.27-.18.55-.27.82s-.24.84-.35,1.27a2.09,2.09,0,0,0,.5,0c.13,0,.1,0,.15-.2s.11-.35.17-.53c0,.21,0,.66.17.73a1.48,1.48,0,0,0,.47,0c-.11-1.45-.24-2.9-.41-4.34l-.12-1-.09-.57a2.33,2.33,0,0,1-.09-.57,3.51,3.51,0,0,1,.47-.9c.17-.34.35-.67.52-1,.28.65.74,1.24,1.07,1.85.2.38.4.76.59,1.15a5.92,5.92,0,0,1,.53,1.21,4.76,4.76,0,0,1-.08,1.24,2.45,2.45,0,0,1,0,.72c0,.09-.23.18-.3.3a9.91,9.91,0,0,0-.82,1.89c.1,0,.21,0,.3,0s.1,0,.2-.09a3,3,0,0,0,.28-.6,5.12,5.12,0,0,1,.3-.57l0,1.26c.1,0,.32,0,.4,0s.08-.58.09-.73c0-.69.12-1.38.2-2.07.21.62.38,1.24.55,1.87,0,.2.12.85.28.93a1.36,1.36,0,0,0,.45,0c-.18-1-.37-2-.64-3a10.18,10.18,0,0,1-.4-1.33,5.44,5.44,0,0,1,.26-1.58,24.19,24.19,0,0,1,1.83-5.48c.22.6.46,1.19.69,1.79l.35.83c.09.24.29.54.25.78a6.67,6.67,0,0,1-.43,1.09c-.16.44-.31.9-.45,1.35a24,24,0,0,0-1,5.5,1.71,1.71,0,0,0,.32,0c.23,0,.18,0,.21-.29,0-.42.11-.85.2-1.27.21.4.4.82.57,1.24.1.26.06.29.29.32a1.5,1.5,0,0,0,.3,0,11.7,11.7,0,0,0-.77-2c-.11-.21-.23-.27-.2-.5a7.87,7.87,0,0,1,.3-1.13c.33.56.63,1.12.92,1.7a6.69,6.69,0,0,1,.49,1.05,2.55,2.55,0,0,1,0,.87h1a9.74,9.74,0,0,1-.37-1,3,3,0,0,1,.11-1c.12-.61.25-1.21.4-1.81.46,1.07.92,2.15,1.37,3.23,0,.12.15.54.26.6s.21,0,.27,0h.66c-.64-1.92-1.35-3.82-2.06-5.72a6.07,6.07,0,0,1,1.53.91,2.16,2.16,0,0,1,.37.91c.1.33.2.65.29,1,.17.61.32,1.22.45,1.84.06.31.1.62.18.92s.08.17.3.17a39.46,39.46,0,0,0-.79-4.18,7.54,7.54,0,0,1,1.65,1.95,3.26,3.26,0,0,1,.48.82,2.37,2.37,0,0,1-.2.71l-.18.7c.09,0,.35,0,.42,0s.25-.7.31-.87c.12.18.39.8.59.87a1.61,1.61,0,0,0,.49,0l-.46-.83a2.31,2.31,0,0,1-.38-.75,3.53,3.53,0,0,1,.3-.84c.09-.27.19-.55.27-.83a3.34,3.34,0,0,1,.64,1.57c0,.56,0,1.12-.05,1.68a.74.74,0,0,0,.21,0c.18,0,.08.08.15-.13a4.58,4.58,0,0,0,.08-1l.3.69c0,.1.12.38.21.42a1.75,1.75,0,0,0,.56,0,36.11,36.11,0,0,0-1.56-3.88,2.06,2.06,0,0,1-.23-.44,2.05,2.05,0,0,1,.13-.53,9.52,9.52,0,0,0,.16-1,14.25,14.25,0,0,0,0-1.85,12,12,0,0,1,1.08,1.28,11.37,11.37,0,0,1,.74,1.2,5.77,5.77,0,0,1,.29.55c.08.17,0,.14,0,.31a5.2,5.2,0,0,0-.42,1.84,24.43,24.43,0,0,0-.11,2.57,1.41,1.41,0,0,0,.29,0c.18,0,.15,0,.16-.21,0-.43.06-.86.11-1.29a10.09,10.09,0,0,1,.45-2.29c.16.39.32.77.46,1.16a2.12,2.12,0,0,1,.23.62c0,.11-.08.19-.13.32a6.46,6.46,0,0,0-.25,1.69c.11,0,.47.07.55,0s.06-.37.07-.44.07-.37.11-.56c.07.22.2.93.38,1a1.82,1.82,0,0,0,.57,0c-.26-.9-.5-1.81-.78-2.71l.22.23,0,0h0c.48.52.11.12,0,0,.47.53.91,1.08,1.33,1.65.14.19.39.73.6.81a1.24,1.24,0,0,0,.43,0c-.29-.49-.59-1-.91-1.44a15.92,15.92,0,0,0-2-2.49,4.25,4.25,0,0,1-.66-1.37c-.18-.39-.37-.78-.57-1.15A21.57,21.57,0,0,0,121,66.63c-1.76-1.75-3.45-3.53-5-5.44-.7-.85-1.45-1.65-2.19-2.46-.34-.37-.66-.77-1-1.14l-.09-.08a12.66,12.66,0,0,0,.09-2.13,7,7,0,0,0-1.37-4c-.22-.28-.45-.56-.69-.83s-.55-.45-.65-.69a3.09,3.09,0,0,1-.09-.63,4.27,4.27,0,0,1-.08-.87,4.6,4.6,0,0,1,1.14-3.07,10.4,10.4,0,0,1,3.37-2.24c.34-.17.68-.33,1-.48a.51.51,0,0,0-.11.22c-.22.73.81,1,.81,1a3,3,0,0,0,1.74-.12.13.13,0,0,0,.06-.2,3,3,0,0,0-1.39-1.05,1.79,1.79,0,0,0-.54-.09l1-.38a.29.29,0,0,0,0,.09.64.64,0,0,0,.51.68,1.18,1.18,0,0,0,.57.65,4.15,4.15,0,0,0,1.76.41.1.1,0,0,0,.1-.13,4.64,4.64,0,0,0-.6-1.18l.07-.05a.1.1,0,0,0,.06-.09h.09a1.18,1.18,0,0,0,.56.32,4.12,4.12,0,0,0,1.81,0,.1.1,0,0,0,.07-.15,4.42,4.42,0,0,0-1.19-1.26,2.12,2.12,0,0,0,.66-.25,1.1,1.1,0,0,0,.47.24,4.12,4.12,0,0,0,1.81,0,.09.09,0,0,0,.06-.15,4.52,4.52,0,0,0-.85-1,3.11,3.11,0,0,0-1.28-.91h0l.42-.41v0c0,.49.44.67.71.72a1.18,1.18,0,0,0,.71.53,4.44,4.44,0,0,0,1.81,0,.11.11,0,0,0,.07-.16,4.31,4.31,0,0,0-1.27-1.3,1.1,1.1,0,0,0-.47-.16,3.19,3.19,0,0,0-.52-.16,1.62,1.62,0,0,0-.53,0l.3-.27a1.6,1.6,0,0,0,.61.32,3.58,3.58,0,0,0,.76.08,1.17,1.17,0,0,0,.63.42,4.28,4.28,0,0,0,1.82,0,.09.09,0,0,0,.06-.15,4.25,4.25,0,0,0-1.26-1.3l0,0a2.51,2.51,0,0,0,1.26-.38.12.12,0,0,0,0-.19,2.28,2.28,0,0,0-.26-.23,3.61,3.61,0,0,0,.64-.7.09.09,0,0,0,0-.14,3.77,3.77,0,0,0-1.56-.11,1,1,0,0,0-.68.47.82.82,0,0,0-.26.1,4.72,4.72,0,0,0,.69-1.48.1.1,0,0,0-.06-.12,2,2,0,0,0,0-.7.12.12,0,0,0-.17-.09,2.71,2.71,0,0,0-1.15,1.07l0,0a3.18,3.18,0,0,0-.32.16,3.09,3.09,0,0,0-.1-.45.42.42,0,0,0,.17-.1,1.09,1.09,0,0,0,.4-1,3.73,3.73,0,0,0-.6-1.44,2.52,2.52,0,0,0,.7-.59.12.12,0,0,0,0-.19,2.58,2.58,0,0,0-1.09-.25.94.94,0,0,0,.25-.53,3.69,3.69,0,0,0-.16-1.55.09.09,0,0,0-.14,0,3.6,3.6,0,0,0-1,1.11v0a2.57,2.57,0,0,0,.41-.79.12.12,0,0,0-.11-.16,2.35,2.35,0,0,0-.61,0v0a.13.13,0,0,0-.2,0l-.12.12a3.33,3.33,0,0,0-.59.27l-.13.1a1,1,0,0,0,0-.59,3.63,3.63,0,0,0-.9-1.28.08.08,0,0,0-.14,0,3.11,3.11,0,0,0-.15.42,1.26,1.26,0,0,0-.24-.2.12.12,0,0,0-.18.05,2.62,2.62,0,0,0-.2,1.08l0-.09a.09.09,0,0,0-.14,0l-.13.12a2.34,2.34,0,0,0-.39,0s-.69,0-.9.4a.12.12,0,0,0-.1,0,1.88,1.88,0,0,0-.35.29c0-.1-.06-.17-.08-.23a.09.09,0,0,0-.14,0,4.08,4.08,0,0,0-.47.47,1.61,1.61,0,0,0,.18-.57,3.11,3.11,0,0,0,0-.69l.12-.27a.11.11,0,0,0-.1-.14h-.11a2.62,2.62,0,0,0-.25-.6.13.13,0,0,0-.21,0,2.56,2.56,0,0,0-.57.76l-.07,0a2.62,2.62,0,0,0,.33-1,.13.13,0,0,0-.14-.14,2.24,2.24,0,0,0-.49.11,3.93,3.93,0,0,0-.26-1.14.09.09,0,0,0-.14,0,3.49,3.49,0,0,0-.94,1.25,1.06,1.06,0,0,0,.06.9.59.59,0,0,0,.1.69.45.45,0,0,0,.14.11c0,.14,0,.29-.07.43h0s-.91.57-.47,1.2a.58.58,0,0,0,.13.14c-.16.18-.45.58-.23.93,0,.09-.07.19-.11.28a8.16,8.16,0,0,1-.41.84.94.94,0,0,0,0-.16l0,0a1.25,1.25,0,0,0,.18-1.1c.28-.32,0-.86,0-1l0,0a.63.63,0,0,0,.27-.6l0,0a1.27,1.27,0,0,0,.15-1.21l0-.08c.34-.36,0-1,0-1a2.67,2.67,0,0,0-1.12-1.12.13.13,0,0,0-.17.08,2.44,2.44,0,0,0,0,1c0,.1,0,.2-.08.32a2.89,2.89,0,0,0-.32.42l-.12,0a.13.13,0,0,0-.17.12,2.75,2.75,0,0,0,0,.55,1.11,1.11,0,0,0,.21.83h0a2.94,2.94,0,0,0,0,.43,4.38,4.38,0,0,0-.21.95l0,.13-.25-.09a.13.13,0,0,0-.17.08s0,0,0,0a.12.12,0,0,0-.19,0,2.33,2.33,0,0,0-.34.78l-.39.06a2,2,0,0,0,.18-.45l.19-.14a4.26,4.26,0,0,0,1-1.53.11.11,0,0,0-.1-.14h-.24a2.62,2.62,0,0,0,.21-.37.14.14,0,0,0-.09-.2,3,3,0,0,0-1.23,0l.06-.16a1.48,1.48,0,0,0,.64-.29,2.71,2.71,0,0,0,.86-1.32.12.12,0,0,0-.12-.15h-.17a3.76,3.76,0,0,0-.27-1.3.09.09,0,0,0-.14,0,3.59,3.59,0,0,0-.94,1.25,1,1,0,0,0-.05.55,1.64,1.64,0,0,0-.24.23,1.4,1.4,0,0,0-.1-.16,2.61,2.61,0,0,0-.27-.31v0a2.72,2.72,0,0,0-.94-1.26.13.13,0,0,0-.19.06,2.19,2.19,0,0,0-.13.44.06.06,0,0,0,0,.06,4.4,4.4,0,0,0,.1,1.59,2.77,2.77,0,0,0-.73-.5.13.13,0,0,0-.19.09c0,.05,0,.12,0,.2a4.49,4.49,0,0,0-1,.52,1.69,1.69,0,0,0,0-.25.13.13,0,0,0-.18-.11,3,3,0,0,0-.73.42l-.12-.15a1.82,1.82,0,0,0,.17-.34,2.57,2.57,0,0,0,0-1.57.12.12,0,0,0-.18-.07,2.62,2.62,0,0,0-1,1.19.09.09,0,0,0-.13.06,3.54,3.54,0,0,0,.11,1.56,1,1,0,0,0,.34.48.93.93,0,0,0,0,.37h-.08a1.47,1.47,0,0,0-.6-.61,3.17,3.17,0,0,0-1-.31.77.77,0,0,0,.1-.18.64.64,0,0,0,.87-.07c.45-.52-.31-1.12-.31-1.12a3.23,3.23,0,0,0-.55-.32,4.65,4.65,0,0,0-.17-.59.1.1,0,0,0-.16-.05c-.11.09-.27.24-.46.43h-.14a.13.13,0,0,0-.13.14s0,.09,0,.15a3.05,3.05,0,0,0-.43.7,1.26,1.26,0,0,0,.13,1.22s0,0,0,0l-.25.14v0l-.2-.37a1.91,1.91,0,0,0,.06-.33.41.41,0,0,0,.05-.09,1.06,1.06,0,0,0-.09-1.05,3.61,3.61,0,0,0-1.19-1,.09.09,0,0,0-.13.06,3.66,3.66,0,0,0,.1,1.56.82.82,0,0,0,.11.23,1.17,1.17,0,0,0-.15.27s-.38.89.26,1.14a.7.7,0,0,0,.84-.43l.09.21a3.37,3.37,0,0,0-.44.42,4.37,4.37,0,0,0-1-.22c.18-.47-.42-.94-.42-.94a2.62,2.62,0,0,0-1.48-.54.12.12,0,0,0-.13.14,2.45,2.45,0,0,0,.31.8,4.22,4.22,0,0,0-.72-.34.09.09,0,0,0-.12.08c0,.11,0,.28,0,.48a.12.12,0,0,0-.16,0,2.6,2.6,0,0,0-.73,1,.08.08,0,0,0,0,.08v0a1.21,1.21,0,0,0,0,.18s-.19.74.25,1a1.8,1.8,0,0,0,.08.21,2.37,2.37,0,0,0-.42-.08c.08-.49-.57-.85-.57-.85a2.79,2.79,0,0,0-1.22-.32,1.83,1.83,0,0,0-.17-.44.12.12,0,0,0-.19,0,2.7,2.7,0,0,0-.83,1.33,1.43,1.43,0,0,0,0,.33,3.89,3.89,0,0,0-.67-1.15.08.08,0,0,0-.14,0,4.83,4.83,0,0,0-.38.87,2.51,2.51,0,0,0-1-.07.12.12,0,0,0-.1.16,2.65,2.65,0,0,0,1,1.24,1.52,1.52,0,0,0,.42.19l0,0a.42.42,0,0,0,.43.06.74.74,0,0,0,0,.14,2.73,2.73,0,0,0-.67-.06,2.41,2.41,0,0,0-.75-.49.12.12,0,0,0-.17.09,2.7,2.7,0,0,0,.24,1.56,1.83,1.83,0,0,0,.19.29,4.9,4.9,0,0,0-1-.29.1.1,0,0,0-.11.11,4.9,4.9,0,0,0,.18.65,2.58,2.58,0,0,0-1,.65.12.12,0,0,0,0,.19,2.62,2.62,0,0,0,1.54.32,1.32,1.32,0,0,0,.24,0h0a1.35,1.35,0,0,0-.08.24,1.07,1.07,0,0,0,0,.17,2.71,2.71,0,0,0-.23.3.2.2,0,0,0,0,.1,2.71,2.71,0,0,0-.31-.3.13.13,0,0,0-.12,0,3,3,0,0,0-.68-.23,4.19,4.19,0,0,0-.92-.27.09.09,0,0,0-.1.11,3.55,3.55,0,0,0,.6,1.44,1,1,0,0,0,.81.4v0a2.89,2.89,0,0,0-.83.11.16.16,0,0,0-.09.18,4.57,4.57,0,0,0-1.11-.14.1.1,0,0,0-.09.14,5.63,5.63,0,0,0,.29.65Zm31.39,29c-.23-.24-.46-.47-.7-.69-.08-.07-.39-.26-.41-.36s0-.29.07-.39a8.76,8.76,0,0,1,.44-1.49c.77.7,1.56,1.38,2.33,2.08l.57.54c.23.22.19.24.2.56s.06.79.08,1.19h0c0,.11,0,.06,0,0a10.17,10.17,0,0,1,0,1.83A18.56,18.56,0,0,0,119.13,69Zm-1.23.34A17.35,17.35,0,0,1,120.43,72l.53.73a2.82,2.82,0,0,1,.49.76,2.34,2.34,0,0,1-.2.84c-.09.34-.19.68-.29,1a9.44,9.44,0,0,0-2-2.72,5,5,0,0,1-.69-.59,2.9,2.9,0,0,1-.21-1A10.38,10.38,0,0,1,117.9,69.36Zm-3.25-2.06a13.18,13.18,0,0,1,2.25,1.28c.12.09.22.14.26.26a1.93,1.93,0,0,1,0,.34q0,.43.06.87a10.75,10.75,0,0,0,.29,1.48,6.94,6.94,0,0,0-1.69-.92c.07,0-.28-.81-.13-.35C115.34,69.28,115,68.29,114.65,67.3ZM113.93,72c0,.11,0-.09,0-.1.16-.39.32-.79.49-1.18l.6,1.38a3.85,3.85,0,0,1,.28.66c0,.15,0,.1,0,.24s-.08.2-.1.3a18.36,18.36,0,0,0-.37,2.22c-.28-.66-.59-1.32-.92-2a3.36,3.36,0,0,1-.34-.61c0-.11.11-.33.15-.43S113.86,72.15,113.93,72ZM112.76,60.3c1.72,1.64,3.27,3.43,5,5.07,0-.05-.24-.24,0,0s.07.14,0,.29a1.75,1.75,0,0,0-.11.24,2.4,2.4,0,0,0-.12.38,10.19,10.19,0,0,0-.22,1.1,13,13,0,0,0-2-1.24,7,7,0,0,0-.74-.34,2.75,2.75,0,0,1-.41-.11c-.1-.08-.15-.37-.19-.5A43.63,43.63,0,0,1,112.76,60.3Zm-16.6,11c-.17.44-.32.9-.45,1.37s-.16.85-.29,1.25-.41.51-.59.74-.46.61-.67.93a6.19,6.19,0,0,0-.32-.81s-.14-.18-.14-.23.19-.3.24-.38c.34-.55.67-1.1,1-1.62,0,0,0,0,0,0,.18-.24.13-.16,0-.07A9.71,9.71,0,0,1,96.16,71.32ZM105.63,67a.53.53,0,0,1,.17-.08,3.39,3.39,0,0,1,.39-.18c.36-.17.72-.32,1.08-.47-.36.84-.74,1.66-1.12,2.49-.11-.45-.24-.9-.38-1.34A3.45,3.45,0,0,1,105.63,67ZM104,66.56a4.91,4.91,0,0,0-.51.39,7.76,7.76,0,0,0-.84.78,12.42,12.42,0,0,0-1.44,1.93,10.64,10.64,0,0,0-.4-1.47,4.87,4.87,0,0,0-.3-.71c-.07-.13-.09-.13,0-.24a3.23,3.23,0,0,1,.65-.52l.79-.6L103.41,65c.14.33.35.64.52.95,0,0,0,0,0,0a1.41,1.41,0,0,1,.17.32C104.12,66.48,104.16,66.44,104,66.56Zm5.4-6c-.19.67-.39,1.32-.62,2l-.33.9a4,4,0,0,1-.38,1c-.13.16-.52.23-.74.33l-.71.33c-.49.23-1,.47-1.45.74a5.72,5.72,0,0,0-.78-1.49c1-.7,1.94-1.39,2.9-2.11C108,61.7,108.71,61.15,109.4,60.58Zm1.74,1c.31,1.17.67,2.32,1.07,3.46-.41,0-.62.85-.75,1.18-.21.56-.41,1.13-.58,1.7a26.62,26.62,0,0,0-.86,3.94,13.44,13.44,0,0,0-1.11-2.13,9.07,9.07,0,0,0-.89-1.29C109.17,66.22,110.92,62.2,111.14,61.59Zm-10.5-25.78v0Zm.19-3.57,0,0h0l0,0Zm1-1.68a1.27,1.27,0,0,0-.13.19,2.44,2.44,0,0,0-.3-.28c0-.14,0-.26,0-.36h.11A3.24,3.24,0,0,0,101.79,30.56Zm.25,3.22a.67.67,0,0,0-.12.36.08.08,0,0,0-.07,0l-.13.11h0c.42-.43-.08-1.17-.08-1.17a3.42,3.42,0,0,0-.29-.34.75.75,0,0,0,0-.16,1.84,1.84,0,0,1,.22.17,4.65,4.65,0,0,1,.45.44A2.48,2.48,0,0,0,102,33.78Zm.26,2.84a4.07,4.07,0,0,0-.75.38v0a1.34,1.34,0,0,0,.53-.46l.18.08Zm.11-4.11-.06,0,.05,0A.17.17,0,0,0,102.41,32.51Zm.7-1.06-.13.08a1.1,1.1,0,0,0,0-.18h.06Zm0,1.63-.11,0L102.9,33h.16Zm.23,2.47a4.43,4.43,0,0,0-.47-.17,1.4,1.4,0,0,0-.1-.17,3.35,3.35,0,0,0-.38-.44.78.78,0,0,0,.34,0,.6.6,0,0,0,.23,0,2.77,2.77,0,0,0,.37.79Zm1.55-4.65,0,0,0,0Zm.17-.12,0,0,0,0-.07-.09,0,0Zm1,1.13-.12.12-.09-.13a1,1,0,0,0,.18-.17Zm.59,2.89h0a.62.62,0,0,0,.25-.23,2.4,2.4,0,0,1,.21.69,2.17,2.17,0,0,1,0,.36l-.12.07a.14.14,0,0,0-.14-.06,2.08,2.08,0,0,0-.43.1,1.77,1.77,0,0,0-.12-.37A.51.51,0,0,0,106.65,34.8Zm.07-4.07a.87.87,0,0,0-.2-.16.13.13,0,0,0-.12,0v-.2l.08-.13.06-.15a3.8,3.8,0,0,0,.15.58Zm.42,2.48a.51.51,0,0,0,.53-.2h0c-.1.29-.19.58-.27.88a1,1,0,0,0-.21.2c-.1-.19-.2-.37-.31-.55a.77.77,0,0,0-.06-.14.36.36,0,0,0-.07-.1.65.65,0,0,0,.08-.13l0-.05A1.52,1.52,0,0,0,107.14,33.21Zm1.09-2.11a1.36,1.36,0,0,0,.09-.42l0,0a.58.58,0,0,0,.16.21,1.39,1.39,0,0,0-.1.33c-.14.3-.28.61-.41.93a1.21,1.21,0,0,0-.16.16,1.15,1.15,0,0,0-.23-.67,2.55,2.55,0,0,0-.35-.38,1.61,1.61,0,0,0,.38.14A.51.51,0,0,0,108.23,31.1Zm-.42,4.29a.66.66,0,0,0,0-.14,1.49,1.49,0,0,0,.53-.27l.27-.18a3.38,3.38,0,0,0-.14.55A3.27,3.27,0,0,0,107.81,35.39Zm.73.86a.68.68,0,0,0,.37.44l-.21.2a3,3,0,0,0-.28-.51Zm0-4.42h0Zm.78-2.57a2.56,2.56,0,0,1-.11.24l-.26.1s-.58.25-.69.68l0-.11a1.27,1.27,0,0,0-.1-.72,2,2,0,0,0,.4.15.51.51,0,0,0,.6-.33.19.19,0,0,0,0-.07Zm.46,6.17a.63.63,0,0,0,.32-.18v.12c0,.22.07.28-.11.42l-.22.17-.05,0a1.17,1.17,0,0,0,0-.29,1.84,1.84,0,0,0,0-.25Zm.51-1.65c0,.15-.06.3-.08.45h0a3.31,3.31,0,0,0-.32-.68.64.64,0,0,0,.1-.13A.7.7,0,0,0,110.31,33.78Zm.2,3.78a3.17,3.17,0,0,0-.91,0,1.93,1.93,0,0,0-.44.17c.2-.22.41-.43.62-.64a.57.57,0,0,0,.61.27.42.42,0,0,0,.11.15Zm.92-3.13-.21.24-.18,0a1.81,1.81,0,0,0-.39.14c0-.35,0-.69.08-1a.59.59,0,0,0,.41-.43l.15.15a.55.55,0,0,0-.1.63A.54.54,0,0,0,111.43,34.43Zm.53,1.5.2.16a2.49,2.49,0,0,0-.11.29l-.17,0a2,2,0,0,0,.13-.22.14.14,0,0,0-.08-.18l-.14,0,.11-.06Zm1.84-6.73v0Zm.48,2.9h0a3.16,3.16,0,0,0-1.14.38l.12-.37a.63.63,0,0,0,.43,0A1.44,1.44,0,0,0,114.28,32.1Zm0,2a.11.11,0,0,0-.07.06c0,.08-.06.18-.1.31a.11.11,0,0,0-.16,0,3,3,0,0,0-.27.3,3.47,3.47,0,0,0-.74-.13,1.06,1.06,0,0,0-.48.08,2.51,2.51,0,0,0-.48-.1c.06-.09.12-.17.17-.26l.15-.06a3.87,3.87,0,0,0,.56-.4l.24,0a1.06,1.06,0,0,0,.69,0l.24-.06A.6.6,0,0,0,114.32,34.14Zm-1.07,2.72h0a3.67,3.67,0,0,0-.19-.56h.09l.11,0a.65.65,0,0,0,.53.7h.13a1.23,1.23,0,0,0,0,.2,2.15,2.15,0,0,0-.57.12v0a1.72,1.72,0,0,0,0-.24A.1.1,0,0,0,113.25,36.86Zm1.41-2.68-.06.15-.18-.16h.24Zm-.19,2.63h0Zm.59-6.63-.19,0,.08-.12Zm.31,3.57a2,2,0,0,0-.15.26.67.67,0,0,0-.18.07,1.72,1.72,0,0,0,.07-.21,1,1,0,0,0,.14-.3A.57.57,0,0,0,115.37,33.75Zm-.19,4.1h.1a.5.5,0,0,0,0,.13l-.07-.09Zm.36-5.07,0,0,0,0Zm.27-2.68,0,0h0Zm.93,2.28a.72.72,0,0,0,.14.26,1.11,1.11,0,0,0-.12.16l-.2-.07A1.67,1.67,0,0,0,116.74,32.38Zm.83-2.18a1,1,0,0,0,0,.17,1,1,0,0,0-.18-.1,1,1,0,0,1,0-.17A.67.67,0,0,0,117.57,30.2ZM119,37.05v0h0a10,10,0,0,1-.6.94,1.83,1.83,0,0,0-.21-.46l-.1-.14h0A3.54,3.54,0,0,0,119,37.05Zm-.2-1.07-.06,0v0a1.71,1.71,0,0,0-.13-.23l0,0Zm1-5.79a3.3,3.3,0,0,0-.36.77,2.1,2.1,0,0,0-.1-.25,3.4,3.4,0,0,0-.38-.54V30l0,0a.56.56,0,0,0,.65.25A.35.35,0,0,0,119.78,30.19Zm.88.71-.15,0a3,3,0,0,0-.17-.36.48.48,0,0,0,.3.15C120.65,30.78,120.65,30.84,120.66,30.9Zm-.27,4.75.06-.22a3,3,0,0,0,1.18-.52,4.92,4.92,0,0,0-.58.8h0a.12.12,0,0,0-.12-.14A2.25,2.25,0,0,0,120.39,35.65Zm.33.9s0,.06,0,.09l-.12.11Zm0-2.43,0-.14.14,0a.94.94,0,0,0,0,.16Zm.91-2.48a.48.48,0,0,0,0,.12l-.06.07c-.17.19-.34.38-.49.58a1.07,1.07,0,0,0-.56.26v0a1,1,0,0,0,.06-.21l0,0,.19-.08A3,3,0,0,0,121.66,31.64Zm.28.62-.18.14-.22,0,.22-.29A.58.58,0,0,0,121.94,32.26ZM122,31.2l-.08.05,0-.09Zm1.12.95a3.93,3.93,0,0,0-.33.6l-.15-.08c0-.13,0-.24,0-.34l.11,0A2.26,2.26,0,0,0,123.15,32.15Zm1,4.86.24-.13a.67.67,0,0,0,.32.28l-.2.05A3.07,3.07,0,0,0,124.13,37ZM123,36.92a.19.19,0,0,1,0-.08.84.84,0,0,0,.23-.23l.1,0a1.29,1.29,0,0,0,1-.28.78.78,0,0,0,0,.18v.11a4.44,4.44,0,0,0-.49.24A1.2,1.2,0,0,0,123,36.92Zm-1.11-2a.11.11,0,0,0-.1-.06l0,0a.13.13,0,0,0,0-.2,1.2,1.2,0,0,0,.74-.78.86.86,0,0,0,.06-.23,1.09,1.09,0,0,0,.35.82v0a3.16,3.16,0,0,0-.81,1.12A5,5,0,0,0,121.85,34.88Zm-1.31,5.22h0l0,0Zm-.32-.57a1.27,1.27,0,0,0,.34-.41c.48-.11.66-.83.66-.83a3.64,3.64,0,0,0,.07-.54l.16,0a.52.52,0,0,0,.31.39h0a4.62,4.62,0,0,1-.48.52,5.58,5.58,0,0,1-.46.39.6.6,0,0,0-.32.25Zm0-9.2a1.81,1.81,0,0,0-.15-.19l0,0a.32.32,0,0,0,.16,0A.59.59,0,0,0,120.18,30.33Zm-1.06,4.22-.32,0a.72.72,0,0,0,.61-.72,1.8,1.8,0,0,0,.31.2.51.51,0,0,0,.42,0s0,0,0,0h0S119.31,34,119.12,34.55Zm.22.73a1,1,0,0,0,.46.17c-.07.2-.14.39-.22.57l-.06,0c-.13-.21-.27-.41-.4-.61A2.11,2.11,0,0,0,119.34,35.28ZM119,41.05l.2-.11a.79.79,0,0,0,.27.21h0l-.13.09A3.45,3.45,0,0,0,119,41.05Zm-1-.42a1.79,1.79,0,0,0,.27-.55,3.41,3.41,0,0,0,.06-.43l.16-.21a.54.54,0,0,0,.31.51.65.65,0,0,0,.82-.25.62.62,0,0,0,.33,0A12,12,0,0,1,118,40.63Zm0-9c0-.05,0-.15,0-.27h0a1.51,1.51,0,0,0,.19.3Zm-.17,0-.15,0a1.17,1.17,0,0,0-.84.32,2.46,2.46,0,0,0,0-.26,1.21,1.21,0,0,0,.16-.16,3.17,3.17,0,0,0,.84-.19h0C117.86,31.41,117.85,31.51,117.83,31.6Zm-.1,1.28a.18.18,0,0,0,0,.07l-.28-.05v0a1.51,1.51,0,0,0,.32,0Zm-.29,2,0,0a.94.94,0,0,0-.1-.1.76.76,0,0,0,.15-.28l0,.08a.52.52,0,0,0,.16.14A1.08,1.08,0,0,0,117.44,34.85Zm-.23,1c.07-.08.14-.17.22-.25h0a2.44,2.44,0,0,0,0,.27Zm-.48,0c-.27.06-.64.2-.71.57l-.12.09-.37,0a1.18,1.18,0,0,0,.07-.2h.08c.58,0,.66-.64.67-.94a.52.52,0,0,0,.42-.08,3.41,3.41,0,0,0,.53-.21.57.57,0,0,0,0,.26A5.79,5.79,0,0,1,116.73,35.89Zm-.28,1.31h0ZM116.06,40a.51.51,0,0,0,.49.16l-.3.26-.08,0A3,3,0,0,0,116.06,40Zm-1.91-.62v0l.35-.07c.13.25.41.69.88.51s.34-1,.28-1.1h0a1.24,1.24,0,0,0,.66.17c-.12.09-.57.52-.39.94a.14.14,0,0,0-.11,0,2.54,2.54,0,0,0-.62.6l-.08-.14A3.08,3.08,0,0,0,114.15,39.33Zm-1.09,2.85a14.94,14.94,0,0,0,.66-1.6,4.21,4.21,0,0,0,.17.39,1.46,1.46,0,0,0,.57.58C114,41.78,113.54,42,113.06,42.18Zm-.14-3.07s0-.11,0-.16l.09-.05a.52.52,0,0,0,.12.17Zm-5,.3a12.34,12.34,0,0,1,.85-1.16.55.55,0,0,0,0,.18.52.52,0,0,0,.07.68,1.29,1.29,0,0,0,1.09.36,2.2,2.2,0,0,0,.17.39s.5,1,1.16.56.07-1.29.07-1.29l-.17-.21.13-.09.06.13a1.18,1.18,0,0,0,.65.57.76.76,0,0,0-.31,1c.27.46.8.31,1.08.18-.11.23-.24.47-.36.7a7.15,7.15,0,0,1-.91,1.5,9.63,9.63,0,0,1-.88.59,5.83,5.83,0,0,0-.75.65A6.44,6.44,0,0,0,108,47.58a8.73,8.73,0,0,1-1.33-4.14A6.46,6.46,0,0,1,107.89,39.41Zm-2.08-1.62a1.74,1.74,0,0,0,.54-.41,4.78,4.78,0,0,0,.31-.48.58.58,0,0,0,.35.15c0,.18,0,.35,0,.53a7.59,7.59,0,0,1,.07,1c0,.21-.24.42-.37.61s-.31.46-.45.7A12.94,12.94,0,0,0,105.81,37.79Zm-.49-4.58h-.06a1.52,1.52,0,0,0-.57-.54,3.4,3.4,0,0,0-.81-.28l.11-.13.14,0a1.3,1.3,0,0,0,.93.1.54.54,0,0,0,.39-.42.33.33,0,0,0,.17,0h0c0,.08.09.16.13.24l0,0-.17-.08a.14.14,0,0,0-.19.09A3.06,3.06,0,0,0,105.32,33.21Zm-.58,1.62c0,.09,0,.18,0,.28l-.15,0a.89.89,0,0,0-.08-.17Zm.56,1.57h0l0,0-.06-.13Zm-4.84,3c.65.2,1-.73,1-.73a1.26,1.26,0,0,0,1.12-.48h0a3.71,3.71,0,0,0,.8,1.17,1.28,1.28,0,0,0,1.18.28.51.51,0,0,0,.4-.56,1.29,1.29,0,0,0-.67-1,3.86,3.86,0,0,0-1.41-.36c.08-.17.14-.34.2-.5h0a3.56,3.56,0,0,0,.26.31s.75.76,1.27.19l0-.06c.67,2.38.32,4.89.6,7.33l-1.75-1.21c-.46-.31-1-.52-1.44-.85a3.88,3.88,0,0,1-1.59-2.57A7.54,7.54,0,0,1,100.46,39.4Zm0-1.95a1.49,1.49,0,0,0,.25-.58,2.56,2.56,0,0,0,0-.39,1.79,1.79,0,0,0,.16.31.52.52,0,0,0,.26.2,3,3,0,0,0-.69.67C100.42,37.59,100.41,37.52,100.41,37.45Zm-9-1.68v0l0,0Zm.59-.11h-.24a.49.49,0,0,0,.12-.13ZM94.07,35a2.76,2.76,0,0,0-.35.73.8.8,0,0,0,0,.15v-.09a.57.57,0,0,0,0-.26,1.52,1.52,0,0,0-.13-.47.6.6,0,0,0,.46-.11v0Zm.35,1.82.09.35,0,.09-.07.17-.84-1.07a.64.64,0,0,0,.11-.27.65.65,0,0,0,.47.73A.66.66,0,0,0,94.42,36.82Zm.1-2.36h0l-.17.17a1.08,1.08,0,0,0,.11-.21ZM95,33.22l-.31,0a.61.61,0,0,0,0-.14.81.81,0,0,0,.22,0Zm.87,2.23a1.69,1.69,0,0,0-.21.31,2,2,0,0,0-.49,0,.12.12,0,0,0-.1.16,2.18,2.18,0,0,0,.17.39,3,3,0,0,0-.42.44.75.75,0,0,1-.05-.16A1.55,1.55,0,0,0,95,36a2.63,2.63,0,0,0,0-.47.49.49,0,0,0,.41,0,2.2,2.2,0,0,0,.28-.18ZM96.32,39s0-.09,0-.13a1.18,1.18,0,0,0,.19.11l0,0a1.33,1.33,0,0,0-.09.37l-.2.22-.09-.13A1.68,1.68,0,0,0,96.32,39Zm1-2.48H97.2l-.06,0a1.56,1.56,0,0,0-.16-.2,2.71,2.71,0,0,0,0-.4.75.75,0,0,0,.36,0h0A1.36,1.36,0,0,0,97.33,36.5Zm.28,1h0l-.24.22-.15-.07a3.48,3.48,0,0,0-1-.17h0l.2-.13a.58.58,0,0,0,.68-.23.6.6,0,0,0,.08-.19A2.77,2.77,0,0,0,97.61,37.55Zm-.21-5.88A2.42,2.42,0,0,0,97,32v0l-.24-.22v0a2.71,2.71,0,0,0,0-.56h0A1,1,0,0,0,97.4,31.67Zm.27,3h0l-.46-.06a1.52,1.52,0,0,0-.27-.13,3,3,0,0,0-.78-.14v-.09s0,0,0-.06a.91.91,0,0,0,.33,0h0a.68.68,0,0,0,.83-.3c.11.23.2.46.29.69ZM98,38.31h0a3.84,3.84,0,0,0-.15-.55l.13.11A.84.84,0,0,0,98,38.31Zm.15-7.58h0v0Zm.46.16-.24-.1a.67.67,0,0,0,.2,0Zm.08.18a3.42,3.42,0,0,0-.54-.18.52.52,0,0,0,0-.11l.56.28Zm-.4,1.77a2.66,2.66,0,0,0,0-.28c.09.17.17.35.26.52l-.14.13-.22-.1A2,2,0,0,0,98.29,32.84Zm1.29-.63a2.84,2.84,0,0,0-.37.78h0a1,1,0,0,0,0-.12.14.14,0,0,0-.2-.08l-.14.09-.18-.3a.66.66,0,0,0,.79-.28.77.77,0,0,0,.07-.16Zm-.44,2.41v0c0,.12.07.25.11.37l-.19-.08,0,0A2,2,0,0,0,99.14,34.62Zm.79-.06a1.92,1.92,0,0,0-.13.5c-.13-.37-.28-.75-.44-1.11a.58.58,0,0,0,.26.13.5.5,0,0,0,.17,0A1.3,1.3,0,0,0,99.93,34.56Zm-.21,3.08a6.5,6.5,0,0,1,0,.88c-.12-.16-.23-.33-.34-.51l0-.09c0-.15.08-.28.11-.42A.48.48,0,0,0,99.72,37.64Zm-.21-1.36v0h0Zm-1.37,5.2a5.77,5.77,0,0,1-1-.78c0-.1,0-.19.07-.28l.12,0a1.23,1.23,0,0,0,.71-1v0a3.05,3.05,0,0,0,.65.43,1.38,1.38,0,0,0,.9.11,4.87,4.87,0,0,0,.52,2.4A8.4,8.4,0,0,1,98.14,41.48Zm-3.06,1.36c0-.12,0-.22,0-.28a.52.52,0,0,0,.61-.2,1.31,1.31,0,0,0,.24-.94.29.29,0,0,0,.11.06.6.6,0,0,0,.6-.06A7.56,7.56,0,0,0,98,42.52,13.44,13.44,0,0,1,95.08,42.84ZM93.94,40.4a1.07,1.07,0,0,0,.07-.19,1,1,0,0,0,.42.08.83.83,0,0,0,0,.15Zm-.53,1.78a.87.87,0,0,0,.2-.82l.23.19a3.28,3.28,0,0,0-.17.84A1.71,1.71,0,0,1,93.41,42.18Zm-.19-4.88a.55.55,0,0,0,.3-.23l0-.06.11.17c.47.71.91,1.45,1.38,2.17a.61.61,0,0,0,.23.34c.16.23.31.45.48.67a1.39,1.39,0,0,0-.09.4,4.65,4.65,0,0,0-.73-.88c.16-.52-.53-.92-.53-.92l-.2-.1a.91.91,0,0,0,.09-.17c.3-.7-.7-1.08-.7-1.08l-.36-.1C93.23,37.44,93.22,37.37,93.22,37.3ZM92.48,34a.13.13,0,0,0-.2.07l0,.06h0a2.64,2.64,0,0,0-.07-.3,1.12,1.12,0,0,0,.33-.76.54.54,0,0,0,.39.28H93v.06a1.06,1.06,0,0,0,.14.58,1.4,1.4,0,0,0-.06.52A2.36,2.36,0,0,0,92.48,34Zm-.69,7.25h.06a.82.82,0,0,0,.3-.08,3.9,3.9,0,0,0,.2.47l.06.17A4.23,4.23,0,0,1,91.79,41.24Zm-.41.8a.55.55,0,0,0,.17-.4l.39.4h-.1A3.45,3.45,0,0,0,91.38,42Zm-.2-2.55a.69.69,0,0,0-.13-.11,1.5,1.5,0,0,0,0-.51,2.81,2.81,0,0,0-.47-.92h0l.22.06a.51.51,0,0,0,.41.33.53.53,0,0,0,.38-.05,2.38,2.38,0,0,1,0,.26A2.93,2.93,0,0,0,91.18,39.49ZM90,41a.54.54,0,0,0,.16-.44v-.06a1.57,1.57,0,0,0,.75.1.91.91,0,0,1,.07.14l.12.23a1.77,1.77,0,0,0-.63-.07A3,3,0,0,0,90,41Z" transform="translate(-8.84)"/></g></g></svg>