<svg id="Layer_1" data-name="Layer 1" xmlns="http://www.w3.org/2000/svg" viewBox="0 0 24.23 40"><path d="M15.53,40a1.34,1.34,0,0,0,1.15-.67L27.46,20.62a1.34,1.34,0,0,0,0-1.34L16.68.6a1.38,1.38,0,0,0-2.31,0L3.59,19.28a1.34,1.34,0,0,0,0,1.34L14.37,39.31A1.35,1.35,0,0,0,15.53,40Zm0-36,9.24,16L15.53,36,6.29,20Z" transform="translate(-3.41 0.02)"/><path d="M21.09,20a5.57,5.57,0,1,0-5.56,5.57A5.57,5.57,0,0,0,21.09,20Zm-8.46,0a2.9,2.9,0,1,1,2.9,2.9A2.89,2.89,0,0,1,12.63,20Z" transform="translate(-3.41 0.02)"/></svg>