<svg id="Layer_1" data-name="Layer 1" xmlns="http://www.w3.org/2000/svg" viewBox="0 0 57.27 51.9"><path d="M17.63,42.7a1.25,1.25,0,0,0,1.24,1.24h1.85a1.24,1.24,0,1,1,0,2.47H18.87a3.71,3.71,0,0,1-3.71-3.71V20.44a3.71,3.71,0,0,1,3.71-3.71H41.13a3.71,3.71,0,0,1,3.71,3.71V42.7a3.71,3.71,0,0,1-3.71,3.71H39.28a1.24,1.24,0,1,1,0-2.47h1.85a1.25,1.25,0,0,0,1.24-1.24V20.44a1.24,1.24,0,0,0-1.24-1.24H18.87a1.24,1.24,0,0,0-1.24,1.24Z" transform="translate(-1.42 -3.62)" style="fill:#c8c8c8"/><path d="M31.24,38.54a1.24,1.24,0,1,0-2.48,0V51.32l-4.07-4A1.24,1.24,0,1,0,23,49l6.18,6.12a1.23,1.23,0,0,0,1.74,0L37.05,49a1.24,1.24,0,0,0-1.74-1.76l-4.07,4Z" transform="translate(-1.42 -3.62)" style="fill:#c8c8c8"/><text transform="translate(0 11.17) scale(0.86 1)" style="font-size:13px;font-family:CenturyGothic, Century Gothic;letter-spacing:0.00999710102825022em">Download<tspan x="12.02" y="15.6">Report</tspan></text></svg>