<svg xmlns="http://www.w3.org/2000/svg" viewBox="0 0 147.05 58.54"><defs><style></style></defs><g id="Layer_2" data-name="Layer 2"><g id="Layer_1-2" data-name="Layer 1"><path class="cls-1" d="M1.29,12.21H6.61v1H2.35v3.32H6.61v1H2.35v5.21H1.29Z" transform="translate(-0.69)"/><path class="cls-1" d="M8.45,12.21H9.51v9.58H13.6v1H8.45Z" transform="translate(-0.69)"/><path class="cls-1" d="M20.33,11.94a5.5,5.5,0,0,1,4,1.61,5.33,5.33,0,0,1,1.63,4,5.55,5.55,0,0,1-5.57,5.58,5.42,5.42,0,0,1-4-1.62,5.32,5.32,0,0,1-1.62-3.91,5.56,5.56,0,0,1,.74-2.83,5.35,5.35,0,0,1,2-2.05A5.5,5.5,0,0,1,20.33,11.94Zm.05,1a4.54,4.54,0,0,0-3.88,2.27,4.53,4.53,0,0,0-.6,2.32,4.46,4.46,0,0,0,4.48,4.49,4.52,4.52,0,0,0,2.28-.6,4.21,4.21,0,0,0,1.64-1.63,4.67,4.67,0,0,0,.59-2.31,4.51,4.51,0,0,0-.59-2.29,4.34,4.34,0,0,0-1.66-1.63A4.47,4.47,0,0,0,20.38,13Z" transform="translate(-0.69)"/><path class="cls-1" d="M33.17,11.94a5.51,5.51,0,0,1,4,1.61,5.36,5.36,0,0,1,1.63,4,5.61,5.61,0,0,1-9.56,4,5.32,5.32,0,0,1-1.62-3.91,5.66,5.66,0,0,1,.73-2.83,5.47,5.47,0,0,1,4.79-2.79Zm0,1a4.37,4.37,0,0,0-2.23.62,4.5,4.5,0,0,0-1.65,1.65,4.63,4.63,0,0,0-.59,2.32,4.46,4.46,0,0,0,4.47,4.49,4.53,4.53,0,0,0,2.29-.6,4.21,4.21,0,0,0,1.64-1.63,4.67,4.67,0,0,0,.59-2.31,4.51,4.51,0,0,0-.59-2.29,4.41,4.41,0,0,0-1.66-1.63A4.48,4.48,0,0,0,33.21,13Z" transform="translate(-0.69)"/><path class="cls-1" d="M41,22.82V12.21h2.2a11.44,11.44,0,0,1,3.46.38A4.61,4.61,0,0,1,49,14.47a5.69,5.69,0,0,1,.87,3.18,5.54,5.54,0,0,1-.69,2.8,4.4,4.4,0,0,1-1.79,1.79,6.65,6.65,0,0,1-3.08.58Zm1-1H43.2a11.51,11.51,0,0,0,3-.28,3.53,3.53,0,0,0,1.88-1.4,4.36,4.36,0,0,0,.68-2.48A4.51,4.51,0,0,0,48.07,15,3.73,3.73,0,0,0,46,13.55a12.61,12.61,0,0,0-3.28-.3H42Z" transform="translate(-0.69)"/><path class="cls-1" d="M51.79,12.21h1.06V22.82H51.79Z" transform="translate(-0.69)"/><path class="cls-1" d="M55.29,22.82V12.21h.23l7.06,8.13V12.21h1.05V22.82h-.24l-7-8v8Z" transform="translate(-0.69)"/><path class="cls-1" d="M76.45,14l-.83.78a6.31,6.31,0,0,0-1.94-1.32A5.27,5.27,0,0,0,71.62,13a4.94,4.94,0,0,0-2.38.62,4.42,4.42,0,0,0-1.74,1.66,4.25,4.25,0,0,0-.63,2.22,4.35,4.35,0,0,0,.65,2.27,4.52,4.52,0,0,0,1.77,1.7,5.13,5.13,0,0,0,2.48.62,4.22,4.22,0,0,0,2.77-.93,3.6,3.6,0,0,0,1.34-2.39H72.5v-1h4.57a5.31,5.31,0,0,1-1.46,3.91,5.24,5.24,0,0,1-3.87,1.45,5.82,5.82,0,0,1-4.66-2,5.33,5.33,0,0,1-1.32-3.57,5.54,5.54,0,0,1,.76-2.81,5.48,5.48,0,0,1,2.08-2,6.12,6.12,0,0,1,3-.73,6.53,6.53,0,0,1,2.54.49A7.44,7.44,0,0,1,76.45,14Z" transform="translate(-0.69)"/><path class="cls-1" d="M.69,29.93H1.78L4,37.58l3-7.65h.22l3,7.65,2.2-7.65H13.5L10.45,40.54h-.19l-3.15-8-3.21,8H3.7Z" transform="translate(-0.69)"/><path class="cls-1" d="M15.32,29.93h1.06V40.54H15.32Z" transform="translate(-0.69)"/><path class="cls-1" d="M17.76,31v-1h5.81v1H21.2v9.57H20.12V31Z" transform="translate(-0.69)"/><path class="cls-1" d="M25.08,29.93h1.06v4.45h5.41V29.93h1.06V40.54H31.55V35.42H26.14v5.12H25.08Z" transform="translate(-0.69)"/><path class="cls-1" d="M40.24,29.67a5.5,5.5,0,0,1,4,1.61,5.58,5.58,0,0,1-4,9.53,5.44,5.44,0,0,1-4-1.62,5.3,5.3,0,0,1-1.62-3.9,5.7,5.7,0,0,1,.74-2.84,5.48,5.48,0,0,1,4.78-2.78Zm0,1A4.53,4.53,0,0,0,36.41,33a4.58,4.58,0,0,0-.59,2.32,4.46,4.46,0,0,0,4.47,4.5,4.52,4.52,0,0,0,2.28-.6,4.31,4.31,0,0,0,1.64-1.64,4.51,4.51,0,0,0,.59-2.31,4.43,4.43,0,0,0-2.24-3.92A4.5,4.5,0,0,0,40.29,30.7Z" transform="translate(-0.69)"/><path class="cls-1" d="M48.06,29.93h1.06v6.41a12.25,12.25,0,0,0,.05,1.42,2.33,2.33,0,0,0,.36,1.05,2.24,2.24,0,0,0,.89.71,2.78,2.78,0,0,0,1.21.28,2.31,2.31,0,0,0,1-.22,2.19,2.19,0,0,0,.81-.62,2.55,2.55,0,0,0,.48-1A8,8,0,0,0,54,36.34V29.93h1.06v6.41a7.66,7.66,0,0,1-.28,2.3,3.12,3.12,0,0,1-1.11,1.52,3.22,3.22,0,0,1-2,.65,3.86,3.86,0,0,1-2.2-.61,2.91,2.91,0,0,1-1.22-1.63,8.44,8.44,0,0,1-.2-2.23Z" transform="translate(-0.69)"/><path class="cls-1" d="M56.65,31v-1h5.81v1H60.09v9.57H59V31Z" transform="translate(-0.69)"/><path class="cls-1" d="M.81,58.27,2.33,47.66H2.5l4.31,8.7,4.27-8.7h.17l1.53,10.61h-1l-1.05-7.59L6.94,58.27H6.67l-3.8-7.65-1,7.65Z" transform="translate(-0.69)"/><path class="cls-1" d="M19.2,47.66l4.95,10.61H23l-1.67-3.49H16.76l-1.65,3.49H13.93l5-10.61Zm-.13,2.25-1.82,3.84h3.63Z" transform="translate(-0.69)"/><path class="cls-1" d="M25.8,58.27V47.66H26l7.06,8.13V47.66h1V58.27H33.9l-7-8v8Z" transform="translate(-0.69)"/><path class="cls-1" d="M47,49.44l-.82.78a6.31,6.31,0,0,0-1.94-1.32,5.25,5.25,0,0,0-2.06-.45,4.9,4.9,0,0,0-2.38.61A4.51,4.51,0,0,0,38,50.72a4.33,4.33,0,0,0-.62,2.22A4.41,4.41,0,0,0,38,55.21a4.55,4.55,0,0,0,1.78,1.7,5.1,5.1,0,0,0,2.48.62,4.23,4.23,0,0,0,2.77-.93,3.64,3.64,0,0,0,1.34-2.39H43v-1h4.57a5.35,5.35,0,0,1-1.46,3.91,5.24,5.24,0,0,1-3.87,1.45,5.82,5.82,0,0,1-4.66-2A5.33,5.33,0,0,1,36.27,53,5.47,5.47,0,0,1,37,50.15a5.41,5.41,0,0,1,2.08-2,6.12,6.12,0,0,1,3-.73,6.72,6.72,0,0,1,2.54.49A7.4,7.4,0,0,1,47,49.44Z" transform="translate(-0.69)"/><path class="cls-1" d="M49.66,47.66h2.11a13.6,13.6,0,0,1,2.4.14,2.76,2.76,0,0,1,1.53.93,2.63,2.63,0,0,1,.59,1.75,2.86,2.86,0,0,1-.4,1.53,2.59,2.59,0,0,1-1.17,1,5.31,5.31,0,0,1-2.09.34l3.82,4.93H55.13l-3.81-4.93h-.6v4.93H49.66Zm1.06,1v3.6l1.83,0a4.7,4.7,0,0,0,1.57-.2,1.63,1.63,0,0,0,.79-.65,1.77,1.77,0,0,0,.29-1,1.73,1.73,0,0,0-.29-1,1.58,1.58,0,0,0-.76-.62,4.45,4.45,0,0,0-1.56-.19Z" transform="translate(-0.69)"/><path class="cls-1" d="M63.62,47.39a5.51,5.51,0,0,1,4,1.61,5.6,5.6,0,1,1-9.55,4,5.56,5.56,0,0,1,.74-2.83,5.35,5.35,0,0,1,2-2A5.5,5.5,0,0,1,63.62,47.39Zm.05,1a4.54,4.54,0,0,0-3.88,2.27,4.56,4.56,0,0,0-.6,2.32,4.46,4.46,0,0,0,4.48,4.49A4.52,4.52,0,0,0,66,56.9a4.21,4.21,0,0,0,1.64-1.63A4.67,4.67,0,0,0,68.18,53a4.51,4.51,0,0,0-.59-2.29A4.34,4.34,0,0,0,65.93,49,4.47,4.47,0,0,0,63.67,48.42Z" transform="translate(-0.69)"/><path class="cls-1" d="M70.6,47.66h1.15l3.52,8.2,3.57-8.2H80L75.38,58.27h-.23Z" transform="translate(-0.69)"/><path class="cls-1" d="M81.78,47.66h6.08v1h-5V52h5v1h-5v4.17h5v1h-6Z" transform="translate(-0.69)"/><path class="cls-1" d="M88.6,56.29l.9-.54c.63,1.17,1.37,1.75,2.2,1.75a2.17,2.17,0,0,0,1-.24,1.87,1.87,0,0,0,.72-.67,1.78,1.78,0,0,0,.24-.89,1.79,1.79,0,0,0-.36-1A8.55,8.55,0,0,0,91.48,53a9.58,9.58,0,0,1-1.65-1.45,2.68,2.68,0,0,1-.56-1.62,2.47,2.47,0,0,1,.33-1.26,2.37,2.37,0,0,1,.93-.9,2.68,2.68,0,0,1,1.31-.33,2.91,2.91,0,0,1,1.41.37,5,5,0,0,1,1.38,1.37l-.87.66a4.24,4.24,0,0,0-1-1,1.74,1.74,0,0,0-.92-.25,1.45,1.45,0,0,0-1,.39,1.28,1.28,0,0,0-.41,1,1.59,1.59,0,0,0,.15.67,2.45,2.45,0,0,0,.53.71c.13.13.59.48,1.37,1.06a7.6,7.6,0,0,1,1.88,1.81,2.84,2.84,0,0,1,.52,1.59,2.74,2.74,0,0,1-.88,2,3,3,0,0,1-2.13.85A3.15,3.15,0,0,1,90.05,58,4.6,4.6,0,0,1,88.6,56.29Z" transform="translate(-0.69)"/></g><g id="Layer_5" data-name="Layer 5"><path class="cls-1" d="M115,46.84h0S115,46.93,115,46.84Zm3.35-3.78c-.86.65.85-.63,0,0Zm10.61,7.14c0,.24.39.33,0,0ZM106,53.41l.08-.11-.05.06Zm26.71-2.12v0h0Zm-15.94-3,0,.06C116.81,48.29,116.8,48.23,116.81,48.29Zm0,.13a.41.41,0,0,0,0-.07A.25.25,0,0,1,116.85,48.42Zm11.79-39.2a2.7,2.7,0,0,0-.06-1.58.13.13,0,0,0-.18-.06,2.66,2.66,0,0,0-1,1.23s-.35.9.3,1.12S128.64,9.22,128.64,9.22ZM98.78,20.88a.14.14,0,0,0,0,.2,2.68,2.68,0,0,0,.77.52.6.6,0,0,0,.08.08,1.2,1.2,0,0,0,1,.32,2.67,2.67,0,0,0-.68.43.14.14,0,0,0,0,.22l.12.08a4.55,4.55,0,0,0-.64.56.1.1,0,0,0,0,.16,4.28,4.28,0,0,0,1.78.37,1.3,1.3,0,0,0,.46-.12,2.76,2.76,0,0,0,.69.35,4.91,4.91,0,0,0-1,.78.11.11,0,0,0,0,.17,4.28,4.28,0,0,0,1.78.37h0a3.32,3.32,0,0,0,.91.15s1.07,0,1-.77-.83-.67-1-.66l-.06,0a1.55,1.55,0,0,0-.36-.21.52.52,0,0,0,.06-.2.38.38,0,0,0,0-.15,8.09,8.09,0,0,0,1.09.57.62.62,0,0,0,.62.37.52.52,0,0,0,.29-.08,7.58,7.58,0,0,0,2.28.08c.66-.05,1.32-.14,2-.13a5.19,5.19,0,0,1,1.41.22,8.56,8.56,0,0,1,3.2,1.93c.5.4,1,.81,1.47,1.24a4,4,0,0,1,1,1,16.33,16.33,0,0,0,2.47,3.43,6.08,6.08,0,0,1,1.74,3.44c0,.07,0,.14,0,.21a3.49,3.49,0,0,0-.09.6c0,.34,0,.68,0,1a9.16,9.16,0,0,1-.3,1.28c-.12.09-.27.18-.37.27-.33.3-.64.63-1,.94-3,2.86-6.53,5.17-9.52,8.06a12.05,12.05,0,0,0-1.64,1.93,3.36,3.36,0,0,1-.52.66l-.58.53c-.36.35-.72.71-1.06,1.09a16.17,16.17,0,0,0-1.9,3,10.56,10.56,0,0,0-1.39,3.26c.14,0,.25,0,.32-.07a4.13,4.13,0,0,0,.26-.84,9.78,9.78,0,0,1,.93-1.63c.09.19.19.37.27.56l.12.3c.07.18,0,.19,0,.35-.2.45-.47.87-.67,1.33a1.67,1.67,0,0,0,.5,0c.18-.07.35-.55.45-.72a3.49,3.49,0,0,1,0,.72,1.22,1.22,0,0,0,.33,0c.1-.08,0-.71,0-.85a.78.78,0,0,1,0-.4,1.91,1.91,0,0,1,.29-.41c.17-.22.34-.44.52-.65-.09.77-.14,1.54-.16,2.31a1.45,1.45,0,0,0,.36,0h.1s0-.26,0-.33c0-.56.13-1.12.22-1.68a15.67,15.67,0,0,1,.93-3.41,11,11,0,0,1,.33,1.25,6.34,6.34,0,0,1,.28,1.66,3.78,3.78,0,0,1-.41,1q-.32.75-.6,1.53c.28,0,.41.07.53-.2s.38-.82.58-1.23c0,.34,0,.68,0,1a2.77,2.77,0,0,0,0,.41h.13c.28.07.27,0,.27-.28s0-.57,0-.86a18.34,18.34,0,0,0-.29-3.47,11.19,11.19,0,0,0-.31-1.3,3.05,3.05,0,0,1-.16-.45c0-.21.3-.56.41-.74a10.37,10.37,0,0,1,2.17-2.54,7.69,7.69,0,0,1,.75,2c0,.2.11.41.14.61a.89.89,0,0,1-.16.58c-.2.42-.38.84-.55,1.27a22.52,22.52,0,0,0-1.22,5.14h.39c.21,0,.17,0,.22-.23.15-.68.29-1.35.46-2,.16.57.31,1.13.46,1.7,0,.16.06.49.19.55a1.7,1.7,0,0,0,.39,0c-.18-1-.39-2-.61-2.92a1.05,1.05,0,0,1,0-.58,4.36,4.36,0,0,1,.23-.6,12.82,12.82,0,0,1,.55-1.19,39.05,39.05,0,0,1,.38,4.19l0,.56a1.91,1.91,0,0,0,0,.54,1.21,1.21,0,0,0,.38,0,2,2,0,0,0,0-.55c0-.19,0-.38,0-.57V56.09a5.17,5.17,0,0,1,.63,1.37c.05.15.17.85.3.93a1.07,1.07,0,0,0,.31,0,8.4,8.4,0,0,0-.95-2.65.79.79,0,0,0-.14-.17c-.15-.13-.13-.07-.17-.24a3.94,3.94,0,0,1,0-.69c0-.49,0-1-.1-1.47,0-.25,0-.5-.07-.75a1.83,1.83,0,0,1,0-.4,1.8,1.8,0,0,1,.21-.35,13.57,13.57,0,0,1,.91-1.33,8.48,8.48,0,0,1,2.09-1.92c.17.42.32.86.46,1.29s.46,1.06.34,1.46-.39.89-.56,1.33c-.11.27-.21.53-.3.79a33.45,33.45,0,0,0-1.39,5.1,8.22,8.22,0,0,0,.86,0c.2,0,.16,0,.22-.26s.15-.55.23-.82l.19.73c0,.07,0,.31.08.34s.07,0,.09,0a2.28,2.28,0,0,0,.69,0c-.08-.54-.18-1.08-.31-1.61s-.31-.85-.17-1.24c.27-.77.57-1.54.92-2.29.19,1,.35,2,.51,3.06,0,.26-.19.54-.28.81-.14.42-.24.85-.34,1.27a1.61,1.61,0,0,0,.49,0c.13,0,.1,0,.15-.2s.11-.35.17-.52c0,.2,0,.66.17.72a1.48,1.48,0,0,0,.47,0c-.11-1.44-.23-2.89-.41-4.34l-.12-1-.09-.57a2.26,2.26,0,0,1-.09-.57,3.51,3.51,0,0,1,.47-.9l.52-1c.28.64.74,1.23,1.07,1.84.21.38.4.76.59,1.15a6.17,6.17,0,0,1,.53,1.21,4.74,4.74,0,0,1-.08,1.24,2.43,2.43,0,0,1,0,.72c0,.09-.22.18-.3.3a9.73,9.73,0,0,0-.82,1.9h.3c.17,0,.11,0,.2-.1a3,3,0,0,0,.28-.6l.3-.57c0,.42,0,.84,0,1.27a1.27,1.27,0,0,0,.39,0c.11-.06.08-.59.09-.74.06-.69.12-1.38.21-2.06.2.61.38,1.24.54,1.86,0,.21.12.85.28.94a1.69,1.69,0,0,0,.45,0c-.18-1-.37-2-.64-3a13.44,13.44,0,0,1-.4-1.33,5.47,5.47,0,0,1,.27-1.59,23.92,23.92,0,0,1,1.82-5.47c.22.59.46,1.19.7,1.78.11.28.22.56.34.83s.29.55.25.78a7.21,7.21,0,0,1-.42,1.09c-.17.45-.32.9-.46,1.36a23.8,23.8,0,0,0-1,5.5h.32c.23,0,.18,0,.21-.3,0-.42.11-.85.2-1.27a12.89,12.89,0,0,1,.57,1.25c.1.25.06.28.29.32h.3a11.81,11.81,0,0,0-.77-2c-.11-.21-.23-.27-.2-.49a7.66,7.66,0,0,1,.3-1.14c.33.56.63,1.13.92,1.71a7,7,0,0,1,.49,1,2.6,2.6,0,0,1,0,.88h1a9.9,9.9,0,0,1-.37-1,2.83,2.83,0,0,1,.12-1c.11-.6.24-1.21.39-1.8.47,1.07.93,2.14,1.37,3.22,0,.12.15.54.26.61s.21,0,.27,0h.66c-.64-1.93-1.35-3.83-2-5.73a6.66,6.66,0,0,1,1.52.91,2.15,2.15,0,0,1,.37.92c.1.32.2.64.29,1,.17.6.33,1.22.45,1.84.06.3.1.61.18.91s.08.18.3.18a39.17,39.17,0,0,0-.79-4.19,7.35,7.35,0,0,1,1.65,1.95c.12.2.46.6.48.82a2.29,2.29,0,0,1-.2.71l-.18.71c.1,0,.35,0,.43,0s.24-.71.3-.88c.12.19.4.8.59.88a1.68,1.68,0,0,0,.5,0c-.15-.28-.31-.56-.47-.84a2,2,0,0,1-.37-.74,2.89,2.89,0,0,1,.29-.84c.1-.28.19-.56.28-.84a3.43,3.43,0,0,1,.63,1.57c0,.56,0,1.13-.05,1.69h.21c.18,0,.08.07.15-.13a4.06,4.06,0,0,0,.08-1l.3.69c0,.1.12.38.21.43a1.75,1.75,0,0,0,.56,0,33.58,33.58,0,0,0-1.56-3.89,2,2,0,0,1-.23-.43,2.65,2.65,0,0,1,.13-.54,9,9,0,0,0,.16-1,16.5,16.5,0,0,0,0-1.86,14.5,14.5,0,0,1,1.07,1.28q.4.59.75,1.2c.09.18.2.36.28.55s.06.15,0,.31a5.05,5.05,0,0,0-.43,1.84c-.09.86-.1,1.72-.11,2.58h.29c.18,0,.15,0,.16-.21,0-.43.06-.87.11-1.29a10.44,10.44,0,0,1,.45-2.29c.16.38.32.77.47,1.16a2.35,2.35,0,0,1,.22.61c0,.11-.08.2-.13.32a6.47,6.47,0,0,0-.25,1.7c.11,0,.47.06.55,0a2.11,2.11,0,0,0,.08-.45c0-.19.06-.37.1-.55.08.21.2.92.38,1a2.18,2.18,0,0,0,.57,0c-.26-.91-.5-1.82-.78-2.72l.22.23,0,0h0c.47.52.1.12,0,0,.47.53.91,1.08,1.33,1.65.14.2.39.73.6.82a1.62,1.62,0,0,0,.44,0c-.29-.49-.59-1-.91-1.45a17.67,17.67,0,0,0-2-2.49,4.25,4.25,0,0,1-.66-1.37c-.18-.39-.36-.77-.57-1.15a21.26,21.26,0,0,0-3.73-4.47c-1.76-1.75-3.45-3.53-5-5.44-.7-.85-1.45-1.65-2.19-2.45-.34-.38-.66-.77-1-1.14l-.09-.09a12.58,12.58,0,0,0,.09-2.12,7,7,0,0,0-1.37-4c-.22-.29-.45-.57-.69-.83s-.55-.45-.65-.69a3.19,3.19,0,0,1-.09-.64,4.21,4.21,0,0,1-.08-.87,4.6,4.6,0,0,1,1.14-3.07,10.38,10.38,0,0,1,3.37-2.23c.34-.18.68-.34,1-.49a.51.51,0,0,0-.11.22c-.22.73.81,1,.81,1A2.92,2.92,0,0,0,129,24.5a.14.14,0,0,0,.06-.21,3,3,0,0,0-1.39-1.05,1.59,1.59,0,0,0-.53-.08l1-.39a.3.3,0,0,0,0,.1.63.63,0,0,0,.51.67,1.23,1.23,0,0,0,.57.66,4.31,4.31,0,0,0,1.76.41.1.1,0,0,0,.1-.14,4.47,4.47,0,0,0-.6-1.18l.08,0a.14.14,0,0,0,.05-.09l.09,0a1.28,1.28,0,0,0,.56.33,4.27,4.27,0,0,0,1.81,0,.11.11,0,0,0,.07-.16,4.28,4.28,0,0,0-1.19-1.25,2.61,2.61,0,0,0,.66-.25A1.23,1.23,0,0,0,133,22a4.24,4.24,0,0,0,1.81,0,.09.09,0,0,0,.06-.15,4.31,4.31,0,0,0-.85-1,3,3,0,0,0-1.28-.92h0l.42-.41v0c-.06.5.43.67.7.73a1.16,1.16,0,0,0,.71.52,4.11,4.11,0,0,0,1.81,0,.11.11,0,0,0,.07-.16,4.37,4.37,0,0,0-1.26-1.3,1.31,1.31,0,0,0-.47-.16,3.35,3.35,0,0,0-.53-.15,1.73,1.73,0,0,0-.52,0l.29-.26a1.67,1.67,0,0,0,.61.31,2.62,2.62,0,0,0,.76.08,1.17,1.17,0,0,0,.63.42,4.32,4.32,0,0,0,1.82,0,.11.11,0,0,0,.06-.16,4.13,4.13,0,0,0-1.26-1.3l0,0a2.63,2.63,0,0,0,1.25-.37.13.13,0,0,0,0-.19,1.33,1.33,0,0,0-.27-.23,4.52,4.52,0,0,0,.65-.71.1.1,0,0,0,0-.14,3.63,3.63,0,0,0-1.56-.1,1,1,0,0,0-.68.47.62.62,0,0,0-.26.09,4.53,4.53,0,0,0,.69-1.48.11.11,0,0,0-.05-.12,2.67,2.67,0,0,0,0-.7.13.13,0,0,0-.18-.09,2.68,2.68,0,0,0-1.15,1.08l0,0a3.18,3.18,0,0,0-.32.16,3.09,3.09,0,0,0-.1-.45.56.56,0,0,0,.17-.09,1.1,1.1,0,0,0,.4-1,3.71,3.71,0,0,0-.6-1.45,2.52,2.52,0,0,0,.7-.59.13.13,0,0,0,0-.19,2.55,2.55,0,0,0-1.1-.24,1.06,1.06,0,0,0,.26-.53,3.73,3.73,0,0,0-.17-1.56.09.09,0,0,0-.14,0,3.94,3.94,0,0,0-1,1.12v-.05a2.61,2.61,0,0,0,.4-.79.13.13,0,0,0-.11-.16,2.37,2.37,0,0,0-.61,0h0a.13.13,0,0,0-.19,0,.77.77,0,0,0-.12.13,2.6,2.6,0,0,0-.6.27l-.13.1a1,1,0,0,0,0-.6,3.63,3.63,0,0,0-.9-1.28.09.09,0,0,0-.14,0,3.11,3.11,0,0,0-.15.42,2.91,2.91,0,0,0-.23-.2.13.13,0,0,0-.19.05,2.66,2.66,0,0,0-.2,1.08l0-.08a.09.09,0,0,0-.14,0l-.13.12-.39,0s-.69,0-.89.4a.14.14,0,0,0-.11,0,1.68,1.68,0,0,0-.35.28l-.08-.23a.09.09,0,0,0-.14,0,3.65,3.65,0,0,0-.46.48,1.81,1.81,0,0,0,.17-.58,3,3,0,0,0,0-.68l.12-.28a.11.11,0,0,0-.1-.14h-.11a2.39,2.39,0,0,0-.25-.6.14.14,0,0,0-.21,0,2.87,2.87,0,0,0-.57.76l-.07,0a2.62,2.62,0,0,0,.33-1,.13.13,0,0,0-.14-.14,2.24,2.24,0,0,0-.49.11,4.1,4.1,0,0,0-.26-1.14.09.09,0,0,0-.14,0,3.59,3.59,0,0,0-.94,1.25,1,1,0,0,0,.07.9.58.58,0,0,0,.09.7l.14.11c0,.14-.05.28-.07.42l0,0s-.9.56-.47,1.19a.44.44,0,0,0,.13.14c-.16.19-.44.58-.23.93,0,.1-.07.19-.11.29-.12.28-.26.57-.4.84,0-.06,0-.11,0-.17v0a1.24,1.24,0,0,0,.18-1.1c.28-.32,0-.86,0-1l0,0a.6.6,0,0,0,.27-.6l0,0a1.24,1.24,0,0,0,.15-1.21l0-.08c.33-.35,0-1,0-1a2.61,2.61,0,0,0-1.11-1.11.12.12,0,0,0-.18.08,2.43,2.43,0,0,0,0,1c0,.09,0,.2-.08.31a2.68,2.68,0,0,0-.31.42l-.13,0a.14.14,0,0,0-.17.12,2.73,2.73,0,0,0,0,.55,1.15,1.15,0,0,0,.21.83v0a2.8,2.8,0,0,0,0,.42,4,4,0,0,0-.2,1l0,.13-.25-.09a.14.14,0,0,0-.17.08l0,0a.12.12,0,0,0-.19,0A2.23,2.23,0,0,0,121,13l-.38.05a2.42,2.42,0,0,0,.17-.45.62.62,0,0,0,.19-.14A4.13,4.13,0,0,0,122,11a.1.1,0,0,0-.1-.14h-.24c.1-.15.17-.29.22-.38a.14.14,0,0,0-.1-.19,2.8,2.8,0,0,0-1.23,0l.06-.16a1.4,1.4,0,0,0,.64-.28,2.69,2.69,0,0,0,.86-1.33.12.12,0,0,0-.12-.15h-.17a3.69,3.69,0,0,0-.27-1.29.09.09,0,0,0-.14,0,3.68,3.68,0,0,0-.93,1.25,1,1,0,0,0-.06.56,1.45,1.45,0,0,0-.24.22,1.3,1.3,0,0,0-.1-.15,2,2,0,0,0-.27-.31v0a2.66,2.66,0,0,0-.94-1.26.13.13,0,0,0-.19,0,2.7,2.7,0,0,0-.13.44.11.11,0,0,0,0,.06,4.71,4.71,0,0,0,.1,1.6,2.63,2.63,0,0,0-.73-.51.13.13,0,0,0-.19.09c0,.06,0,.12,0,.2a4.63,4.63,0,0,0-1,.53,1.72,1.72,0,0,0,0-.26.14.14,0,0,0-.18-.11,3,3,0,0,0-.73.42l-.12-.14a1.29,1.29,0,0,0,.17-.34,2.71,2.71,0,0,0,0-1.58.13.13,0,0,0-.18-.07,2.75,2.75,0,0,0-1,1.19.09.09,0,0,0-.13.07,3.5,3.5,0,0,0,.11,1.55,1,1,0,0,0,.34.48,1.2,1.2,0,0,0,0,.38l-.08,0a1.47,1.47,0,0,0-.6-.61,3.12,3.12,0,0,0-1-.3,1.14,1.14,0,0,0,.1-.19.65.65,0,0,0,.87-.06c.45-.53-.31-1.12-.31-1.12a2.67,2.67,0,0,0-.55-.32,4.91,4.91,0,0,0-.17-.6.1.1,0,0,0-.16-.05c-.1.09-.27.24-.45.43h-.15a.13.13,0,0,0-.13.15,1,1,0,0,0,0,.14,3,3,0,0,0-.44.71,1.24,1.24,0,0,0,.13,1.21l0,0-.25.14v0l-.2-.38c0-.11,0-.22.07-.33a.36.36,0,0,0,0-.09,1.08,1.08,0,0,0-.1-1,3.54,3.54,0,0,0-1.19-1,.09.09,0,0,0-.13.07,3.67,3.67,0,0,0,.1,1.56,1.51,1.51,0,0,0,.11.22c0,.08-.1.18-.15.28s-.38.89.27,1.13c.42.16.69-.18.83-.43l.09.21a4.21,4.21,0,0,0-.44.42,4.27,4.27,0,0,0-1-.22c.18-.47-.42-.94-.42-.94a2.7,2.7,0,0,0-1.48-.54.13.13,0,0,0-.13.15,2.42,2.42,0,0,0,.31.79,5.19,5.19,0,0,0-.72-.34.09.09,0,0,0-.12.09c0,.1,0,.28,0,.48a.14.14,0,0,0-.17,0,2.68,2.68,0,0,0-.73,1,.09.09,0,0,0-.05.08v0a.84.84,0,0,0,0,.17s-.19.74.25,1a1.8,1.8,0,0,0,.08.21,2.37,2.37,0,0,0-.42-.08c.08-.49-.57-.85-.57-.85a2.72,2.72,0,0,0-1.21-.31,2.75,2.75,0,0,0-.18-.45.12.12,0,0,0-.19,0,2.69,2.69,0,0,0-.83,1.34,1.29,1.29,0,0,0,0,.32,4,4,0,0,0-.66-1.15.09.09,0,0,0-.15,0,4.52,4.52,0,0,0-.38.87,2.56,2.56,0,0,0-1-.08.12.12,0,0,0-.1.16,2.71,2.71,0,0,0,1,1.25,2,2,0,0,0,.42.19l0,0a.46.46,0,0,0,.44.05.58.58,0,0,0,0,.14,3.32,3.32,0,0,0-.67-.06,2.49,2.49,0,0,0-.75-.49.13.13,0,0,0-.17.09A2.69,2.69,0,0,0,101.7,16a1.44,1.44,0,0,0,.19.29,4,4,0,0,0-1-.28.09.09,0,0,0-.11.1,6.4,6.4,0,0,0,.18.65,2.66,2.66,0,0,0-1,.66.12.12,0,0,0,0,.19,2.73,2.73,0,0,0,1.55.31,1.52,1.52,0,0,0,.24-.05h0a2.25,2.25,0,0,0-.08.24,1.08,1.08,0,0,0,0,.18,3.06,3.06,0,0,0-.23.3.12.12,0,0,0,0,.1,2,2,0,0,0-.32-.3.11.11,0,0,0-.12,0,3.1,3.1,0,0,0-.68-.24,3.91,3.91,0,0,0-.92-.26.09.09,0,0,0-.1.1,3.49,3.49,0,0,0,.6,1.44,1,1,0,0,0,.81.41v0a2.87,2.87,0,0,0-.83.12.14.14,0,0,0-.09.17A5.78,5.78,0,0,0,98.74,20a.1.1,0,0,0-.09.14,4.43,4.43,0,0,0,.29.65Zm31.39,29c-.22-.24-.46-.46-.7-.69-.08-.07-.38-.26-.41-.36s.05-.29.07-.38a8.61,8.61,0,0,1,.44-1.5c.77.7,1.56,1.38,2.33,2.09l.58.53c.22.22.18.25.19.57s.06.79.08,1.18h0c0,.11,0,.07,0,0a10.18,10.18,0,0,1,0,1.83A19.31,19.31,0,0,0,130.17,49.85Zm-1.23.35a17.28,17.28,0,0,1,2.53,2.67c.18.24.36.48.53.73a3.33,3.33,0,0,1,.5.76,2.65,2.65,0,0,1-.21.85c-.09.34-.19.67-.29,1a9.72,9.72,0,0,0-2-2.72,4.38,4.38,0,0,1-.69-.59,3,3,0,0,1-.21-1A10.26,10.26,0,0,1,128.94,50.2Zm-3.25-2.06a11.36,11.36,0,0,1,2.25,1.28c.12.08.22.13.26.26a1.26,1.26,0,0,1,0,.34,8.31,8.31,0,0,0,.07.86,12.08,12.08,0,0,0,.28,1.48,6.76,6.76,0,0,0-1.69-.92c.07,0-.28-.81-.12-.34C126.39,50.11,126,49.13,125.69,48.14ZM125,52.81l0-.1c.16-.4.32-.8.49-1.19l.6,1.38a3.44,3.44,0,0,1,.28.66c0,.15,0,.1,0,.25s-.07.19-.1.29a21.41,21.41,0,0,0-.37,2.22c-.28-.66-.59-1.31-.91-2a3.24,3.24,0,0,1-.35-.62c0-.11.11-.32.15-.43S124.9,53,125,52.81Zm-1.16-11.67c1.71,1.63,3.26,3.43,5,5.06,0-.05-.25-.23,0,0s.07.13,0,.28a2.56,2.56,0,0,0-.11.24,3.3,3.3,0,0,0-.12.38,10.19,10.19,0,0,0-.22,1.1,13,13,0,0,0-2-1.24c-.24-.12-.48-.24-.74-.34-.1,0-.32,0-.41-.11s-.15-.36-.19-.5A41.35,41.35,0,0,1,123.81,41.14Zm-16.61,11c-.17.45-.32.9-.45,1.37s-.16.86-.29,1.26a3.32,3.32,0,0,1-.59.73c-.23.3-.46.61-.67.93a5.56,5.56,0,0,0-.32-.8c0-.06-.14-.18-.14-.23s.19-.31.24-.39c.34-.55.67-1.1,1.06-1.61,0,0,0,0,0,0,.19-.24.13-.16.05-.06A10.72,10.72,0,0,1,107.2,52.15Zm9.48-4.28a.67.67,0,0,1,.17-.08l.38-.18,1.09-.46c-.37.83-.75,1.66-1.13,2.48-.11-.45-.24-.9-.38-1.34A2.25,2.25,0,0,1,116.68,47.87ZM115,47.39a6.26,6.26,0,0,0-.51.39,7.76,7.76,0,0,0-.84.78,13,13,0,0,0-1.44,1.94,9.52,9.52,0,0,0-.4-1.48,4.34,4.34,0,0,0-.3-.7c-.07-.14-.09-.14,0-.25a3.36,3.36,0,0,1,.66-.52L113,47l1.47-1.08c.14.33.35.64.52,1h0a1.91,1.91,0,0,1,.16.32C115.17,47.32,115.2,47.28,115,47.39Zm5.4-6c-.19.66-.39,1.31-.62,2l-.33.91a3.92,3.92,0,0,1-.38,1c-.13.16-.52.24-.74.34l-.7.32c-.49.24-1,.47-1.46.74a5.43,5.43,0,0,0-.78-1.49c1-.69,1.94-1.39,2.9-2.11C119.05,42.53,119.75,42,120.44,41.42Zm1.74,1c.31,1.16.67,2.32,1.07,3.45-.4,0-.62.86-.75,1.18-.21.56-.41,1.13-.58,1.71a27.52,27.52,0,0,0-.86,3.93A13.47,13.47,0,0,0,120,50.57a9.07,9.07,0,0,0-.89-1.29C120.21,47.05,122,43,122.18,42.43Zm-10.5-25.79v0Zm.19-3.57,0,0h0l0,0Zm1-1.68a1.27,1.27,0,0,0-.13.19l-.3-.28a2.16,2.16,0,0,0,0-.36h.11A3.21,3.21,0,0,0,112.83,11.39Zm.25,3.23A.62.62,0,0,0,113,15l-.07,0-.12.11h0c.42-.43-.08-1.18-.08-1.18s-.19-.24-.29-.34l0-.16.21.17A3.73,3.73,0,0,1,113,14,2.57,2.57,0,0,0,113.08,14.62Zm.26,2.84a3.48,3.48,0,0,0-.75.37v0a1.34,1.34,0,0,0,.53-.46.71.71,0,0,0,.18.08Zm.11-4.12-.06,0,0,0S113.45,13.32,113.45,13.34Zm.71-1.06-.13.09c0-.07,0-.13,0-.19h.06Zm0,1.63-.11,0c0-.06-.09-.11-.13-.16h.16Zm.23,2.48a2.64,2.64,0,0,0-.47-.17,1.18,1.18,0,0,0-.1-.18,2.71,2.71,0,0,0-.38-.43,1,1,0,0,0,.34,0,.6.6,0,0,0,.23,0,3.28,3.28,0,0,0,.37.8ZM116,11.73l0,0h0Zm.17-.12,0,0a.1.1,0,0,0,0,0l-.08-.08,0,0Zm1,1.14-.12.11-.08-.13a.91.91,0,0,0,.17-.17Zm.59,2.88h0a.56.56,0,0,0,.25-.23,2.4,2.4,0,0,1,.21.69,2.17,2.17,0,0,1,0,.36l-.12.07a.14.14,0,0,0-.14-.06,3,3,0,0,0-.42.11,3.2,3.2,0,0,0-.13-.38A.5.5,0,0,0,117.69,15.63Zm.08-4.07-.21-.16a.1.1,0,0,0-.12,0v-.21l.08-.13a.61.61,0,0,1,.07-.14,2.79,2.79,0,0,0,.14.57A.59.59,0,0,0,117.77,11.56Zm.41,2.48a.49.49,0,0,0,.53-.2h0c-.1.29-.19.58-.27.88a1.31,1.31,0,0,0-.21.2c-.1-.18-.2-.37-.31-.55s-.06-.14-.06-.14a.61.61,0,0,0-.07-.1l.09-.13,0-.05Zm1.1-2.11a1.63,1.63,0,0,0,.09-.42v0a.58.58,0,0,0,.16.21,1.39,1.39,0,0,0-.1.33c-.14.31-.28.62-.41.93l-.16.16a1.18,1.18,0,0,0-.23-.67,2.5,2.5,0,0,0-.35-.38,1.78,1.78,0,0,0,.38.14A.52.52,0,0,0,119.28,11.93Zm-.43,4.3a.76.76,0,0,0,0-.15,1.56,1.56,0,0,0,.53-.26l.28-.19a3.21,3.21,0,0,0-.15.56A2.71,2.71,0,0,0,118.85,16.23Zm.73.86a.7.7,0,0,0,.37.44l-.21.19a4,4,0,0,0-.28-.51Zm0-4.42v0h0Zm.77-2.57a2.56,2.56,0,0,1-.11.24,1.25,1.25,0,0,0-.25.09s-.59.26-.69.69c0,0,0-.08,0-.12a1.28,1.28,0,0,0-.1-.72,1.53,1.53,0,0,0,.4.15.52.52,0,0,0,.6-.32l0-.08A.56.56,0,0,0,120.38,10.1Zm.47,6.17a.61.61,0,0,0,.31-.19v.13c0,.21.08.27-.1.41l-.23.18,0,0a1.51,1.51,0,0,0,0-.29,2.21,2.21,0,0,0,0-.25Zm.5-1.66c0,.15-.06.3-.08.46v0a3.22,3.22,0,0,0-.33-.67l.1-.13A.77.77,0,0,0,121.35,14.61Zm.21,3.78a2.94,2.94,0,0,0-.92,0,1.93,1.93,0,0,0-.44.17c.2-.22.41-.44.62-.65a.59.59,0,0,0,.61.28l.11.15Zm.91-3.13-.21.24-.18,0a1.58,1.58,0,0,0-.39.15c0-.35,0-.7.08-1a.59.59,0,0,0,.41-.43,1.06,1.06,0,0,0,.15.15.58.58,0,0,0,.14.9Zm.53,1.5a1.56,1.56,0,0,0,.2.16,2.09,2.09,0,0,0-.11.3l-.17,0a1.38,1.38,0,0,0,.13-.22.11.11,0,0,0-.08-.17l-.14,0,.11-.06ZM124.84,10h0Zm.48,2.89h0a3.16,3.16,0,0,0-1.14.38l.12-.37a.61.61,0,0,0,.44,0A1.38,1.38,0,0,0,125.32,12.93Zm0,2a.1.1,0,0,0-.07.07c0,.07-.06.18-.1.31a.12.12,0,0,0-.16,0,2.37,2.37,0,0,0-.27.31,2.94,2.94,0,0,0-.74-.13,1.21,1.21,0,0,0-.48.07,2.51,2.51,0,0,0-.48-.1,2.33,2.33,0,0,0,.17-.26l.15-.06a2.78,2.78,0,0,0,.56-.4.67.67,0,0,0,.24,0,1.22,1.22,0,0,0,.69,0l.24-.07A.52.52,0,0,0,125.36,15Zm-1.07,2.72h0a4,4,0,0,0-.2-.56l.09,0,.11,0c0,.29.12.65.53.71h.13a1.36,1.36,0,0,1,0,.2,2.65,2.65,0,0,0-.57.12v0a2,2,0,0,0,0-.24A.1.1,0,0,0,124.29,17.69ZM125.7,15l-.06.15-.18-.16h.24Zm-.19,2.63h0Zm.6-6.63-.2,0a.83.83,0,0,0,.08-.12A.27.27,0,0,0,126.11,11Zm.3,3.57a2,2,0,0,0-.15.26l-.17.07.06-.21a1.2,1.2,0,0,0,.15-.3A.42.42,0,0,0,126.41,14.58Zm-.18,4.11.09,0a.33.33,0,0,0,0,.13l-.08-.09Zm.35-5.08,0,0,0-.06Zm.27-2.67,0,0h0Zm.94,2.27a.53.53,0,0,0,.13.26,1.11,1.11,0,0,0-.12.16l-.2-.06A1.6,1.6,0,0,0,127.79,13.21Zm.82-2.17a.9.9,0,0,0,0,.16l-.19-.1s0-.11,0-.16A.94.94,0,0,0,128.61,11Zm1.46,6.84v0h0c-.19.32-.4.63-.61.94a2,2,0,0,0-.2-.47,1.13,1.13,0,0,1-.1-.13h0A3.19,3.19,0,0,0,130.07,17.88Zm-.2-1.07-.06,0v0l-.12-.24h0Zm1-5.78a2.67,2.67,0,0,0-.37.76,1.07,1.07,0,0,0-.1-.25A2.47,2.47,0,0,0,130,11v-.14l.05,0a.58.58,0,0,0,.65.26Zm.88.7-.16,0a2,2,0,0,0-.17-.36.57.57,0,0,0,.3.15A1.22,1.22,0,0,0,131.71,11.73Zm-.28,4.76a2,2,0,0,1,.07-.23,2.85,2.85,0,0,0,1.17-.52,5.81,5.81,0,0,0-.58.81h0a.12.12,0,0,0-.12-.15A1.92,1.92,0,0,0,131.43,16.49Zm.33.89a.28.28,0,0,1,0,.09l-.12.11Zm0-2.43a.74.74,0,0,1,0-.14l.13,0c0,.06,0,.11,0,.17Zm.92-2.48a.53.53,0,0,0,0,.13l-.06.07c-.17.18-.33.37-.49.57a1.09,1.09,0,0,0-.56.27v0c0-.08,0-.15.07-.22v0l.19-.08A3.1,3.1,0,0,0,132.71,12.47Zm.27.62-.18.14-.21,0,.21-.29A.48.48,0,0,0,133,13.09Zm.09-1.06-.08.05,0-.09Zm1.12,1a4.81,4.81,0,0,0-.33.59l-.15-.08c0-.12,0-.24,0-.34l.11,0Zm1,4.85.24-.13a.67.67,0,0,0,.32.28l-.2.05ZM134,17.76s0-.06,0-.09a1,1,0,0,0,.23-.22l.1,0a1.29,1.29,0,0,0,1-.28.48.48,0,0,0,0,.18.45.45,0,0,0,0,.11c-.16.07-.33.15-.49.24A1.21,1.21,0,0,0,134,17.76Zm-1.11-2.05a.09.09,0,0,0-.1-.05l0,0a.14.14,0,0,0,0-.21,1.22,1.22,0,0,0,.75-.77l.06-.23a1.06,1.06,0,0,0,.34.82v0a3.16,3.16,0,0,0-.81,1.12A5.69,5.69,0,0,0,132.89,15.71Zm-1.31,5.22h0l0,0Zm-.32-.56a1.38,1.38,0,0,0,.34-.41c.48-.12.66-.83.66-.83a3.94,3.94,0,0,0,.07-.55.3.3,0,0,0,.16,0,.55.55,0,0,0,.31.4h0a5.61,5.61,0,0,1-.48.51l-.46.4a.62.62,0,0,0-.32.24Zm0-9.21a1.81,1.81,0,0,0-.15-.19l0,0a.41.41,0,0,0,.16,0A.54.54,0,0,0,131.22,11.16Zm-1.05,4.22-.33,0a.74.74,0,0,0,.61-.73,1.8,1.8,0,0,0,.31.2.51.51,0,0,0,.42,0,.06.06,0,0,1,0,0h0S130.35,14.88,130.17,15.38Zm.21.74a1.17,1.17,0,0,0,.46.17,5.42,5.42,0,0,1-.22.56l-.06,0c-.13-.21-.27-.41-.4-.61Zm-.31,5.76.21-.1a.75.75,0,0,0,.26.21h0a.38.38,0,0,0-.13.09A2.18,2.18,0,0,0,130.07,21.88Zm-1-.42a1.8,1.8,0,0,0,.26-.55,3.53,3.53,0,0,0,.06-.42l.16-.21a.53.53,0,0,0,.32.5.65.65,0,0,0,.81-.25.47.47,0,0,0,.33,0A12.35,12.35,0,0,1,129.06,21.46Zm0-9s0-.14,0-.26h0a2.92,2.92,0,0,0,.19.31Zm-.17,0h-.15a1.19,1.19,0,0,0-.84.31,2.29,2.29,0,0,0,0-.25,1.29,1.29,0,0,0,.16-.17,3.17,3.17,0,0,0,.84-.19h0C128.9,12.24,128.89,12.34,128.87,12.43Zm-.1,1.28-.05.07-.28,0v0a2,2,0,0,0,.32,0Zm-.29,2,0,0-.1-.1a1.07,1.07,0,0,0,.16-.27.35.35,0,0,0,0,.08.37.37,0,0,0,.15.13A.88.88,0,0,0,128.48,15.69Zm-.23,1c.07-.08.15-.16.22-.25h0a1.32,1.32,0,0,0,0,.27Zm-.48,0c-.27.05-.64.2-.7.56l-.13.1a2.05,2.05,0,0,0-.37,0,1.29,1.29,0,0,0,.07-.21.11.11,0,0,0,.08,0c.58,0,.66-.63.67-.93a.54.54,0,0,0,.43-.09,2.22,2.22,0,0,0,.52-.21.61.61,0,0,0,0,.27A7.27,7.27,0,0,1,127.77,16.73Zm-.28,1.3h0Zm-.39,2.75a.55.55,0,0,0,.49.17l-.3.26-.08,0A2.84,2.84,0,0,0,127.1,20.78Zm-1.91-.62h0l.36-.08c.12.26.4.69.88.52s.33-1,.27-1.11h0a1.18,1.18,0,0,0,.65.17c-.12.1-.57.52-.39,1a.14.14,0,0,0-.11,0,2.54,2.54,0,0,0-.62.6,1.45,1.45,0,0,0-.08-.14A3.08,3.08,0,0,0,125.19,20.16ZM124.1,23a17.2,17.2,0,0,0,.67-1.59,2.39,2.39,0,0,0,.16.38,1.46,1.46,0,0,0,.57.58C125,22.61,124.58,22.81,124.1,23ZM124,20a1,1,0,0,0,0-.17l.09,0a.48.48,0,0,0,.12.16Zm-5,.3a11.3,11.3,0,0,1,.85-1.17,1.15,1.15,0,0,0,0,.19.51.51,0,0,0,.07.67,1.26,1.26,0,0,0,1.09.36,4.34,4.34,0,0,0,.17.4s.5.94,1.16.55.07-1.28.07-1.28a1.84,1.84,0,0,0-.17-.22l.13-.09a.54.54,0,0,0,.07.13,1.18,1.18,0,0,0,.64.58.76.76,0,0,0-.31,1c.27.46.8.31,1.08.18-.11.24-.23.47-.36.7a6.53,6.53,0,0,1-.91,1.5,6.75,6.75,0,0,1-.88.59,6.59,6.59,0,0,0-.75.65A6.44,6.44,0,0,0,119,28.42a8.8,8.8,0,0,1-1.33-4.15A6.51,6.51,0,0,1,118.93,20.25Zm-2.08-1.63a1.61,1.61,0,0,0,.54-.41,3.24,3.24,0,0,0,.31-.48.55.55,0,0,0,.35.15c0,.18,0,.35,0,.53a7.59,7.59,0,0,1,.07.95c0,.21-.24.43-.37.61s-.31.47-.44.7A14.48,14.48,0,0,0,116.85,18.62ZM116.36,14h-.06a1.59,1.59,0,0,0-.57-.55,3.43,3.43,0,0,0-.8-.27,1.47,1.47,0,0,1,.1-.13l.14,0a1.34,1.34,0,0,0,.93.09.53.53,0,0,0,.39-.41h.17v0l.13.23,0,.06-.16-.09a.14.14,0,0,0-.19.1A2.61,2.61,0,0,0,116.36,14Zm-.58,1.63c0,.08,0,.17,0,.27l-.15,0a.8.8,0,0,0-.08-.16Zm.56,1.56v0h0l-.06-.12Zm-4.84,3c.65.21,1-.73,1-.73a1.24,1.24,0,0,0,1.12-.47h0a3.88,3.88,0,0,0,.8,1.17,1.23,1.23,0,0,0,1.18.28.51.51,0,0,0,.4-.56,1.25,1.25,0,0,0-.67-1,3.67,3.67,0,0,0-1.41-.36c.08-.17.14-.34.2-.5h0a3.31,3.31,0,0,0,.25.3s.76.76,1.27.2l0-.07c.67,2.38.32,4.9.6,7.33-.58-.41-1.16-.8-1.75-1.2s-1-.52-1.44-.85a3.9,3.9,0,0,1-1.59-2.58C111.52,20.86,111.51,20.55,111.5,20.23Zm0-1.95a1.47,1.47,0,0,0,.25-.57,2.77,2.77,0,0,0,0-.39,2.11,2.11,0,0,0,.16.3.43.43,0,0,0,.26.2,3.25,3.25,0,0,0-.69.67C111.46,18.42,111.45,18.35,111.45,18.28Zm-9-1.68v0l0,0Zm.59-.11h-.24l.13-.13A.76.76,0,0,0,103,16.49Zm2.07-.66a3.31,3.31,0,0,0-.35.73l0,.16v-.09a.61.61,0,0,0,0-.27,1.52,1.52,0,0,0-.13-.47.6.6,0,0,0,.46-.1v0Zm.35,1.82.09.36s0,0,0,.08l-.07.17-.84-1.06a.7.7,0,0,0,.12-.28.64.64,0,0,0,.46.73A.66.66,0,0,0,105.46,17.65Zm.1-2.35h0l-.17.16a1.57,1.57,0,0,0,.12-.21Zm.45-1.24-.31,0a.76.76,0,0,0,0-.15.81.81,0,0,0,.22,0A1.62,1.62,0,0,0,106,14.06Zm.87,2.22a2.11,2.11,0,0,0-.21.31,2.49,2.49,0,0,0-.48,0,.13.13,0,0,0-.11.16,2.72,2.72,0,0,0,.17.39,3.11,3.11,0,0,0-.42.45,1.42,1.42,0,0,1,0-.16,1.49,1.49,0,0,0,.25-.58,3.83,3.83,0,0,0,0-.47.49.49,0,0,0,.41,0,1.1,1.1,0,0,0,.28-.18Zm.48,3.53a.59.59,0,0,0,0-.13l.19.12s0,0,0,0a1.07,1.07,0,0,0-.08.37l-.21.22-.09-.12A1.68,1.68,0,0,0,107.36,19.81Zm1-2.48h-.13l-.06,0a1,1,0,0,0-.16-.19,2.64,2.64,0,0,0,0-.4,1.12,1.12,0,0,0,.36-.05h0A1.53,1.53,0,0,0,108.37,17.33Zm.28,1.05h0l-.23.23-.15-.07a2.94,2.94,0,0,0-1-.17l0,0a.82.82,0,0,0,.2-.12.59.59,0,0,0,.68-.24.52.52,0,0,0,.08-.19A2.77,2.77,0,0,0,108.65,18.38Zm-.21-5.88a2.42,2.42,0,0,0-.41.3v0l-.24-.22v0a3.55,3.55,0,0,0,0-.56h0A1,1,0,0,0,108.44,12.5Zm.28,3h0l-.47-.06a2,2,0,0,0-.27-.12,3.55,3.55,0,0,0-.78-.15v-.08a.2.2,0,0,0,0-.07.92.92,0,0,0,.33,0l0,0a.7.7,0,0,0,.83-.3c.11.22.2.45.29.68Zm.32,3.65h0a5.28,5.28,0,0,0-.16-.54l.13.1A.83.83,0,0,0,109,19.14Zm.15-7.58h0Zm.46.16-.24-.09h.2A.36.36,0,0,0,109.65,11.72Zm.08.18a2.4,2.4,0,0,0-.54-.17.36.36,0,0,0,0-.11l.56.27Zm-.4,1.78c0-.1,0-.2,0-.29.09.18.18.35.26.53a.75.75,0,0,0-.14.12l-.22-.1A1,1,0,0,0,109.33,13.68Zm1.29-.64a2.84,2.84,0,0,0-.37.78h0l0-.12a.14.14,0,0,0-.2-.08l-.14.09-.18-.29a.67.67,0,0,0,.79-.28l.07-.16Zm-.44,2.41v0l.11.38-.18-.09-.05,0A2,2,0,0,0,110.18,15.45Zm.79-.06a1.72,1.72,0,0,0-.12.51c-.14-.38-.29-.75-.45-1.12a.53.53,0,0,0,.26.13l.17,0A1.55,1.55,0,0,0,111,15.39Zm-.21,3.08a8.61,8.61,0,0,1,0,.88,4,4,0,0,1-.34-.5l0-.1a3.59,3.59,0,0,0,.11-.41A.58.58,0,0,0,110.76,18.47Zm-.21-1.36h0Zm-1.37,5.2a5.32,5.32,0,0,1-1-.78,2.68,2.68,0,0,0,.07-.27l.12-.05a1.25,1.25,0,0,0,.72-1v0a3.49,3.49,0,0,0,.65.44,1.42,1.42,0,0,0,.91.1,4.81,4.81,0,0,0,.51,2.41A8,8,0,0,1,109.18,22.31Zm-3.06,1.36a1.4,1.4,0,0,0,0-.28.52.52,0,0,0,.61-.19,1.34,1.34,0,0,0,.24-.94l.11.06a.6.6,0,0,0,.6-.06A8,8,0,0,0,109,23.35,12.78,12.78,0,0,1,106.12,23.67ZM105,21.24a1.18,1.18,0,0,0,.07-.2,1,1,0,0,0,.42.08c0,.05,0,.1,0,.16A2.42,2.42,0,0,0,105,21.24ZM104.45,23a.88.88,0,0,0,.2-.83l.23.2a3.11,3.11,0,0,0-.17.84Zm-.19-4.88a.57.57,0,0,0,.3-.24l0,0,.11.16c.47.71.91,1.45,1.38,2.17a.61.61,0,0,0,.23.34l.48.67a1.39,1.39,0,0,0-.09.41,4.45,4.45,0,0,0-.73-.89c.17-.51-.53-.92-.53-.92l-.2-.1a.69.69,0,0,0,.1-.17c.29-.7-.71-1.07-.71-1.07a1.78,1.78,0,0,0-.36-.1A1.41,1.41,0,0,0,104.26,18.14Zm-.74-3.32a.14.14,0,0,0-.2.07.14.14,0,0,0,0,.07l0,0a2.64,2.64,0,0,1-.07-.3,1.16,1.16,0,0,0,.32-.76.54.54,0,0,0,.39.28l.13,0v.05a1.06,1.06,0,0,0,.14.58,1.23,1.23,0,0,0,0,.52A2.83,2.83,0,0,0,103.52,14.82Zm-.69,7.25h.07a.55.55,0,0,0,.29-.08c.06.16.13.32.2.47l.06.17A3.73,3.73,0,0,1,102.83,22.07Zm-.41.81a.6.6,0,0,0,.18-.4c.12.13.25.27.39.4l-.1,0A2.4,2.4,0,0,0,102.42,22.88Zm-.2-2.56-.13-.11a1.5,1.5,0,0,0,0-.51,2.85,2.85,0,0,0-.47-.91h0l.22.07a.55.55,0,0,0,.41.33.56.56,0,0,0,.39-.06c0,.09,0,.18,0,.26A2.93,2.93,0,0,0,102.22,20.32ZM101,21.84a.54.54,0,0,0,.16-.44v-.06a1.57,1.57,0,0,0,.76.11l.06.13.12.24a1.63,1.63,0,0,0-.63-.08A4.8,4.8,0,0,0,101,21.84Z" transform="translate(-0.69)"/><path class="cls-2" d="M92.42,27.79A27.54,27.54,0,1,0,120,.25,27.54,27.54,0,0,0,92.42,27.79Zm13.71,18L138,14a22.7,22.7,0,0,1-31.82,31.83Zm-8.87-18a22.69,22.69,0,0,1,36.52-18L102,41.61A22.62,22.62,0,0,1,97.26,27.79Z" transform="translate(-0.69)"/></g></g></svg>