<svg xmlns="http://www.w3.org/2000/svg" viewBox="0 0 138.13 51.54"><defs></defs><g id="Layer_2" data-name="Layer 2"><g id="Layer_1-2" data-name="Layer 1"><path class="cls-1" d="M62.35,5.21h5.31v1H63.41V9.57h4.25v1H63.41v5.21H62.35Z"/><path class="cls-1" d="M69.51,5.21h1.06V14.8h4.08v1H69.51Z"/><path class="cls-1" d="M81.39,4.94a5.51,5.51,0,0,1,4,1.61,5.38,5.38,0,0,1,1.63,4,5.41,5.41,0,0,1-1.63,4,5.59,5.59,0,0,1-9.55-3.91,5.66,5.66,0,0,1,.73-2.83,5.47,5.47,0,0,1,4.79-2.79Zm0,1a4.35,4.35,0,0,0-2.23.61,4.5,4.5,0,0,0-1.65,1.65A4.68,4.68,0,0,0,77,10.56a4.47,4.47,0,0,0,4.47,4.5,4.53,4.53,0,0,0,2.29-.6,4.31,4.31,0,0,0,1.64-1.64A4.62,4.62,0,0,0,86,10.51a4.57,4.57,0,0,0-.59-2.29A4.41,4.41,0,0,0,83.7,6.59,4.47,4.47,0,0,0,81.43,6Z"/><path class="cls-1" d="M94.23,4.94a5.51,5.51,0,0,1,4,1.61,5.37,5.37,0,0,1,1.62,4,5.4,5.4,0,0,1-1.62,4,5.66,5.66,0,0,1-7.93,0,5.29,5.29,0,0,1-1.63-3.91,5.67,5.67,0,0,1,.74-2.83,5.52,5.52,0,0,1,2-2.05A5.45,5.45,0,0,1,94.23,4.94Zm0,1A4.35,4.35,0,0,0,92,6.59a4.5,4.5,0,0,0-1.65,1.65,4.68,4.68,0,0,0-.59,2.32,4.47,4.47,0,0,0,4.47,4.5,4.53,4.53,0,0,0,2.29-.6,4.31,4.31,0,0,0,1.64-1.64,4.62,4.62,0,0,0,.59-2.31,4.57,4.57,0,0,0-.59-2.29,4.41,4.41,0,0,0-1.66-1.63A4.47,4.47,0,0,0,94.27,6Z"/><path class="cls-1" d="M102,15.82V5.21h2.2a11.32,11.32,0,0,1,3.45.38,4.64,4.64,0,0,1,2.42,1.88,5.69,5.69,0,0,1,.87,3.18,5.6,5.6,0,0,1-.69,2.81,4.44,4.44,0,0,1-1.79,1.78,6.65,6.65,0,0,1-3.08.58Zm1-1h1.22a11,11,0,0,0,3-.28,3.47,3.47,0,0,0,1.89-1.4,4.35,4.35,0,0,0,.68-2.47A4.6,4.6,0,0,0,109.13,8a3.8,3.8,0,0,0-2.07-1.49,12.66,12.66,0,0,0-3.28-.3H103Z"/><path class="cls-1" d="M112.85,5.21h1.06V15.82h-1.06Z"/><path class="cls-1" d="M116.35,15.82V5.21h.23l7.06,8.13V5.21h1V15.82h-.24l-7-8v8Z"/><path class="cls-1" d="M137.5,7l-.82.78a6.31,6.31,0,0,0-1.94-1.32A5.25,5.25,0,0,0,132.68,6a4.9,4.9,0,0,0-2.38.61,4.51,4.51,0,0,0-1.75,1.66,4.33,4.33,0,0,0-.62,2.22,4.47,4.47,0,0,0,.64,2.28,4.53,4.53,0,0,0,1.78,1.69,5.1,5.1,0,0,0,2.48.62,4.23,4.23,0,0,0,2.77-.93,3.64,3.64,0,0,0,1.34-2.39h-3.38v-1h4.57a5.32,5.32,0,0,1-1.46,3.9,5.2,5.2,0,0,1-3.87,1.45,5.82,5.82,0,0,1-4.66-2,5.33,5.33,0,0,1-1.32-3.57,5.4,5.4,0,0,1,.76-2.8,5.27,5.27,0,0,1,2.08-2,6,6,0,0,1,3-.74,6.72,6.72,0,0,1,2.54.49A7.76,7.76,0,0,1,137.5,7Z"/><path class="cls-1" d="M105.65,22.94h1.09l2.17,7.64,3-7.64h.22l3,7.64,2.2-7.64h1.08l-3,10.61h-.19l-3.15-8-3.21,8h-.2Z"/><path class="cls-1" d="M120.28,22.94h1.06V33.55h-1.06Z"/><path class="cls-1" d="M122.72,24v-1h5.81v1h-2.37v9.57h-1.08V24Z"/><path class="cls-1" d="M130,22.94h1.06v4.45h5.41V22.94h1.06V33.55h-1.06V28.43H131.1v5.12H130Z"/><path class="cls-1" d="M43.91,51.27l1.52-10.61h.17l4.31,8.71,4.27-8.71h.17l1.53,10.61h-1l-1.05-7.59L50,51.27h-.27L46,43.63l-1,7.64Z"/><path class="cls-1" d="M62.3,40.66l5,10.61H66.1l-1.67-3.49H59.86l-1.65,3.49H57l5-10.61Zm-.13,2.26-1.82,3.84H64Z"/><path class="cls-1" d="M68.9,51.27V40.66h.23l7.06,8.14V40.66h1V51.27H77l-7-8v8Z"/><path class="cls-1" d="M90.05,42.44l-.82.78a6.31,6.31,0,0,0-1.94-1.32,5.29,5.29,0,0,0-2.06-.45,4.88,4.88,0,0,0-2.38.61,4.51,4.51,0,0,0-1.75,1.66,4.33,4.33,0,0,0-.62,2.22,4.47,4.47,0,0,0,.64,2.28,4.53,4.53,0,0,0,1.78,1.69,5.1,5.1,0,0,0,2.48.62,4.28,4.28,0,0,0,2.77-.92,3.69,3.69,0,0,0,1.34-2.4H86.11v-1h4.57a5.32,5.32,0,0,1-1.46,3.9,5.2,5.2,0,0,1-3.87,1.45,5.81,5.81,0,0,1-4.66-2A5.33,5.33,0,0,1,79.37,46a5.4,5.4,0,0,1,.76-2.8,5.34,5.34,0,0,1,2.08-2,6,6,0,0,1,3-.74,6.72,6.72,0,0,1,2.54.49A7.76,7.76,0,0,1,90.05,42.44Z"/><path class="cls-1" d="M92.76,40.66h2.11a12.4,12.4,0,0,1,2.4.15,2.72,2.72,0,0,1,1.53.92,2.64,2.64,0,0,1,.59,1.76A2.85,2.85,0,0,1,99,45a2.53,2.53,0,0,1-1.17,1,5.29,5.29,0,0,1-2.09.35l3.81,4.92H98.23l-3.81-4.92h-.6v4.92H92.76Zm1.06,1v3.61h1.82a4.72,4.72,0,0,0,1.58-.2,1.63,1.63,0,0,0,.79-.65,1.8,1.8,0,0,0,0-2,1.63,1.63,0,0,0-.76-.62,4.45,4.45,0,0,0-1.56-.19Z"/><path class="cls-1" d="M106.72,40.39a5.51,5.51,0,0,1,4,1.61,5.6,5.6,0,0,1-7.93,7.92A5.31,5.31,0,0,1,101.2,46a5.66,5.66,0,0,1,.73-2.83,5.47,5.47,0,0,1,4.79-2.79Zm0,1a4.35,4.35,0,0,0-2.23.61,4.5,4.5,0,0,0-1.65,1.65,4.68,4.68,0,0,0-.59,2.32,4.47,4.47,0,0,0,4.47,4.5,4.53,4.53,0,0,0,2.29-.6,4.31,4.31,0,0,0,1.64-1.64,4.62,4.62,0,0,0,.59-2.31,4.5,4.5,0,0,0-.59-2.28A4.36,4.36,0,0,0,109,42,4.47,4.47,0,0,0,106.76,41.43Z"/><path class="cls-1" d="M113.69,40.66h1.16l3.51,8.2,3.58-8.2h1.15l-4.61,10.61h-.23Z"/><path class="cls-1" d="M124.88,40.66H131v1h-5V45h5v1h-5v4.17h5v1h-6Z"/><path class="cls-1" d="M131.7,49.3l.9-.55c.63,1.17,1.37,1.76,2.2,1.76a2.18,2.18,0,0,0,1-.25,1.77,1.77,0,0,0,.71-.67,1.67,1.67,0,0,0,.25-.89,1.79,1.79,0,0,0-.36-1,8.56,8.56,0,0,0-1.82-1.7,10,10,0,0,1-1.65-1.45,2.62,2.62,0,0,1-.56-1.63,2.47,2.47,0,0,1,.33-1.26,2.37,2.37,0,0,1,.93-.9,2.68,2.68,0,0,1,1.31-.33,2.75,2.75,0,0,1,1.4.38,4.73,4.73,0,0,1,1.39,1.36l-.87.66a4.24,4.24,0,0,0-1-1,1.84,1.84,0,0,0-.92-.25,1.45,1.45,0,0,0-1,.39,1.28,1.28,0,0,0-.41,1,1.59,1.59,0,0,0,.15.67,2.44,2.44,0,0,0,.52.71c.14.13.6.49,1.37,1.06a7.68,7.68,0,0,1,1.89,1.81,2.86,2.86,0,0,1,.52,1.59,2.74,2.74,0,0,1-.88,2,2.93,2.93,0,0,1-2.13.85,3.05,3.05,0,0,1-1.75-.52A4.64,4.64,0,0,1,131.7,49.3Z"/></g><g id="Layer_5" data-name="Layer 5"><path class="cls-1" d="M25,39.83v0C24.92,39.93,25,39.86,25,39.83ZM21.6,36.07ZM11,43.2c-.38.33,0,.24,0,0Zm22.88,3.17-.06-.07.09.11ZM7.18,44.3v0ZM23.1,41.35l0-.05Zm0,0s0,.06,0,.07S23.09,41.38,23.1,41.35ZM12.22,2.93c.66-.22.31-1.12.31-1.12a2.68,2.68,0,0,0-1-1.22.12.12,0,0,0-.19.06,2.69,2.69,0,0,0,0,1.57S11.56,3.15,12.22,2.93ZM41,13.8a4.14,4.14,0,0,0,.3-.66.1.1,0,0,0-.1-.13,5,5,0,0,0-1.11.13A.12.12,0,0,0,40,13a2.79,2.79,0,0,0-.82-.12v0a1.05,1.05,0,0,0,.81-.4A3.62,3.62,0,0,0,40.57,11a.09.09,0,0,0-.1-.1,4.14,4.14,0,0,0-.91.27,2.79,2.79,0,0,0-.69.23.13.13,0,0,0-.12,0,2.05,2.05,0,0,0-.31.3.12.12,0,0,0,0-.1,2.73,2.73,0,0,0-.22-.3,1.4,1.4,0,0,0,0-.18c0-.08-.05-.16-.08-.24h0a1.32,1.32,0,0,0,.24.05,2.63,2.63,0,0,0,1.54-.31.12.12,0,0,0,0-.19,2.49,2.49,0,0,0-1-.66,4.52,4.52,0,0,0,.18-.65A.09.09,0,0,0,39,9a3.85,3.85,0,0,0-1,.29,1.45,1.45,0,0,0,.2-.3,2.63,2.63,0,0,0,.23-1.55.12.12,0,0,0-.17-.1,2.61,2.61,0,0,0-.75.49,3.3,3.3,0,0,0-.66.07l0-.14a.44.44,0,0,0,.43-.06l0,0a1.5,1.5,0,0,0,.43-.19,2.77,2.77,0,0,0,1-1.24.14.14,0,0,0-.1-.17,2.62,2.62,0,0,0-1,.08,3.72,3.72,0,0,0-.38-.87.08.08,0,0,0-.14,0,3.83,3.83,0,0,0-.66,1.14,2.31,2.31,0,0,0,0-.32,2.76,2.76,0,0,0-.84-1.34.13.13,0,0,0-.19,0,2.14,2.14,0,0,0-.17.45,2.66,2.66,0,0,0-1.22.32s-.65.36-.57.84c-.12,0-.27,0-.42.08l.09-.2c.44-.26.25-1,.25-1l-.06-.17v0a.12.12,0,0,0,0-.08,2.54,2.54,0,0,0-.74-1,.12.12,0,0,0-.16,0c0-.2,0-.37,0-.48a.09.09,0,0,0-.12-.09,4.45,4.45,0,0,0-.72.35,2.45,2.45,0,0,0,.31-.8.12.12,0,0,0-.12-.15,2.69,2.69,0,0,0-1.48.55s-.6.47-.42.94a4.34,4.34,0,0,0-1,.22,2.46,2.46,0,0,0-.44-.42l.09-.22a.69.69,0,0,0,.84.43c.65-.24.27-1.13.27-1.13l-.15-.28a.74.74,0,0,0,.1-.22,3.7,3.7,0,0,0,.11-1.56A.09.09,0,0,0,29.56,1a3.5,3.5,0,0,0-1.2,1,1.06,1.06,0,0,0-.09,1,.41.41,0,0,0,.05.09,2,2,0,0,0,.06.32c-.06.13-.13.25-.19.38l0,0-.25-.14s0,0,0,0a1.26,1.26,0,0,0,.14-1.21,3,3,0,0,0-.44-.71l0-.14a.12.12,0,0,0-.12-.15H27.4a3.72,3.72,0,0,0-.46-.42.1.1,0,0,0-.16,0,5.27,5.27,0,0,0-.16.6,2.61,2.61,0,0,0-.55.32s-.77.59-.31,1.12a.66.66,0,0,0,.87.07,1.51,1.51,0,0,0,.09.18,3.27,3.27,0,0,0-1,.3,1.48,1.48,0,0,0-.6.61l-.09,0a1,1,0,0,0,0-.38,1,1,0,0,0,.34-.47,3.74,3.74,0,0,0,.12-1.56.09.09,0,0,0-.13-.07,2.64,2.64,0,0,0-1-1.18.12.12,0,0,0-.18.06,2.77,2.77,0,0,0,0,1.58,1.82,1.82,0,0,0,.17.34l-.12.15a2.51,2.51,0,0,0-.72-.42.15.15,0,0,0-.19.11c0,.06,0,.15,0,.25a4.6,4.6,0,0,0-1-.53c0-.07,0-.14,0-.19a.15.15,0,0,0-.2-.1,2.87,2.87,0,0,0-.73.51,4.2,4.2,0,0,0,.1-1.59.09.09,0,0,0,0-.07,2,2,0,0,0-.13-.44.12.12,0,0,0-.18,0,2.66,2.66,0,0,0-.95,1.26v0c-.09.09-.18.2-.27.31s-.07.1-.1.16a1.64,1.64,0,0,0-.23-.23,1,1,0,0,0-.06-.56A3.53,3.53,0,0,0,18.55,0a.08.08,0,0,0-.14,0,4,4,0,0,0-.26,1.29H18a.13.13,0,0,0-.11.16,2.64,2.64,0,0,0,.86,1.32,1.4,1.4,0,0,0,.64.28l.06.16a2.85,2.85,0,0,0-1.24,0,.13.13,0,0,0-.09.19,1.78,1.78,0,0,0,.22.38h-.25A.1.1,0,0,0,18,4a4.21,4.21,0,0,0,1,1.53l.19.15a2.55,2.55,0,0,0,.18.44L18.92,6a2.69,2.69,0,0,0-.34-.78.13.13,0,0,0-.2,0l0,0a.15.15,0,0,0-.17-.08l-.25.09,0-.12a5.16,5.16,0,0,0-.2-1,2.75,2.75,0,0,0,0-.43v0a1.07,1.07,0,0,0,.21-.82,3,3,0,0,0,0-.55.14.14,0,0,0-.18-.12l-.12,0a3.7,3.7,0,0,0-.32-.43,2.33,2.33,0,0,0-.08-.31,2.43,2.43,0,0,0,0-1A.11.11,0,0,0,17,.49,2.68,2.68,0,0,0,15.89,1.6s-.33.66,0,1l0,.07A1.26,1.26,0,0,0,16,3.9l0,0a.6.6,0,0,0,.27.6h0c-.05.12-.28.65,0,1a1.3,1.3,0,0,0,.19,1.11v0a.75.75,0,0,0,0,.16c-.15-.27-.28-.55-.41-.84,0-.1-.07-.19-.11-.29.22-.35-.06-.74-.22-.92a.81.81,0,0,0,.12-.14c.44-.63-.47-1.2-.47-1.2l0,0c0-.13,0-.28-.07-.42a.49.49,0,0,0,.14-.11.57.57,0,0,0,.1-.7,1.05,1.05,0,0,0,.06-.9A3.82,3.82,0,0,0,14.65,0a.09.09,0,0,0-.14,0,4.22,4.22,0,0,0-.27,1.13,2.65,2.65,0,0,0-.49-.11.12.12,0,0,0-.13.14,2.39,2.39,0,0,0,.33,1h-.08a2.79,2.79,0,0,0-.57-.77.14.14,0,0,0-.21,0,3,3,0,0,0-.25.61h-.11a.1.1,0,0,0-.09.14,2.24,2.24,0,0,0,.11.28,3.11,3.11,0,0,0,0,.69,1.67,1.67,0,0,0,.18.57,5.69,5.69,0,0,0-.46-.48.09.09,0,0,0-.14,0l-.08.22a2.78,2.78,0,0,0-.36-.28.09.09,0,0,0-.1,0c-.2-.42-.89-.41-.89-.41l-.39,0-.13-.12a.08.08,0,0,0-.14,0l0,.08A2.38,2.38,0,0,0,10,1.76.12.12,0,0,0,9.8,1.7a2.91,2.91,0,0,0-.23.2c-.06-.18-.12-.32-.16-.42a.09.09,0,0,0-.14,0,3.63,3.63,0,0,0-.89,1.28,1,1,0,0,0,0,.6l-.14-.1A3,3,0,0,0,7.62,3L7.5,2.83a.12.12,0,0,0-.19,0v0a2.51,2.51,0,0,0-.61,0A.12.12,0,0,0,6.58,3a2.5,2.5,0,0,0,.4.79v.05A3.93,3.93,0,0,0,6,2.71a.1.1,0,0,0-.14,0A3.5,3.5,0,0,0,5.7,4.31,1,1,0,0,0,6,4.84a2.54,2.54,0,0,0-1.09.24.13.13,0,0,0,0,.19,2.53,2.53,0,0,0,.7.6,3.58,3.58,0,0,0-.6,1.44,1.07,1.07,0,0,0,.4,1,.46.46,0,0,0,.17.09,2.28,2.28,0,0,0-.1.46l-.32-.17,0,0A2.65,2.65,0,0,0,3.89,7.56a.12.12,0,0,0-.17.08,2.37,2.37,0,0,0,0,.71.1.1,0,0,0-.05.12A4.3,4.3,0,0,0,4.32,10a.88.88,0,0,0-.27-.1,1,1,0,0,0-.68-.47,3.54,3.54,0,0,0-1.55.11.08.08,0,0,0-.05.13,4.11,4.11,0,0,0,.65.71,2.56,2.56,0,0,0-.27.23.12.12,0,0,0,0,.19,2.68,2.68,0,0,0,1.26.37l0,0a4.27,4.27,0,0,0-1.26,1.31.1.1,0,0,0,.07.15,4.11,4.11,0,0,0,1.81,0,1.2,1.2,0,0,0,.64-.42,2.91,2.91,0,0,0,.75-.07A1.61,1.61,0,0,0,6,11.8l.29.27a1.56,1.56,0,0,0-.52,0,3.07,3.07,0,0,0-.53.15,1.17,1.17,0,0,0-.47.17,4,4,0,0,0-1.26,1.3.09.09,0,0,0,.06.15,4.12,4.12,0,0,0,1.81,0,1.16,1.16,0,0,0,.71-.52c.28-.06.77-.23.71-.73v0l.43.4h0a3,3,0,0,0-1.29.91,4.82,4.82,0,0,0-.85,1,.11.11,0,0,0,.07.16A4.27,4.27,0,0,0,7,15a1.18,1.18,0,0,0,.46-.24,2.78,2.78,0,0,0,.66.25A4.34,4.34,0,0,0,6.91,16.3a.11.11,0,0,0,.06.16,4.16,4.16,0,0,0,1.82,0,1,1,0,0,0,.55-.33l.09,0a.18.18,0,0,0,.06.09l.07,0A5,5,0,0,0,9,17.47a.11.11,0,0,0,.1.14,4.19,4.19,0,0,0,1.77-.41,1.17,1.17,0,0,0,.56-.66.65.65,0,0,0,.52-.67.44.44,0,0,1,0-.1l1,.39a2.08,2.08,0,0,0-.54.08,3,3,0,0,0-1.39,1.06.13.13,0,0,0,.06.2,3,3,0,0,0,1.74.12s1-.26.82-1a1.13,1.13,0,0,0-.11-.22c.34.15.69.31,1,.49a10.39,10.39,0,0,1,3.38,2.24A4.62,4.62,0,0,1,19,22.2a6.4,6.4,0,0,1-.08.87,6,6,0,0,1-.09.63c-.1.24-.48.49-.65.69s-.48.54-.69.83a7,7,0,0,0-1.38,4,11.59,11.59,0,0,0,.1,2.12l-.09.09c-.35.37-.66.77-1,1.14-.75.81-1.49,1.61-2.2,2.45-1.58,1.91-3.27,3.69-5,5.45a20.77,20.77,0,0,0-3.73,4.47,12.29,12.29,0,0,0-.57,1.15,4.52,4.52,0,0,1-.66,1.36,16.34,16.34,0,0,0-2,2.49c-.32.48-.62,1-.91,1.45a1.62,1.62,0,0,0,.44,0c.2-.08.46-.62.6-.81a17.45,17.45,0,0,1,1.33-1.65c-.1.1-.46.51,0,0v0l0,0,.21-.24c-.28.9-.52,1.81-.78,2.72a1.82,1.82,0,0,0,.57,0c.18-.08.31-.79.38-1,0,.18.08.37.11.55s0,.41.08.45.43,0,.55,0a6.77,6.77,0,0,0-.25-1.69c0-.13-.14-.21-.13-.33a2.14,2.14,0,0,1,.22-.61c.15-.39.3-.78.47-1.16a11.05,11.05,0,0,1,.45,2.29c0,.43.07.86.1,1.29,0,.25,0,.17.16.21a1.5,1.5,0,0,0,.3,0,24.43,24.43,0,0,0-.12-2.57A5.31,5.31,0,0,0,4.29,47c-.09-.16-.11-.13,0-.31a5.77,5.77,0,0,1,.29-.55,13.15,13.15,0,0,1,.74-1.19,11.07,11.07,0,0,1,1.08-1.28c0,.61,0,1.23,0,1.85a9,9,0,0,0,.17,1,2.1,2.1,0,0,1,.12.54,1.59,1.59,0,0,1-.22.43A31.88,31.88,0,0,0,4.9,51.39a1.75,1.75,0,0,0,.56,0c.09,0,.16-.33.21-.43s.19-.46.29-.69a5.37,5.37,0,0,0,.08,1c.07.2,0,.09.15.13H6.4c0-.56,0-1.13-.05-1.69A3.37,3.37,0,0,1,7,48.14l.27.83a3.38,3.38,0,0,1,.3.84c0,.22-.26.54-.37.75s-.32.55-.47.83a1.61,1.61,0,0,0,.49,0c.2-.08.47-.69.59-.88.06.18.17.79.31.88s.33,0,.43,0c-.06-.24-.12-.47-.19-.7a2.77,2.77,0,0,1-.2-.72c0-.22.37-.61.48-.82a7.92,7.92,0,0,1,1.65-1.95c-.35,1.39-.58,2.78-.79,4.19.22,0,.25,0,.31-.18s.12-.61.18-.91c.12-.62.27-1.23.44-1.84.1-.33.19-.65.29-1a2.36,2.36,0,0,1,.38-.92,6.1,6.1,0,0,1,1.52-.9c-.71,1.9-1.42,3.79-2.06,5.72h.66a.88.88,0,0,0,.28,0c.11-.06.21-.48.26-.6.44-1.09.9-2.16,1.37-3.23.14.6.28,1.2.39,1.8a2.63,2.63,0,0,1,.11,1,8.06,8.06,0,0,1-.37,1h1a2.83,2.83,0,0,1,0-.87,5.94,5.94,0,0,1,.5-1.05c.28-.58.59-1.15.92-1.7a8.51,8.51,0,0,1,.29,1.13c0,.23-.08.29-.19.49a11.06,11.06,0,0,0-.78,2h.31c.23,0,.18-.06.29-.32a11.55,11.55,0,0,1,.57-1.24c.08.41.14.84.19,1.27,0,.27,0,.25.21.29h.32a23.9,23.9,0,0,0-1-5.5c-.14-.46-.29-.91-.45-1.36A6.51,6.51,0,0,1,15,43.45a1.66,1.66,0,0,1,.25-.78l.34-.84c.24-.59.47-1.18.7-1.78a23.84,23.84,0,0,1,1.82,5.48,5.46,5.46,0,0,1,.27,1.58,11.27,11.27,0,0,1-.41,1.33c-.26,1-.46,2-.64,3a1.36,1.36,0,0,0,.45,0c.16-.08.23-.73.29-.93.16-.63.34-1.25.54-1.87.08.69.15,1.37.2,2.06,0,.15,0,.68.09.74a1.34,1.34,0,0,0,.4,0c0-.42,0-.85,0-1.27.11.19.21.38.31.57a3.33,3.33,0,0,0,.27.61c.1.11,0,.07.2.09h.3a8.87,8.87,0,0,0-.82-1.9c-.07-.11-.24-.21-.29-.3s0-.55-.05-.72a5.79,5.79,0,0,1-.08-1.24A6.49,6.49,0,0,1,19.62,46c.18-.38.38-.77.58-1.14.34-.62.8-1.21,1.07-1.85l.53,1a3.83,3.83,0,0,1,.46.9,1.88,1.88,0,0,1-.09.57c0,.19-.06.38-.08.57s-.09.66-.13,1c-.17,1.44-.3,2.89-.41,4.34a1.85,1.85,0,0,0,.47,0c.16-.07.14-.53.17-.73.06.17.12.35.17.52s0,.17.16.21a2,2,0,0,0,.49,0,11.55,11.55,0,0,0-.35-1.28c-.09-.27-.31-.54-.27-.81.15-1,.31-2,.51-3.06.34.75.65,1.52.92,2.29a2.34,2.34,0,0,1-.18,1.24c-.12.54-.22,1.08-.31,1.62a2.66,2.66,0,0,0,.69,0h.1c.05,0,.06-.28.08-.34.06-.25.12-.49.19-.74.08.27.15.55.22.82s0,.23.23.26a6,6,0,0,0,.85,0,34.15,34.15,0,0,0-1.38-5.09l-.3-.79c-.17-.44-.43-.88-.56-1.33s.21-1.06.33-1.47.3-.86.46-1.29a8.5,8.5,0,0,1,2.09,1.92,10.79,10.79,0,0,1,.91,1.33,1.31,1.31,0,0,1,.21.36,1.72,1.72,0,0,1,0,.39c0,.25-.06.5-.08.75,0,.49-.08,1-.1,1.47a3.29,3.29,0,0,1,0,.7c0,.17,0,.1-.16.23a.75.75,0,0,0-.14.17,8.5,8.5,0,0,0-1,2.65c.07,0,.25,0,.31,0s.26-.78.31-.92a4.93,4.93,0,0,1,.63-1.38c0,.4,0,.79,0,1.18v.57a2,2,0,0,0,0,.55,1.27,1.27,0,0,0,.39,0c.05,0,0-.47,0-.54s0-.37,0-.56A39.31,39.31,0,0,1,28,46.1c.19.39.38.79.55,1.19.08.2.17.4.23.6a1.16,1.16,0,0,1-.06.58c-.22,1-.43,1.94-.61,2.92a1.27,1.27,0,0,0,.39,0c.14-.06.15-.39.2-.54.14-.57.3-1.14.45-1.7.18.66.32,1.34.46,2,.05.25,0,.21.23.23h.38A22.75,22.75,0,0,0,29,46.25c-.18-.42-.36-.85-.56-1.27a.94.94,0,0,1-.16-.57,6.21,6.21,0,0,1,.14-.62,7.71,7.71,0,0,1,.76-2,10.3,10.3,0,0,1,2.16,2.54c.12.19.41.53.41.74a2,2,0,0,1-.16.45,11.69,11.69,0,0,0-.31,1.3A20.26,20.26,0,0,0,31,50.26c0,.28,0,.57,0,.86s0,.35.28.27c0,0,.1,0,.12,0a1.85,1.85,0,0,0,0-.41c0-.34,0-.68.05-1q.3.61.57,1.23c.12.27.25.2.53.2-.18-.51-.39-1-.6-1.53a3.75,3.75,0,0,1-.4-1,6.33,6.33,0,0,1,.27-1.66A10.31,10.31,0,0,1,32.21,46a16.53,16.53,0,0,1,.93,3.41c.09.55.16,1.11.21,1.67,0,.07,0,.29,0,.33h.1a1.53,1.53,0,0,0,.37,0,22,22,0,0,0-.17-2.3c.18.21.36.42.52.64a1.91,1.91,0,0,1,.29.41.78.78,0,0,1,0,.4c0,.14-.11.77,0,.85s.27,0,.33,0a4.36,4.36,0,0,1,.05-.72c.11.18.27.65.46.72a1.61,1.61,0,0,0,.49,0c-.19-.46-.46-.88-.67-1.33-.07-.16-.09-.17,0-.34a1.88,1.88,0,0,1,.12-.3,5.77,5.77,0,0,1,.27-.56,9,9,0,0,1,.92,1.63,4.33,4.33,0,0,0,.26.84c.08.09.19.06.33.06a10.92,10.92,0,0,0-1.39-3.26,17.12,17.12,0,0,0-1.91-3c-.33-.38-.69-.74-1.06-1.09l-.58-.53a3.18,3.18,0,0,1-.51-.65,12.19,12.19,0,0,0-1.65-1.93c-3-2.9-6.49-5.21-9.51-8.06-.33-.31-.64-.65-1-.95a3,3,0,0,0-.37-.26c-.12-.42-.22-.85-.3-1.28s0-.68,0-1a2.78,2.78,0,0,0-.1-.6c0-.07,0-.14,0-.21a6.07,6.07,0,0,1,1.73-3.44,16,16,0,0,0,2.48-3.42,3.83,3.83,0,0,1,1-1c.48-.43,1-.83,1.48-1.24a8.73,8.73,0,0,1,3.19-1.93,5.68,5.68,0,0,1,1.42-.22c.66,0,1.32.08,2,.14a7.57,7.57,0,0,0,2.28-.09.56.56,0,0,0,.3.08.61.61,0,0,0,.61-.37,6.27,6.27,0,0,0,1.09-.57v.15a.65.65,0,0,0,.06.21,1.54,1.54,0,0,0-.36.2l-.06,0c-.21,0-1,0-1,.67s1,.77,1,.77a2.91,2.91,0,0,0,.91-.16h.06A4.22,4.22,0,0,0,38.53,18a.1.1,0,0,0,0-.16,4.72,4.72,0,0,0-1-.79,3,3,0,0,0,.7-.35,1.08,1.08,0,0,0,.46.12,4.07,4.07,0,0,0,1.77-.37.1.1,0,0,0,0-.16,4.55,4.55,0,0,0-.64-.56l.12-.08a.13.13,0,0,0,0-.21,2.49,2.49,0,0,0-.69-.44,1.19,1.19,0,0,0,1-.32l.09-.08a2.41,2.41,0,0,0,.76-.52.12.12,0,0,0,0-.19ZM7.22,46.14a9.31,9.31,0,0,1,0-1.83c0,.06,0,.1,0,0s0-.06,0,0c0-.4.07-.79.08-1.19s0-.35.2-.56L8,42l2.33-2.09a9.58,9.58,0,0,1,.44,1.5,1.27,1.27,0,0,1,.07.38c0,.1-.33.29-.41.37-.25.22-.48.45-.71.68A18.76,18.76,0,0,0,7.22,46.14ZM10.83,45a3,3,0,0,1-.2,1,4.38,4.38,0,0,1-.69.59,9.75,9.75,0,0,0-2,2.72c-.1-.33-.19-.67-.28-1a2.66,2.66,0,0,1-.21-.84,2.68,2.68,0,0,1,.5-.77l.53-.73A18.19,18.19,0,0,1,11,43.2,9.26,9.26,0,0,1,10.83,45Zm2.36-.85c.16-.47-.2.37-.12.34a7,7,0,0,0-1.7.93,10.89,10.89,0,0,0,.29-1.49c0-.28.06-.57.07-.86a1.29,1.29,0,0,1,0-.34c0-.13.15-.18.26-.26a13.18,13.18,0,0,1,2.25-1.28C13.91,42.13,13.55,43.12,13.19,44.1Zm2,2.22a1.47,1.47,0,0,1,.15.43,3.5,3.5,0,0,1-.35.62c-.33.64-.64,1.29-.92,2a18.36,18.36,0,0,0-.37-2.22,2.64,2.64,0,0,0-.1-.3c-.05-.14-.05-.09,0-.25a4.74,4.74,0,0,1,.29-.66l.6-1.37c.17.39.33.78.49,1.18l0,.1C15,46,15.09,46.15,15.16,46.32ZM14.92,39c0,.14-.08.43-.19.5s-.3.08-.41.12a6.81,6.81,0,0,0-.73.33,12.65,12.65,0,0,0-2,1.24,8.06,8.06,0,0,0-.21-1.09l-.12-.39c0-.08-.07-.16-.12-.24s-.18-.13,0-.28h0c1.72-1.63,3.27-3.42,5-5.06A42.93,42.93,0,0,1,14.92,39ZM33.81,46.3c-.07-.1-.13-.17.06.07l0,0c.39.51.72,1.07,1.06,1.61,0,.08.24.3.24.39s-.11.17-.14.23a7.07,7.07,0,0,0-.33.8c-.21-.32-.43-.63-.67-.93a3.27,3.27,0,0,1-.58-.73c-.14-.4-.18-.85-.29-1.26a13.77,13.77,0,0,0-.46-1.37A9.75,9.75,0,0,1,33.81,46.3Zm-10.69-5c-.14.44-.26.88-.38,1.33-.38-.82-.76-1.65-1.12-2.48.36.15.73.3,1.08.46l.39.18s.16.06.17.09A3,3,0,0,1,23.12,41.3Zm1.68-1.13a1.2,1.2,0,0,1,.16-.32v0c.17-.32.37-.62.51-.95Q26.23,39.4,27,40c.27.19.53.39.79.59a3.36,3.36,0,0,1,.66.52c.07.11.05.11,0,.25s-.21.46-.3.7a10.78,10.78,0,0,0-.4,1.48,11.75,11.75,0,0,0-1.44-1.94,8.71,8.71,0,0,0-.83-.78l-.52-.39C24.73,40.28,24.77,40.32,24.8,40.17Zm-3.2-4.1c1,.71,1.94,1.41,2.91,2.11a5.55,5.55,0,0,0-.79,1.48c-.47-.27-1-.5-1.45-.73-.23-.12-.47-.22-.71-.33s-.6-.18-.74-.34a3.9,3.9,0,0,1-.37-1c-.12-.3-.23-.6-.33-.91-.23-.65-.44-1.3-.62-2C20.18,35,20.89,35.53,21.6,36.07Zm-.73,6.22A10.12,10.12,0,0,0,20,43.57a14.3,14.3,0,0,0-1.1,2.13A29.29,29.29,0,0,0,18,41.77c-.18-.58-.37-1.14-.59-1.7-.12-.33-.34-1.14-.75-1.18.4-1.14.77-2.29,1.07-3.46C18,36,19.73,40.05,20.87,42.29Zm7.4-32.64v0Zm-.21-3.58.05,0h0l0,0Zm-.64-2.13h.12a2.15,2.15,0,0,0,0,.36,2.35,2.35,0,0,0-.3.27l-.13-.19A2.61,2.61,0,0,0,27.42,3.94ZM26.92,7a6.25,6.25,0,0,1,.45-.44l.21-.16a.83.83,0,0,1,0,.15,3.57,3.57,0,0,0-.28.35s-.5.74-.09,1.17h0L27.05,8A.11.11,0,0,0,27,8a.7.7,0,0,0-.12-.35A3.19,3.19,0,0,0,26.92,7Zm-.28,3.38a.51.51,0,0,0,.18-.09,1.44,1.44,0,0,0,.53.47v.05a3.06,3.06,0,0,0-.74-.38ZM26.5,6.28l0,0-.06,0S26.49,6.3,26.5,6.28Zm-.66-1.09h.05c0,.06,0,.13,0,.19l-.13-.08Zm0,1.59H26L25.87,7l-.12,0A.57.57,0,0,0,25.83,6.78Zm-.3,2.6a2.81,2.81,0,0,0,.37-.8.46.46,0,0,0,.23,0,1,1,0,0,0,.34,0,3.45,3.45,0,0,0-.38.44,1.32,1.32,0,0,0-.09.17,2.64,2.64,0,0,0-.47.17ZM24,4.69h0l-.05,0Zm-.13-.13,0,.05-.07.09,0,0v0Zm-1,1a.69.69,0,0,0,.18.16L23,5.86l-.12-.11Zm-.25,3.61a1.5,1.5,0,0,0-.13.38,3,3,0,0,0-.43-.11.15.15,0,0,0-.13.07l-.12-.07a1.5,1.5,0,0,1,0-.36,2.48,2.48,0,0,1,.22-.7.49.49,0,0,0,.24.23h0A.51.51,0,0,0,22.61,9.18ZM22.2,4.49a3.1,3.1,0,0,0,.15-.58.91.91,0,0,0,.07.14s0,.09.07.13v.21a.13.13,0,0,0-.12,0l-.2.16ZM22,7l0,0a1.08,1.08,0,0,0,.08.13l-.06.11L22,7.37l-.3.55a1.37,1.37,0,0,0-.22-.2c-.08-.29-.17-.59-.27-.87h0a.5.5,0,0,0,.53.2Zm-.78-1.69a1.26,1.26,0,0,0,.38-.14,3.17,3.17,0,0,0-.34.39,1.15,1.15,0,0,0-.24.67A1.33,1.33,0,0,0,20.9,6c-.13-.31-.26-.62-.41-.93a1.41,1.41,0,0,0-.09-.32.66.66,0,0,0,.15-.21l0,0a1.82,1.82,0,0,0,.09.43A.52.52,0,0,0,21.26,5.26Zm-.85,3.93a2.44,2.44,0,0,0-.14-.55l.27.18a1.69,1.69,0,0,0,.53.26.76.76,0,0,1,0,.15A3.23,3.23,0,0,0,20.41,9.19Zm.06,1a3.58,3.58,0,0,0-.27.52l-.22-.2a.72.72,0,0,0,.38-.44Zm-.16-4.55h0v0ZM19.72,3a.24.24,0,0,1,0,.08.52.52,0,0,0,.6.32,1.09,1.09,0,0,0,.4-.15,1.21,1.21,0,0,0-.09.72.56.56,0,0,0,0,.12c-.11-.43-.69-.69-.69-.69l-.26-.09-.11-.24A.41.41,0,0,0,19.72,3ZM19.2,9.29c0,.08,0,.17-.05.26a2.14,2.14,0,0,0,0,.28l0,0-.23-.18c-.18-.14-.1-.2-.1-.41V9.09a.62.62,0,0,0,.31.18Zm-.31-2a1.13,1.13,0,0,1,.1.13,3.08,3.08,0,0,0-.32.68h0l-.09-.46A.65.65,0,0,0,18.89,7.25Zm-.5,4.13a.33.33,0,0,0,.11-.15.6.6,0,0,0,.62-.28c.21.21.41.43.61.65a1.93,1.93,0,0,0-.44-.17,3.62,3.62,0,0,0-.91,0ZM17.7,8a.57.57,0,0,0-.1-.64l.16-.15a.58.58,0,0,0,.4.43,9.12,9.12,0,0,1,.09,1,1.73,1.73,0,0,0-.4-.15l-.18,0-.21-.23A.58.58,0,0,0,17.7,8ZM17,9.7l.12.06-.14,0a.11.11,0,0,0-.08.17,1.24,1.24,0,0,0,.12.22l-.16,0a2.85,2.85,0,0,0-.12-.29,1.75,1.75,0,0,0,.2-.16ZM15.1,3V3Zm.1,2.87a.61.61,0,0,0,.44,0,2.29,2.29,0,0,0,.12.37,2.94,2.94,0,0,0-1.14-.37h0A1.39,1.39,0,0,0,15.2,5.91Zm-.38,1.88.24.07a1.2,1.2,0,0,0,.69,0,.69.69,0,0,0,.25,0,2.52,2.52,0,0,0,.56.4l.14.07.17.25a3.8,3.8,0,0,0-.47.1,1.26,1.26,0,0,0-.49-.07,3,3,0,0,0-.74.13,1.73,1.73,0,0,0-.26-.3.12.12,0,0,0-.17,0,1.89,1.89,0,0,0-.1-.31A.08.08,0,0,0,14.57,8,.52.52,0,0,0,14.82,7.79Zm.8,3.07c0,.07,0,.15,0,.23v0A3.36,3.36,0,0,0,15,11l0-.2a.28.28,0,0,0,.13,0c.42,0,.52-.42.54-.71l.1,0,.1,0a2.62,2.62,0,0,0-.2.56h0A.11.11,0,0,0,15.62,10.86ZM14.43,8h0l-.18.16c0-.05,0-.1,0-.14Zm0,2.65h0Zm-.48-6.73L14,4l-.2,0Zm-.3,3.47a1.41,1.41,0,0,0,.14.31c0,.07.05.13.07.2l-.18-.07-.14-.26A.78.78,0,0,0,13.64,7.4Zm.1,4.32-.08.08a.65.65,0,0,0,0-.13l.09,0Zm-.36-5.14,0,.06,0,0ZM13.13,4h0l0,0Zm-.8,2.59-.19.06L12,6.47a.47.47,0,0,0,.14-.26A1.7,1.7,0,0,0,12.33,6.57Zm-.78-2.63v.17l-.19.09a1.24,1.24,0,0,0,0-.16A.67.67,0,0,0,11.55,3.94Zm-.82,7.3h0l-.1.14a1.47,1.47,0,0,0-.2.46c-.22-.3-.42-.62-.61-.94h0v0A3,3,0,0,0,10.73,11.24Zm-.51-1.72h0l-.12.24v0l-.07,0C10.12,9.72,10.17,9.62,10.22,9.52Zm-1-5.43a.58.58,0,0,0,.65-.26l.05,0c0,.05,0,.1,0,.15a3.4,3.4,0,0,0-.38.54,2.39,2.39,0,0,0-.1.24A2.7,2.7,0,0,0,9.11,4,.34.34,0,0,0,9.26,4.09Zm-1,.47a.6.6,0,0,0,.31-.15,3,3,0,0,0-.18.36l-.15,0A1.11,1.11,0,0,0,8.25,4.56ZM8,9.4a.13.13,0,0,0-.13.15h0a4.51,4.51,0,0,0-.58-.8,3.06,3.06,0,0,0,1.18.51l.06.23A2.9,2.9,0,0,0,8,9.4Zm.33,1.18-.12-.11a.28.28,0,0,0,0-.09ZM7.93,8a.85.85,0,0,0,0-.17.32.32,0,0,0,.14,0l0,.14Zm.15-1.84.19.08v0l.07.21v0a1.14,1.14,0,0,0-.55-.27L7.3,5.67,7.24,5.6a.41.41,0,0,0,0-.12A3.33,3.33,0,0,0,8.08,6.17Zm-1-.24a3.15,3.15,0,0,1,.22.29l-.22,0L7,6.09A.55.55,0,0,0,7.13,5.93ZM6.9,5l0,.09L6.86,5ZM6.14,6.14l.11,0c0,.1,0,.22,0,.34l-.16.08A4.94,4.94,0,0,0,5.75,6,2.45,2.45,0,0,0,6.14,6.14ZM4.41,11,4.2,11a.78.78,0,0,0,.33-.29l.23.14A3.69,3.69,0,0,0,4.41,11Zm.67-.32-.49-.24v-.11a1,1,0,0,0,0-.18,1.23,1.23,0,0,0,1,.28l.1,0a.72.72,0,0,0,.24.22.28.28,0,0,0,0,.09A1.29,1.29,0,0,0,5.08,10.72ZM6.76,9.38A2.81,2.81,0,0,0,6,8.27v0a1.07,1.07,0,0,0,.35-.82l.06.23a1.21,1.21,0,0,0,.74.77.14.14,0,0,0,0,.21l.05,0A.1.1,0,0,0,7,8.71,5.69,5.69,0,0,0,6.76,9.38ZM8.32,14l0,0,0,0Zm.06-.78a.58.58,0,0,0-.33-.25,5.46,5.46,0,0,1-.45-.39A5.94,5.94,0,0,1,7.11,12h0a.54.54,0,0,0,.3-.39l.16,0a2.82,2.82,0,0,0,.08.54s.18.72.66.83a1.52,1.52,0,0,0,.33.41Zm.35-9.26L8.9,4l0,0-.15.19A.43.43,0,0,0,8.73,3.91Zm0,4h0v0a.52.52,0,0,0,.42,0,1.31,1.31,0,0,0,.3-.2.76.76,0,0,0,.61.73l-.32.05C9.59,7.88,8.77,7.88,8.77,7.88Zm1,1.4-.4.61,0,0c-.09-.19-.16-.38-.23-.57a1,1,0,0,0,.46-.17Zm-.25,5.8A.3.3,0,0,0,9.39,15h0a.79.79,0,0,0,.27-.21l.2.1Zm-.59-1.55a.5.5,0,0,0,.34,0,.63.63,0,0,0,.81.25.56.56,0,0,0,.32-.5l.15.21a2.4,2.4,0,0,0,.07.43,1.55,1.55,0,0,0,.26.54A12.46,12.46,0,0,1,8.93,13.53Zm1.74-8a2.47,2.47,0,0,0,.18-.31h0a2,2,0,0,1,0,.26ZM11,5.13h0a2.9,2.9,0,0,0,.84.19.91.91,0,0,0,.17.17,2.18,2.18,0,0,0,0,.25,1.17,1.17,0,0,0-.83-.31h-.16C11.05,5.34,11,5.24,11,5.13Zm.17,1.59a1.59,1.59,0,0,0,.33,0l0,0-.27,0a.18.18,0,0,1-.05-.07Zm0,1.79a.43.43,0,0,0,.16-.14l.05-.08a.92.92,0,0,0,.16.27l-.1.1,0,0A.72.72,0,0,0,11.21,8.51Zm.24,1.22c0-.1,0-.19,0-.27h0l.21.24Zm.14-.54a.61.61,0,0,0,0-.27,2.32,2.32,0,0,0,.53.21.53.53,0,0,0,.42.09c0,.3.1.91.67.94h.09a1.17,1.17,0,0,0,.06.2,2.13,2.13,0,0,0-.37,0l-.12-.1c-.07-.36-.43-.5-.71-.56A7.27,7.27,0,0,1,11.59,9.19ZM12.45,11h0Zm.27,3.2-.08,0-.3-.26a.56.56,0,0,0,.49-.16A2.69,2.69,0,0,0,12.72,14.24Zm1.06-.17a1.11,1.11,0,0,0-.08.15,3,3,0,0,0-.62-.6.13.13,0,0,0-.12,0c.19-.42-.27-.85-.38-.95a1.15,1.15,0,0,0,.65-.17h0c-.06.15-.3.88.28,1.1s.76-.26.88-.51l.35.07h0A3.2,3.2,0,0,0,13.78,14.07Zm.66,1.32A1.61,1.61,0,0,0,15,14.8a3.89,3.89,0,0,0,.16-.38A14.78,14.78,0,0,0,15.83,16C15.36,15.81,14.89,15.62,14.44,15.39Zm1.3-2.48a.66.66,0,0,0,.12-.17l.1,0c0,.06,0,.12,0,.17Zm6.49,4.36a8.78,8.78,0,0,1-1.34,4.15A6.49,6.49,0,0,0,19.07,18a7.89,7.89,0,0,0-.76-.65,6.75,6.75,0,0,1-.88-.59,6.67,6.67,0,0,1-.91-1.5l-.36-.7c.29.13.81.29,1.08-.18a.76.76,0,0,0-.3-1,1.16,1.16,0,0,0,.64-.57l.06-.13.13.08a1.77,1.77,0,0,0-.16.22s-.59.89.07,1.28,1.16-.55,1.16-.55a4.16,4.16,0,0,0,.16-.4,1.26,1.26,0,0,0,1.1-.36.52.52,0,0,0,.06-.67.59.59,0,0,0,0-.19A10.91,10.91,0,0,1,21,13.25,6.52,6.52,0,0,1,22.23,17.27Zm.39-3.59c-.14-.24-.29-.48-.44-.7s-.36-.4-.38-.61.06-.65.07-1,0-.35,0-.52a.71.71,0,0,0,.36-.15,2.92,2.92,0,0,0,.31.47,1.61,1.61,0,0,0,.54.41A12.06,12.06,0,0,0,22.62,13.68Zm.92-7.54a.13.13,0,0,0-.19-.09l-.17.08,0-.06.13-.23h.18a.49.49,0,0,0,.39.41,1.26,1.26,0,0,0,.92-.09l.15,0a1.13,1.13,0,0,0,.1.13,3,3,0,0,0-.8.28,1.59,1.59,0,0,0-.58.54h-.06A2.71,2.71,0,0,0,23.54,6.14Zm.82,2.66L24.28,9l-.14,0c0-.09,0-.19,0-.27A1.16,1.16,0,0,0,24.36,8.8Zm-.68,1.34-.06.12h0Zm4.69,4a3.9,3.9,0,0,1-1.59,2.58c-.43.33-1,.54-1.43.85s-1.18.79-1.76,1.2c.28-2.43-.06-4.94.6-7.33l0,.07c.52.56,1.27-.19,1.27-.19l.26-.31h0a4,4,0,0,0,.2.5,3.91,3.91,0,0,0-1.42.36,1.23,1.23,0,0,0-.66,1,.52.52,0,0,0,.39.56,1.25,1.25,0,0,0,1.19-.28,3.94,3.94,0,0,0,.8-1.17h0a1.26,1.26,0,0,0,1.12.48s.35.93,1,.73C28.43,13.55,28.41,13.86,28.37,14.17Zm.1-2.67a2.82,2.82,0,0,0-.68-.67.58.58,0,0,0,.26-.21,1.68,1.68,0,0,0,.15-.3,2.77,2.77,0,0,0,0,.39,1.59,1.59,0,0,0,.26.58C28.48,11.36,28.48,11.43,28.47,11.5Zm9-1.9,0,0v0ZM37,9.36a.51.51,0,0,0,.13.12l-.25,0Zm-2.18-.53v0a.6.6,0,0,0,.46.11,1.43,1.43,0,0,0-.12.46.48.48,0,0,0,0,.27.28.28,0,0,0,0,.09.8.8,0,0,0,0-.15,2.83,2.83,0,0,0-.34-.74Zm-.07,1.82a.64.64,0,0,0,.46-.72.72.72,0,0,0,.12.27l-.85,1.07a1,1,0,0,0-.06-.17l0-.09c0-.12.07-.24.1-.36A.53.53,0,0,0,34.76,10.65Zm-.33-2.39a1.57,1.57,0,0,0,.12.21l-.18-.16h0ZM34,6.89a.75.75,0,0,0,.21,0s0,.1,0,.15l-.31,0Zm-.84,2.29a2.11,2.11,0,0,0,.27.18.49.49,0,0,0,.41,0,2.74,2.74,0,0,0,0,.48,1.47,1.47,0,0,0,.25.57l-.06.16a3.08,3.08,0,0,0-.42-.45,1.7,1.7,0,0,0,.17-.39.12.12,0,0,0-.1-.16,2,2,0,0,0-.48,0l-.21-.32Zm-.42,4.13-.09.13a2.23,2.23,0,0,0-.21-.22,1.1,1.1,0,0,0-.09-.38v0l.19-.12c0,.05,0,.09,0,.14A1.55,1.55,0,0,0,32.77,13.31ZM31.56,9.72h0a.74.74,0,0,0,.36,0,2.68,2.68,0,0,0,0,.4,1,1,0,0,0-.15.2l-.06,0h-.14A1.27,1.27,0,0,0,31.56,9.72Zm.11,1.1a.71.71,0,0,0,.08.18.6.6,0,0,0,.68.24l.21.13h0a3.2,3.2,0,0,0-1,.17l-.15.07a2.1,2.1,0,0,0-.24-.22h0A2.91,2.91,0,0,0,31.67,10.82ZM32.13,5h0a2.69,2.69,0,0,0,0,.56v0a1.26,1.26,0,0,0-.24.22h0a2.41,2.41,0,0,0-.4-.3A1,1,0,0,0,32.13,5Zm-.89,3.44c.09-.23.19-.46.3-.68a.68.68,0,0,0,.82.3l0,0a.62.62,0,0,0,.33,0v.16a3.07,3.07,0,0,0-.78.14,1.61,1.61,0,0,0-.26.12l-.47.07h0ZM31,11.71l.12-.11a5.1,5.1,0,0,0-.15.55h0A.9.9,0,0,0,31,11.71Zm-.16-7.16h0Zm-.46.08h.19l-.23.09A.36.36,0,0,1,30.33,4.63Zm-.13.26.56-.27s0,.07,0,.11a3.32,3.32,0,0,0-.54.17Zm.47,2.05-.22.1-.13-.12c.08-.18.17-.35.26-.52,0,.09,0,.18,0,.28A1.69,1.69,0,0,0,30.67,6.94ZM29.39,6a.43.43,0,0,0,.07.16.66.66,0,0,0,.79.28c-.06.1-.13.2-.18.3l-.15-.09a.13.13,0,0,0-.2.08l0,.11h0A3.06,3.06,0,0,0,29.31,6Zm.48,2.71h-.05l-.19.09.12-.37v0A1.28,1.28,0,0,0,29.87,8.7Zm-.77-.77a.67.67,0,0,0,.43-.15c-.16.37-.31.74-.44,1.12A1.58,1.58,0,0,0,29,8.4,1.23,1.23,0,0,0,29.1,7.93Zm.28,3.41a2.28,2.28,0,0,0,.11.41.55.55,0,0,0,0,.1,4.39,4.39,0,0,1-.34.5,8.42,8.42,0,0,1,0-.87A.64.64,0,0,0,29.38,11.34Zm0-1.25h0v0Zm-.61,6a4.91,4.91,0,0,0,.52-2.41,1.37,1.37,0,0,0,.91-.1,3.35,3.35,0,0,0,.65-.44v0a1.26,1.26,0,0,0,.71,1l.12,0a2.76,2.76,0,0,0,.08.27,5.73,5.73,0,0,1-1,.78A7.88,7.88,0,0,1,28.76,16.13Zm2.14.22a7.1,7.1,0,0,0,1.34-1.09.62.62,0,0,0,.61.06l.11-.06a1.33,1.33,0,0,0,.23.94.51.51,0,0,0,.61.19,1.52,1.52,0,0,0,0,.28A12.87,12.87,0,0,1,30.9,16.35Zm3.6-2.07,0-.16a1,1,0,0,0,.42-.07,1.06,1.06,0,0,0,.06.19A2.42,2.42,0,0,0,34.5,14.28Zm.73,2a3.09,3.09,0,0,0-.18-.84l.23-.2a.91.91,0,0,0,.21.83A2.39,2.39,0,0,1,35.23,16.23Zm.44-4.88a2.93,2.93,0,0,0-.37.1s-1,.37-.7,1.08a.62.62,0,0,0,.1.16l-.2.1s-.7.41-.53.92a4.34,4.34,0,0,0-.73.89,2.85,2.85,0,0,0-.09-.41c.16-.21.32-.44.47-.66a.55.55,0,0,0,.23-.35c.47-.72.92-1.46,1.38-2.17l.11-.16,0,.05a.61.61,0,0,0,.3.24Zm.16-3a1.47,1.47,0,0,0,0-.53,1,1,0,0,0,.14-.57.13.13,0,0,1,0-.06H36a.53.53,0,0,0,.39-.29,1.1,1.1,0,0,0,.33.76c0,.1,0,.21-.07.3l0,0a.19.19,0,0,1,0-.07.14.14,0,0,0-.2-.07A2.66,2.66,0,0,0,35.83,8.34Zm.65,7.29a.7.7,0,0,0,.06-.17,4,4,0,0,0,.21-.47.52.52,0,0,0,.29.08h.07A4.27,4.27,0,0,1,36.48,15.63Zm.57.24H37a4.89,4.89,0,0,0,.39-.4.59.59,0,0,0,.17.4A2.3,2.3,0,0,0,37.05,15.87Zm.24-3.47c0-.09,0-.18.05-.26a.6.6,0,0,0,.39,0,.57.57,0,0,0,.41-.33l.21-.07h0a3.07,3.07,0,0,0-.48.91,1.91,1.91,0,0,0,0,.52l-.13.1A2.65,2.65,0,0,0,37.29,12.4Zm1.15,2.35a1.54,1.54,0,0,0-.63.07l.13-.24.06-.13a1.45,1.45,0,0,0,.76-.11v.07a.54.54,0,0,0,.17.43A3.41,3.41,0,0,0,38.44,14.75Z"/></g></g></svg>