<svg id="homes20" data-name="Layer 1" xmlns="http://www.w3.org/2000/svg" viewBox="0 0 288.06 11.76">
    <polygon points="0 3.95 0 11.76 10.44 11.76 10.44 3.95 5.17 0 0 3.95" />
    <polygon points="14.42 3.95 14.42 11.76 24.85 11.76 24.85 3.95 19.58 0 14.42 3.95" />
    <polygon points="28.84 3.95 28.84 11.76 39.27 11.76 39.27 3.95 34 0 28.84 3.95" />
    <polygon points="43.25 3.95 43.25 11.76 53.69 11.76 53.69 3.95 48.42 0 43.25 3.95" />
    <polygon points="57.67 3.95 57.67 11.76 68.11 11.76 68.11 3.95 62.84 0 57.67 3.95" />
    <polygon points="72.09 3.95 72.09 11.76 82.53 11.76 82.53 3.95 77.25 0 72.09 3.95" />
    <polygon points="86.51 3.95 86.51 11.76 96.94 11.76 96.94 3.95 91.67 0 86.51 3.95" />
    <polygon points="100.92 3.95 100.92 11.76 111.36 11.76 111.36 3.95 106.09 0 100.92 3.95" />
    <polygon points="115.34 3.95 115.34 11.76 125.78 11.76 125.78 3.95 120.51 0 115.34 3.95" />
    <polygon points="129.76 3.95 129.76 11.76 140.2 11.76 140.2 3.95 134.93 0 129.76 3.95" />
    <polygon points="147.86 3.95 147.86 11.76 158.3 11.76 158.3 3.95 153.03 0 147.86 3.95" />
    <polygon points="162.28 3.95 162.28 11.76 172.72 11.76 172.72 3.95 167.44 0 162.28 3.95" />
    <polygon points="176.7 3.95 176.7 11.76 187.13 11.76 187.13 3.95 181.86 0 176.7 3.95" />
    <polygon points="191.12 3.95 191.12 11.76 201.55 11.76 201.55 3.95 196.28 0 191.12 3.95" />
    <polygon points="205.53 3.95 205.53 11.76 215.97 11.76 215.97 3.95 210.7 0 205.53 3.95" />
    <polygon points="219.95 3.95 219.95 11.76 230.39 11.76 230.39 3.95 225.12 0 219.95 3.95" />
    <polygon points="234.37 3.95 234.37 11.76 244.8 11.76 244.8 3.95 239.53 0 234.37 3.95" />
    <polygon points="248.79 3.95 248.79 11.76 259.22 11.76 259.22 3.95 253.95 0 248.79 3.95" />
    <polygon points="263.2 3.95 263.2 11.76 273.64 11.76 273.64 3.95 268.37 0 263.2 3.95" />
    <polygon points="277.62 3.95 277.62 11.76 288.06 11.76 288.06 3.95 282.79 0 277.62 3.95" />
</svg>