<svg xmlns="http://www.w3.org/2000/svg" viewBox="0 0 87.95 109.51"><defs><style>.mang_cls-1{fill:#999;}</style></defs><g id="Layer_2" data-name="Layer 2"><g id="Layer_5" data-name="Layer 5"><path class="mang_cls-1" d="M34.79,84.87l0,0Zm7.15-8.06ZM64.54,92c0,.52.82.7,0,0ZM15.75,98.84l.18-.23-.11.14Zm56.9-4.5v0ZM38.7,88l0,.13C38.7,88,38.66,87.83,38.7,88Zm.09.27,0-.14ZM63.88,4.73a5.71,5.71,0,0,0-.11-3.35.27.27,0,0,0-.4-.13,5.72,5.72,0,0,0-2.11,2.61s-.74,1.92.66,2.39S63.88,4.73,63.88,4.73ZM.29,29.58a.26.26,0,0,0,0,.4,5.37,5.37,0,0,0,1.63,1.13l.17.16A2.58,2.58,0,0,0,4.13,32a5.49,5.49,0,0,0-1.46.93.29.29,0,0,0,0,.45L3,33.5a12.24,12.24,0,0,0-1.36,1.19.23.23,0,0,0,.07.36,9.13,9.13,0,0,0,3.78.78,2.67,2.67,0,0,0,1-.26,5.9,5.9,0,0,0,1.47.74A10.05,10.05,0,0,0,5.81,38a.22.22,0,0,0,.07.35,9,9,0,0,0,3.78.78h.11a6.69,6.69,0,0,0,1.94.33s2.28,0,2.19-1.64c-.07-1.41-1.77-1.43-2.23-1.42a.69.69,0,0,0-.13-.11,3.23,3.23,0,0,0-.76-.44,1.29,1.29,0,0,0,.13-.42,1.71,1.71,0,0,0,0-.32,14.56,14.56,0,0,0,2.32,1.2,1.38,1.38,0,0,0,1.94.62,16.09,16.09,0,0,0,4.85.18c1.41-.11,2.81-.29,4.23-.29a12.27,12.27,0,0,1,3,.47c2.66.67,4.72,2.44,6.81,4.12,1.07.86,2.12,1.72,3.14,2.63a8.4,8.4,0,0,1,2.06,2.15c1.28,2.74,3.34,5,5.26,7.29s3.5,4.39,3.71,7.33c0,.15,0,.3,0,.45a7.9,7.9,0,0,0-.2,1.27c-.05.74,0,1.46,0,2.19a25,25,0,0,1-.64,2.72c-.26.2-.58.37-.79.56-.72.64-1.37,1.36-2.07,2-6.45,6.08-13.9,11-20.27,17.17a25.81,25.81,0,0,0-3.5,4.1,6.54,6.54,0,0,1-1.1,1.4c-.41.37-.83.75-1.23,1.14-.78.74-1.55,1.5-2.26,2.31a35,35,0,0,0-4.06,6.4,22.61,22.61,0,0,0-3,6.93c.3,0,.53.07.69-.13a8.48,8.48,0,0,0,.55-1.79,19.63,19.63,0,0,1,2-3.48c.2.4.4.79.58,1.2.09.21.17.42.25.64.14.38.1.39,0,.73-.44,1-1,1.86-1.43,2.83a3.76,3.76,0,0,0,1.06,0c.38-.15.73-1.15,1-1.53a7.82,7.82,0,0,1,.1,1.53c.14,0,.61.08.7,0s0-1.51,0-1.8a1.84,1.84,0,0,1,0-.87,4.74,4.74,0,0,1,.63-.86c.35-.47.72-.93,1.1-1.37-.2,1.62-.31,3.26-.35,4.9a2.91,2.91,0,0,0,.78,0,.74.74,0,0,0,.21,0c.09-.08,0-.55.06-.69.11-1.2.26-2.39.46-3.58a33.94,33.94,0,0,1,2-7.26,24.27,24.27,0,0,1,.72,2.66,13.36,13.36,0,0,1,.58,3.53,7.83,7.83,0,0,1-.86,2.09c-.45,1.07-.88,2.15-1.28,3.25.59,0,.87.15,1.13-.42.39-.88.8-1.75,1.22-2.62.05.72.08,1.44.11,2.17a5,5,0,0,0,0,.87s.2,0,.26,0c.6.16.57-.09.58-.58s0-1.22,0-1.83a40.87,40.87,0,0,0-.61-7.41,26.54,26.54,0,0,0-.66-2.77,4.18,4.18,0,0,1-.34-1c0-.44.63-1.19.87-1.58a21.87,21.87,0,0,1,4.61-5.4,16.6,16.6,0,0,1,1.61,4.33c.1.43.23.88.29,1.31a1.89,1.89,0,0,1-.34,1.24q-.61,1.34-1.17,2.7a48.3,48.3,0,0,0-2.6,10.94c.28,0,.55,0,.82,0,.47,0,.38,0,.49-.49.3-1.43.61-2.87,1-4.29.34,1.21.67,2.41,1,3.62.09.34.12,1,.41,1.16a2.89,2.89,0,0,0,.83,0c-.38-2.08-.83-4.15-1.3-6.22a2.37,2.37,0,0,1-.11-1.23,12.39,12.39,0,0,1,.48-1.28c.36-.86.76-1.7,1.17-2.54a83.72,83.72,0,0,1,.83,8.93c0,.4,0,.79,0,1.19a4.81,4.81,0,0,0,0,1.15,2.82,2.82,0,0,0,.82,0c.11-.09,0-1,0-1.17,0-.4,0-.81,0-1.21,0-.84,0-1.68,0-2.51a10.06,10.06,0,0,1,1.34,2.92c.11.32.38,1.8.65,2s.51,0,.67,0c-.57-1.88-.85-4-2-5.64a1.76,1.76,0,0,0-.29-.36c-.32-.27-.27-.14-.36-.5a8.11,8.11,0,0,1-.06-1.48c-.05-1-.12-2.1-.21-3.14,0-.53-.11-1.06-.17-1.58a4.17,4.17,0,0,1-.09-.85,3.41,3.41,0,0,1,.44-.76,27.33,27.33,0,0,1,1.95-2.83,18,18,0,0,1,4.44-4.09c.36.91.68,1.83,1,2.75s1,2.26.72,3.12-.83,1.89-1.19,2.83c-.22.56-.44,1.12-.64,1.68a72.51,72.51,0,0,0-3,10.85,14,14,0,0,0,1.83,0c.44-.07.34,0,.48-.56s.31-1.16.48-1.74c.14.52.28,1,.4,1.57,0,.14.07.65.17.73s.15,0,.2,0a5.56,5.56,0,0,0,1.47,0c-.18-1.16-.39-2.31-.66-3.44-.2-.85-.66-1.82-.37-2.65.58-1.65,1.23-3.28,2-4.87.42,2.16.76,4.33,1.08,6.51.09.57-.39,1.15-.58,1.73-.3.89-.52,1.81-.74,2.72a4.1,4.1,0,0,0,1.05,0c.28-.09.22-.07.33-.44s.23-.75.36-1.11c.06.43,0,1.4.37,1.55a3.28,3.28,0,0,0,1,0c-.23-3.09-.5-6.18-.87-9.25-.08-.7-.17-1.4-.27-2.09,0-.41-.11-.81-.17-1.21a4.45,4.45,0,0,1-.2-1.23,8.27,8.27,0,0,1,1-1.91l1.12-2.12c.59,1.37,1.57,2.63,2.28,3.94.43.8.85,1.62,1.24,2.44a12.63,12.63,0,0,1,1.15,2.58,10.77,10.77,0,0,1-.18,2.64,4.91,4.91,0,0,1-.09,1.54c-.11.19-.47.38-.62.63a19.59,19.59,0,0,0-1.75,4c.21,0,.43,0,.64,0s.21,0,.42-.2a6.22,6.22,0,0,0,.59-1.28c.2-.41.42-.82.64-1.22,0,.9,0,1.8-.05,2.7a2.69,2.69,0,0,0,.85,0c.21-.13.16-1.25.18-1.57.12-1.46.26-2.93.44-4.39.43,1.31.81,2.63,1.15,4,.12.43.26,1.81.61,2a3.09,3.09,0,0,0,1,0c-.38-2.11-.8-4.22-1.36-6.29a20.76,20.76,0,0,1-.86-2.82A11.67,11.67,0,0,1,49.44,97a50.66,50.66,0,0,1,3.89-11.67c.47,1.28,1,2.54,1.48,3.81.24.59.48,1.18.73,1.77a3.71,3.71,0,0,1,.53,1.66,14.52,14.52,0,0,1-.9,2.31c-.35,1-.67,1.92-1,2.9a50.74,50.74,0,0,0-2.13,11.71,5.14,5.14,0,0,0,.68,0c.48-.08.38,0,.45-.63.11-.9.23-1.81.41-2.7a27.65,27.65,0,0,1,1.22,2.65c.22.55.13.6.62.68a4.7,4.7,0,0,0,.65,0,24.61,24.61,0,0,0-1.65-4.25c-.24-.44-.49-.57-.43-1a16.91,16.91,0,0,1,.64-2.42c.7,1.18,1.34,2.4,2,3.63a14.17,14.17,0,0,1,1,2.23,5.81,5.81,0,0,1,0,1.86h2.07a18.28,18.28,0,0,1-.8-2.21,5.84,5.84,0,0,1,.24-2.1c.24-1.29.53-2.58.84-3.85,1,2.28,2,4.57,2.92,6.88.1.25.32,1.15.55,1.28s.45,0,.58,0h1.41c-1.36-4.1-2.87-8.14-4.38-12.19a13.55,13.55,0,0,1,3.24,1.93,4.75,4.75,0,0,1,.8,2c.21.68.42,1.37.62,2.06.36,1.29.69,2.6,1,3.92.13.65.22,1.31.38,2,.12.47.18.37.65.37A84.45,84.45,0,0,0,66,100.53a16,16,0,0,1,3.52,4.16,7.44,7.44,0,0,1,1,1.74,5.68,5.68,0,0,1-.43,1.52q-.21.75-.39,1.5c.2,0,.74.1.91,0s.52-1.5.65-1.87c.25.4.84,1.71,1.26,1.87a3.69,3.69,0,0,0,1,0c-.32-.6-.66-1.19-1-1.78-.24-.43-.79-1.11-.79-1.59a7,7,0,0,1,.63-1.79c.2-.58.4-1.17.58-1.77.53,1,1.44,2.23,1.36,3.34s-.08,2.4-.1,3.59a2.16,2.16,0,0,0,.44,0c.38-.08.17.16.31-.27a9.81,9.81,0,0,0,.18-2.11l.63,1.47c.09.21.25.81.44.91a3.71,3.71,0,0,0,1.2,0,72.28,72.28,0,0,0-3.33-8.28,3.81,3.81,0,0,1-.47-.92A4.69,4.69,0,0,1,74,99.11a18.79,18.79,0,0,0,.35-2.23,34.54,34.54,0,0,0,.07-3.94,23.72,23.72,0,0,1,2.29,2.72,26,26,0,0,1,1.59,2.56,12.81,12.81,0,0,1,.61,1.16c.16.38.11.32-.08.66a11.21,11.21,0,0,0-.9,3.93,52.75,52.75,0,0,0-.24,5.48,3.21,3.21,0,0,0,.62,0c.38-.08.31.09.35-.45.06-.92.12-1.83.22-2.75a22.46,22.46,0,0,1,1-4.87c.35.82.68,1.64,1,2.47a4.42,4.42,0,0,1,.48,1.31c0,.23-.18.41-.28.68a13.7,13.7,0,0,0-.53,3.61c.24,0,1,.14,1.17,0s.14-.8.17-1c.06-.4.14-.79.22-1.18.16.45.43,2,.82,2.13a4,4,0,0,0,1.2,0c-.54-1.93-1-3.87-1.65-5.79l.46.5,0,0,0,0c1,1.12.23.26,0,0a43.84,43.84,0,0,1,2.83,3.51c.3.41.84,1.55,1.28,1.73a3.22,3.22,0,0,0,.93,0c-.62-1-1.26-2.07-1.94-3.08a35.39,35.39,0,0,0-4.23-5.3,9.31,9.31,0,0,1-1.41-2.92c-.37-.83-.77-1.65-1.21-2.44-2-3.63-5-6.61-8-9.52-3.74-3.74-7.34-7.53-10.72-11.6-1.5-1.8-3.08-3.5-4.67-5.22-.73-.8-1.4-1.64-2.13-2.43l-.19-.18a26.47,26.47,0,0,0,.19-4.53,14.84,14.84,0,0,0-2.92-8.52c-.46-.61-1-1.2-1.47-1.77-.37-.42-1.17-1-1.38-1.46a8.12,8.12,0,0,1-.2-1.35,11.59,11.59,0,0,1-.17-1.86A9.84,9.84,0,0,1,50,40.73c1.89-2.25,4.65-3.43,7.19-4.76.71-.37,1.44-.71,2.18-1a1.38,1.38,0,0,0-.24.47c-.46,1.55,1.74,2.11,1.74,2.11a6.23,6.23,0,0,0,3.7-.25.28.28,0,0,0,.13-.43,6.28,6.28,0,0,0-3-2.24,3.79,3.79,0,0,0-1.15-.18l2.05-.83a1.3,1.3,0,0,0,0,.21,1.35,1.35,0,0,0,1.1,1.43,2.46,2.46,0,0,0,1.2,1.4,8.75,8.75,0,0,0,3.76.87.21.21,0,0,0,.21-.29,10,10,0,0,0-1.28-2.51l.16-.1a.25.25,0,0,0,.12-.19l.19,0a2.53,2.53,0,0,0,1.19.7,8.82,8.82,0,0,0,3.86,0,.21.21,0,0,0,.13-.33,9.14,9.14,0,0,0-2.52-2.66,6,6,0,0,0,1.41-.54,2.51,2.51,0,0,0,1,.51A9,9,0,0,0,77,32a.23.23,0,0,0,.14-.34,10.28,10.28,0,0,0-1.82-2.13,6.38,6.38,0,0,0-2.73-1.94h0l.91-.87s0,.05,0,.08c-.12,1.06.92,1.43,1.51,1.55a2.49,2.49,0,0,0,1.51,1.11,9,9,0,0,0,3.86,0,.22.22,0,0,0,.14-.33,8.93,8.93,0,0,0-2.69-2.77,2.45,2.45,0,0,0-1-.35,6.46,6.46,0,0,0-1.12-.32,3.15,3.15,0,0,0-1.12,0l.62-.57a3.62,3.62,0,0,0,1.31.68,6.8,6.8,0,0,0,1.61.16,2.47,2.47,0,0,0,1.36.89,9,9,0,0,0,3.86,0,.21.21,0,0,0,.13-.33,8.87,8.87,0,0,0-2.68-2.78l-.08,0a5.57,5.57,0,0,0,2.68-.79.26.26,0,0,0,.05-.41A4.61,4.61,0,0,0,82.8,22a8.74,8.74,0,0,0,1.38-1.51.18.18,0,0,0-.1-.29A7.62,7.62,0,0,0,80.76,20a2.16,2.16,0,0,0-1.44,1,1.69,1.69,0,0,0-.57.2A9.31,9.31,0,0,0,80.23,18a.21.21,0,0,0-.12-.25,5.27,5.27,0,0,0-.08-1.5.27.27,0,0,0-.37-.18,5.65,5.65,0,0,0-2.46,2.28l0,.07a6.38,6.38,0,0,0-.69.35,6,6,0,0,0-.21-1,1.09,1.09,0,0,0,.37-.19,2.34,2.34,0,0,0,.85-2.07A7.65,7.65,0,0,0,76.2,12.5a5.58,5.58,0,0,0,1.49-1.27.26.26,0,0,0-.09-.4,5.38,5.38,0,0,0-2.33-.52,2.14,2.14,0,0,0,.54-1.13,7.75,7.75,0,0,0-.36-3.31.18.18,0,0,0-.29-.09A7.76,7.76,0,0,0,73.1,8.16s0-.07,0-.11a5.16,5.16,0,0,0,.86-1.68A.27.27,0,0,0,73.71,6a5.71,5.71,0,0,0-1.31.1l0,0A.26.26,0,0,0,72,6l-.26.26a6.6,6.6,0,0,0-1.26.58l-.29.21a2.07,2.07,0,0,0-.06-1.27A7.75,7.75,0,0,0,68.2,3.09a.19.19,0,0,0-.3.07,8.55,8.55,0,0,0-.33.89,4.68,4.68,0,0,0-.49-.42.26.26,0,0,0-.4.11A5.41,5.41,0,0,0,66.26,6c0-.06-.05-.12-.07-.17a.19.19,0,0,0-.3-.08L65.61,6A6.86,6.86,0,0,0,64.79,6s-1.48,0-1.91.86a.25.25,0,0,0-.22,0,5.56,5.56,0,0,0-.76.61c-.06-.2-.12-.36-.16-.48a.19.19,0,0,0-.3-.08,9.92,9.92,0,0,0-1,1,3.73,3.73,0,0,0,.38-1.22,6.93,6.93,0,0,0,0-1.46c.1-.24.19-.44.24-.59a.22.22,0,0,0-.2-.3H60.6a5.93,5.93,0,0,0-.54-1.28A.29.29,0,0,0,59.61,3,6.09,6.09,0,0,0,58.4,4.61l-.15,0A5.47,5.47,0,0,0,59,2.6a.26.26,0,0,0-.29-.29,4.48,4.48,0,0,0-1,.23A8.63,8.63,0,0,0,57.05.12a.19.19,0,0,0-.3-.07,7.73,7.73,0,0,0-2,2.66,2.2,2.2,0,0,0,.14,1.92,1.23,1.23,0,0,0,.2,1.48,1.2,1.2,0,0,0,.3.23c0,.3-.1.62-.15.91l-.07,0s-1.92,1.2-1,2.54a1.59,1.59,0,0,0,.27.3c-.34.39-.94,1.23-.47,2-.08.2-.16.4-.25.6a16.51,16.51,0,0,1-.86,1.8,3.59,3.59,0,0,0-.08-.35s0,0,0-.05a2.69,2.69,0,0,0,.39-2.34c.58-.69.1-1.83,0-2.08l.05,0a1.32,1.32,0,0,0,.58-1.28l0-.07a2.67,2.67,0,0,0,.31-2.58.77.77,0,0,1-.07-.16c.71-.76,0-2.16,0-2.16A5.7,5.7,0,0,0,51.72,1a.26.26,0,0,0-.37.17,5.31,5.31,0,0,0-.08,2.11c-.06.2-.12.43-.18.67a7.26,7.26,0,0,0-.67.9l-.26-.09a.29.29,0,0,0-.37.26,5.6,5.6,0,0,0,.05,1.17A2.44,2.44,0,0,0,50.28,8l0,0a5.16,5.16,0,0,0,0,.91,9.88,9.88,0,0,0-.43,2c0,.12-.06.21-.08.27a4.52,4.52,0,0,0-.54-.19.28.28,0,0,0-.35.17l-.08-.09a.27.27,0,0,0-.41,0,5.07,5.07,0,0,0-.73,1.66c-.25,0-.53.06-.82.12a5.59,5.59,0,0,0,.38-.95,3.6,3.6,0,0,0,.4-.31,8.94,8.94,0,0,0,2.06-3.26.22.22,0,0,0-.2-.3H49a5.28,5.28,0,0,0,.46-.8.29.29,0,0,0-.2-.41,6.1,6.1,0,0,0-2.63,0c0-.11.09-.23.13-.34A3,3,0,0,0,48.08,6a5.66,5.66,0,0,0,1.84-2.81.27.27,0,0,0-.25-.33H49.3A8.3,8.3,0,0,0,48.74.13a.2.2,0,0,0-.31-.08,7.83,7.83,0,0,0-2,2.66,2.09,2.09,0,0,0-.12,1.19,3.52,3.52,0,0,0-.51.48A3.13,3.13,0,0,0,45.6,4q-.27-.34-.57-.66a.32.32,0,0,0,0-.06A5.69,5.69,0,0,0,43,.64a.26.26,0,0,0-.39.11,4.72,4.72,0,0,0-.28.94.27.27,0,0,0-.07.13,9.68,9.68,0,0,0,.22,3.4,5.84,5.84,0,0,0-1.56-1.08.28.28,0,0,0-.4.2c0,.11,0,.25-.08.41a10.11,10.11,0,0,0-2.07,1.12c0-.21,0-.39,0-.53a.3.3,0,0,0-.39-.24,5.81,5.81,0,0,0-1.55.9c-.08-.11-.17-.21-.25-.31A3.25,3.25,0,0,0,36.48,5a5.64,5.64,0,0,0,0-3.36.27.27,0,0,0-.38-.14A5.71,5.71,0,0,0,33.9,4a.18.18,0,0,0-.27.14,7.71,7.71,0,0,0,.23,3.32,2.14,2.14,0,0,0,.74,1,1.8,1.8,0,0,0-.05.8l-.18,0a3.13,3.13,0,0,0-1.28-1.3A7,7,0,0,0,31,7.28a2.42,2.42,0,0,0,.21-.39,1.37,1.37,0,0,0,1.85-.14c1-1.12-.66-2.39-.66-2.39a6.88,6.88,0,0,0-1.17-.68,12.41,12.41,0,0,0-.35-1.27.23.23,0,0,0-.35-.1c-.22.19-.58.51-1,.92l-.31,0a.27.27,0,0,0-.27.32l.07.3a6.88,6.88,0,0,0-.93,1.5,2.7,2.7,0,0,0,.28,2.59l.05.06a5,5,0,0,0-.54.29l0,0-.42-.8a6.38,6.38,0,0,0,.13-.69.78.78,0,0,0,.11-.2,2.33,2.33,0,0,0-.19-2.23A7.69,7.69,0,0,0,25,2.16a.19.19,0,0,0-.28.14,7.84,7.84,0,0,0,.22,3.32,2.56,2.56,0,0,0,.22.47c-.1.19-.21.38-.31.6,0,0-.81,1.89.57,2.41.89.34,1.48-.38,1.78-.91l.19.45a7,7,0,0,0-.94.89,9.27,9.27,0,0,0-2.18-.46c.39-1-.89-2-.89-2A5.72,5.72,0,0,0,20.23,5.9a.27.27,0,0,0-.27.31,5.52,5.52,0,0,0,.66,1.71,9.67,9.67,0,0,0-1.53-.73.19.19,0,0,0-.26.18c0,.23,0,.59.07,1a.28.28,0,0,0-.35,0A5.65,5.65,0,0,0,17,10.59a.18.18,0,0,0-.1.17v.1l-.12.37s-.39,1.59.54,2.14a3.38,3.38,0,0,0,.18.44,5.62,5.62,0,0,0-.9-.17c.18-1-1.21-1.81-1.21-1.81a5.92,5.92,0,0,0-2.59-.67,4.57,4.57,0,0,0-.37-.95.26.26,0,0,0-.4-.08A5.64,5.64,0,0,0,10.24,13a3.8,3.8,0,0,0-.08.69,8.42,8.42,0,0,0-1.42-2.44.19.19,0,0,0-.31,0,9.53,9.53,0,0,0-.8,1.86,5.5,5.5,0,0,0-2.08-.17.26.26,0,0,0-.21.35,5.74,5.74,0,0,0,2.07,2.65,3.48,3.48,0,0,0,.9.41l.08.06a1,1,0,0,0,.93.12l.06.3A6.72,6.72,0,0,0,8,16.68a5.38,5.38,0,0,0-1.6-1,.26.26,0,0,0-.36.2,5.68,5.68,0,0,0,.5,3.32,3.52,3.52,0,0,0,.42.62,9,9,0,0,0-2.06-.61.19.19,0,0,0-.22.22A9.47,9.47,0,0,0,5,20.77a5.55,5.55,0,0,0-2.11,1.4.27.27,0,0,0,.06.41,5.76,5.76,0,0,0,3.29.67,4.33,4.33,0,0,0,.51-.11l0,0c-.06.16-.12.33-.17.51a2.45,2.45,0,0,0-.06.38,4.38,4.38,0,0,0-.48.64.26.26,0,0,0,0,.21,4.62,4.62,0,0,0-.67-.64.27.27,0,0,0-.26,0,5.69,5.69,0,0,0-1.45-.5,9.12,9.12,0,0,0-1.95-.57.19.19,0,0,0-.22.22A7.93,7.93,0,0,0,2.8,26.44a2.25,2.25,0,0,0,1.73.87v.07a5.7,5.7,0,0,0-1.76.24.29.29,0,0,0-.19.37A11.06,11.06,0,0,0,.22,27.7.23.23,0,0,0,0,28a12.3,12.3,0,0,0,.63,1.39A3.48,3.48,0,0,0,.29,29.58ZM67.16,91.27c-.49-.5-1-1-1.5-1.46-.18-.16-.82-.56-.88-.78a2.69,2.69,0,0,1,.15-.82A19.66,19.66,0,0,1,65.87,85c1.64,1.49,3.32,2.94,5,4.44l1.23,1.15c.49.46.4.52.42,1.2,0,.84.12,1.68.17,2.52,0-.12,0-.23,0,0s0,.15,0,0a22,22,0,0,1-.08,3.89A40.43,40.43,0,0,0,67.16,91.27ZM64.54,92a37.55,37.55,0,0,1,5.37,5.69c.39.51.77,1,1.13,1.55a6,6,0,0,1,1.06,1.63,5.22,5.22,0,0,1-.44,1.8c-.19.72-.4,1.44-.61,2.15A20.22,20.22,0,0,0,66.78,99a9.39,9.39,0,0,1-1.47-1.26,6.57,6.57,0,0,1-.43-2A20.3,20.3,0,0,1,64.54,92Zm-6.93-4.39a26.5,26.5,0,0,1,4.8,2.73c.24.17.47.28.55.55a2.53,2.53,0,0,1,0,.73c0,.61.07,1.22.15,1.83a24.12,24.12,0,0,0,.6,3.16,14.45,14.45,0,0,0-3.6-2c.15,0-.6-1.73-.26-.74C59.09,91.83,58.33,89.73,57.61,87.62Zm-1.54,9.95c-.08.22.08-.19.09-.22.34-.84.68-1.68,1-2.52l1.27,2.94a8.29,8.29,0,0,1,.62,1.4c.06.33,0,.22-.05.53s-.16.41-.22.63a41.64,41.64,0,0,0-.78,4.73q-.9-2.13-1.95-4.17a7.58,7.58,0,0,1-.75-1.31,2.68,2.68,0,0,1,.33-.92C55.8,98.3,55.93,97.93,56.07,97.57ZM53.6,72.71C57.24,76.2,60.55,80,64.2,83.49c-.1-.1-.52-.49,0,0,.34.32.14.29,0,.61a4,4,0,0,0-.24.51,7.58,7.58,0,0,0-.25.81,18.85,18.85,0,0,0-.47,2.33A27.64,27.64,0,0,0,59,85.14a15.67,15.67,0,0,0-1.56-.72,4.07,4.07,0,0,1-.88-.24c-.22-.16-.32-.78-.41-1.07A90.69,90.69,0,0,1,53.6,72.71ZM18.23,96.17a29.14,29.14,0,0,0-1,2.91c-.24.87-.34,1.83-.62,2.68a6.7,6.7,0,0,1-1.25,1.56c-.5.64-1,1.3-1.43,2a13.29,13.29,0,0,0-.69-1.71c-.06-.12-.29-.38-.29-.49s.4-.65.51-.82c.72-1.16,1.42-2.35,2.25-3.44l.07-.09.11-.14A21.27,21.27,0,0,1,18.23,96.17Zm20.18-9.11c0-.06.3-.15.36-.18l.82-.38c.76-.35,1.54-.67,2.31-1-.77,1.78-1.58,3.53-2.39,5.29q-.36-1.44-.81-2.85A5.42,5.42,0,0,1,38.41,87.06Zm-3.48-1c-.37.26-.74.54-1.1.83a17.38,17.38,0,0,0-1.77,1.66A25.72,25.72,0,0,0,29,92.65a21.55,21.55,0,0,0-.85-3.15A12.29,12.29,0,0,0,27.5,88c-.15-.29-.19-.29,0-.52a6.84,6.84,0,0,1,1.4-1.11c.55-.43,1.11-.85,1.67-1.27,1-.78,2.08-1.54,3.13-2.3.3.7.74,1.35,1.1,2l0,0a3.16,3.16,0,0,1,.34.69C35.19,85.88,35.27,85.79,34.93,86ZM46.42,73.31c-.39,1.41-.83,2.8-1.31,4.18-.23.64-.47,1.29-.71,1.93a8.32,8.32,0,0,1-.8,2.07c-.28.35-1.12.51-1.58.72l-1.5.69c-1.05.5-2.09,1-3.1,1.57a12,12,0,0,0-1.67-3.16c2.07-1.49,4.15-3,6.19-4.5C43.46,75.68,45,74.52,46.42,73.31Zm3.72,2.15c.65,2.48,1.43,4.94,2.28,7.36-.87.09-1.33,1.82-1.6,2.51-.46,1.19-.88,2.4-1.24,3.63a57.18,57.18,0,0,0-1.83,8.38,30.53,30.53,0,0,0-2.36-4.54,21,21,0,0,0-1.9-2.74C45.93,85.3,49.68,76.76,50.14,75.46ZM27.77,20.54a.13.13,0,0,0,0,.06s0,0,0-.06Zm.41-7.6-.09.08h0l.1-.08Zm2-3.59c-.09.13-.19.27-.27.41a6.54,6.54,0,0,0-.64-.59,4.93,4.93,0,0,0,0-.77,1.07,1.07,0,0,0,.25,0A6.39,6.39,0,0,0,30.21,9.35Zm.54,6.88a1.44,1.44,0,0,0-.26.75.23.23,0,0,0-.15.05l-.26.22h0c.89-.92-.18-2.5-.18-2.5a6.54,6.54,0,0,0-.61-.73,2.72,2.72,0,0,0-.07-.33l.45.35a7.74,7.74,0,0,1,1,.94A5.84,5.84,0,0,0,30.75,16.23Zm.55,6.05a6.91,6.91,0,0,0-1.58.8l0-.1a3.07,3.07,0,0,0,1.13-1,1.71,1.71,0,0,0,.39.17Zm.24-8.77-.12-.08.1-.06A.59.59,0,0,0,31.54,13.51ZM33,11.26l-.27.17,0-.39h.12Zm.06,3.47-.24.07-.27-.34a1.29,1.29,0,0,0,.34,0ZM33.58,20a6,6,0,0,0-1-.36,3.72,3.72,0,0,0-.2-.37,7.74,7.74,0,0,0-.81-.94,1.8,1.8,0,0,0,.73,0,1.14,1.14,0,0,0,.48,0,6.6,6.6,0,0,0,.78,1.7Zm3.31-9.92-.1-.07,0,0Zm.36-.25,0,.09a.48.48,0,0,0,0,.08L37,9.82a.47.47,0,0,1,.1-.1A.69.69,0,0,0,37.25,9.83Zm2.07,2.41-.26.25-.18-.28a2.11,2.11,0,0,0,.38-.35A2.71,2.71,0,0,0,39.32,12.24Zm1.26,6.15v0a1.13,1.13,0,0,0,.52-.49,5.53,5.53,0,0,1,.46,1.48,4,4,0,0,1,0,.77,1.51,1.51,0,0,0-.26.15.28.28,0,0,0-.29-.13,5.75,5.75,0,0,0-.91.22,4,4,0,0,0-.27-.8A1.1,1.1,0,0,0,40.58,18.39Zm.15-8.67a3.3,3.3,0,0,0-.43-.34.27.27,0,0,0-.26,0,3.23,3.23,0,0,0,0-.44,2.54,2.54,0,0,0,.16-.28,3,3,0,0,0,.15-.31,5.39,5.39,0,0,0,.32,1.24ZM41.62,15a1.09,1.09,0,0,0,1.13-.42h0c-.21.61-.41,1.24-.57,1.87a3,3,0,0,0-.46.42c-.21-.39-.43-.78-.65-1.17-.08-.18-.14-.29-.14-.29l-.14-.22a2,2,0,0,0,.18-.28.47.47,0,0,1,.05-.1A3,3,0,0,0,41.62,15ZM44,10.51a3.32,3.32,0,0,0,.19-.9l0,.07a1.33,1.33,0,0,0,.34.45,3.19,3.19,0,0,0-.21.69q-.46,1-.87,2a3,3,0,0,0-.34.36,2.48,2.48,0,0,0-.5-1.43,5.77,5.77,0,0,0-.74-.82,3.28,3.28,0,0,0,.82.3A1.1,1.1,0,0,0,44,10.51Zm-.9,9.15c0-.11,0-.21,0-.32a3.11,3.11,0,0,0,1.12-.56c.21-.13.41-.26.59-.39a5.21,5.21,0,0,0-.3,1.18A6.15,6.15,0,0,0,43.05,19.66Zm1.54,1.83a1.48,1.48,0,0,0,.8.93l-.46.42a6.8,6.8,0,0,0-.59-1.08A3.08,3.08,0,0,0,44.59,21.49Zm.06-9.42v0l0,0ZM46.31,6.6l-.24.51c-.18.06-.36.12-.55.2,0,0-1.23.54-1.47,1.46A2.25,2.25,0,0,0,44,8.53,2.59,2.59,0,0,0,43.77,7a4.28,4.28,0,0,0,.85.32,1.11,1.11,0,0,0,1.28-.7A1,1,0,0,1,46,6.46,1.07,1.07,0,0,0,46.31,6.6Zm1,13.15a1.31,1.31,0,0,0,.67-.4,2.26,2.26,0,0,0,0,.26c0,.46.16.59-.22.89l-.49.37a.31.31,0,0,1-.09.07,3.42,3.42,0,0,0,0-.61c0-.19-.07-.37-.11-.54Zm1.08-3.54-.18,1v0a7.44,7.44,0,0,0-.69-1.44l.21-.28A1.46,1.46,0,0,0,48.37,16.21Zm.43,8.05a6.93,6.93,0,0,0-1.94.09,3.83,3.83,0,0,0-.94.36q.64-.71,1.32-1.38a1.25,1.25,0,0,0,1.3.59,1.08,1.08,0,0,0,.24.32Zm2-6.66c-.14.18-.29.35-.44.51l-.39.06a3.94,3.94,0,0,0-.83.31c0-.74.08-1.47.17-2.2a1.26,1.26,0,0,0,.87-.92,2,2,0,0,0,.33.32A1.21,1.21,0,0,0,50.24,17,1.18,1.18,0,0,0,50.75,17.6Zm1.13,3.2a4.21,4.21,0,0,0,.44.34,4.45,4.45,0,0,0-.25.62l-.35-.07c.11-.18.2-.34.27-.47a.26.26,0,0,0-.18-.37l-.3-.07.25-.12A1.49,1.49,0,0,0,51.88,20.8ZM55.8,6.48v0Zm1,6.16h0a6.59,6.59,0,0,0-2.43.8c.09-.26.18-.52.26-.78a1.35,1.35,0,0,0,.93-.06A3.17,3.17,0,0,0,56.82,12.64ZM56.91,17a.21.21,0,0,0-.15.14,6.62,6.62,0,0,0-.21.66.27.27,0,0,0-.35,0,4.79,4.79,0,0,0-.56.66,6.89,6.89,0,0,0-1.58-.29,2.56,2.56,0,0,0-1,.17,5.61,5.61,0,0,0-1-.22c.13-.18.25-.36.37-.55l.31-.13a6.39,6.39,0,0,0,1.19-.85,1.29,1.29,0,0,0,.51.07,2.47,2.47,0,0,0,1.47.09,3.8,3.8,0,0,0,.51-.15A1.2,1.2,0,0,0,56.91,17Zm-2.28,5.8h0a6.83,6.83,0,0,0-.42-1.19l.19,0,.23-.06c0,.6.26,1.39,1.14,1.5A1.34,1.34,0,0,0,56,23l-.06.43a4.93,4.93,0,0,0-1.2.25v0c0-.18,0-.35-.08-.51A.23.23,0,0,0,54.63,22.78Zm3-5.71-.12.31-.38-.33h.09A1.14,1.14,0,0,0,57.63,17.07Zm-.4,5.6h0l0,0ZM58.5,8.55l-.43.06a2.27,2.27,0,0,0,.18-.25A1.26,1.26,0,0,0,58.5,8.55Zm.64,7.6c-.1.15-.2.34-.31.55a1.8,1.8,0,0,0-.38.16l.15-.45a2.85,2.85,0,0,0,.3-.64A1.36,1.36,0,0,0,59.14,16.15Zm-.39,8.75.19,0a.9.9,0,0,0-.08.28L58.69,25Zm.75-10.81-.09.05.05-.12A.25.25,0,0,0,59.5,14.09Zm.57-5.7a.41.41,0,0,1,0,.09h0Zm2,4.84a1.16,1.16,0,0,0,.29.55l-.26.34L61.68,14A3,3,0,0,0,62.07,13.23Zm1.77-4.62a1.4,1.4,0,0,0-.08.34l-.41-.2c0-.13,0-.24,0-.36A1.86,1.86,0,0,0,63.84,8.61Zm3.1,14.58s0,0,0,0h0q-.6,1-1.29,2a3.87,3.87,0,0,0-.44-1L65,24h.08A7.42,7.42,0,0,0,66.94,23.19Zm-.42-2.29-.14,0,0-.05a4.66,4.66,0,0,0-.26-.5l.08,0C66.29,20.48,66.4,20.69,66.52,20.9Zm2-12.32a5.65,5.65,0,0,0-.77,1.63,3.41,3.41,0,0,0-.22-.53,6.64,6.64,0,0,0-.81-1.15c0-.1,0-.21,0-.31l.11-.05a1.21,1.21,0,0,0,1.38.54A1.13,1.13,0,0,0,68.55,8.58Zm1.87,1.5-.33.08a5,5,0,0,0-.37-.77,1.17,1.17,0,0,0,.66.32A2.46,2.46,0,0,0,70.42,10.08Zm-.59,10.13c0-.16.1-.32.14-.48a6.36,6.36,0,0,0,2.52-1.1,10.32,10.32,0,0,0-1.24,1.71h0A.26.26,0,0,0,71,20,4.76,4.76,0,0,0,69.83,20.21Zm.72,1.91,0,.19-.26.23C70.37,22.4,70.46,22.26,70.55,22.12Zm0-5.18c0-.1.05-.2.08-.3a1.36,1.36,0,0,0,.29.06,3.21,3.21,0,0,0,.08.36Zm2-5.28a2.11,2.11,0,0,0,0,.26l-.12.15c-.35.4-.71.81-1,1.23a2.38,2.38,0,0,0-1.19.56v0a3.74,3.74,0,0,0,.14-.45l0-.07a4.16,4.16,0,0,0,.41-.17A6.64,6.64,0,0,0,72.55,11.66ZM73.14,13l-.39.31-.46,0,.46-.62A1.08,1.08,0,0,0,73.14,13Zm.19-2.25-.18.11.11-.19Zm2.38,2A9.34,9.34,0,0,0,75,14l-.33-.17c0-.26,0-.51,0-.73a1.43,1.43,0,0,0,.24,0A5.74,5.74,0,0,0,75.71,12.75ZM77.8,23.1l.5-.28a1.6,1.6,0,0,0,.69.6,3,3,0,0,0-.43.1A5.4,5.4,0,0,0,77.8,23.1Zm-2.5-.19,0-.18a1.83,1.83,0,0,0,.49-.47l.21,0a2.72,2.72,0,0,0,2.25-.6,1.41,1.41,0,0,0-.11.38,1.92,1.92,0,0,0,0,.24,10.17,10.17,0,0,0-1,.51A2.68,2.68,0,0,0,75.3,22.91ZM73,18.56a.23.23,0,0,0-.23-.12l.1-.08a.3.3,0,0,0,0-.44,2.57,2.57,0,0,0,1.58-1.65,3,3,0,0,0,.13-.49,2.29,2.29,0,0,0,.74,1.75v.08A6.37,6.37,0,0,0,73.55,20,10.57,10.57,0,0,0,73,18.56Zm-2.8,11.12,0,0,0,.05Zm-.67-1.21a2.84,2.84,0,0,0,.71-.87c1-.24,1.41-1.77,1.41-1.77a7.31,7.31,0,0,0,.16-1.16,1,1,0,0,0,.34,0,1.13,1.13,0,0,0,.64.83l.06,0a13.07,13.07,0,0,1-1,1.1c-.32.29-.64.57-1,.84a1.32,1.32,0,0,0-.7.52C69.9,28.19,69.69,28.33,69.48,28.47Zm-.09-19.6c-.12-.17-.23-.3-.32-.41A.18.18,0,0,0,69,8.41a1.06,1.06,0,0,0,.35-.09A1.15,1.15,0,0,0,69.39,8.87Zm-2.25,9a6.34,6.34,0,0,0-.69-.1,1.56,1.56,0,0,0,1.3-1.55,3.47,3.47,0,0,0,.65.43,1.09,1.09,0,0,0,.9,0s0,.07,0,.11h0S67.53,16.78,67.14,17.86Zm.46,1.57a2.43,2.43,0,0,0,1,.36c-.14.41-.3.81-.47,1.2l-.12.08c-.29-.45-.58-.87-.86-1.3A4.78,4.78,0,0,0,67.6,19.43ZM67,31.7l.42-.23a1.6,1.6,0,0,0,.58.45h0a1,1,0,0,0-.28.2A6.19,6.19,0,0,0,67,31.7Zm-2.17-.89a3.84,3.84,0,0,0,.56-1.17,8.08,8.08,0,0,0,.14-.91l.32-.45a1.18,1.18,0,0,0,.68,1.08,1.36,1.36,0,0,0,1.73-.54,1.08,1.08,0,0,0,.71,0A26.73,26.73,0,0,1,64.78,30.81Zm0-19.2c0-.1,0-.3.06-.56h0a3.49,3.49,0,0,0,.39.65Zm-.36,0-.33,0a2.48,2.48,0,0,0-1.78.66,5.17,5.17,0,0,0,0-.54,1.93,1.93,0,0,0,.35-.35,6.32,6.32,0,0,0,1.79-.41l0,0C64.45,11.17,64.42,11.38,64.39,11.57Zm-.23,2.73-.1.15a5.18,5.18,0,0,0-.59-.1s0-.06,0-.08a3,3,0,0,0,.69,0Zm-.61,4.21,0-.06-.22-.21a2.15,2.15,0,0,0,.34-.58c0,.06.07.11.1.16a1,1,0,0,0,.34.3A1.82,1.82,0,0,0,63.55,18.51Zm-.49,2.15c.16-.17.31-.34.46-.52h0c0,.19,0,.38,0,.58Zm-1,.06a1.71,1.71,0,0,0-1.5,1.21l-.26.2a4.88,4.88,0,0,0-.79-.06,2.83,2.83,0,0,0,.14-.44.54.54,0,0,0,.18,0c1.23-.05,1.41-1.36,1.42-2a1.13,1.13,0,0,0,.91-.19A5.84,5.84,0,0,0,63.26,19a1.35,1.35,0,0,0,0,.57A13.15,13.15,0,0,1,62,20.72Zm-.6,2.78h0Zm-.82,5.86a1.16,1.16,0,0,0,1.05.35l-.65.55-.16.07A7.61,7.61,0,0,0,60.62,29.36ZM56.54,28v0a7.1,7.1,0,0,0,.75-.15c.26.54.87,1.47,1.88,1.09,1.23-.46.71-2,.59-2.35h0a2.49,2.49,0,0,0,1.39.37c-.24.21-1.22,1.11-.82,2a.32.32,0,0,0-.25,0,6,6,0,0,0-1.31,1.28L58.61,30A6.79,6.79,0,0,0,56.54,28ZM54.22,34.1a30.67,30.67,0,0,0,1.42-3.39,6.82,6.82,0,0,0,.34.82,3.25,3.25,0,0,0,1.22,1.24C56.23,33.26,55.24,33.68,54.22,34.1Zm-.29-6.52c0-.11,0-.23,0-.35l.21-.1a1.16,1.16,0,0,0,.25.36Zm-10.72.64A24,24,0,0,1,45,25.74a1.24,1.24,0,0,0,0,.39,1.1,1.1,0,0,0,.15,1.43,2.69,2.69,0,0,0,2.33.78,7.18,7.18,0,0,0,.35.84s1.07,2,2.47,1.18.15-2.74.15-2.74a5.37,5.37,0,0,0-.35-.45l.28-.2a2.39,2.39,0,0,0,.13.28,2.51,2.51,0,0,0,1.37,1.23,1.61,1.61,0,0,0-.66,2.11c.58,1,1.7.66,2.31.38-.25.51-.51,1-.77,1.5a14.54,14.54,0,0,1-1.94,3.19,15.79,15.79,0,0,1-1.88,1.26,14.93,14.93,0,0,0-1.6,1.38,13.68,13.68,0,0,0-3.88,7.32c-1.87-2.57-2.46-5.74-2.85-8.83S41.67,30.67,43.21,28.22Zm-4.43-3.47a3.47,3.47,0,0,0,1.15-.87,6.27,6.27,0,0,0,.66-1,1.31,1.31,0,0,0,.75.33c0,.37,0,.74,0,1.12a15.4,15.4,0,0,1,.15,2c0,.44-.51.9-.79,1.3s-.65,1-.95,1.49A27.47,27.47,0,0,0,38.78,24.75Zm-1-9.75h-.13a3.24,3.24,0,0,0-1.21-1.15,6.63,6.63,0,0,0-1.72-.59c.08-.09.15-.19.22-.28a1.58,1.58,0,0,0,.31.09,2.79,2.79,0,0,0,2,.2A1.09,1.09,0,0,0,38,12.4a1.47,1.47,0,0,0,.36,0l0,0c.09.17.18.34.28.5a.64.64,0,0,0-.1.13,2.35,2.35,0,0,0-.35-.18.29.29,0,0,0-.41.2A5.75,5.75,0,0,0,37.74,15ZM36.5,18.46c0,.19,0,.38,0,.59l-.31.05a3,3,0,0,0-.17-.36A3.37,3.37,0,0,0,36.5,18.46Zm1.21,3.34,0,0,0,0-.12-.27A1.8,1.8,0,0,0,37.71,21.8ZM27.38,28.19c1.4.43,2.14-1.55,2.14-1.55a2.69,2.69,0,0,0,2.39-1h0a8.25,8.25,0,0,0,1.7,2.49,2.69,2.69,0,0,0,2.53.59A1.1,1.1,0,0,0,37,27.5a2.68,2.68,0,0,0-1.42-2.18,8.41,8.41,0,0,0-3-.77A9,9,0,0,0,33,23.49l.08,0a8,8,0,0,0,.55.66s1.61,1.61,2.71.4l.11-.13c1.41,5.07.67,10.43,1.27,15.6-1.23-.87-2.49-1.71-3.73-2.56-1-.66-2.14-1.1-3.07-1.81a8.29,8.29,0,0,1-3.38-5.49A18.82,18.82,0,0,1,27.38,28.19ZM27.27,24a3.23,3.23,0,0,0,.55-1.23c0-.29.06-.57.07-.83a3.18,3.18,0,0,0,.32.64,1.14,1.14,0,0,0,.56.44,6.14,6.14,0,0,0-1.46,1.42C27.3,24.33,27.29,24.19,27.27,24ZM8.12,20.45v.05l-.06-.05Zm1.26-.23-.52,0a1.07,1.07,0,0,0,.26-.26C9.21,20,9.29,20.13,9.38,20.22Zm4.39-1.41A6.29,6.29,0,0,0,13,20.37a2.5,2.5,0,0,0-.07.33v-.19a1.2,1.2,0,0,0,.08-.57,3.07,3.07,0,0,0-.27-1,1.26,1.26,0,0,0,1-.23v.09Zm.75,3.88c.06.25.13.51.2.76l-.09.18a2.75,2.75,0,0,0-.14.36c-.6-.75-1.21-1.5-1.8-2.27a1.51,1.51,0,0,0,.25-.58,1.37,1.37,0,0,0,1,1.55A1.35,1.35,0,0,0,14.52,22.69Zm.22-5v0a3.81,3.81,0,0,0-.37.35,3,3,0,0,0,.25-.45Zm1-2.65c-.23,0-.45-.06-.66-.08a3,3,0,0,0,0-.31,2.32,2.32,0,0,0,.46,0A2.91,2.91,0,0,0,15.7,15Zm1.84,4.74a6.52,6.52,0,0,0-.45.67,4.36,4.36,0,0,0-1,0,.26.26,0,0,0-.23.34,5.72,5.72,0,0,0,.37.84,5.84,5.84,0,0,0-.9.94c0-.11-.07-.23-.11-.34A3.19,3.19,0,0,0,15.73,21a7.12,7.12,0,0,0,.07-1,1.13,1.13,0,0,0,.88-.06,3.74,3.74,0,0,0,.59-.39A3.23,3.23,0,0,0,17.54,19.77Zm1,7.53a2.89,2.89,0,0,0,0-.29,4.06,4.06,0,0,0,.41.25.36.36,0,0,0,0,.09,2.8,2.8,0,0,0-.19.8c-.14.14-.29.29-.44.47l-.19-.28A3.21,3.21,0,0,0,18.57,27.3ZM20.72,22l-.28,0a.29.29,0,0,0-.13,0,2,2,0,0,0-.33-.42,6,6,0,0,0,0-.85,1.85,1.85,0,0,0,.77-.11h0A2.94,2.94,0,0,0,20.72,22Zm.61,2.24,0,0c-.13.11-.31.28-.5.47l-.32-.14a6.37,6.37,0,0,0-2.09-.36l.05,0a3.08,3.08,0,0,0,.44-.27,1.25,1.25,0,0,0,1.44-.51A1.36,1.36,0,0,0,20.5,23,5.35,5.35,0,0,0,21.33,24.25Zm-.46-12.53a5.34,5.34,0,0,0-.87.64l0,0a4.51,4.51,0,0,0-.51-.47.73.73,0,0,1,0-.08,6,6,0,0,0,0-1.19l0,0A2.16,2.16,0,0,0,20.87,11.72Zm.59,6.37h0c-.36-.07-.7-.11-1-.14a3.63,3.63,0,0,0-.57-.27,7.31,7.31,0,0,0-1.66-.3v-.18c0-.05,0-.1,0-.14a1.65,1.65,0,0,0,.7,0l.07,0a1.45,1.45,0,0,0,1.76-.63,15.41,15.41,0,0,1,.62,1.45Zm.69,7.77h0a9.72,9.72,0,0,0-.33-1.17l.27.23A1.74,1.74,0,0,0,22.15,25.86Zm.31-16.14h-.07v0Zm1,.34-.51-.2a1.48,1.48,0,0,0,.42,0A1.13,1.13,0,0,0,23.45,10.06Zm.18.38a6.91,6.91,0,0,0-1.15-.37c0-.08,0-.15-.05-.23l1.19.58Zm-.85,3.79c0-.21,0-.41,0-.61.2.37.38.74.56,1.12-.09.08-.19.16-.29.26a4.84,4.84,0,0,0-.47-.21C22.73,14.48,22.77,14.23,22.78,14.23Zm2.74-1.36a6.19,6.19,0,0,0-.8,1.67h0a1.82,1.82,0,0,0-.07-.25.29.29,0,0,0-.42-.16,2.86,2.86,0,0,0-.3.19l-.39-.64a1.4,1.4,0,0,0,1.68-.6,1.21,1.21,0,0,0,.15-.33ZM24.57,18l0-.07c.09.27.17.53.24.8a3,3,0,0,0-.39-.18l-.1,0A2.77,2.77,0,0,0,24.57,18Zm1.7-.13A3.45,3.45,0,0,0,26,19c-.28-.81-.6-1.61-.94-2.38a1.18,1.18,0,0,0,.55.27,1.59,1.59,0,0,0,.36,0A2.74,2.74,0,0,0,26.27,17.88Zm-.45,6.56a16.73,16.73,0,0,1,0,1.87,11.11,11.11,0,0,1-.72-1.07c.05-.13.09-.21.09-.21a6.37,6.37,0,0,0,.23-.88A1.17,1.17,0,0,0,25.82,24.44Zm-.46-2.89s0,0,0,0l0,0ZM22.45,32.62A12.18,12.18,0,0,1,20.33,31c.06-.2.12-.39.16-.58a.82.82,0,0,0,.26-.1,2.69,2.69,0,0,0,1.52-2.1v-.1a7,7,0,0,0,1.39.94,3,3,0,0,0,1.93.22,10.32,10.32,0,0,0,1.1,5.12A17.19,17.19,0,0,1,22.45,32.62Zm-6.52,2.89a4.75,4.75,0,0,0,0-.6,1.09,1.09,0,0,0,1.3-.41,2.76,2.76,0,0,0,.49-2,.9.9,0,0,0,.24.12,1.29,1.29,0,0,0,1.29-.12,15.75,15.75,0,0,0,2.85,2.33A27.71,27.71,0,0,1,15.93,35.51Zm-2.42-5.18c.05-.13.1-.27.14-.41a2.17,2.17,0,0,0,.89.16c0,.11,0,.22-.08.33A6.64,6.64,0,0,0,13.51,30.33Zm-1.14,3.79a1.94,1.94,0,0,0,.44-1.77,4.06,4.06,0,0,0,.48.43,7,7,0,0,0-.37,1.78A5.58,5.58,0,0,1,12.37,34.12ZM12,23.72a1.16,1.16,0,0,0,.64-.5l.07-.11.23.34c1,1.51,1.94,3.09,2.94,4.62a1.2,1.2,0,0,0,.49.74c.33.48.66,1,1,1.42a4.1,4.1,0,0,0-.19.86,9.57,9.57,0,0,0-1.55-1.88c.35-1.09-1.13-2-1.13-2L14.05,27a1.48,1.48,0,0,0,.21-.35c.63-1.5-1.5-2.29-1.5-2.29-.27-.09-.53-.16-.78-.22C12,24,12,23.87,12,23.72Zm-1.58-7a.29.29,0,0,0-.43.14,1.21,1.21,0,0,1-.05.14l-.1,0c-.06-.2-.09-.44-.15-.64a2.39,2.39,0,0,0,.69-1.62,1.12,1.12,0,0,0,.83.6l.28,0v.12a2.16,2.16,0,0,0,.29,1.23,3,3,0,0,0-.11,1.11A5.64,5.64,0,0,0,10.39,16.67ZM8.92,32.11h.14a1.41,1.41,0,0,0,.62-.18,10,10,0,0,0,.44,1,2.7,2.7,0,0,0,.13.36A9.07,9.07,0,0,1,8.92,32.11Zm-.86,1.71A1.26,1.26,0,0,0,8.42,33c.26.29.54.57.83.85l-.21,0A6.22,6.22,0,0,0,8.06,33.82Zm-.43-5.44a2,2,0,0,0-.28-.23,3.25,3.25,0,0,0-.09-1.09,6,6,0,0,0-1-1.95h0a2.69,2.69,0,0,0,.45.14,1.24,1.24,0,0,0,1.7.6c0,.18.07.37.1.55A6,6,0,0,0,7.63,28.38ZM5.06,31.61a1.09,1.09,0,0,0,.35-.92.38.38,0,0,1,0-.1v-.05A3.16,3.16,0,0,0,7,30.78c0,.09.09.18.13.28l.27.5a3.64,3.64,0,0,0-1.35-.15A6,6,0,0,0,5.06,31.61Z"/></g></g></svg>