<svg id="Layer_1" data-name="Layer 1" xmlns="http://www.w3.org/2000/svg" viewBox="0 0 75.47 90.01"><path d="M80.22,50.64a1.2,1.2,0,0,0-.54,1.62c.88,1.67,2.89,1.53,4.19,1.23a.77.77,0,0,0,.45-1.36C83.45,51.12,81.91,49.82,80.22,50.64Zm-7-28.72a1.19,1.19,0,0,0,.4,1.65c1.62,1,3.26-.21,4.21-1.15A.77.77,0,0,0,77.48,21C76.21,20.63,74.21,20.33,73.2,21.92ZM39.11,37c-1,.93-2.15,2.56-1.21,4.2a1.2,1.2,0,0,0,1.65.42c1.6-1,1.33-3,1-4.26A.77.77,0,0,0,39.11,37ZM42.3,23.58c1.88.09,2.78-1.72,3.18-3,.23-.73-.19-1.21-.94-1.07-1.31.23-3.22.9-3.36,2.78A1.19,1.19,0,0,0,42.3,23.58ZM31,20.34a1.2,1.2,0,0,0,1.28-1.13c.09-1.88-1.72-2.78-3-3.18-.72-.23-1.21.2-1.07.95C28.5,18.29,29.16,20.19,31,20.34ZM39.45,18a1.19,1.19,0,0,0,1.28-1.12c.09-1.88-1.72-2.78-3-3.18-.72-.23-1.21.19-1.07.94C36.91,16,37.57,17.9,39.45,18Zm46.47,26a3.53,3.53,0,0,0-3.37-.1c.18-.49-.08-.92-.71-1a6.74,6.74,0,0,0-1.7-.06c0-.16,0-.31,0-.46a.77.77,0,0,0-1.27-.66c-1.14.7-2.67,2-2.12,3.82a1.12,1.12,0,0,0,.64.72,2.2,2.2,0,0,1-.31.15,2.87,2.87,0,0,0-2.56-1.84,1.1,1.1,0,0,0-.56.16,6,6,0,0,0-2.39-.7,10.11,10.11,0,0,0-1.35,0A.68.68,0,0,0,70,43.5a1.79,1.79,0,0,0,.38-.22,3.46,3.46,0,0,0,2.93-.22,1.19,1.19,0,0,0,1.21,1.1c1.88-.06,2.64-1.93,2.94-3.22a.94.94,0,0,0-.1-.76c.39-.39.31-.9-.25-1.23L77,38.87a3.4,3.4,0,0,0,1.76-.12l0,.07c1.35,1.31,3.22.56,4.36-.12a.77.77,0,0,0,0-1.43l-.28-.16A8.49,8.49,0,0,0,84,36.56a.78.78,0,0,0,0-1.44,6.75,6.75,0,0,0-.66-.34A3.84,3.84,0,0,0,85,32.26c.21-.79-.23-1.23-1-1l-.11,0a6.11,6.11,0,0,0,.17-1.3c0-.81-.51-1.14-1.23-.75-1,.57-2.39,1.62-2.08,3.2a1.07,1.07,0,0,0,.3.53L79.7,34.14c.71-1.28.06-2.82-.55-3.82a.77.77,0,0,0-1.43,0l0,.09a1,1,0,0,0-.27-.12,4.41,4.41,0,0,0-3.4.05c.42-.51.81-1,1.2-1.56a1.14,1.14,0,0,0,.41,0c1.55-.43,1.88-2.11,1.91-3.3,0-.81-.51-1.14-1.23-.75-1.05.57-2.39,1.62-2.07,3.2a1.09,1.09,0,0,0,.77.82,57,57,0,0,1-6.61,6.76A16.87,16.87,0,0,0,67,36.93a3.78,3.78,0,0,0-.43-1.18c0-.09-.09-.17-.14-.26s-.2-.42-.31-.62a6.63,6.63,0,0,0,2.48-1.68,1.17,1.17,0,0,0,.29-.46l.11.16a1.19,1.19,0,0,0,1.7,0,2.46,2.46,0,0,0,.69-1.43A1.17,1.17,0,0,0,72.75,31c1-1.62-.21-3.26-1.15-4.21l-.06,0a6.2,6.2,0,0,0,1.69-1.21.77.77,0,0,0-.34-1.39,6.75,6.75,0,0,0-1.37-.29c1.07-1.14,2.08-2.33,3-3.55a1.08,1.08,0,0,0,.73.08c1.56-.44,1.89-2.12,1.91-3.31,0-.81-.51-1.14-1.22-.75-1,.57-2.39,1.62-2.08,3.2a1,1,0,0,0,.35.57c-.47.54-.93,1.06-1.41,1.58.88-1.58-.23-3.17-1.14-4.11a4.9,4.9,0,0,0,1-1.62c.09,0,.16-.07.25-.09s0-.08,0-.06l-.18,0c.07-.17.12-.34.17-.5.23-.73-.19-1.21-.94-1.08a5.42,5.42,0,0,0-2.44,1s0,0-.08,0a3.51,3.51,0,0,0-1.32,1.33c-.18-1.6-1.79-2.4-3-2.77l-.19,0a5.08,5.08,0,0,0,0-2c-.15-.8-.74-1-1.36-.48l-.25.22a5.46,5.46,0,0,0,0-.56c0-.82-.51-1.14-1.22-.76-1,.57-2.39,1.62-2.08,3.21a1.17,1.17,0,0,0,.24.47c-.3.63-.62,1.24-1,1.85a2.37,2.37,0,0,0-1.13.95,1.18,1.18,0,0,0-.09,1.05L58,18c-.38.58-.83,1.14-1.24,1.74a3,3,0,0,0-.26-1.21,4.37,4.37,0,0,0,1.86-2.9.93.93,0,0,0-.1-.77,4.25,4.25,0,0,0-1-2.23,5.38,5.38,0,0,0,1.15-2.35c.18-.74-.28-1.2-1-1a6.5,6.5,0,0,0-1.44.53,6.64,6.64,0,0,0,.24-.66C56.37,8.45,56,8,55.2,8.1a5.43,5.43,0,0,0-2.37,1c.81-1.09.37-2.53-.11-3.5-.36-.73-1-.77-1.44-.09-.66,1-1.35,2.55-.33,3.8a1,1,0,0,0,.36.29v0l-.22-.08A4.63,4.63,0,0,0,48.4,7.67c-.72-.23-1.21.2-1.07.95.23,1.29.89,3.14,2.71,3.34a3.12,3.12,0,0,0,.39.56c-.2.66-.39,1.31-.58,2-.05-1.75-1.75-2.61-3-3l-.17,0a3.68,3.68,0,0,0-.53-3.11,1.16,1.16,0,0,0-.37-.41c0-.07-.05-.15-.08-.21a.77.77,0,0,0-1.41-.25c-.87,1-1.94,2.72-.87,4.28a1.16,1.16,0,0,0,1.28.46,1.12,1.12,0,0,0,.66.28,7.54,7.54,0,0,0,0,.95c0,.33,0,.67.07,1a.84.84,0,0,0-.89-.29c-1.18.22-2.82.78-3.25,2.25a9,9,0,0,0-.8-1.61c-.22-.37-.45-.73-.68-1.09a2.79,2.79,0,0,0,3,0A1.18,1.18,0,0,0,43.08,12c-.93-1.28-2.46-1.18-3.67-.83a3.85,3.85,0,0,0-2.52-1.68c-.78-.2-1.22.24-1,1,.31,1.16,1,2.7,2.64,2.76A1,1,0,0,0,39,13.2c.13.09.26.19.41.28.27.5.57,1,.83,1.47a8.13,8.13,0,0,1,.8,1.82,5.6,5.6,0,0,1,.17,1.95,7.26,7.26,0,0,1-.46,1.92c-.06.2-.13.4-.19.6a4.29,4.29,0,0,0-2.8-2.15c-.62-.2-1.06.09-1.1.64a5.3,5.3,0,0,1-.33-.57,6.6,6.6,0,0,0,.76-1.63c.23-.72-.2-1.21-.95-1.07a7,7,0,0,0-1.2.33,2.36,2.36,0,0,0-.76-1,4.35,4.35,0,0,0-.52-2.58c-.36-.72-1-.76-1.43-.09a4.9,4.9,0,0,0-.82,2,.93.93,0,0,0-.1.84A3.85,3.85,0,0,0,33,18.4a2.22,2.22,0,0,0-.23.84,1.19,1.19,0,0,0,1.12,1.28,2.67,2.67,0,0,0,2.36-1.27,6.1,6.1,0,0,0,.41.7.22.22,0,0,1,0,.08c0,.1,0,.2.07.3a1.1,1.1,0,0,0-.61,0,8.27,8.27,0,0,0-1.15.31c0-.15-.18-.17-.19,0v.07a2.85,2.85,0,0,0-2,2.4,1.18,1.18,0,0,0,1.12,1.27A2.36,2.36,0,0,0,35.34,24,6.09,6.09,0,0,1,35.56,26a2.92,2.92,0,0,0-2,2.16l-.51.13a2.6,2.6,0,0,0,0-.4,4.83,4.83,0,0,0-.32-3,.77.77,0,0,0-1.41-.24,8.36,8.36,0,0,0-.58.76,4.68,4.68,0,0,0-.48-.18A2.6,2.6,0,0,0,30.43,24a2.35,2.35,0,0,0,.62.13A1.18,1.18,0,0,0,32.32,23c.09-1.89-1.71-2.79-3-3.19-.73-.23-1.21.2-1.08.95,0,.2.09.42.15.65a1.22,1.22,0,0,0-.25.29,6.77,6.77,0,0,0-.63,1.38l0,0a6.75,6.75,0,0,0-.8,1.14l-.15-.3a1.07,1.07,0,0,0,.22-.1c1.52-1.11,1.09-3.08.61-4.32A.77.77,0,0,0,26,19.33l-.07.08a4.44,4.44,0,0,0-.15-3.63.84.84,0,0,0-1.53-.26,6.64,6.64,0,0,0-1.14,1.74A4.38,4.38,0,0,0,20.86,16c-.78-.21-1.22.23-1,1a4.47,4.47,0,0,0,1.2,2.18,5.92,5.92,0,0,0-2.88.41c-.78.3-.9,1-.27,1.49,1.09.92,3,2,4.65.92a1.23,1.23,0,0,0,.32-1.76,2.87,2.87,0,0,0-.48-.5l.1,0a1.28,1.28,0,0,0,.39-.07,21.13,21.13,0,0,1,1.79,2.12,2.48,2.48,0,0,0,.42,1.74,1.18,1.18,0,0,0,.95.49c.13.27.25.55.36.83a3.09,3.09,0,0,0-.2.9,3.73,3.73,0,0,0-1.59.2.91.91,0,0,0-.11-.16c-.05-.1-.09-.2-.14-.29s.05,0,.08,0a1.19,1.19,0,0,0,.29-1.68,2.56,2.56,0,0,0-.86-.73,1.14,1.14,0,0,0-.15-.36A3.82,3.82,0,0,0,23,22c-.05-.05-.09,0-.05.05a3.58,3.58,0,0,1,.69.82,2,2,0,0,1,.1.21,4.55,4.55,0,0,0-3.32.21c-.47.19-.67.54-.58.9l-.5-.22s0-.09,0-.13a2.7,2.7,0,0,0-2.72-1.26.08.08,0,0,0-.08,0,4.48,4.48,0,0,0-.84.11c-.8.15-1,.74-.47,1.36.79.9,2.11,2,3.58,1.32a1.13,1.13,0,0,0,.66-1.08c.23.11.45.21.67.33a.6.6,0,0,1,.08.08,7.17,7.17,0,0,0,1.28.88,2.66,2.66,0,0,1,.26.31,4.07,4.07,0,0,1,.56,1.1l-.33.12a.77.77,0,0,0-.24,1.41,4.17,4.17,0,0,0,3.4,1.24l.21,0a1,1,0,0,0,.21.25h0c-.42,0-.74.26-.79.82A5.61,5.61,0,0,0,25,33.36a5.86,5.86,0,0,1-.71-.52,4.44,4.44,0,0,0-2.13-2.63.77.77,0,0,0-1.29.63q0,.27,0,.57l-.76-.07c-.07,0-.08.06,0,.07l.78.11a5.78,5.78,0,0,0,0,.58,2.39,2.39,0,0,0-1.26-.36c.55-1.78-.94-3.11-2.05-3.83a.77.77,0,0,0-1.29.63c-.1,1.18,0,2.88,1.26,3.7l-.16.09a23.89,23.89,0,0,0-2.07-1.22,1.13,1.13,0,0,0,.11-1.2c-.77-1.42-2.48-1.37-3.65-1.14-.79.16-1,.75-.46,1.36.78.9,2.1,2,3.58,1.33a1,1,0,0,0,.19-.15,23.52,23.52,0,0,1,2,1.28.6.6,0,0,0-.1.25A4.19,4.19,0,0,0,14.12,35a.77.77,0,0,0,.64,1.28c1.32.12,3.34,0,4-1.8,0,0,0-.07,0-.1a2.82,2.82,0,0,0,1.6.18,9.84,9.84,0,0,0,2.71.75l1.29.16a4.52,4.52,0,0,0-1,.76,1.18,1.18,0,0,0-.8-1,2.84,2.84,0,0,0-3,.94c-.5-.15-.92.14-1,.77a5.17,5.17,0,0,0,0,.57.72.72,0,0,0,0,.66,2.92,2.92,0,0,0,1.8,2.75,1.18,1.18,0,0,0,1-.11,1.09,1.09,0,0,0,.42.44c.19.11.41.23.64.34a1.88,1.88,0,0,1,.07.53,4.83,4.83,0,0,0-2.3,2s0,0,0,0l-.15-.1a2.49,2.49,0,0,0,1-1.22,1.2,1.2,0,0,0-.75-1.53,2.57,2.57,0,0,0-2,.17C17.71,40.22,16.15,40,15,40c-.81,0-1.11.58-.68,1.27a.05.05,0,0,1,0,0,4.25,4.25,0,0,0-2.31,1.43c-.54.61-.35,1.2.44,1.37,1.14.25,2.79.32,3.61-1l.35,0,.09,0-.13.19a.76.76,0,0,0,.63,1.28,5.37,5.37,0,0,0,2.59-.33c.14.1.28.2.42.32,0,.41.26.73.81.78l.33,0a9.64,9.64,0,0,0,1.35.71,12.87,12.87,0,0,0,1.48.5,1,1,0,0,0,.67.3h.07v0c-.11,1.22,0,3,1.41,3.78a5.35,5.35,0,0,1-1.37.49,7.64,7.64,0,0,1-2.73-.08c.15-1.51-1.15-2.65-2.15-3.29a.76.76,0,0,0-1.28.63,6.52,6.52,0,0,0,0,1.58,3.17,3.17,0,0,0-1,.51,1.12,1.12,0,0,0-.53-1.45c-1.46-.68-2.81.37-3.61,1.26-.54.6-.35,1.19.44,1.37a4.31,4.31,0,0,0,2.67-.15h0c-.5.64-.27,1.22.53,1.34a6.07,6.07,0,0,0,1.22,0,5.24,5.24,0,0,0-2,1.93.77.77,0,0,0,.63,1.29c1.33.11,3.34,0,4-1.81a1.19,1.19,0,0,0-.75-1.52,2.47,2.47,0,0,0-.73-.12,2.51,2.51,0,0,0,.66-.41,2,2,0,0,0,.21.1A1.18,1.18,0,0,0,22,51.75a.19.19,0,0,0,0-.08l.21,0a12.07,12.07,0,0,0,1.72.21,5.78,5.78,0,0,0-1.35,1.52.77.77,0,0,0,.63,1.29c1.21.1,3,0,3.77-1.41,0,.35.33.6.81.64,1.33.12,3.34,0,4-1.8a1.17,1.17,0,0,0-.2-1.11l.2.15c1.15.68,3,1.43,4.37.12a1.1,1.1,0,0,0,.28-.49,2.84,2.84,0,0,0,1.94-1.16l.13,0a.83.83,0,0,0,.77.49,5.74,5.74,0,0,0,2.26-.2,4.73,4.73,0,0,1,2.34,2.26.47.47,0,0,0,.15.19h0a7.66,7.66,0,0,0,3.23,4.15c2.29,1.3,2.72,9.74,0,12.78h.1c-1.91,1.52-6.22,5.08-7.7,7.42a40.54,40.54,0,0,0-3.14,3.46A19.53,19.53,0,0,0,33,86.62a4,4,0,0,0-1.22.42c-.4.21-.81.42-1.19.66a17.24,17.24,0,0,0-2.18,1.52A14.92,14.92,0,0,0,25.09,93l.28.11.27.11A14.88,14.88,0,0,1,29,89.74a17.34,17.34,0,0,1,2.15-1.35c.46-.23,1-.53,1.47-.7a16.52,16.52,0,0,0-.48,5.41l.46,0h.46a15.87,15.87,0,0,1,.76-5.54,11.4,11.4,0,0,1,1.94,2.25,18.12,18.12,0,0,0-.68,3.32l.54,0,.53,0a18.12,18.12,0,0,1,.42-1.88,9.76,9.76,0,0,1,.5,1.56l.24,0,.23,0a9.09,9.09,0,0,0-.7-2.41,20.25,20.25,0,0,1,2.69-5.33,17,17,0,0,1,1.84,4.32,37.2,37.2,0,0,1-1.06,4.22l.39.09.39.09c.28-.72.52-1.45.73-2.17A14.25,14.25,0,0,1,42,93.47h.72a15.54,15.54,0,0,0-.28-3.84c.32-1.18.63-2.34,1-3.48a11.56,11.56,0,0,1,3.08-4.87c.63-.33,1.18-.42,1.48,0s-.18,1.13-.33,2.46a28,28,0,0,0-2.74,4.53,13.9,13.9,0,0,0-1.61,6h.62a13.93,13.93,0,0,1,1.86-5.69,29.59,29.59,0,0,1,1.85-3,8.7,8.7,0,0,0,.32,1.6,20.85,20.85,0,0,0-1.19,2.58A12.72,12.72,0,0,0,46,94.12h.45a12.66,12.66,0,0,1,1-4.17c.17-.4.36-.78.56-1.16A30.35,30.35,0,0,0,48.76,95l.44,0,.43-.06a29.26,29.26,0,0,1-.37-7.53c.19-.58.42-1.22.66-1.8,1.5,2.53,2,5.52,3.74,8.14l.25-.1.26-.09a25.74,25.74,0,0,1-2-5.08,16.67,16.67,0,0,0-1.71-3.92,1.29,1.29,0,0,1,.57-.59c.75-.24,1.29.41,1.78,1.21A37.67,37.67,0,0,1,55,94.25l.34,0,.34,0c-.38-3.65-.78-7.44-2.5-11C53,82,53.09,81,54,81.38a20.63,20.63,0,0,1,2.09,1c.2.18.39.37.58.56-.23,3.26-.4,6.61.61,9.84l0,.17h.09c0,.1,0,.2.09.3L58,93.1A.57.57,0,0,1,58,93H58A25.51,25.51,0,0,1,59.8,87.2a20.57,20.57,0,0,1,1.66,4.68c-.12.2-.24.39-.37.58l.18.07.18.08a1.27,1.27,0,0,1,.13-.19c0,.17.07.35.11.53l.4,0,.41,0c-.06-.46-.14-.93-.23-1.4a18.82,18.82,0,0,1,1.33-1.65c.29.64.56,1.28.79,1.93a6.63,6.63,0,0,0-.74,1.32l.13,0,.13,0a6.79,6.79,0,0,1,.6-1,19.5,19.5,0,0,1,.58,2l.5-.06.5-.07a22.73,22.73,0,0,0-.72-2.87l.21-.22c.45-.45,1-.83,1.54-1.29.16,1.38.25,2.77.33,4.17h.93A49.65,49.65,0,0,0,67.9,87a19.76,19.76,0,0,0-.71-3,17,17,0,0,1,1.89,1A11.29,11.29,0,0,1,72,87.43a6.63,6.63,0,0,1,1,1.59,9.38,9.38,0,0,0-3.44,4.44l.14,0,.14,0a9.15,9.15,0,0,1,3.34-4.06,17.28,17.28,0,0,1,.83,4.41h.36l.36,0c-.11-2.27-.21-4.71-1.76-6.86a11.93,11.93,0,0,0-3-2.69,18.94,18.94,0,0,0-3.24-1.75,15.09,15.09,0,0,0-1.12-2.14,13.82,13.82,0,0,0-1.87-2.34,37.39,37.39,0,0,0-5.26-5.29c-2-1.64-4.89-2.13-4.89-4.26h-.05a21.1,21.1,0,0,0,.1-5.57c-.4-2.38-.4-4.76.42-5.73.58-.71,3-1.83,5-3.75a18.29,18.29,0,0,1,5.76-1.78c.39,0,.79-.08,1.18-.11h0a1.2,1.2,0,0,0-.3,1.68c1.1,1.53,3.08,1.11,4.32.64a.77.77,0,0,0,.25-1.41,6.34,6.34,0,0,0-1.21-.86l.44,0s0,0,0,.06c1.1,1.53,3.08,1.11,4.32.64a1.22,1.22,0,0,0,.32-.18h.29s0,.05,0,.07c.87,1.67,2.89,1.54,4.18,1.24A.77.77,0,0,0,79,52.14a6.53,6.53,0,0,0-.92-.89c.61-.29,1.19-.61,1.77-1a1.94,1.94,0,0,0,.2,0l0,0a6.79,6.79,0,0,0,1.54.06.88.88,0,0,0,.76-.4,1.16,1.16,0,0,0,.28.1c1.6.22,2.57-1.18,3.08-2.26.34-.74,0-1.25-.82-1.18-1.12.09-2.62.48-3.1,1.82a5,5,0,0,0-.37-.43,6,6,0,0,0-.16-1.88,1.1,1.1,0,0,0-.2-.45,4.93,4.93,0,0,0,.83-.74,1.1,1.1,0,0,0,.4,1.1c1.29,1,2.82.23,3.79-.47C86.73,45,86.66,44.4,85.92,44.06ZM24.78,21.37c-.24-.29-.49-.57-.75-.85a1.31,1.31,0,0,0,1-.19,2.41,2.41,0,0,0,.37-.33A4.72,4.72,0,0,0,24.78,21.37Zm-1.5,5.28-.08.06a4.37,4.37,0,0,0-.52.12,5.86,5.86,0,0,0-.52-1,2.62,2.62,0,0,0,2-.15,2.55,2.55,0,0,0,.13.29,1,1,0,0,1,.08.14A6.39,6.39,0,0,0,23.28,26.65Zm-2.21,7.6a1.74,1.74,0,0,0,.18-.11,1,1,0,0,0,.25-.28,2.46,2.46,0,0,0,.61.64C21.76,34.43,21.41,34.35,21.07,34.25Zm1,5.45a2.51,2.51,0,0,0-.24-1.42,2.73,2.73,0,0,0,.56-.3.44.44,0,0,0,.06.16,5.32,5.32,0,0,0,.09,1.31A5.19,5.19,0,0,0,22,39.7ZM36,88.92a11.25,11.25,0,0,0-1.93-2.24,18.58,18.58,0,0,1,2.85-5,20.75,20.75,0,0,1,1.73,2A21.7,21.7,0,0,0,36,88.92Zm3.37-6.17a18.64,18.64,0,0,0-1.65-2,39,39,0,0,1,5.77-5.48c1.19-.63,2.27-1.07,2.69-.82.83.47-2.39,3.2-4.22,5.44A23.48,23.48,0,0,0,39.41,82.75ZM44,82.1a13.83,13.83,0,0,0-1.75,3.8c-.16.54-.3,1.07-.42,1.6a18.06,18.06,0,0,0-1.56-3.42l.28-.36a24.6,24.6,0,0,1,3.92-3.84c1.08-.56,2.24-1,2.71-.8A10.48,10.48,0,0,0,44,82.1Zm13.56,9a27.5,27.5,0,0,1,.1-7.19,18.69,18.69,0,0,1,1.21,1.64c.1.15.19.31.28.46A26.07,26.07,0,0,0,57.56,91.11Zm4.59-.27a20.17,20.17,0,0,0-1.75-4.93c.13-.27.28-.53.42-.8a26.06,26.06,0,0,1,2.53,4.17A17.09,17.09,0,0,0,62.15,90.84ZM67,89c-.47.59-1.21,1.09-1.79,1.71l0,0c-.21-.61-.44-1.22-.7-1.83A11.09,11.09,0,0,1,65.6,88a6.89,6.89,0,0,1,1.18-.67C66.88,87.89,67,88.43,67,89ZM64,80.51l.3.41a13.56,13.56,0,0,1,1.26,2.34l0,.08.1,0a19.05,19.05,0,0,1,1.06,3.34,6.85,6.85,0,0,0-1.52.9,9.68,9.68,0,0,0-.85.71,27.43,27.43,0,0,0-2.66-4.57A29,29,0,0,1,64,80.51ZM56.51,75a21.83,21.83,0,0,1,4.05,2.16,22.41,22.41,0,0,1,2.53,2.29,30.42,30.42,0,0,0-2.26,3.28,30,30,0,0,0-2-2.35,37.44,37.44,0,0,0-3.31-4.07S53.6,74,56.51,75Zm-2,3.87a30.88,30.88,0,0,1,5.5,5.25c-.11.22-.21.44-.31.66a16.79,16.79,0,0,0-5.28-5.34A.65.65,0,0,1,54.55,78.85ZM75.94,48.6l.4.12-.41,0h0A.29.29,0,0,1,75.94,48.6Zm-4.41-4a5.69,5.69,0,0,1,2.07.48,1.14,1.14,0,0,0-.27.76,2.58,2.58,0,0,0,.19.86,3.6,3.6,0,0,0-.68,1.52H72.7a7.81,7.81,0,0,0-2.4.32,4.66,4.66,0,0,0-.24-3.16,1,1,0,0,0-.38-.51l.17-.16A9.48,9.48,0,0,1,71.53,44.59Zm.41-4.16v0l.15-.22c.1-.13.21-.23.32-.35a1.16,1.16,0,0,0,.32.69c.09.08.18.13.27.2A4.36,4.36,0,0,0,71.94,40.43Zm2.06.79-.1-.06.14,0Zm1.2-3,.2-.08c.08,0,.14-.1.22-.14a1,1,0,0,0,.18.27,1.56,1.56,0,0,0,.27.2A5.11,5.11,0,0,0,75.2,38.18Zm6-5.12.2.13a2.27,2.27,0,0,0-.14.67,1.26,1.26,0,0,0,.08.43,2.43,2.43,0,0,0-1.71.71,1.18,1.18,0,0,0-.28,1.23,5,5,0,0,0-1.15-.36l.43-.4Zm-7.41,3.16a1.19,1.19,0,0,0,1.7,0,2.92,2.92,0,0,0,.4-3.24,5.07,5.07,0,0,0,1-.59,2.58,2.58,0,0,0,.68,2.3,1.16,1.16,0,0,0,1.11.31l-.29.25-.67.58a2.5,2.5,0,0,0-2,.7,1.16,1.16,0,0,0-.32,1c-.09,0-.18.11-.27.15-.6.27-1.28.4-1.93.75a4.77,4.77,0,0,0-1.18.86l.18-.67s.11,0,.15-.1A2.67,2.67,0,0,0,73,35.87a.94.94,0,0,0,0-.16l.32,0A2.8,2.8,0,0,0,73.78,36.22ZM73,31.51a1.19,1.19,0,0,0,.28,1.11,2.64,2.64,0,0,0-1.46.21C72.22,32.4,72.62,32,73,31.51Zm-4.2,4.4c.68-.65,1.35-1.32,2-2a1,1,0,0,0,0,.35c-.67,1.14-1.35,3-.07,4.27a1.18,1.18,0,0,0,1.18.29c-.12.35-.23.71-.36,1.06a2.33,2.33,0,0,0-.17.26,1,1,0,0,0-.47-.57,6.42,6.42,0,0,0-.83-.43,5.2,5.2,0,0,0-.86-2.69,1,1,0,0,0-.5-.44ZM67.09,38a4,4,0,0,0-.15,1.13,2.78,2.78,0,0,0-.4.3,1.73,1.73,0,0,0-.19.28A5.62,5.62,0,0,1,67.09,38Zm-.56,3.13a2.77,2.77,0,0,0,2.85.57,1.18,1.18,0,0,0,.3,1.14h0l-.36.31-.07,0a4.28,4.28,0,0,0-2.93.06c0-.21,0-.43,0-.62,0-.73-.11-1.43-.08-2.09A1.2,1.2,0,0,0,66.53,41.11Zm1.76-9.35a6.87,6.87,0,0,0-2.79-.4,2.61,2.61,0,0,0-.06-.27,2.52,2.52,0,0,0-.29-.62l1-1.28a1.18,1.18,0,0,0,.54,1.26,2.44,2.44,0,0,0,1.63.32,2.67,2.67,0,0,0,.07,1.05Zm1.92-4.69a5.75,5.75,0,0,0-.18.69,4.07,4.07,0,0,0-2.75.15c.48-.5,1-1,1.52-1.47a1.9,1.9,0,0,0,.21.19,2.46,2.46,0,0,0,1.23.35Zm0-8.82c-.32,1.25-.41,2.93,1,3.83a1.18,1.18,0,0,0,1.24,0c-.55.58-1.11,1.15-1.69,1.7a2.58,2.58,0,0,0-2.1,1.2,1.17,1.17,0,0,0-.16.81l-1.12,1c.07-.29.15-.59.23-.89a5.12,5.12,0,0,0,.14-.68,1.14,1.14,0,0,0,.52-.45,2.85,2.85,0,0,0-.29-3.16l0-.07.05,0a14.51,14.51,0,0,0,2-3.23ZM67.34,20.8a8.48,8.48,0,0,0,.56-.74h0a1.39,1.39,0,0,1-.09,1.05l-.1.15C67.59,21.09,67.46,20.94,67.34,20.8ZM67.9,18a3.2,3.2,0,0,1,.1-.42,1.16,1.16,0,0,0,.21-.58s0,0,0,0a3.52,3.52,0,0,1,1.08-1.39A2.48,2.48,0,0,0,68.65,17a1.2,1.2,0,0,0,1.11,1.27,24.1,24.1,0,0,1-1.47,2.36,2.09,2.09,0,0,0,0-.25,5,5,0,0,0-.21-.83v0a.78.78,0,0,0-.09-.37A3.36,3.36,0,0,1,67.9,18Zm-2.54-.25a1.19,1.19,0,0,0,0-.39,2.48,2.48,0,0,0,1.62.76,1.09,1.09,0,0,0,.75-.22.14.14,0,0,1,0,.07,3.53,3.53,0,0,0,0,.92,1,1,0,0,0-.36-.09,6.09,6.09,0,0,0-2.06.12A6.21,6.21,0,0,0,65.36,17.72Zm.06,4.39a2.9,2.9,0,0,0,1.16,3,1.1,1.1,0,0,0,.55.16c-.15.64-.45,1.31-.56,2.05a.43.43,0,0,0,0,.12l-.2.19a.73.73,0,0,0-.21-1.13,5.58,5.58,0,0,0-1.38-2.18.77.77,0,0,0-1.4.34,6.11,6.11,0,0,0-.3,2.06,2.66,2.66,0,0,0-.72.48,9.38,9.38,0,0,1-.6-1.55c0-.09-.13-.06-.11,0a9.94,9.94,0,0,0,.59,1.66,2.68,2.68,0,0,0-.44.67,6.36,6.36,0,0,0-.5-.53,1.88,1.88,0,0,0,0-.41l0,0a.77.77,0,0,0-.33-1.39l-.09,0a2.49,2.49,0,0,0,.51-.36,1.38,1.38,0,0,0,.42-.83,2.42,2.42,0,0,0-.1-.87,4.45,4.45,0,0,1,.14-2.5,1.31,1.31,0,0,0,.53-.29,1.09,1.09,0,0,0,.77.24,1.17,1.17,0,0,0,.79,1A2.41,2.41,0,0,0,65.42,22.11ZM63,33a1.24,1.24,0,0,0,.36,1.49,3.54,3.54,0,0,0,.76.41,1.07,1.07,0,0,0-.44,0c-1.31.24-3.21.91-3.36,2.79a1.18,1.18,0,0,0,1.12,1.27,2.61,2.61,0,0,0,2.33-1.22,2.46,2.46,0,0,0,.45,1,1.07,1.07,0,0,0-.54,0c-1.19.21-2.85.79-3.26,2.31a39.84,39.84,0,0,0-.68-5.39,1.15,1.15,0,0,0,.46-.25,2.31,2.31,0,0,0,.66-1.22,13.71,13.71,0,0,0,3.29-2.55c.26-.28.51-.56.74-.85a2.26,2.26,0,0,1,.17.43,1.7,1.7,0,0,1,0,.22A2.92,2.92,0,0,0,63,33Zm1.39,2v0l-.13-.06Zm-2,8.45a4.61,4.61,0,0,0-2,1,20.94,20.94,0,0,0,.09-2.31,1.17,1.17,0,0,0,1,.67,2.5,2.5,0,0,0,.68-.06A2.44,2.44,0,0,0,62.39,43.41Zm.52-13.62a2.35,2.35,0,0,0,1.19-.1,3,3,0,0,1,.25.26c-.29.33-.59.66-.9,1l-.31.28A3.38,3.38,0,0,0,62.91,29.79Zm1.5-.22a3.72,3.72,0,0,0,.58-.35l-.43.49ZM60.66,14.08a1.12,1.12,0,0,0,.88.13,2.37,2.37,0,0,0,.58-.26,2.25,2.25,0,0,0,.18.86,1.13,1.13,0,0,0,1.54.55,2.84,2.84,0,0,0,.38-.27,5.67,5.67,0,0,0,.71,1.77,1,1,0,0,0-.8.11,5.2,5.2,0,0,0-1.59,1.29,3.54,3.54,0,0,0-.35-.51,7.68,7.68,0,0,0,.72-.62.77.77,0,0,0-.34-1.39A5.28,5.28,0,0,0,60,15.5C60.24,15,60.45,14.56,60.66,14.08Zm-4.08,7.39a19.09,19.09,0,0,1,1.86-3.15c0-.05.07-.12.11-.17s.08.1.14.13a2.67,2.67,0,0,0,.78.29,3.63,3.63,0,0,0,.52,1.5,3,3,0,0,0-3.22,1.15,1.18,1.18,0,0,0,.4,1.65c1.62,1,3.26-.21,4.21-1.15a1.83,1.83,0,0,0,.13-.16,4.55,4.55,0,0,0-.08,2.11,2.08,2.08,0,0,1,.06.73,1,1,0,0,1-.32.58,2.15,2.15,0,0,1-.57.34,6.15,6.15,0,0,0-1.38-1.21.77.77,0,0,0-1.29.62,6.25,6.25,0,0,0,0,.88,2.46,2.46,0,0,0-.75.5A4.11,4.11,0,0,0,57,24.88c-.17-.65-.42-1.21-.53-1.77A2.87,2.87,0,0,1,56.58,21.47Zm-.72,0a3.43,3.43,0,0,0-.2,1.15c-.14-.16-.28-.32-.42-.46a.87.87,0,0,0-.77-.31c.06-.14.1-.28.15-.41s0-.07,0-.1l.1.08A1.17,1.17,0,0,0,55.86,21.43Zm-.71-8a4,4,0,0,0,.12,2.11,3,3,0,0,0-.79.9.82.82,0,0,0-.63.64,4.62,4.62,0,0,0,0,3.22h-.14l-.64.15a6,6,0,0,0,0-1,5.5,5.5,0,0,0-.11-.69,1.18,1.18,0,0,0,.7-1.09.51.51,0,0,0,0-.13,7.19,7.19,0,0,0,.27-.71.8.8,0,0,0-.27-1,7.77,7.77,0,0,0,1.08-2.57A1.18,1.18,0,0,0,55.15,13.45Zm-.93-1.56a.13.13,0,0,1,0,.06l-.07,0Zm.27,1.46a7.39,7.39,0,0,1-1.17,2.39,1.18,1.18,0,0,0-.42,0l-.19,0-.06,0A4.11,4.11,0,0,0,54.49,13.35Zm-3-3.72a1.1,1.1,0,0,0,.9-.15,2.41,2.41,0,0,0-.33.5,6.36,6.36,0,0,0-.58-.3Zm-.81,3.2a2.27,2.27,0,0,0,.35.26,2.48,2.48,0,0,0-.74,1.57h-.07C50.4,14,50.55,13.44,50.71,12.83Zm-.63,8.64c0-.52.05-1,0-1.57a2.83,2.83,0,0,0,0-.29,1.21,1.21,0,0,0,.56.19,2.48,2.48,0,0,0,1.9-.73c0,.14,0,.28,0,.41a6.29,6.29,0,0,1-.06,1.15,2.94,2.94,0,0,0-2.23,2.49,1.15,1.15,0,0,0,.33.9,2.92,2.92,0,0,0-.67.73A21.38,21.38,0,0,1,50,22.12ZM50,17.27l0,.06a1.34,1.34,0,0,1,0-.2Zm-4.2-4.82c.24,1.31.91,3.2,2.78,3.35a1.18,1.18,0,0,0,.8-.25s0,.09,0,.14.05.17.08.26a5.15,5.15,0,0,0-.09.88c0,.67,0,1.33.07,2,0,.32,0,.65,0,1,0,.56-.06,1.12-.12,1.67a5,5,0,0,0-2.48-1.55,1.07,1.07,0,0,0-.58,0,1.8,1.8,0,0,1,0-.22c0-.23,0-.46,0-.68a2.47,2.47,0,0,0,1.5.65A1.19,1.19,0,0,0,49.1,18.5c.09-1.88-1.72-2.78-3-3.18a.8.8,0,0,0-.21-.05c-.09-.61-.18-1.22-.21-1.84,0-.32,0-.64,0-1ZM46.5,36a1.13,1.13,0,0,0,.32-.06c0,.11-.09.21-.12.32Zm0,2.7A2.76,2.76,0,0,0,44,37.81a2.4,2.4,0,0,0,.79-.35,1.16,1.16,0,0,0,.41-.55c.25.33.51.65.79,1C46,37.87,46.28,37.91,46.51,38.72ZM47,23.49a7,7,0,0,0-1.19-.41,1.13,1.13,0,0,0-.55,0c0-.12.08-.24.13-.37.16-.4.38-.81.53-1.27A4.48,4.48,0,0,0,47,23.49Zm-1.53-8.25v0a.15.15,0,0,0,0,.07h0A.14.14,0,0,0,45.48,15.24Zm-3.82,3.51a7.31,7.31,0,0,0,0-.81,1.09,1.09,0,0,0,.67.28,3,3,0,0,0,2.75-1.9,5.67,5.67,0,0,0,.72,2,9.32,9.32,0,0,1,0,1.3c0,.25-.06.5-.12.74a4.33,4.33,0,0,1-.21.7,14,14,0,0,1-.64,1.39,2.81,2.81,0,0,0-.31,1.72c0,.14.07.28.11.41a2.76,2.76,0,0,0-1.85,2.33A1.18,1.18,0,0,0,43.36,28a2.72,2.72,0,0,0,.09,2.83,1.18,1.18,0,0,0,1.67.29c1.26-.91,1.18-2.4.85-3.6a6.87,6.87,0,0,1,.21.87A5.55,5.55,0,0,1,46,31.24a4.5,4.5,0,0,1-1.5,2.09,16.26,16.26,0,0,1-1.65-3c-.45-1.11-.76-2-1-2.63a1.2,1.2,0,0,0,.43-.85,2.6,2.6,0,0,0-1-2.13,7.91,7.91,0,0,1-.39-2C40.87,21.47,41.64,20.18,41.66,18.75ZM41,33.22a2.47,2.47,0,0,0,1.8-.42l0,0c.32.71.68,1.42,1.08,2.12a4.48,4.48,0,0,0-2.88.19A3.14,3.14,0,0,0,41,33.22Zm-.69-10.1a7.21,7.21,0,0,0,.13,1,5.58,5.58,0,0,0-.92-.4c0-.12,0-.24,0-.36h0A1.17,1.17,0,0,0,40.3,23.12Zm-3.24-1.73a2.91,2.91,0,0,0,2.09,1.94v.08a1.94,1.94,0,0,0,0,.24c-.58-.13-1,.15-1,.69L38,24a.77.77,0,0,0-1.43,0,6.81,6.81,0,0,0-.61,1.3,9.23,9.23,0,0,0-.33-1.58A5.08,5.08,0,0,0,37.06,21.39Zm-1,9.11a1.2,1.2,0,0,0,.25-1.33,3.64,3.64,0,0,0,.53-.51,1.2,1.2,0,0,0,1.31-.27,2.49,2.49,0,0,0,.7-1.88A2.63,2.63,0,0,0,41,28a.39.39,0,0,0,.15,0c.18.67.4,1.44.68,2.27a4.76,4.76,0,0,0-3.05.29.81.81,0,0,0-.61.73,3,3,0,0,0-2.33,2.52,1.32,1.32,0,0,0,.07.49.77.77,0,0,0-.58.2l0-.32a1.14,1.14,0,0,0,.11-.4,3.89,3.89,0,0,0,0-.49A4.16,4.16,0,0,0,35.26,31,2.41,2.41,0,0,0,36.06,30.5Zm-8.21-2.59a1.07,1.07,0,0,0,.44-.19,2.36,2.36,0,0,0,.84-1.07A4.17,4.17,0,0,0,30.5,29a1.17,1.17,0,0,0,.74.44.79.79,0,0,0,.46.93l.21.12c-.44.05-.7.43-.59,1a4.63,4.63,0,0,0,1.47,2.86,1.18,1.18,0,0,0,1,.44c.11,0,.21.05.32.06a1.12,1.12,0,0,0,.45,0l0,.53a3.06,3.06,0,0,0-.32,3.55,1.09,1.09,0,0,0,.6.43c0,.12,0,.22,0,.33h0l-.89-1h0c-.2-.24-.4-.47-.59-.72h0a19.69,19.69,0,0,1-1.27-1.74,1.17,1.17,0,0,0,.24-1.62,2.37,2.37,0,0,0-1.19-.87v-.08a4.3,4.3,0,0,0-.39-2.36,0,0,0,0,0,0,0l0-.05a.13.13,0,0,0,0-.06L30.67,31s0,0,0,0a2.67,2.67,0,0,0-.28-.41h0l-.2-.22a1.18,1.18,0,0,0-.1-1.16,2.55,2.55,0,0,0-2.14-1.05c0-.08-.07-.15-.1-.22h0ZM29.57,31h0a6,6,0,0,1,.41.58.33.33,0,0,0,.16.13h0a3.56,3.56,0,0,1,.12,1.41,1.36,1.36,0,0,0,0,.38,5.87,5.87,0,0,0-2.23.43,2.91,2.91,0,0,0-1-2.92A2.72,2.72,0,0,0,29.57,31Zm-5.88,3.71a1.18,1.18,0,0,0,.55-.65,2.4,2.4,0,0,0,.11-.86,4.26,4.26,0,0,0,.68.5l.28.15a2.42,2.42,0,0,0,1.23,1,1.18,1.18,0,0,0,.21,0,.18.18,0,0,0-.05.07l0,0C25.67,34.83,24.67,34.79,23.69,34.71Zm2.64,4.23a1.32,1.32,0,0,0-.07.3q0,.24,0,.51s0,0-.05-.08a3.37,3.37,0,0,0-.44-.33,3.26,3.26,0,0,0-.51-.93,3.34,3.34,0,0,0,.71-.26A2.43,2.43,0,0,0,26.33,38.94Zm-2.27,6.75a2.53,2.53,0,0,0-.14.29,11.7,11.7,0,0,1-1.15-.35c-.17-.06-.32-.14-.48-.21a3.52,3.52,0,0,0,1.76-.67l.51.26A6.91,6.91,0,0,0,24.06,45.69Zm7,4.94c-1.74-.57-3.06.84-3.79,1.94a1.18,1.18,0,0,0-.8-1.18h0c.26-.12.52-.25.76-.39a1.15,1.15,0,0,0,.73-.46c.6-.4,1.17-.83,1.72-1.21a2.34,2.34,0,0,1,.27-.15,2.41,2.41,0,0,0,1.26,1l.17,0a.66.66,0,0,0,.06.61A1,1,0,0,0,31,50.63Zm-3.93-3.46c.5,0,1,.06,1.51.06l.74,0a5.18,5.18,0,0,0,.2,1.23c-.12.07-.25.13-.36.21-.35.25-.66.51-1,.75A3.22,3.22,0,0,0,27.08,47.17Zm12,1.11-.41,0a1.14,1.14,0,0,0-.73-.75,3.09,3.09,0,0,0-3.34,1.33H34.4A13,13,0,0,0,33,48.27,2.27,2.27,0,0,1,32.7,48a3.24,3.24,0,0,0-.37-.83,1.18,1.18,0,0,0,1.3-.27c1.31-1.36.54-3.23-.15-4.36a.77.77,0,0,0-1.43,0,4.13,4.13,0,0,0-.6,3.66,5.43,5.43,0,0,0-.82-.61.76.76,0,0,0-1.28.63s0,.08,0,.12l-.34,0L28.16,46a2.54,2.54,0,0,0,.51-.83,1.2,1.2,0,0,0-.75-1.53,2.84,2.84,0,0,0-3,1l-.51-.23a2.61,2.61,0,0,0,.43-.73,1.2,1.2,0,0,0-.75-1.53A2.51,2.51,0,0,0,22.9,42c0-.08,0-.17,0-.26a3,3,0,0,0,3.33-.39,1.45,1.45,0,0,0,.17-.26,2.68,2.68,0,0,0,1.7,2.11,1.2,1.2,0,0,0,1.53-.75,3.05,3.05,0,0,0-1.26-3.28,2.85,2.85,0,0,0,.44-2.92A10.62,10.62,0,0,1,32,38.12a5.54,5.54,0,0,0-2.41.42A.77.77,0,0,0,29.33,40a4.32,4.32,0,0,0,3.26,1.27.92.92,0,0,0,.31.64,4.15,4.15,0,0,0,3.32,1.5c-.09,1.32.12,3.18,1.81,3.78a1.19,1.19,0,0,0,1.53-.74,2.9,2.9,0,0,0,.11-.86c.43.42.85.85,1.25,1.28A4.13,4.13,0,0,0,39,48.28Zm1.79-5.87a5.17,5.17,0,0,0,.39,2.7c-1.34-1.21-2.71-2.26-3.55-2.88a1.23,1.23,0,0,0-.14-.81,2.51,2.51,0,0,0-1.47-1.11,6,6,0,0,1-.22-1.07s.07,0,.11-.05c1.49-1.09,1.11-3,.64-4.24A.92.92,0,0,0,37,35a2.47,2.47,0,0,0,1.14-.21A2.45,2.45,0,0,0,38.74,36a1.16,1.16,0,0,0,1.49.14,1.14,1.14,0,0,0,.31.41,4.64,4.64,0,0,0,2.92,1.3,8.24,8.24,0,0,0-1.15.34.77.77,0,0,0-.24,1.41c1,.88,2.71,1.94,4.27.88a1.2,1.2,0,0,0,.4-.52c0,.41.07.89.09,1.48a7.07,7.07,0,0,0,.28,1.87A7.83,7.83,0,0,0,45,42.54c-.75-.17-1.21.29-1,1,0,0,0,.05,0,.07a5.4,5.4,0,0,0-1.86-1.88A.77.77,0,0,0,40.82,42.41ZM49.7,54.26s-4-1.15-4.71-4.18a9.39,9.39,0,0,0-2.58-3.8l.21.1a1.18,1.18,0,0,0,1.52-.75,2.52,2.52,0,0,0,.11-1c.5,1.41,1.51,2.93,3.49,2.8a1.22,1.22,0,0,0,1-1c.47.56.92,1,1.24,1.39C51.06,49.1,49.7,54.26,49.7,54.26ZM48.61,42a3.22,3.22,0,0,0,2.13,1.6c0,.25.06.51.1.79C51.2,46.63,49.4,44.23,48.61,42Zm2.2-2.5a7.68,7.68,0,0,0-2-.74A2.62,2.62,0,0,0,49.4,38a3,3,0,0,0,1.4.22.83.83,0,0,0,.15,0C50.9,38.64,50.85,39.05,50.81,39.46ZM48.18,33.4a6.16,6.16,0,0,0-.43-1.9.88.88,0,0,0-.59-.6,6.39,6.39,0,0,0,0-2.65A8.49,8.49,0,0,0,46.74,27a2.42,2.42,0,0,0,1.08.26A1.18,1.18,0,0,0,49,26.07a2.52,2.52,0,0,0-1-2,2.62,2.62,0,0,0,.57.12,1.14,1.14,0,0,0,.68-.18c0,1.25.06,2.62.19,3.94a6.75,6.75,0,0,0-1.05-.42c-.72-.23-1.21.2-1.07.94.24,1.31.9,3.22,2.78,3.37h.09c.59,2.06.86,2.23.92,3.09A5.88,5.88,0,0,0,48.18,33.4Zm4.38-4.22a2.46,2.46,0,0,0-.72,1.58,1.1,1.1,0,0,0,.13.6l-.09.83c-.18-.47-.35-.92-.52-1.33,0-.05,0-.08,0-.13a2.59,2.59,0,0,0-1-2.15c0-.21-.15-.75-.25-1.51a1.22,1.22,0,0,0,.62.19c1.57,0,2.37-1.32,2.78-2.5a2.51,2.51,0,0,0,1.18,2,1.16,1.16,0,0,0,1.37-.1c-.18.43-.58.62-1.16.78-.29.1-.61.18-1,.33a3,3,0,0,0-.92.67A3.48,3.48,0,0,0,52.56,29.18Zm.65,12.61c0-.33-.08-.66-.1-1a5.26,5.26,0,0,1,.66-1.59,6.47,6.47,0,0,1,.88-1.09,3.22,3.22,0,0,0,1.46-1,3.3,3.3,0,0,1,.25,1.15.72.72,0,0,0-.54.85A3.69,3.69,0,0,0,53.21,41.79Zm.5,10.38A13.93,13.93,0,0,0,54,46.8c-.2-1.1-.46-2.43-.66-3.75a1.23,1.23,0,0,0,.88.56,3.4,3.4,0,0,0,.79,0,1.06,1.06,0,0,0,0,.24c.24,1.31.91,3.22,2.79,3.36A1.09,1.09,0,0,0,58.5,47c-.11.65-.38,2.68.37,3.23C58.87,50.24,53.71,56.22,53.71,52.17ZM59,45.09A4,4,0,0,0,56.38,43a4,4,0,0,0,.68-.75,6.08,6.08,0,0,0,.47.66c.49.62,1.11,1.12,1.56,1.67C59.06,44.72,59,44.9,59,45.09Zm.24-1.28h0c-.45-.44-.93-.82-1.31-1.27l-.14-.19a2.47,2.47,0,0,0,.86.24,1.16,1.16,0,0,0,.77-.24C59.34,42.83,59.29,43.32,59.21,43.81Zm-2.3-5.53-.25-.06a3.42,3.42,0,0,0-.27-1.1,2.68,2.68,0,0,0,2.23,1.64,1.13,1.13,0,0,0,.85-.28c0,.5,0,1,0,1.53A4.76,4.76,0,0,0,56.91,38.28ZM59,35.57a1.8,1.8,0,0,0,.22.06l0,.19Zm.5-6.31a2.5,2.5,0,0,0-.68,1.53,1.06,1.06,0,0,0,.16.63l0,0a4,4,0,0,0-.82,2.76l-.77.38-.08,0c0-.06,0-.11,0-.17.17-.75-.29-1.21-1-1a7.89,7.89,0,0,0-1,.29c0-.05-.08-.06-.09,0v0a4.58,4.58,0,0,0-2.26,1.59l0-.11v0c0-.31.07-.61.1-.92.09-.74.11-1.49.15-2.21a2.63,2.63,0,0,0,2.13-1.17,2.49,2.49,0,0,0,1.84,1,1.18,1.18,0,0,0,1.27-1.12,3,3,0,0,0-2.12-2.85,2.07,2.07,0,0,0,.4-.38,1.21,1.21,0,0,0,.53.69,2.48,2.48,0,0,0,2,.24,2.25,2.25,0,0,0,.41.21C59.56,28.87,59.52,29.06,59.49,29.26Zm.36,17.65a1.14,1.14,0,0,0,.85.44c1.83.09,2.73-1.61,3.15-2.87a1.18,1.18,0,0,0,1.05-.56,3,3,0,0,0-.5-3.46c.1-.24.18-.46.25-.68a1,1,0,0,0,0-.62,1.15,1.15,0,0,0,1,.14,5.06,5.06,0,0,0-.17.67,14.3,14.3,0,0,0-.07,2.68,3.44,3.44,0,0,1-.49,2.18s0,.05,0,.08h0a16.15,16.15,0,0,0-4.27,3.93S59.32,49.49,59.85,46.91Zm7,3.69h-.7a4.08,4.08,0,0,0,0-3.71.77.77,0,0,0-1.41-.25c-.85,1-1.86,2.59-1,4.1a21.2,21.2,0,0,0-3.32.74h0a5.86,5.86,0,0,0,.42-.78c1.39-3,2.7-4.22,4.67-4.93l.05,0A2.57,2.57,0,0,0,68,46a3,3,0,0,0-.27,3.43,1.11,1.11,0,0,0,.27.26A7.36,7.36,0,0,0,66.89,50.6Zm10.8.29-.09,0a2.72,2.72,0,0,0-2.74-.28,1.19,1.19,0,0,0-.6.72A1.14,1.14,0,0,0,74,51c-1-.88-2.71-2-4.27-.9a1.14,1.14,0,0,0-.49.75c-.4-.06-.81-.12-1.21-.15h-.27a7.43,7.43,0,0,1,.92-.76,1.11,1.11,0,0,0,.79-.2,2.53,2.53,0,0,0,.55-.53,7.11,7.11,0,0,1,2.73-.58h.1a2.4,2.4,0,0,0,.25,1.13,1.18,1.18,0,0,0,1.61.53,2.48,2.48,0,0,0,1.19-1.32h.06a4.36,4.36,0,0,0,1.86-.23,2.44,2.44,0,0,0,.55.77,1.83,1.83,0,0,0,.08.25,1.11,1.11,0,0,0,.6.55C78.57,50.48,78.13,50.7,77.69,50.89Zm-.34-2.26a.71.71,0,0,0,.24-.6,1,1,0,0,0,0,.38.52.52,0,0,0,.06.13A2,2,0,0,1,77.35,48.63Zm1.41-1.79a2.14,2.14,0,0,0-.35.06,1.18,1.18,0,0,0-.83,1,1.48,1.48,0,0,0,0-.19,9.37,9.37,0,0,0-.36-1.05,2.38,2.38,0,0,0,.41-.23l.1-.06a1.3,1.3,0,0,0,.55,0,3.05,3.05,0,0,0,.48-.23,3.71,3.71,0,0,0,.54.08A5.39,5.39,0,0,0,78.76,46.84ZM77.43,28.51a1.12,1.12,0,0,0,1.15,1.16c1.61-.06,2.33-1.61,2.64-2.76.21-.79-.23-1.23-1-1C79.05,26.19,77.5,26.9,77.43,28.51Z" transform="translate(-11.05 -5)"/></svg>