<svg id="Layer_1" data-name="Layer 1" xmlns="http://www.w3.org/2000/svg" viewBox="0 0 61 61"><path d="M61.92,15.76a1.52,1.52,0,0,0-1.3-.27l-11.51,3a1.5,1.5,0,0,0,.76,2.91l9.63-2.51v34.9L38,59.39l-19.6-5.88a1.53,1.53,0,0,0-1,0L4.5,58.73V24l9.06-3.62a1.5,1.5,0,0,0-1.12-2.79l-10,4a1.5,1.5,0,0,0-.94,1.39v38a1.52,1.52,0,0,0,.66,1.25,1.48,1.48,0,0,0,.84.25,1.54,1.54,0,0,0,.56-.1l14.51-5.81,19.5,5.85a1.49,1.49,0,0,0,.81,0l23-6a1.51,1.51,0,0,0,1.12-1.46v-38A1.51,1.51,0,0,0,61.92,15.76Z" transform="translate(-1.5 -1.44)"/><path d="M28.52,40.43c1.32,2,2.21,3.32,2.25,3.37a1.5,1.5,0,0,0,1.23.64h0a1.48,1.48,0,0,0,1.23-.64s.9-1.31,2.24-3.37c2.77-4.27,7.74-12.37,9.91-18.55a16.13,16.13,0,0,0,1.12-5.26C46.5,8.25,40,1.44,32,1.44S17.5,8.25,17.5,16.62a6.56,6.56,0,0,0,0,.76C18,23.06,23.76,33.05,28.52,40.43ZM32,4.44c6.34,0,11.5,5.47,11.5,12.18a14.05,14.05,0,0,1-.94,4.27C40.48,26.77,35.65,34.64,33,38.8l-1,1.46c-.29-.43-.61-.92-1-1.46C24.67,28.92,20.84,21,20.52,17.12c0-.18,0-.34,0-.5C20.5,9.91,25.66,4.44,32,4.44Z" transform="translate(-1.5 -1.44)"/><path d="M32,22.44a6.5,6.5,0,1,0-6.5-6.5A6.51,6.51,0,0,0,32,22.44Zm0-10a3.5,3.5,0,1,1-3.5,3.5A3.5,3.5,0,0,1,32,12.44Z" transform="translate(-1.5 -1.44)"/></svg>