<svg id="Layer_1" data-name="Layer 1" xmlns="http://www.w3.org/2000/svg" viewBox="0 0 98.22 98.22"><circle cx="49.11" cy="49.11" r="46.07" style="fill:#c1f1fd"/><path d="M99.15,50A49.11,49.11,0,1,0,50,99.15,49.16,49.16,0,0,0,99.15,50ZM92.6,50A42.57,42.57,0,1,1,50,7.47,42.52,42.52,0,0,1,92.6,50ZM64.33,74a3.24,3.24,0,0,0-1.16-2.35L39.6,50,63.17,28.45a3.27,3.27,0,1,0-4.4-4.84l-26.19,24a3.26,3.26,0,0,0-.22,4.62l.22.22,26.19,24A3.28,3.28,0,0,0,64.33,74Z" transform="translate(-0.93 -0.93)" style="fill:#278196"/></svg>