<svg xmlns="http://www.w3.org/2000/svg" viewBox="0 0 232.26 94.42"><defs><style>.rrr_eqt_cls-1{fill:#c66f84;}.rrr_eqt_cls-2{font-size:81px;fill:#999;font-family:CenturyGothic, Century Gothic;}.rrr_eqt_cls-3{fill:#595a5a;}.rrr_eqt_cls-4{fill:#dd9bae;stroke:#fff;stroke-miterlimit:10;stroke-width:0.5px;}</style></defs><g id="Layer_2" data-name="Layer 2"><g id="Layer_1-2" data-name="Layer 1"><path class="rrr_eqt_cls-1" d="M147.58,12.27h5.31v1h-4.25v3.32h4.25v1h-4.25v5.21h-1.06Z" transform="translate(-8.84)"/><path class="rrr_eqt_cls-1" d="M154.74,12.27h1.06v9.58h4.08v1h-5.14Z" transform="translate(-8.84)"/><path class="rrr_eqt_cls-1" d="M166.62,12a5.51,5.51,0,0,1,4,1.61,5.35,5.35,0,0,1,1.62,4,5.59,5.59,0,0,1-11.18.05,5.67,5.67,0,0,1,.74-2.83A5.47,5.47,0,0,1,166.62,12Zm0,1a4.37,4.37,0,0,0-2.23.62,4.5,4.5,0,0,0-1.65,1.65,4.63,4.63,0,0,0-.59,2.32,4.46,4.46,0,0,0,4.47,4.49,4.53,4.53,0,0,0,2.29-.6,4.28,4.28,0,0,0,1.64-1.63,4.67,4.67,0,0,0,.59-2.31,4.51,4.51,0,0,0-.59-2.29,4.41,4.41,0,0,0-1.66-1.63A4.48,4.48,0,0,0,166.66,13Z" transform="translate(-8.84)"/><path class="rrr_eqt_cls-1" d="M179.45,12a5.54,5.54,0,0,1,4,1.61,5.35,5.35,0,0,1,1.62,4,5.61,5.61,0,0,1-9.55,4,5.29,5.29,0,0,1-1.63-3.91,5.67,5.67,0,0,1,.74-2.83,5.38,5.38,0,0,1,2-2A5.44,5.44,0,0,1,179.45,12Zm.05,1a4.37,4.37,0,0,0-2.23.62,4.5,4.5,0,0,0-1.65,1.65,4.63,4.63,0,0,0-.59,2.32,4.46,4.46,0,0,0,4.47,4.49,4.55,4.55,0,0,0,2.29-.6,4.35,4.35,0,0,0,1.64-1.63,4.67,4.67,0,0,0,.59-2.31A4.54,4.54,0,0,0,179.5,13Z" transform="translate(-8.84)"/><path class="rrr_eqt_cls-1" d="M187.24,22.88V12.27h2.2a11.32,11.32,0,0,1,3.45.38,4.64,4.64,0,0,1,2.42,1.88,5.69,5.69,0,0,1,.87,3.18,5.56,5.56,0,0,1-.69,2.8,4.4,4.4,0,0,1-1.79,1.79,6.69,6.69,0,0,1-3.09.58Zm1-1h1.22a11.4,11.4,0,0,0,3.05-.28,3.52,3.52,0,0,0,1.89-1.4,4.38,4.38,0,0,0,.68-2.48,4.59,4.59,0,0,0-.74-2.62,3.8,3.8,0,0,0-2.07-1.49,12.66,12.66,0,0,0-3.28-.3h-.75Z" transform="translate(-8.84)"/><path class="rrr_eqt_cls-1" d="M198.08,12.27h1.06V22.88h-1.06Z" transform="translate(-8.84)"/><path class="rrr_eqt_cls-1" d="M201.58,22.88V12.27h.23l7.06,8.13V12.27h1V22.88h-.24l-7-8v8Z" transform="translate(-8.84)"/><path class="rrr_eqt_cls-1" d="M222.73,14.05l-.82.78A6.52,6.52,0,0,0,220,13.5a5.48,5.48,0,0,0-2.06-.45,4.89,4.89,0,0,0-2.38.62,4.45,4.45,0,0,0-1.75,1.66,4.33,4.33,0,0,0-.62,2.22,4.43,4.43,0,0,0,.64,2.27,4.55,4.55,0,0,0,1.78,1.7,5.09,5.09,0,0,0,2.48.61,4.23,4.23,0,0,0,2.77-.92,3.64,3.64,0,0,0,1.34-2.39h-3.38v-1h4.57a5.36,5.36,0,0,1-1.46,3.91A5.23,5.23,0,0,1,218,23.14a5.8,5.8,0,0,1-4.66-2,5.33,5.33,0,0,1-1.32-3.57,5.52,5.52,0,0,1,2.84-4.84,6.12,6.12,0,0,1,3-.73,6.53,6.53,0,0,1,2.54.49A7.4,7.4,0,0,1,222.73,14.05Z" transform="translate(-8.84)"/><path class="rrr_eqt_cls-1" d="M147,30h1.09l2.17,7.65,3-7.65h.22l3,7.65L158.71,30h1.08l-3,10.61h-.2l-3.15-8-3.2,8H150Z" transform="translate(-8.84)"/><path class="rrr_eqt_cls-1" d="M161.61,30h1.06V40.6h-1.06Z" transform="translate(-8.84)"/><path class="rrr_eqt_cls-1" d="M164,31V30h5.82v1h-2.37V40.6h-1.08V31Z" transform="translate(-8.84)"/><path class="rrr_eqt_cls-1" d="M171.37,30h1.06v4.45h5.4V30h1.06V40.6h-1.06V35.48h-5.4V40.6h-1.06Z" transform="translate(-8.84)"/><path class="rrr_eqt_cls-1" d="M186.53,29.73a5.5,5.5,0,0,1,4,1.6,5.6,5.6,0,0,1-7.93,7.92A5.31,5.31,0,0,1,181,35.34a5.59,5.59,0,0,1,.74-2.83,5.45,5.45,0,0,1,4.78-2.78Zm0,1a4.38,4.38,0,0,0-2.23.61A4.5,4.5,0,0,0,182.69,33a4.68,4.68,0,0,0-.59,2.32,4.46,4.46,0,0,0,4.47,4.5,4.53,4.53,0,0,0,2.29-.6,4.31,4.31,0,0,0,1.64-1.64,4.62,4.62,0,0,0,.59-2.31A4.5,4.5,0,0,0,190.5,33a4.36,4.36,0,0,0-1.66-1.64A4.47,4.47,0,0,0,186.57,30.76Z" transform="translate(-8.84)"/><path class="rrr_eqt_cls-1" d="M194.35,30h1.06V36.4a13.3,13.3,0,0,0,0,1.42,2.47,2.47,0,0,0,.37,1,2.26,2.26,0,0,0,.89.71,2.92,2.92,0,0,0,1.2.28,2.36,2.36,0,0,0,1.82-.84,2.55,2.55,0,0,0,.48-1,8.37,8.37,0,0,0,.1-1.66V30h1.06V36.4a8,8,0,0,1-.27,2.3A3.18,3.18,0,0,1,200,40.22a3.22,3.22,0,0,1-2,.65,3.84,3.84,0,0,1-2.2-.61,3,3,0,0,1-1.23-1.63,8.61,8.61,0,0,1-.19-2.23Z" transform="translate(-8.84)"/><path class="rrr_eqt_cls-1" d="M202.93,31V30h5.81v1h-2.36V40.6H205.3V31Z" transform="translate(-8.84)"/><path class="rrr_eqt_cls-1" d="M147.09,58.33l1.52-10.61h.18l4.31,8.7,4.27-8.7h.17l1.53,10.61h-1L157,50.74l-3.75,7.59H153l-3.8-7.65-1,7.65Z" transform="translate(-8.84)"/><path class="rrr_eqt_cls-1" d="M165.49,47.72l4.94,10.61h-1.14l-1.67-3.49h-4.57l-1.65,3.49h-1.19l5-10.61ZM165.35,50l-1.82,3.84h3.63Z" transform="translate(-8.84)"/><path class="rrr_eqt_cls-1" d="M172.09,58.33V47.72h.23l7.06,8.13V47.72h1V58.33h-.23l-7-8v8Z" transform="translate(-8.84)"/><path class="rrr_eqt_cls-1" d="M193.24,49.5l-.82.78A6.23,6.23,0,0,0,190.47,49a5.24,5.24,0,0,0-2.06-.46,4.88,4.88,0,0,0-2.37.62,4.45,4.45,0,0,0-1.75,1.66,4.32,4.32,0,0,0,0,4.49,4.55,4.55,0,0,0,1.78,1.7,5.1,5.1,0,0,0,2.48.62,4.23,4.23,0,0,0,2.77-.93,3.64,3.64,0,0,0,1.34-2.39h-3.39v-1h4.58a5.35,5.35,0,0,1-1.46,3.91,5.27,5.27,0,0,1-3.87,1.45,5.81,5.81,0,0,1-4.66-2A5.33,5.33,0,0,1,182.56,53a5.44,5.44,0,0,1,.76-2.81,5.38,5.38,0,0,1,2.07-2,6.16,6.16,0,0,1,3-.73,6.57,6.57,0,0,1,2.54.49A7.4,7.4,0,0,1,193.24,49.5Z" transform="translate(-8.84)"/><path class="rrr_eqt_cls-1" d="M195.94,47.72h2.12a13.46,13.46,0,0,1,2.39.14,2.82,2.82,0,0,1,1.54.93,2.68,2.68,0,0,1,.59,1.75,2.87,2.87,0,0,1-.41,1.53,2.63,2.63,0,0,1-1.16,1,5.35,5.35,0,0,1-2.09.34l3.81,4.93h-1.31l-3.81-4.93H197v4.93h-1.07Zm1.07,1v3.6l1.82,0a4.62,4.62,0,0,0,1.57-.2,1.66,1.66,0,0,0,.8-.65,1.79,1.79,0,0,0,.28-1,1.65,1.65,0,0,0-.29-1,1.56,1.56,0,0,0-.75-.62,4.52,4.52,0,0,0-1.56-.19Z" transform="translate(-8.84)"/><path class="rrr_eqt_cls-1" d="M209.9,47.45a5.52,5.52,0,0,1,4,1.61A5.59,5.59,0,0,1,210,58.6,5.42,5.42,0,0,1,206,57a5.29,5.29,0,0,1-1.63-3.91,5.67,5.67,0,0,1,.74-2.83,5.47,5.47,0,0,1,4.78-2.79Zm0,1a4.37,4.37,0,0,0-2.23.62,4.5,4.5,0,0,0-1.65,1.65,4.63,4.63,0,0,0-.59,2.32A4.46,4.46,0,0,0,210,57.56a4.53,4.53,0,0,0,2.29-.6,4.21,4.21,0,0,0,1.64-1.63,4.67,4.67,0,0,0,.59-2.31,4.51,4.51,0,0,0-.59-2.29,4.41,4.41,0,0,0-1.66-1.63A4.48,4.48,0,0,0,210,48.48Z" transform="translate(-8.84)"/><path class="rrr_eqt_cls-1" d="M216.88,47.72H218l3.51,8.2,3.58-8.2h1.15l-4.62,10.61h-.23Z" transform="translate(-8.84)"/><path class="rrr_eqt_cls-1" d="M228.07,47.72h6.08v1h-5v3.32h5v1h-5v4.17h5v1h-6Z" transform="translate(-8.84)"/><path class="rrr_eqt_cls-1" d="M234.88,56.35l.91-.54c.63,1.17,1.36,1.75,2.2,1.75a2.17,2.17,0,0,0,1-.24,1.78,1.78,0,0,0,1-1.56,1.85,1.85,0,0,0-.36-1,9.1,9.1,0,0,0-1.82-1.7,8.82,8.82,0,0,1-1.65-1.45,2.62,2.62,0,0,1-.57-1.62,2.44,2.44,0,0,1,1.27-2.16,2.68,2.68,0,0,1,1.31-.33,2.84,2.84,0,0,1,1.4.37,4.78,4.78,0,0,1,1.38,1.37l-.86.66a4.24,4.24,0,0,0-1-1.05,1.74,1.74,0,0,0-.92-.25,1.45,1.45,0,0,0-1.05.39,1.28,1.28,0,0,0-.41,1,1.59,1.59,0,0,0,.15.67,2.41,2.41,0,0,0,.52.7c.14.14.6.49,1.37,1.06a7.68,7.68,0,0,1,1.89,1.82,2.9,2.9,0,0,1,.51,1.59,2.69,2.69,0,0,1-.87,2,3,3,0,0,1-2.13.86,3.19,3.19,0,0,1-1.76-.52A4.79,4.79,0,0,1,234.88,56.35Z" transform="translate(-8.84)"/><text class="rrr_eqt_cls-2" transform="translate(64.73 69.58)">/</text><path class="rrr_eqt_cls-3" d="M23.75,12.27l4.94,10.61H27.55l-1.67-3.49H21.31l-1.65,3.49H18.47l5-10.61Zm-.14,2.25-1.82,3.84h3.63Z" transform="translate(-8.84)"/><path class="rrr_eqt_cls-3" d="M30.35,22.88V12.27h.23l7.06,8.13V12.27h1V22.88h-.24l-7-8v8Z" transform="translate(-8.84)"/><path class="rrr_eqt_cls-3" d="M41.27,22.88V12.27h.23l7.06,8.13V12.27h1V22.88h-.24l-7-8v8Z" transform="translate(-8.84)"/><path class="rrr_eqt_cls-3" d="M52.23,12.27h1.06v6.4a13.18,13.18,0,0,0,0,1.42,2.34,2.34,0,0,0,.37,1.05,2.17,2.17,0,0,0,.89.71,2.77,2.77,0,0,0,1.2.28,2.36,2.36,0,0,0,1-.22,2.25,2.25,0,0,0,.81-.62,2.54,2.54,0,0,0,.47-1,7.37,7.37,0,0,0,.11-1.66v-6.4h1.06v6.4A8,8,0,0,1,59,21a3.21,3.21,0,0,1-1.12,1.53,3.16,3.16,0,0,1-2,.64,3.84,3.84,0,0,1-2.2-.61,3,3,0,0,1-1.23-1.62,8.65,8.65,0,0,1-.19-2.24Z" transform="translate(-8.84)"/><path class="rrr_eqt_cls-3" d="M66.2,12.27l5,10.61H70l-1.67-3.49H63.76l-1.65,3.49H60.93l5-10.61Zm-.13,2.25-1.82,3.84h3.62Z" transform="translate(-8.84)"/><path class="rrr_eqt_cls-3" d="M72.79,12.27h1.06v9.58h4.08v1H72.79Z" transform="translate(-8.84)"/><path class="rrr_eqt_cls-3" d="M8.84,30h6.08v1h-5v3.33h5v1h-5v4.16h5v1h-6Z" transform="translate(-8.84)"/><path class="rrr_eqt_cls-3" d="M16.19,30h1.24L20,34.12,22.53,30h1.22l-3.17,5.13L24,40.6H22.72L20,36.13,17.2,40.6H16l3.39-5.47Z" transform="translate(-8.84)"/><path class="rrr_eqt_cls-3" d="M25.74,30h2.11a12.56,12.56,0,0,1,2.45.16,2.77,2.77,0,0,1,1.49.92,2.69,2.69,0,0,1,.57,1.75,2.64,2.64,0,0,1-.56,1.75,2.75,2.75,0,0,1-1.55.93,14.24,14.24,0,0,1-2.7.17H26.8V40.6H25.74Zm1.06,1v3.6l1.79,0a4.83,4.83,0,0,0,1.6-.19,1.68,1.68,0,0,0,.79-.65,1.8,1.8,0,0,0,0-2,1.55,1.55,0,0,0-.76-.63A4.46,4.46,0,0,0,28.67,31Z" transform="translate(-8.84)"/><path class="rrr_eqt_cls-3" d="M34.49,30h6.08v1h-5v3.33h5v1h-5v4.16h5v1h-6Z" transform="translate(-8.84)"/><path class="rrr_eqt_cls-3" d="M52.28,32l-.83.64a4.6,4.6,0,0,0-1.66-1.36,4.9,4.9,0,0,0-2.14-.47,4.81,4.81,0,0,0-2.35.61A4.32,4.32,0,0,0,43.63,33a4.47,4.47,0,0,0-.6,2.31,4.38,4.38,0,0,0,1.33,3.24,4.65,4.65,0,0,0,3.36,1.3,4.7,4.7,0,0,0,3.73-1.75l.83.64a5.3,5.3,0,0,1-2,1.56,6.24,6.24,0,0,1-2.66.55A5.53,5.53,0,0,1,43.26,39a5.61,5.61,0,0,1-1.35-3.78,5.25,5.25,0,0,1,1.64-3.92,5.63,5.63,0,0,1,4.09-1.59,6,6,0,0,1,2.68.58A5.25,5.25,0,0,1,52.28,32Z" transform="translate(-8.84)"/><path class="rrr_eqt_cls-3" d="M53.36,31V30h5.81v1H56.81V40.6H55.73V31Z" transform="translate(-8.84)"/><path class="rrr_eqt_cls-3" d="M60.71,30h6.08v1h-5v3.33h5v1h-5v4.16h5v1h-6Z" transform="translate(-8.84)"/><path class="rrr_eqt_cls-3" d="M68.62,40.6V30h2.2a11.06,11.06,0,0,1,3.46.39,4.63,4.63,0,0,1,2.41,1.87,5.69,5.69,0,0,1,.87,3.18,5.6,5.6,0,0,1-.69,2.81A4.53,4.53,0,0,1,75.08,40,6.79,6.79,0,0,1,72,40.6Zm1-1h1.22a11.52,11.52,0,0,0,3-.27,3.57,3.57,0,0,0,1.89-1.4,4.4,4.4,0,0,0,.68-2.48,4.49,4.49,0,0,0-.74-2.62,3.77,3.77,0,0,0-2.07-1.5,12.61,12.61,0,0,0-3.28-.3h-.75Z" transform="translate(-8.84)"/><path class="rrr_eqt_cls-3" d="M20.25,47.72h2.09a5,5,0,0,1,1.94.3,2.34,2.34,0,0,1,1.07.92,2.52,2.52,0,0,1,.39,1.38,2.43,2.43,0,0,1-.34,1.28,2.55,2.55,0,0,1-1,.94,4,4,0,0,1,1.27.66,2.6,2.6,0,0,1,.69.92,2.7,2.7,0,0,1,.25,1.17,2.87,2.87,0,0,1-.93,2.16,3.54,3.54,0,0,1-2.51.88H20.25Zm1,1v3.39h.6a4.72,4.72,0,0,0,1.63-.2,1.71,1.71,0,0,0,.82-.65,1.65,1.65,0,0,0,.31-1,1.41,1.41,0,0,0-.51-1.15,2.6,2.6,0,0,0-1.62-.41Zm0,4.46v4.07H22.6a4.75,4.75,0,0,0,1.71-.23,2,2,0,0,0,.87-.71,1.81,1.81,0,0,0,.33-1A1.83,1.83,0,0,0,25,54.07a2.35,2.35,0,0,0-1.27-.72,9.76,9.76,0,0,0-1.88-.13Z" transform="translate(-8.84)"/><path class="rrr_eqt_cls-3" d="M28.71,47.72h6.08v1h-5v3.32h5v1h-5v4.17h5v1h-6Z" transform="translate(-8.84)"/><path class="rrr_eqt_cls-3" d="M36.63,58.33V47.72h.23l7.06,8.13V47.72h1V58.33h-.23l-7-8v8Z" transform="translate(-8.84)"/><path class="rrr_eqt_cls-3" d="M47.55,47.72h6.08v1h-5v3.32h5v1h-5v4.17h5v1h-6Z" transform="translate(-8.84)"/><path class="rrr_eqt_cls-3" d="M55.47,47.72h5.31v1H56.53v3.32h4.25v1H56.53v5.21H55.47Z" transform="translate(-8.84)"/><path class="rrr_eqt_cls-3" d="M62.48,47.72h1.06V58.33H62.48Z" transform="translate(-8.84)"/><path class="rrr_eqt_cls-3" d="M64.91,48.76v-1h5.82v1H68.36v9.57H67.28V48.76Z" transform="translate(-8.84)"/><path class="rrr_eqt_cls-3" d="M71.16,56.35l.9-.54c.64,1.17,1.37,1.75,2.2,1.75a2.14,2.14,0,0,0,1-.24,1.74,1.74,0,0,0,.72-.67,1.78,1.78,0,0,0,.24-.89,1.85,1.85,0,0,0-.36-1A8.72,8.72,0,0,0,74.05,53a9.38,9.38,0,0,1-1.66-1.45,2.68,2.68,0,0,1-.56-1.62,2.47,2.47,0,0,1,.33-1.26,2.33,2.33,0,0,1,.94-.9,2.66,2.66,0,0,1,1.31-.33,2.87,2.87,0,0,1,1.4.37,5,5,0,0,1,1.38,1.37l-.87.66a4.07,4.07,0,0,0-1-1.05,1.72,1.72,0,0,0-.92-.25,1.48,1.48,0,0,0-1,.39,1.28,1.28,0,0,0-.4,1,1.75,1.75,0,0,0,.14.67,2.65,2.65,0,0,0,.53.71c.14.13.59.48,1.37,1a7.68,7.68,0,0,1,1.89,1.82,2.9,2.9,0,0,1,.51,1.59,2.66,2.66,0,0,1-.88,2,2.93,2.93,0,0,1-2.13.86,3.15,3.15,0,0,1-1.75-.52A4.7,4.7,0,0,1,71.16,56.35Z" transform="translate(-8.84)"/></g><g id="Layer_5" data-name="Layer 5"><path class="rrr_eqt_cls-1" d="M110.52,66v0S110.57,66,110.52,66Zm3.36-3.79Zm10.61,7.14c0,.24.39.33,0,0Zm-22.91,3.21.09-.11-.06.06Zm26.72-2.12v0h0Zm-15.94-3,0,.06Zm0,.13,0-.07A.25.25,0,0,1,112.4,67.52Zm11.78-39.2a2.68,2.68,0,0,0-.05-1.57.13.13,0,0,0-.19-.07,2.78,2.78,0,0,0-1,1.23s-.35.9.31,1.12S124.18,28.32,124.18,28.32ZM94.32,40a.14.14,0,0,0,0,.2,2.49,2.49,0,0,0,.77.52l.08.08a1.19,1.19,0,0,0,1,.32,2.78,2.78,0,0,0-.69.43.15.15,0,0,0,0,.22l.12.08a4.35,4.35,0,0,0-.63.56.1.1,0,0,0,0,.16,4.07,4.07,0,0,0,1.77.37,1.24,1.24,0,0,0,.46-.12,3,3,0,0,0,.7.35,4.38,4.38,0,0,0-1,.78.1.1,0,0,0,0,.17,4.26,4.26,0,0,0,1.77.37h.06a2.93,2.93,0,0,0,.91.15s1.07,0,1-.77-.84-.67-1-.66l-.06,0a1.55,1.55,0,0,0-.36-.21.52.52,0,0,0,.06-.2.38.38,0,0,0,0-.15,7,7,0,0,0,1.09.57.62.62,0,0,0,.62.37.55.55,0,0,0,.29-.08,7.57,7.57,0,0,0,2.28.08c.66,0,1.32-.13,2-.13a5.68,5.68,0,0,1,1.42.22,8.72,8.72,0,0,1,3.2,1.93c.49.4,1,.81,1.47,1.24a3.88,3.88,0,0,1,1,1,16.53,16.53,0,0,0,2.47,3.42,6.14,6.14,0,0,1,1.74,3.44,1.48,1.48,0,0,0,0,.21,3.57,3.57,0,0,0-.1.6c0,.34,0,.68,0,1a10.83,10.83,0,0,1-.3,1.28c-.12.1-.27.18-.37.27-.34.3-.65.64-1,.95-3,2.85-6.53,5.16-9.52,8A12.5,12.5,0,0,0,103.94,69a3.36,3.36,0,0,1-.52.66c-.2.17-.39.35-.58.53-.37.35-.73.71-1.06,1.09a16.76,16.76,0,0,0-1.91,3,10.81,10.81,0,0,0-1.39,3.26c.15,0,.25,0,.33-.06a4.56,4.56,0,0,0,.26-.84A9.43,9.43,0,0,1,100,75c.1.19.19.37.28.56l.12.31c.06.17,0,.18,0,.34-.2.45-.47.87-.67,1.33a1.68,1.68,0,0,0,.5,0c.18-.07.34-.54.45-.72a4.36,4.36,0,0,1,0,.72c.06,0,.28,0,.33,0s0-.71,0-.85a.78.78,0,0,1,0-.4,1.91,1.91,0,0,1,.29-.41c.17-.22.34-.44.52-.64a22,22,0,0,0-.16,2.3,1.45,1.45,0,0,0,.36,0,.33.33,0,0,0,.1,0s0-.26,0-.33q.08-.84.21-1.68a16.62,16.62,0,0,1,.93-3.4,10.31,10.31,0,0,1,.34,1.24,5.94,5.94,0,0,1,.27,1.66,3.75,3.75,0,0,1-.4,1c-.21.5-.42,1-.6,1.53.28,0,.41.07.53-.2s.37-.82.57-1.23c0,.34,0,.68,0,1a2.75,2.75,0,0,0,0,.41s.1,0,.13,0c.28.07.26,0,.27-.28s0-.57,0-.85a19.23,19.23,0,0,0-.29-3.48,11.19,11.19,0,0,0-.31-1.3,2.22,2.22,0,0,1-.16-.45c0-.21.3-.56.41-.74a10.3,10.3,0,0,1,2.16-2.54,7.71,7.71,0,0,1,.76,2c0,.2.11.41.14.61a1,1,0,0,1-.16.58c-.2.42-.38.85-.55,1.27a22.64,22.64,0,0,0-1.22,5.14c.13,0,.26,0,.38,0s.18,0,.23-.23c.14-.68.29-1.35.46-2,.16.56.31,1.13.46,1.69,0,.16,0,.49.19.55a1.7,1.7,0,0,0,.39,0c-.18-1-.39-1.95-.61-2.92a1.05,1.05,0,0,1,0-.58,4.31,4.31,0,0,1,.22-.6c.17-.41.36-.8.55-1.19a39.31,39.31,0,0,1,.39,4.19c0,.19,0,.37,0,.56a3.13,3.13,0,0,0,0,.54,1.28,1.28,0,0,0,.39,0,2,2,0,0,0,0-.55c0-.19,0-.38,0-.57,0-.39,0-.79,0-1.18a5,5,0,0,1,.63,1.37c0,.15.18.85.31.93a1.07,1.07,0,0,0,.31,0,8.74,8.74,0,0,0-1-2.65,1.27,1.27,0,0,0-.14-.17c-.15-.13-.13-.07-.17-.24a3.94,3.94,0,0,1,0-.69c0-.49,0-1-.1-1.47,0-.25-.05-.5-.08-.75a1.72,1.72,0,0,1,0-.39,1.62,1.62,0,0,1,.21-.36,12,12,0,0,1,.91-1.33,8.31,8.31,0,0,1,2.09-1.92c.17.43.32.86.46,1.29s.45,1.06.33,1.46a12.9,12.9,0,0,1-.56,1.33l-.3.8a34.15,34.15,0,0,0-1.38,5.09,8,8,0,0,0,.85,0c.21,0,.17,0,.23-.26s.14-.55.22-.82c.07.24.13.49.19.73a1.64,1.64,0,0,0,.08.35s.07,0,.1,0a2.66,2.66,0,0,0,.69,0c-.09-.55-.19-1.09-.31-1.62a2.35,2.35,0,0,1-.18-1.24c.28-.77.58-1.54.92-2.29.2,1,.36,2,.51,3.06,0,.26-.18.54-.27.81-.14.42-.24.85-.35,1.28a2.09,2.09,0,0,0,.5,0c.12,0,.1,0,.15-.21s.11-.35.17-.52c0,.2,0,.66.17.73a1.85,1.85,0,0,0,.47,0c-.11-1.45-.24-2.9-.41-4.35,0-.32-.08-.65-.13-1s0-.38-.08-.57a1.88,1.88,0,0,1-.09-.57,3.48,3.48,0,0,1,.46-.9l.53-1c.28.64.73,1.23,1.07,1.85.2.37.4.75.58,1.14a5.67,5.67,0,0,1,.54,1.21,5.21,5.21,0,0,1-.08,1.24,2.41,2.41,0,0,1,0,.72c-.06.09-.23.18-.3.3a9.16,9.16,0,0,0-.82,1.9c.1,0,.2,0,.3,0s.1,0,.2-.1a3.67,3.67,0,0,0,.28-.6q.14-.29.3-.57c0,.42,0,.84,0,1.27a1.34,1.34,0,0,0,.4,0c.1-.06.08-.59.09-.74,0-.69.12-1.38.2-2.06.21.61.38,1.24.55,1.86,0,.21.12.86.28.94a1.36,1.36,0,0,0,.45,0c-.18-1-.38-2-.64-2.95a11.2,11.2,0,0,1-.4-1.33,5.39,5.39,0,0,1,.26-1.58,23.39,23.39,0,0,1,1.83-5.48c.22.59.45,1.19.69,1.78.11.28.23.56.34.83s.29.55.25.78a6.29,6.29,0,0,1-.42,1.09c-.16.45-.31.9-.45,1.36a23.9,23.9,0,0,0-1,5.5c.1,0,.22,0,.32,0s.18,0,.21-.3c0-.42.11-.85.19-1.27a11.71,11.71,0,0,1,.57,1.25c.11.26.07.28.3.32s.2,0,.3,0a11.81,11.81,0,0,0-.77-2c-.12-.2-.23-.27-.2-.49a7.23,7.23,0,0,1,.3-1.13c.32.55.63,1.12.91,1.7a6.2,6.2,0,0,1,.5,1,2.89,2.89,0,0,1,0,.88h1a9.9,9.9,0,0,1-.37-1,2.6,2.6,0,0,1,.11-1c.11-.6.25-1.21.4-1.8.46,1.07.92,2.14,1.36,3.23,0,.11.15.54.26.6a.88.88,0,0,0,.28,0h.66c-.64-1.93-1.35-3.83-2.06-5.72a6.1,6.1,0,0,1,1.52.9,2.17,2.17,0,0,1,.38.92c.1.32.2.64.29,1,.17.61.32,1.22.44,1.84.06.3.11.61.18.91s.09.18.31.18a42.37,42.37,0,0,0-.79-4.19,7.54,7.54,0,0,1,1.65,2,3.65,3.65,0,0,1,.48.82,2.29,2.29,0,0,1-.2.71c-.06.24-.13.47-.19.71.1,0,.35.05.43,0s.25-.7.31-.88c.12.19.39.8.59.88a1.61,1.61,0,0,0,.49,0l-.46-.84c-.12-.2-.38-.52-.38-.74a3.38,3.38,0,0,1,.3-.84l.27-.84a3.34,3.34,0,0,1,.64,1.57c0,.56,0,1.13,0,1.69a1.47,1.47,0,0,0,.21,0c.18,0,.08.07.15-.13a5.37,5.37,0,0,0,.08-1l.3.69c0,.1.11.38.2.43a1.75,1.75,0,0,0,.56,0A31.88,31.88,0,0,0,129,73.6a1.94,1.94,0,0,1-.22-.43,2.1,2.1,0,0,1,.12-.54,7.27,7.27,0,0,0,.17-1,16.49,16.49,0,0,0,0-1.86A13.06,13.06,0,0,1,130.2,71a12.5,12.5,0,0,1,.74,1.2,5.77,5.77,0,0,1,.29.55c.08.18.05.15,0,.31a5.31,5.31,0,0,0-.42,1.84,22.27,22.27,0,0,0-.11,2.58,1.41,1.41,0,0,0,.29,0c.18,0,.14,0,.16-.21,0-.43.06-.86.1-1.29a11.05,11.05,0,0,1,.45-2.29c.17.38.32.77.47,1.16a2.53,2.53,0,0,1,.23.61c0,.11-.09.2-.13.32a6.48,6.48,0,0,0-.26,1.7c.12,0,.47.06.55,0s.07-.38.08-.45.07-.37.11-.55c.07.21.2.92.38,1a1.82,1.82,0,0,0,.57,0c-.26-.91-.5-1.82-.78-2.72a2.39,2.39,0,0,0,.22.23l0,0,0,0c.48.52.11.12,0,0a18.93,18.93,0,0,1,1.32,1.64c.15.2.4.73.61.82a1.55,1.55,0,0,0,.43,0c-.29-.49-.59-1-.91-1.45a16.91,16.91,0,0,0-2-2.49,4.27,4.27,0,0,1-.67-1.37,12.12,12.12,0,0,0-.57-1.14,20.77,20.77,0,0,0-3.73-4.47c-1.75-1.76-3.44-3.54-5-5.45-.71-.85-1.45-1.65-2.19-2.45-.35-.37-.66-.77-1-1.14l-.09-.09a12.54,12.54,0,0,0,.09-2.12,7,7,0,0,0-1.37-4c-.22-.29-.45-.57-.69-.83s-.55-.45-.65-.69a4.08,4.08,0,0,1-.1-.64,6.11,6.11,0,0,1-.08-.87,4.61,4.61,0,0,1,1.15-3.07A10.38,10.38,0,0,1,121,43c.34-.18.68-.34,1-.49a.66.66,0,0,0-.12.22c-.22.73.82,1,.82,1a2.92,2.92,0,0,0,1.74-.11.13.13,0,0,0,.06-.2,3,3,0,0,0-1.39-1.06,1.68,1.68,0,0,0-.54-.08l1-.39s0,.06,0,.1a.63.63,0,0,0,.51.67,1.17,1.17,0,0,0,.56.66,4.35,4.35,0,0,0,1.77.41.11.11,0,0,0,.1-.14,5,5,0,0,0-.6-1.18l.07,0a.13.13,0,0,0,.06-.09l.09,0a1.18,1.18,0,0,0,.56.33,4.27,4.27,0,0,0,1.81,0,.11.11,0,0,0,.06-.16,4.2,4.2,0,0,0-1.18-1.25,2.78,2.78,0,0,0,.66-.25,1.18,1.18,0,0,0,.46.24,4.49,4.49,0,0,0,1.82,0,.11.11,0,0,0,.06-.16,4.82,4.82,0,0,0-.85-1,2.94,2.94,0,0,0-1.28-.91h0c.15-.13.29-.27.43-.41v0c-.06.5.43.67.71.73a1.16,1.16,0,0,0,.71.52,4.12,4.12,0,0,0,1.81,0,.11.11,0,0,0,.06-.16,4.13,4.13,0,0,0-1.26-1.3,1.31,1.31,0,0,0-.47-.16,3.22,3.22,0,0,0-.52-.15,1.63,1.63,0,0,0-.53,0l.29-.27a1.75,1.75,0,0,0,.62.31,2.62,2.62,0,0,0,.76.08,1.17,1.17,0,0,0,.63.42,4.11,4.11,0,0,0,1.81,0,.11.11,0,0,0,.07-.16,4.25,4.25,0,0,0-1.26-1.3l0,0a2.68,2.68,0,0,0,1.26-.37.12.12,0,0,0,0-.19,2.19,2.19,0,0,0-.26-.23,4.88,4.88,0,0,0,.64-.71.09.09,0,0,0-.05-.14,3.57,3.57,0,0,0-1.55-.1,1,1,0,0,0-.68.47,1.43,1.43,0,0,0-.27.09,4.39,4.39,0,0,0,.7-1.48.1.1,0,0,0-.06-.11,2.37,2.37,0,0,0,0-.71.11.11,0,0,0-.17-.08,2.65,2.65,0,0,0-1.16,1.07.08.08,0,0,1,0,0l-.33.16a3.56,3.56,0,0,0-.09-.45.7.7,0,0,0,.17-.09,1.1,1.1,0,0,0,.4-1A3.64,3.64,0,0,0,130,32a2.53,2.53,0,0,0,.7-.6.13.13,0,0,0,0-.19,2.5,2.5,0,0,0-1.09-.24,1,1,0,0,0,.25-.53,3.58,3.58,0,0,0-.17-1.56.08.08,0,0,0-.13,0,3.79,3.79,0,0,0-1,1.12v-.05a2.58,2.58,0,0,0,.41-.79.13.13,0,0,0-.12-.16,2.39,2.39,0,0,0-.61,0h0a.12.12,0,0,0-.19,0l-.12.13a3.33,3.33,0,0,0-.59.27l-.13.1a1.13,1.13,0,0,0,0-.6,3.76,3.76,0,0,0-.9-1.28.09.09,0,0,0-.14,0,3.11,3.11,0,0,0-.15.42,2.79,2.79,0,0,0-.24-.2.12.12,0,0,0-.18.05,2.66,2.66,0,0,0-.2,1.08l0-.08a.1.1,0,0,0-.15,0,1.58,1.58,0,0,1-.13.13,2.32,2.32,0,0,0-.38-.05s-.7,0-.9.4a.12.12,0,0,0-.1,0,2.1,2.1,0,0,0-.36.28,1.32,1.32,0,0,0-.08-.22.09.09,0,0,0-.14,0,4.45,4.45,0,0,0-.46.48,1.67,1.67,0,0,0,.18-.57,3.07,3.07,0,0,0,0-.69,2.24,2.24,0,0,0,.11-.28.1.1,0,0,0-.09-.14h-.11a2.84,2.84,0,0,0-.25-.6.14.14,0,0,0-.21,0,2.87,2.87,0,0,0-.57.76l-.07,0a2.83,2.83,0,0,0,.33-1,.13.13,0,0,0-.14-.14,2.12,2.12,0,0,0-.49.11,4.5,4.5,0,0,0-.26-1.14.09.09,0,0,0-.14,0,3.69,3.69,0,0,0-.94,1.25,1.05,1.05,0,0,0,.06.9.6.6,0,0,0,.1.7l.14.11c0,.14,0,.28-.07.42l0,0s-.91.57-.47,1.19a1,1,0,0,0,.12.15c-.16.18-.44.57-.22.92l-.11.29a8.16,8.16,0,0,1-.41.84.75.75,0,0,0,0-.16l0,0a1.24,1.24,0,0,0,.18-1.1c.27-.32,0-.85,0-1l0,0a.62.62,0,0,0,.27-.6s0,0,0,0a1.24,1.24,0,0,0,.14-1.21l0-.08c.34-.35,0-1,0-1a2.68,2.68,0,0,0-1.12-1.11.11.11,0,0,0-.17.08,2.43,2.43,0,0,0,0,1,2.33,2.33,0,0,0-.08.31,4.63,4.63,0,0,0-.32.42l-.12,0a.14.14,0,0,0-.17.13,2.16,2.16,0,0,0,0,.55,1.08,1.08,0,0,0,.21.82v0c0,.12,0,.26,0,.42a5.35,5.35,0,0,0-.2.95l0,.13-.25-.09a.13.13,0,0,0-.16.08l0,0a.12.12,0,0,0-.19,0,2.23,2.23,0,0,0-.34.78l-.39.05a2.14,2.14,0,0,0,.18-.44,1.25,1.25,0,0,0,.19-.15,4.41,4.41,0,0,0,1-1.53.11.11,0,0,0-.1-.14h-.25a2.07,2.07,0,0,0,.22-.38.13.13,0,0,0-.09-.19,2.85,2.85,0,0,0-1.24,0l.06-.16a1.4,1.4,0,0,0,.64-.28,2.76,2.76,0,0,0,.87-1.32.13.13,0,0,0-.12-.16h-.17a3.94,3.94,0,0,0-.27-1.29.09.09,0,0,0-.14,0,3.69,3.69,0,0,0-.94,1.25,1,1,0,0,0-.06.56,1.22,1.22,0,0,0-.23.23.86.86,0,0,0-.1-.16,2,2,0,0,0-.27-.31v0a2.6,2.6,0,0,0-.95-1.26.12.12,0,0,0-.18.05,2.7,2.7,0,0,0-.13.44.09.09,0,0,0,0,.06,4.46,4.46,0,0,0,.1,1.6,2.87,2.87,0,0,0-.73-.51.13.13,0,0,0-.19.1c0,.05,0,.11,0,.19a4.6,4.6,0,0,0-1,.53,1.72,1.72,0,0,0,0-.26.13.13,0,0,0-.19-.1,2.67,2.67,0,0,0-.72.41l-.12-.14a1.82,1.82,0,0,0,.17-.34,2.6,2.6,0,0,0,0-1.58.13.13,0,0,0-.18-.07,2.68,2.68,0,0,0-1,1.19A.09.09,0,0,0,110,28a3.5,3.5,0,0,0,.11,1.55,1,1,0,0,0,.34.48,1,1,0,0,0,0,.38l-.08,0a1.47,1.47,0,0,0-.61-.61,3.27,3.27,0,0,0-1-.3c0-.06.07-.12.1-.19a.65.65,0,0,0,.87-.06c.45-.53-.31-1.12-.31-1.12a2.67,2.67,0,0,0-.55-.32c-.06-.26-.13-.47-.17-.6a.1.1,0,0,0-.16-.05,5.13,5.13,0,0,0-.46.43h-.14a.13.13,0,0,0-.13.15l0,.14a3.86,3.86,0,0,0-.44.71,1.27,1.27,0,0,0,.14,1.21s0,0,0,0l-.25.14v0l-.2-.38a2,2,0,0,0,.06-.32.31.31,0,0,0,0-.1,1,1,0,0,0-.09-1,3.77,3.77,0,0,0-1.19-1,.09.09,0,0,0-.13.07,3.51,3.51,0,0,0,.1,1.56,1.47,1.47,0,0,0,.1.22,2.44,2.44,0,0,0-.14.28s-.39.89.26,1.13a.69.69,0,0,0,.84-.43l.09.22a2.75,2.75,0,0,0-.44.41,3.86,3.86,0,0,0-1-.21c.18-.48-.42-.95-.42-.95a2.7,2.7,0,0,0-1.48-.54.13.13,0,0,0-.13.15,2.42,2.42,0,0,0,.31.79,5.19,5.19,0,0,0-.72-.34.09.09,0,0,0-.12.09c0,.11,0,.28,0,.48a.12.12,0,0,0-.16,0,2.58,2.58,0,0,0-.73,1,.1.1,0,0,0,0,.08v.05l-.06.17s-.18.75.26,1a1.67,1.67,0,0,0,.08.2,3.83,3.83,0,0,0-.42-.08c.08-.49-.57-.85-.57-.85a2.76,2.76,0,0,0-1.22-.31,2.14,2.14,0,0,0-.17-.45.13.13,0,0,0-.19,0A2.69,2.69,0,0,0,99,32.19a1.29,1.29,0,0,0,0,.32,3.81,3.81,0,0,0-.67-1.14.08.08,0,0,0-.14,0,4,4,0,0,0-.38.87,2.58,2.58,0,0,0-1-.08.13.13,0,0,0-.11.16,2.75,2.75,0,0,0,1,1.25,1.36,1.36,0,0,0,.42.19l0,0a.44.44,0,0,0,.43.05l0,.14a3.17,3.17,0,0,0-.66-.06,2.61,2.61,0,0,0-.75-.49.13.13,0,0,0-.17.09,2.66,2.66,0,0,0,.23,1.56,1.45,1.45,0,0,0,.2.3,3.85,3.85,0,0,0-1-.29.09.09,0,0,0-.1.1,4.52,4.52,0,0,0,.18.65,2.49,2.49,0,0,0-1,.66.12.12,0,0,0,0,.19,2.63,2.63,0,0,0,1.54.31,1.32,1.32,0,0,0,.24,0h0c0,.08,0,.16-.08.24l0,.18a2.73,2.73,0,0,0-.22.3.18.18,0,0,0,0,.1,2.05,2.05,0,0,0-.31-.3.11.11,0,0,0-.12,0,3.5,3.5,0,0,0-.68-.24A4.65,4.65,0,0,0,95,37a.09.09,0,0,0-.1.1,3.59,3.59,0,0,0,.59,1.44,1,1,0,0,0,.81.41v0a2.81,2.81,0,0,0-.83.12.13.13,0,0,0-.09.17,5,5,0,0,0-1.11-.13.1.1,0,0,0-.1.13,5.31,5.31,0,0,0,.3.66Zm31.4,29c-.23-.23-.46-.46-.7-.68-.09-.08-.39-.27-.42-.37a1.69,1.69,0,0,1,.07-.38,10.79,10.79,0,0,1,.44-1.5c.78.7,1.57,1.38,2.34,2.09l.57.53c.23.22.19.25.2.57s.06.79.08,1.18c0,0,0-.11,0,0s0,.07,0,0a9.33,9.33,0,0,1,0,1.83A18.76,18.76,0,0,0,125.72,69Zm-1.23.35A17.68,17.68,0,0,1,127,72c.19.24.36.48.53.73a2.77,2.77,0,0,1,.5.76c.05.23-.15.62-.21.85s-.18.67-.28,1a9.75,9.75,0,0,0-2-2.72,4.88,4.88,0,0,1-.69-.59,3,3,0,0,1-.2-1A10.26,10.26,0,0,1,124.49,69.3Zm-3.25-2.06a12.54,12.54,0,0,1,2.25,1.28c.11.08.22.13.26.26a1.87,1.87,0,0,1,0,.34c0,.29,0,.58.06.86a10.89,10.89,0,0,0,.29,1.49,7,7,0,0,0-1.69-.93c.07,0-.28-.81-.13-.34C121.93,69.21,121.58,68.23,121.24,67.24Zm-.73,4.67,0-.1c.16-.4.32-.79.5-1.19.19.46.39.92.59,1.38a3.79,3.79,0,0,1,.29.66c0,.16,0,.1,0,.25s-.08.19-.1.29a19,19,0,0,0-.37,2.22c-.28-.66-.59-1.31-.92-2a3.89,3.89,0,0,1-.35-.62c0-.11.12-.32.15-.43S120.45,72.08,120.51,71.91Zm-1.16-11.67c1.71,1.64,3.27,3.43,5,5.06,0,0-.24-.23,0,0s.07.14,0,.28a1.28,1.28,0,0,0-.11.24,2.91,2.91,0,0,0-.12.39,7.79,7.79,0,0,0-.22,1.09,13,13,0,0,0-2-1.24,7,7,0,0,0-.74-.33,1.77,1.77,0,0,1-.41-.12c-.11-.07-.15-.36-.19-.5A42.93,42.93,0,0,1,119.35,60.24Zm-16.6,11a13.7,13.7,0,0,0-.45,1.37c-.12.41-.16.86-.3,1.26s-.4.51-.58.73-.46.61-.67.93a5.6,5.6,0,0,0-.33-.8,2,2,0,0,1-.14-.23c0-.09.2-.31.25-.39a18.49,18.49,0,0,1,1-1.61l0-.05c.19-.24.13-.16.06-.06A10.66,10.66,0,0,1,102.75,71.25ZM112.22,67s.14-.08.17-.09l.39-.18,1.08-.46c-.36.83-.74,1.66-1.12,2.48-.11-.45-.24-.89-.38-1.34A4,4,0,0,1,112.22,67Zm-1.63-.49c-.18.13-.35.25-.52.39a8.71,8.71,0,0,0-.83.78,12.34,12.34,0,0,0-1.44,1.94,10.78,10.78,0,0,0-.4-1.48,6.14,6.14,0,0,0-.3-.7c-.07-.14-.09-.14,0-.25a3.3,3.3,0,0,1,.65-.52c.26-.2.52-.4.79-.59.48-.37,1-.73,1.47-1.09.14.34.35.64.51,1,0,0,0,0,0,0a1.2,1.2,0,0,1,.16.32C110.71,66.42,110.75,66.38,110.59,66.49Zm5.4-6c-.19.66-.4,1.31-.62,2l-.33.91a4.35,4.35,0,0,1-.38,1c-.13.16-.52.24-.74.34l-.71.32c-.49.24-1,.47-1.45.74a5.77,5.77,0,0,0-.79-1.49c1-.69,2-1.39,2.91-2.11C114.59,61.63,115.3,61.09,116,60.52Zm1.74,1c.31,1.16.67,2.32,1.07,3.45-.41,0-.62.86-.75,1.18-.22.56-.41,1.13-.59,1.71a27.49,27.49,0,0,0-.85,3.93,15.37,15.37,0,0,0-1.11-2.13,9.18,9.18,0,0,0-.89-1.28C115.76,66.15,117.51,62.14,117.73,61.53Zm-10.5-25.79v0Zm.19-3.57,0,0h0l0,0Zm1-1.68-.13.19a1.83,1.83,0,0,0-.3-.27c0-.14,0-.26,0-.37a.4.4,0,0,0,.11,0A4.1,4.1,0,0,0,108.37,30.49Zm.25,3.23a.69.69,0,0,0-.11.35.11.11,0,0,0-.08,0l-.12.1h0c.41-.43-.09-1.17-.09-1.17a3.57,3.57,0,0,0-.28-.35s0-.11,0-.16l.21.17a3.12,3.12,0,0,1,.45.44A3.28,3.28,0,0,0,108.62,33.72Zm.26,2.84a3.65,3.65,0,0,0-.74.37v0a1.54,1.54,0,0,0,.53-.47.42.42,0,0,0,.18.08Zm.12-4.12-.06,0,0,0A.13.13,0,0,0,109,32.44Zm.7-1.06-.13.09a1.37,1.37,0,0,0,0-.19h.06A.41.41,0,0,0,109.7,31.38Zm0,1.63-.11,0-.13-.16h.16A.57.57,0,0,0,109.73,33Zm.22,2.48a2.85,2.85,0,0,0-.46-.17l-.1-.17a2.8,2.8,0,0,0-.38-.44,1,1,0,0,0,.34,0,.62.62,0,0,0,.23,0,2.94,2.94,0,0,0,.37.8Zm1.56-4.66-.05,0h0Zm.17-.11,0,0,0,.05-.07-.09,0-.05Zm1,1.13-.12.11-.09-.13a.69.69,0,0,0,.18-.16Zm.59,2.88h0a.49.49,0,0,0,.24-.23,2.52,2.52,0,0,1,.22.69,2.32,2.32,0,0,1,0,.37l-.13.06a.13.13,0,0,0-.13-.06,3.4,3.4,0,0,0-.43.11,1.5,1.5,0,0,0-.13-.38A.51.51,0,0,0,113.24,34.73Zm.07-4.07-.2-.16a.11.11,0,0,0-.12,0v-.21a.54.54,0,0,0,.07-.13s0-.1.07-.14a2.82,2.82,0,0,0,.15.57Zm.42,2.48a.5.5,0,0,0,.53-.2h0c-.1.29-.19.58-.27.88a2,2,0,0,0-.22.2c-.09-.18-.2-.37-.3-.55a1.19,1.19,0,0,1-.06-.14.61.61,0,0,1-.07-.1l.08-.13,0-.05A1.52,1.52,0,0,0,113.73,33.14ZM114.82,31a1.3,1.3,0,0,0,.09-.42l0,0a.58.58,0,0,0,.16.21,1.54,1.54,0,0,0-.1.33c-.15.31-.28.62-.41.93a1.33,1.33,0,0,0-.16.17,1.26,1.26,0,0,0-.23-.68c-.11-.13-.23-.26-.35-.38a1.61,1.61,0,0,0,.38.14A.51.51,0,0,0,114.82,31Zm-.42,4.3s0-.1,0-.15a1.69,1.69,0,0,0,.53-.26,1.85,1.85,0,0,0,.27-.19,2.69,2.69,0,0,0-.14.56A2.69,2.69,0,0,0,114.4,35.33Zm.73.86a.67.67,0,0,0,.37.44l-.22.19a3.05,3.05,0,0,0-.27-.51Zm0-4.42v0h0Zm.78-2.57-.11.24-.26.09s-.58.26-.69.69a.56.56,0,0,0,0-.12,1.21,1.21,0,0,0-.09-.72,1.31,1.31,0,0,0,.4.15.52.52,0,0,0,.6-.32s0-.05,0-.08A.41.41,0,0,0,115.93,29.2Zm.46,6.17a.71.71,0,0,0,.32-.18.49.49,0,0,0,0,.12c0,.21.08.27-.1.41l-.22.18,0,0a2.14,2.14,0,0,0,0-.28c0-.09,0-.18,0-.26Zm.51-1.66c0,.15-.06.3-.08.46h0a3.08,3.08,0,0,0-.32-.68,1.47,1.47,0,0,1,.1-.13A.68.68,0,0,0,116.9,33.71Zm.2,3.78a3.2,3.2,0,0,0-.91,0,1.93,1.93,0,0,0-.44.17c.2-.22.41-.44.62-.65a.58.58,0,0,0,.61.28.53.53,0,0,0,.11.15Zm.92-3.13-.21.24-.18,0a1.73,1.73,0,0,0-.4.15c0-.35,0-.69.09-1a.56.56,0,0,0,.4-.43l.16.15a.56.56,0,0,0-.1.64A.51.51,0,0,0,118,34.36Zm.53,1.5.2.17a2.85,2.85,0,0,0-.12.29l-.16,0a1.38,1.38,0,0,0,.13-.22.13.13,0,0,0-.08-.17l-.15,0,.12-.06Zm1.84-6.72h0Zm.48,2.89h0a3.06,3.06,0,0,0-1.13.38l.12-.37a.58.58,0,0,0,.43,0A1.43,1.43,0,0,0,120.87,32Zm0,2a.1.1,0,0,0-.07.07,1.89,1.89,0,0,0-.1.31.14.14,0,0,0-.17,0,3.73,3.73,0,0,0-.26.31,3,3,0,0,0-.74-.13,1.21,1.21,0,0,0-.48.07,2.51,2.51,0,0,0-.48-.1l.17-.25.15-.07a3.09,3.09,0,0,0,.56-.4.64.64,0,0,0,.24,0,1.2,1.2,0,0,0,.69,0l.24-.07A.52.52,0,0,0,120.91,34.07Zm-1.07,2.73h0a2.62,2.62,0,0,0-.2-.56l.1,0,.11,0a.65.65,0,0,0,.53.71h.13l0,.2a3.36,3.36,0,0,0-.56.12v0c0-.08,0-.16,0-.23A.11.11,0,0,0,119.84,36.8Zm1.41-2.69-.06.15L121,34.1h.24Zm-.19,2.63h0Zm.59-6.63-.2,0,.09-.11Zm.31,3.57a2,2,0,0,0-.15.26l-.18.07c0-.07.05-.14.07-.21a1.17,1.17,0,0,0,.14-.3A.57.57,0,0,0,122,33.68Zm-.19,4.11.09,0a.65.65,0,0,0,0,.13l-.07-.09Zm.35-5.08,0,0,0-.06Zm.27-2.67,0,0h0Zm.94,2.27a.55.55,0,0,0,.14.26l-.13.16-.19-.06A2,2,0,0,0,123.33,32.31Zm.83-2.17a.94.94,0,0,0,0,.16l-.19-.09V30A.94.94,0,0,0,124.16,30.14ZM125.62,37h0c-.19.32-.39.63-.6.94a1.79,1.79,0,0,0-.21-.47,1.13,1.13,0,0,0-.1-.13h0A3.52,3.52,0,0,0,125.62,37Zm-.2-1.08-.06,0v0c0-.08-.08-.16-.13-.24h0Zm1-5.78a3,3,0,0,0-.36.76c-.05-.14-.1-.25-.1-.25a3.4,3.4,0,0,0-.38-.54.66.66,0,0,0,0-.14l0,0a.58.58,0,0,0,.65.26Zm.88.7-.15,0a3,3,0,0,0-.18-.36.6.6,0,0,0,.31.15A1.11,1.11,0,0,0,127.25,30.83ZM127,35.59l.06-.23a3.06,3.06,0,0,0,1.18-.51,4.51,4.51,0,0,0-.58.8h0a.12.12,0,0,0-.12-.15A2.29,2.29,0,0,0,127,35.59Zm.33.89s0,.06,0,.09l-.12.11A1.37,1.37,0,0,0,127.31,36.48Zm0-2.43,0-.14.14,0a.85.85,0,0,0,0,.17Zm.91-2.48s0,.08,0,.13l-.05.07c-.17.19-.34.38-.49.57a1.05,1.05,0,0,0-.56.27v0a1.11,1.11,0,0,0,.07-.22v0a1.16,1.16,0,0,0,.19-.08A3,3,0,0,0,128.25,31.57Zm.28.62-.18.15-.22,0,.22-.28A.55.55,0,0,0,128.53,32.19Zm.09-1.06-.09.05.06-.09Zm1.12,1a3.77,3.77,0,0,0-.33.59l-.15-.08c0-.12,0-.24,0-.34l.11,0Zm1,4.86.23-.14a.74.74,0,0,0,.33.28l-.2,0A3,3,0,0,0,130.72,37Zm-1.18-.09s0-.06,0-.09a1.2,1.2,0,0,0,.23-.22l.1,0a1.22,1.22,0,0,0,1.05-.28.78.78,0,0,0-.05.18v.11a4.44,4.44,0,0,0-.49.24A1.23,1.23,0,0,0,129.54,36.86Zm-1.1-2a.09.09,0,0,0-.11-.05l0,0a.14.14,0,0,0,0-.21,1.21,1.21,0,0,0,.74-.77,1.12,1.12,0,0,0,.06-.23,1.1,1.1,0,0,0,.35.82v0a2.91,2.91,0,0,0-.81,1.11A5.69,5.69,0,0,0,128.44,34.81ZM127.13,40v0l0,0Zm-.32-.57a1.35,1.35,0,0,0,.33-.41c.49-.11.67-.83.67-.83a3.94,3.94,0,0,0,.07-.55.41.41,0,0,0,.16,0,.57.57,0,0,0,.3.39h0a5.84,5.84,0,0,1-.49.51c-.14.14-.3.27-.45.4a.61.61,0,0,0-.33.25Zm0-9.21-.15-.19,0,0,.16,0A.44.44,0,0,0,126.77,30.26Zm-1.06,4.23a1.64,1.64,0,0,0-.32-.05c.43,0,.56-.43.61-.73a1.56,1.56,0,0,0,.3.2.54.54,0,0,0,.43,0,.07.07,0,0,0,0,0h0S125.89,34,125.71,34.49Zm.22.73a1,1,0,0,0,.46.17c-.07.19-.14.38-.22.56l-.06,0c-.13-.21-.27-.41-.4-.61ZM125.62,41l.2-.1a.79.79,0,0,0,.27.21h0a.38.38,0,0,0-.13.09A2.77,2.77,0,0,0,125.62,41Zm-1-.42a1.69,1.69,0,0,0,.27-.55,3.53,3.53,0,0,0,.06-.42l.15-.21a.57.57,0,0,0,.32.5.63.63,0,0,0,.81-.25.5.5,0,0,0,.34,0A12.46,12.46,0,0,1,124.6,40.56Zm0-9a1.85,1.85,0,0,1,0-.26h0a2.47,2.47,0,0,0,.18.31Zm-.17,0h-.15a1.19,1.19,0,0,0-.84.31,2.18,2.18,0,0,0,0-.25.91.91,0,0,0,.17-.17,3.27,3.27,0,0,0,.84-.19h0C124.45,31.34,124.43,31.44,124.42,31.53Zm-.11,1.28a.43.43,0,0,1,0,.07l-.28-.05v0a2,2,0,0,0,.32,0Zm-.29,2s0,0,0,0l-.11-.1a1.07,1.07,0,0,0,.16-.27.35.35,0,0,1,0,.08.54.54,0,0,0,.16.14A.72.72,0,0,0,124,34.79Zm-.22,1,.21-.24h0c0,.08,0,.17,0,.27Zm-.48,0a.81.81,0,0,0-.71.56l-.12.1a2.13,2.13,0,0,0-.37,0,1.18,1.18,0,0,0,.07-.2h.08c.58,0,.66-.64.67-.94a.52.52,0,0,0,.42-.09,2.15,2.15,0,0,0,.53-.21.61.61,0,0,0,0,.27A7.27,7.27,0,0,1,123.32,35.83Zm-.29,1.3h0Zm-.38,2.76a.56.56,0,0,0,.49.16l-.3.26-.08,0A2.46,2.46,0,0,0,122.65,39.89Zm-1.92-.63h0l.35-.08c.12.26.41.69.88.52s.34-.95.28-1.11h0a1.15,1.15,0,0,0,.65.17c-.11.1-.57.52-.38,1a.13.13,0,0,0-.12,0,2.53,2.53,0,0,0-.61.6l-.09-.15A3.08,3.08,0,0,0,120.73,39.26Zm-1.08,2.85a14.78,14.78,0,0,0,.66-1.59c0,.12.1.25.16.38a1.61,1.61,0,0,0,.57.59C120.59,41.71,120.12,41.91,119.65,42.11Zm-.14-3.06a1,1,0,0,0,0-.17l.1,0a.48.48,0,0,0,.12.16Zm-5,.3a12.49,12.49,0,0,1,.85-1.17.59.59,0,0,0,0,.19.51.51,0,0,0,.07.67,1.23,1.23,0,0,0,1.09.36,4.16,4.16,0,0,0,.16.4s.51.94,1.16.55.08-1.28.08-1.28l-.17-.22.13-.09.06.13a1.13,1.13,0,0,0,.65.58.75.75,0,0,0-.31,1c.27.46.79.31,1.08.18l-.36.7a6.67,6.67,0,0,1-.91,1.5,6.75,6.75,0,0,1-.88.59,6.73,6.73,0,0,0-.75.65,6.51,6.51,0,0,0-1.83,3.44,8.93,8.93,0,0,1-1.34-4.15A6.52,6.52,0,0,1,114.48,39.35Zm-2.08-1.63a1.64,1.64,0,0,0,.53-.41,3.34,3.34,0,0,0,.32-.48.6.6,0,0,0,.35.16c0,.17,0,.35,0,.52a7.75,7.75,0,0,1,.07,1c0,.2-.24.42-.37.61s-.31.46-.45.7A13.06,13.06,0,0,0,112.4,37.72Zm-.49-4.58h-.06a1.59,1.59,0,0,0-.57-.55,3.34,3.34,0,0,0-.81-.27,1.13,1.13,0,0,0,.1-.13l.15,0a1.32,1.32,0,0,0,.92.09.49.49,0,0,0,.39-.41h.17v0a1.71,1.71,0,0,1,.13.23l0,.06-.17-.09a.14.14,0,0,0-.19.1A2.69,2.69,0,0,0,111.91,33.14Zm-.59,1.63c0,.08,0,.18,0,.27l-.15,0-.08-.16A1.16,1.16,0,0,0,111.32,34.77Zm.57,1.56v0h0l-.06-.12Zm-4.85,3c.66.21,1-.72,1-.72a1.26,1.26,0,0,0,1.12-.48h0a3.84,3.84,0,0,0,.79,1.17,1.25,1.25,0,0,0,1.19.28.52.52,0,0,0,.39-.56,1.23,1.23,0,0,0-.66-1,3.91,3.91,0,0,0-1.42-.36,4,4,0,0,0,.2-.5h0a3.48,3.48,0,0,0,.26.3s.75.76,1.27.2l.05-.07c.67,2.38.32,4.9.6,7.33-.58-.41-1.17-.8-1.75-1.2s-1-.52-1.44-.85a3.9,3.9,0,0,1-1.59-2.58C107.07,40,107.05,39.65,107,39.33ZM107,37.38a1.4,1.4,0,0,0,.26-.57,2.77,2.77,0,0,0,0-.39,2.1,2.1,0,0,0,.15.3.58.58,0,0,0,.26.21,2.93,2.93,0,0,0-.68.66A1.49,1.49,0,0,0,107,37.38ZM98,35.7v0l0,0Zm.59-.11h-.24a.68.68,0,0,0,.12-.12Zm2.06-.66a2.91,2.91,0,0,0-.34.73,1.08,1.08,0,0,0,0,.16v-.09a.59.59,0,0,0,0-.27,2,2,0,0,0-.13-.47.56.56,0,0,0,.46-.1v0Zm.35,1.82c0,.12.07.24.1.36l0,.09a.65.65,0,0,0-.07.16c-.28-.35-.57-.7-.85-1.06a.59.59,0,0,0,.12-.27.61.61,0,0,0,.74.72Zm.11-2.35h0l-.17.16a1.43,1.43,0,0,0,.11-.21Zm.45-1.24-.31,0s0-.1,0-.15a.79.79,0,0,0,.22,0A.81.81,0,0,0,101.56,33.16Zm.86,2.22-.21.31a2.52,2.52,0,0,0-.48,0,.12.12,0,0,0-.1.16,1.91,1.91,0,0,0,.17.39,2.64,2.64,0,0,0-.42.45l-.06-.16a1.47,1.47,0,0,0,.25-.57,2.74,2.74,0,0,0,0-.48.49.49,0,0,0,.41,0,1.06,1.06,0,0,0,.27-.18Zm.49,3.54c0-.05,0-.09,0-.14l.19.12a.08.08,0,0,0,0,0,1.39,1.39,0,0,0-.09.38,1.34,1.34,0,0,0-.2.21l-.09-.12A1.68,1.68,0,0,0,102.91,38.92Zm1-2.49h-.13a.08.08,0,0,0-.06,0,1.46,1.46,0,0,0-.16-.19,2.61,2.61,0,0,0,0-.4.92.92,0,0,0,.37,0h0A1.24,1.24,0,0,0,103.92,36.43Zm.28,1h0l-.24.23-.15-.07a2.89,2.89,0,0,0-1-.17h0l.2-.13a.6.6,0,0,0,.68-.24.48.48,0,0,0,.08-.18A3,3,0,0,0,104.2,37.48ZM104,31.6a2.92,2.92,0,0,0-.4.3h0a1.75,1.75,0,0,0-.24-.23v0a2.69,2.69,0,0,0,0-.56h0A1,1,0,0,0,104,31.6Zm.28,3h0a2.71,2.71,0,0,0-.46-.07,2,2,0,0,0-.27-.12,3.66,3.66,0,0,0-.78-.15v-.08a.15.15,0,0,1,0-.07.69.69,0,0,0,.32,0l0,0a.67.67,0,0,0,.82-.3c.11.22.21.45.3.68Zm.33,3.65h0a3.67,3.67,0,0,0-.15-.54l.12.1A.94.94,0,0,0,104.59,38.24Zm.14-7.58h0Zm.47.16-.24-.09h.19Zm.08.18a2.57,2.57,0,0,0-.54-.17.36.36,0,0,0,0-.11l.56.27Zm-.4,1.78a2.83,2.83,0,0,0,0-.29c.1.18.18.35.26.53l-.13.12-.22-.1A2.1,2.1,0,0,0,104.88,32.78Zm1.29-.64a2.91,2.91,0,0,0-.38.79h0l0-.12a.13.13,0,0,0-.2-.07l-.14.09a3,3,0,0,0-.19-.3.68.68,0,0,0,.8-.28l.07-.16Zm-.44,2.42v0c0,.13.07.25.11.38l-.19-.09h0C105.69,34.66,105.73,34.56,105.73,34.56Zm.79-.07a2,2,0,0,0-.13.51c-.13-.38-.28-.75-.44-1.12a.67.67,0,0,0,.43.15A1.31,1.31,0,0,0,106.52,34.49Zm-.21,3.09a8.49,8.49,0,0,1,0,.87c-.12-.16-.23-.33-.34-.5a.55.55,0,0,0,0-.1,3.71,3.71,0,0,0,.12-.41A.51.51,0,0,0,106.31,37.58Zm-.21-1.36v0h0Zm-1.37,5.19a5.32,5.32,0,0,1-1-.78c0-.09.05-.18.07-.27l.12,0a1.24,1.24,0,0,0,.71-1v0a3.19,3.19,0,0,0,.65.44,1.4,1.4,0,0,0,.9.1,4.91,4.91,0,0,0,.52,2.41A8,8,0,0,1,104.73,41.41Zm-3.06,1.36c0-.11,0-.21,0-.28a.51.51,0,0,0,.61-.19,1.29,1.29,0,0,0,.23-.94l.11.06a.61.61,0,0,0,.61-.06,7.1,7.1,0,0,0,1.34,1.09A12.85,12.85,0,0,1,101.67,42.77Zm-1.14-2.43a.66.66,0,0,0,.06-.2,1,1,0,0,0,.43.08.75.75,0,0,0,0,.16A2.42,2.42,0,0,0,100.53,40.34ZM100,42.12a.93.93,0,0,0,.2-.83l.23.2a3.51,3.51,0,0,0-.18.84A2.52,2.52,0,0,1,100,42.12Zm-.19-4.88a.57.57,0,0,0,.3-.24l0,0,.11.16c.47.71.91,1.45,1.38,2.17a.57.57,0,0,0,.23.35q.23.33.48.66a1.39,1.39,0,0,0-.09.41,5.11,5.11,0,0,0-.73-.89c.16-.51-.53-.92-.53-.92l-.21-.1a.48.48,0,0,0,.1-.17c.3-.7-.7-1.07-.7-1.07a2.93,2.93,0,0,0-.37-.1Zm-.74-3.32a.15.15,0,0,0-.21.07.25.25,0,0,1,0,.07l0,0c0-.09,0-.2-.07-.3a1.12,1.12,0,0,0,.33-.76.52.52,0,0,0,.39.28l.13,0v0a.9.9,0,0,0,.14.58,1.43,1.43,0,0,0-.06.52A3.13,3.13,0,0,0,99.07,33.92Zm-.69,7.25h.06a.52.52,0,0,0,.29-.08,4,4,0,0,0,.21.47.7.7,0,0,0,.06.17A3.73,3.73,0,0,1,98.38,41.17ZM98,42a.55.55,0,0,0,.17-.4,4.89,4.89,0,0,0,.39.4l-.1,0A3.39,3.39,0,0,0,98,42Zm-.2-2.56-.13-.11a1.5,1.5,0,0,0,0-.51,2.67,2.67,0,0,0-.48-.91h0l.21.07a.57.57,0,0,0,.42.33.58.58,0,0,0,.38,0c0,.08,0,.17,0,.26A2.56,2.56,0,0,0,97.77,39.42Zm-1.21,1.52a.51.51,0,0,0,.17-.43v-.07a1.41,1.41,0,0,0,.75.11l.06.13.13.24a1.54,1.54,0,0,0-.63-.07A3.41,3.41,0,0,0,96.56,40.94Z" transform="translate(-8.84)"/><path class="rrr_eqt_cls-4" d="M88,46.89A27.54,27.54,0,1,0,115.5,19.35,27.54,27.54,0,0,0,88,46.89Zm13.71,18L133.5,33.06a22.7,22.7,0,0,1-31.83,31.83Zm-8.87-18a22.7,22.7,0,0,1,36.53-18L97.5,60.71A22.62,22.62,0,0,1,92.8,46.89Z" transform="translate(-8.84)"/></g></g></svg>